<svg width="1920" height="1080" viewBox="0 0 1920 1080" fill="none" xmlns="http://www.w3.org/2000/svg">
<rect width="1920" height="1080" fill="#E0D0DE"/>
<g opacity="0.5" filter="url(#filter0_i_143_5658)">
<path d="M1325.58 517L1369.91 471.549L1133.34 214.893C1122.09 203.429 1116.89 178.523 1116.82 162.26C1116.76 145.996 1122.99 130.369 1134.15 118.809C1145.38 107.298 1160.6 100.832 1176.48 100.832C1192.36 100.832 1207.59 107.298 1218.82 118.809L1309.97 212.406L1398.34 117.717C1403.84 111.856 1410.41 107.172 1417.68 103.934C1424.96 100.696 1432.78 98.97 1440.71 98.8548C1448.64 98.7396 1456.51 100.238 1463.87 103.263C1471.23 106.288 1477.93 110.78 1483.59 116.478L1484.3 117.207C1495.53 128.721 1501.83 144.337 1501.83 160.618C1501.83 176.9 1495.53 192.515 1484.3 204.03L1407.46 284.075L1452.28 329.235L1529.48 248.971C1540.82 237.244 1549.79 223.341 1555.89 208.056C1561.98 192.771 1565.08 176.404 1565 159.891C1564.92 143.378 1561.67 127.043 1555.43 111.82C1549.18 96.597 1540.08 82.7848 1528.63 71.1731L1527.92 70.4449C1516.34 58.6728 1502.59 49.3868 1487.48 43.131C1472.36 36.8752 1456.17 33.7753 1439.87 34.0127C1423.57 34.2501 1407.48 37.8201 1392.54 44.5136C1377.6 51.2072 1364.12 60.8896 1352.88 72.994L1309.04 120.12L1263.65 73.2127C1252.26 61.4833 1238.72 52.176 1223.81 45.8253C1208.9 39.4747 1192.91 36.2055 1176.77 36.2055C1160.62 36.2055 1144.64 39.4747 1129.73 45.8253C1114.82 52.176 1101.28 61.4833 1089.89 73.2127L1089.46 73.6497C1066.61 97.3392 1053.85 129.358 1054 162.678C1054.15 195.998 1066.02 237.231 1089.08 260.708L1325.58 517Z" fill="#E0C7DD"/>
</g>
<g filter="url(#filter1_i_143_5658)">
<path d="M1368.99 427L1378.62 417.119L1327.23 361.325C1324.79 358.832 1323.66 353.418 1323.65 349.883C1323.63 346.347 1324.99 342.95 1327.41 340.437C1329.85 337.934 1333.16 336.529 1336.61 336.529C1340.06 336.529 1343.36 337.934 1345.8 340.437L1365.6 360.784L1384.8 340.199C1385.99 338.925 1387.42 337.907 1389 337.203C1390.58 336.499 1392.28 336.124 1394 336.099C1395.72 336.074 1397.43 336.4 1399.03 337.057C1400.63 337.715 1402.09 338.691 1403.32 339.93L1403.47 340.088C1405.91 342.592 1407.28 345.986 1407.28 349.526C1407.28 353.065 1405.91 356.46 1403.47 358.963L1386.78 376.364L1396.52 386.181L1413.28 368.733C1415.75 366.184 1417.7 363.161 1419.02 359.838C1420.34 356.515 1421.02 352.957 1421 349.368C1420.98 345.778 1420.28 342.227 1418.92 338.917C1417.56 335.608 1415.59 332.605 1413.1 330.081L1412.94 329.923C1410.43 327.364 1407.44 325.345 1404.16 323.985C1400.88 322.625 1397.36 321.951 1393.82 322.003C1390.28 322.054 1386.78 322.83 1383.54 324.286C1380.29 325.741 1377.36 327.846 1374.92 330.477L1365.4 340.722L1355.54 330.525C1353.07 327.975 1350.12 325.951 1346.89 324.571C1343.65 323.19 1340.17 322.479 1336.67 322.479C1333.16 322.479 1329.69 323.19 1326.45 324.571C1323.21 325.951 1320.27 327.975 1317.8 330.525L1317.7 330.62C1312.74 335.769 1309.97 342.73 1310 349.973C1310.03 357.217 1312.61 366.181 1317.62 371.284L1368.99 427Z" fill="#511B4B"/>
</g>
<defs>
<filter id="filter0_i_143_5658" x="1054" y="34" width="511" height="487" filterUnits="userSpaceOnUse" color-interpolation-filters="sRGB">
<feFlood flood-opacity="0" result="BackgroundImageFix"/>
<feBlend mode="normal" in="SourceGraphic" in2="BackgroundImageFix" result="shape"/>
<feColorMatrix in="SourceAlpha" type="matrix" values="0 0 0 0 0 0 0 0 0 0 0 0 0 0 0 0 0 0 127 0" result="hardAlpha"/>
<feOffset dy="4"/>
<feGaussianBlur stdDeviation="2"/>
<feComposite in2="hardAlpha" operator="arithmetic" k2="-1" k3="1"/>
<feColorMatrix type="matrix" values="0 0 0 0 0 0 0 0 0 0 0 0 0 0 0 0 0 0 0.25 0"/>
<feBlend mode="normal" in2="shape" result="effect1_innerShadow_143_5658"/>
</filter>
<filter id="filter1_i_143_5658" x="1310" y="322" width="111" height="109" filterUnits="userSpaceOnUse" color-interpolation-filters="sRGB">
<feFlood flood-opacity="0" result="BackgroundImageFix"/>
<feBlend mode="normal" in="SourceGraphic" in2="BackgroundImageFix" result="shape"/>
<feColorMatrix in="SourceAlpha" type="matrix" values="0 0 0 0 0 0 0 0 0 0 0 0 0 0 0 0 0 0 127 0" result="hardAlpha"/>
<feOffset dy="4"/>
<feGaussianBlur stdDeviation="2"/>
<feComposite in2="hardAlpha" operator="arithmetic" k2="-1" k3="1"/>
<feColorMatrix type="matrix" values="0 0 0 0 1 0 0 0 0 1 0 0 0 0 1 0 0 0 0.25 0"/>
<feBlend mode="normal" in2="shape" result="effect1_innerShadow_143_5658"/>
</filter>
</defs>
</svg>
