<svg width="114" height="137" viewBox="0 0 114 137" fill="none" xmlns="http://www.w3.org/2000/svg">
<path d="M79.933 26L76.5628 23.9839C76.4243 23.8852 76.2498 23.7702 76.0439 23.6371C73.7515 22.1313 68.3809 18.6038 68.3809 12.6195C68.3809 9.51705 70.948 7.00235 74.1155 7.00235C76.8986 7.00235 79.2184 8.94493 79.7397 11.5215C80.2609 8.94258 82.5808 7 85.3639 7C88.5314 7 91.0985 9.51471 91.0985 12.6172C91.0985 18.6515 85.9118 22.1962 83.6969 23.7099C83.5497 23.8109 83.4167 23.9017 83.3055 23.9823L79.933 26Z" fill="#BA68C8"/>
<path opacity="0.3" d="M79.933 26L76.5628 23.9839C76.4243 23.8852 76.2498 23.7702 76.0439 23.6371C73.7515 22.1313 68.3809 18.6038 68.3809 12.6195C68.3809 9.51705 70.948 7.00235 74.1155 7.00235C76.8986 7.00235 79.2184 8.94493 79.7397 11.5215C80.2609 8.94258 82.5808 7 85.3639 7C88.5314 7 91.0985 9.51471 91.0985 12.6172C91.0985 18.6515 85.9118 22.1962 83.6969 23.7099C83.5497 23.8109 83.4167 23.9017 83.3055 23.9823L79.933 26Z" fill="white"/>
<path d="M21.249 104.748C21.218 104.736 21.1901 104.717 21.167 104.693C21.1439 104.669 21.1262 104.64 21.1151 104.608C18.2804 96.0375 8.99532 91.3113 5.02794 89.2969C4.38624 88.9677 3.87846 88.711 3.54924 88.5157C2.86667 88.1606 2.29089 87.6303 1.88099 86.9792C1.4711 86.3281 1.24186 85.5796 1.2168 84.8106C1.25285 84.1369 1.46917 83.4853 1.84315 82.9239C2.21714 82.3624 2.73505 81.9117 3.34278 81.6188C6.59592 79.8221 13.0408 82.7906 17.968 88.4264C24.9039 96.2942 24.106 103.308 24.0725 103.381C24.0685 103.418 24.0551 103.453 24.0336 103.483C24.0121 103.514 23.9832 103.538 23.9497 103.554L21.4443 104.742H21.355C21.3202 104.75 21.2844 104.752 21.249 104.748ZM17.6108 88.711C12.8065 83.2593 6.64056 80.3131 3.57714 82.015C3.03894 82.2654 2.57877 82.6572 2.24565 83.1485C1.91253 83.6398 1.71894 84.2123 1.68552 84.805C1.71253 85.4961 1.92254 86.1676 2.29411 86.7509C2.66567 87.3343 3.18546 87.8085 3.80034 88.1251C4.1184 88.3148 4.61502 88.5715 5.25114 88.8951C9.2241 90.9151 18.4869 95.6302 21.4778 104.218L23.6428 103.208C23.693 102.276 23.9162 95.8701 17.6108 88.711Z" fill="#BA68C8"/>
<path d="M22.779 104.09C22.8089 104.086 22.8376 104.076 22.8634 104.06C22.8891 104.045 22.9114 104.024 22.9287 103.999C22.946 103.974 22.958 103.946 22.9639 103.917C22.9698 103.887 22.9696 103.857 22.9632 103.828C20.8372 93.5715 11.1447 85.2573 5.66515 84.2585C5.60608 84.2466 5.54472 84.258 5.4938 84.2902C5.44289 84.3224 5.40634 84.373 5.39173 84.4315C5.38197 84.4906 5.39578 84.5512 5.43022 84.6002C5.46465 84.6493 5.51695 84.6828 5.57587 84.6937C10.9941 85.6814 20.4856 94.1797 22.5056 103.917C22.5214 103.975 22.5582 104.024 22.6088 104.056C22.6593 104.088 22.7201 104.1 22.779 104.09Z" fill="#BA68C8"/>
<path d="M23.855 103.576C23.8897 103.572 23.9236 103.563 23.9554 103.548L25.6294 102.661C25.6626 102.645 25.6912 102.62 25.7127 102.59C25.7341 102.56 25.7477 102.525 25.7522 102.488C25.7522 102.388 26.7064 91.9809 21.383 79.3087C18.6767 72.8582 13.0744 67.1666 8.06916 65.7772C7.0069 65.4311 5.87995 65.3306 4.77323 65.4834C3.66651 65.6361 2.60889 66.038 1.68006 66.6588C1.22334 66.9136 0.833499 67.2729 0.542516 67.7075C0.251532 68.142 0.0676872 68.6393 0.00605609 69.1587C-0.166924 71.798 3.39312 74.9451 7.17078 78.2764C9.81012 80.6032 12.5387 83.0138 14.0621 85.3239C14.0972 85.3743 14.1499 85.4097 14.2098 85.4231C14.2697 85.4365 14.3325 85.427 14.3857 85.3965C14.436 85.3653 14.4719 85.3155 14.4855 85.258C14.4991 85.2005 14.4893 85.1399 14.4583 85.0896C12.907 82.7292 10.1505 80.2963 7.48884 77.9472C3.80046 74.694 0.312956 71.6194 0.474776 69.1865C0.529231 68.7348 0.690161 68.3025 0.944324 67.9252C1.19849 67.5478 1.53862 67.2362 1.93674 67.0159C2.80755 66.4372 3.79839 66.0636 4.83457 65.9235C5.87074 65.7833 6.92521 65.8802 7.9185 66.2068C12.801 67.5572 18.275 73.1372 20.9366 79.4761C25.9196 91.328 25.3672 101.166 25.2835 102.354L23.7099 103.18C23.672 103.209 23.6449 103.25 23.6328 103.297C23.6207 103.343 23.6242 103.392 23.6429 103.437C23.6617 103.477 23.6915 103.512 23.729 103.537C23.7665 103.561 23.8101 103.575 23.855 103.576Z" fill="#BA68C8"/>
<path d="M22.8903 97.2648C22.9202 97.2621 22.9493 97.2533 22.9757 97.2391C23.0021 97.2249 23.0254 97.2055 23.0442 97.182C23.0629 97.1586 23.0768 97.1316 23.0849 97.1027C23.0929 97.0738 23.0951 97.0435 23.0912 97.0137C20.8592 80.9378 8.67808 70.1851 5.4361 68.5557C5.38108 68.5275 5.31729 68.5216 5.25803 68.5393C5.19877 68.557 5.14862 68.5969 5.11804 68.6506C5.10387 68.6768 5.09522 68.7056 5.09262 68.7353C5.09003 68.7649 5.09355 68.7948 5.10297 68.823C5.11238 68.8513 5.12749 68.8773 5.14736 68.8994C5.16723 68.9216 5.19144 68.9395 5.21848 68.9519C8.41582 70.5367 20.4072 81.1442 22.6281 97.0528C22.6292 97.0848 22.6371 97.1161 22.6514 97.1447C22.6657 97.1734 22.6859 97.1986 22.7108 97.2187C22.7357 97.2388 22.7646 97.2533 22.7956 97.2613C22.8265 97.2692 22.8589 97.2705 22.8903 97.2648Z" fill="#BA68C8"/>
<path d="M36.1973 33.0703C41.2806 33.0703 43.3285 34.6104 47.3573 38.455C50.8001 41.7751 60.42 50.7031 60.42 50.7031C60.42 50.7031 63.2101 65.2111 60.1857 65.2111C57.1613 65.2111 42.7705 53.2309 42.7705 53.2309L36.1973 33.0703Z" fill="#FFA8A7"/>
<path d="M59.8133 50.145C58.4183 52.1873 57.6761 60.6466 57.6761 60.6466C56.6578 58.7701 56.2135 56.6356 56.3983 54.5086C56.6297 52.5338 57.4546 50.6757 58.7642 49.1797L59.8133 50.145Z" fill="#F28F8F"/>
<path d="M79.8954 31.7699C80.0126 30.5088 81.7647 30.3023 82.2502 29.2868C82.3257 29.1466 82.3622 28.9887 82.3557 28.8296C82.3492 28.6704 82.3 28.516 82.2133 28.3824C82.1265 28.2489 82.0054 28.1411 81.8627 28.0705C81.7199 27.9999 81.5608 27.969 81.402 27.9811C80.6431 27.9811 79.9903 28.4498 79.3095 28.712C78.5041 28.9936 77.6493 29.1056 76.7985 29.0413C75.0129 28.9464 72.8925 29.1919 71.8379 30.8436C72.262 30.8503 72.6844 30.8989 73.099 30.9887C75.3644 31.2509 77.6299 31.4965 79.8954 31.7699Z" fill="#F28F8F"/>
<path d="M85.8662 28.9407C85.6933 29.097 85.5314 29.2644 85.3752 29.4262C85.219 29.588 84.9567 29.8391 84.7558 30.0567C84.661 30.1572 84.5661 30.2688 84.4768 30.3748C84.3875 30.4808 84.2759 30.7207 84.2257 30.7263C83.5729 30.8379 82.6745 30.7263 81.7259 31.2843C80.7773 31.8423 80.6099 32.0823 78.8912 31.5856C77.7139 31.2508 76.1347 30.4362 74.6895 30.3022C73.2443 30.1683 71.866 30.3022 70.9844 31.9762C70.1027 33.6502 70.4933 35.0285 69.5168 36.6802C68.7914 37.8687 68.1888 38.9847 64.1098 44.7321C61.1134 48.9562 57.4752 51.6402 57.1683 55.9981C57.0232 58.046 57.1292 63.8994 58.7028 64.7141C60.8399 65.8301 64.9747 65.6069 67.7926 60.2836C69.1496 57.8407 70.2833 55.2802 71.1797 52.6334C72.039 50.0275 72.7588 48.3926 74.1427 44.6986C75.3982 41.3506 76.3189 39.565 77.3288 38.5606C78.4534 37.5329 79.8142 36.7988 81.2906 36.4235C83.0204 36.0608 83.0986 36.3286 84.6107 34.889C85.5872 33.9013 87.0827 33.148 87.9587 32.5231C88.8041 31.8878 89.5555 31.1364 90.1907 30.2911C90.5945 29.6957 91.0481 29.1357 91.5467 28.6171C91.6945 28.5125 91.8026 28.3611 91.8536 28.1874C91.8589 28.1235 91.8507 28.0592 91.8296 27.9986C91.8084 27.938 91.7748 27.8826 91.7308 27.8359C91.6418 27.7412 91.5333 27.6669 91.4128 27.6183C91.4741 27.6183 91.8926 27.3058 91.9708 27.2611C92.117 27.1371 92.2718 27.0233 92.4339 26.9208C92.5511 26.8482 92.6683 26.7143 92.6236 26.5748C92.5867 26.4976 92.5234 26.4362 92.4451 26.4018C92.1342 26.2228 91.7754 26.1448 91.4183 26.1786C90.9499 26.2731 90.4959 26.4289 90.068 26.6418C90.0052 26.6721 89.9368 26.6892 89.8671 26.692C89.7752 26.6855 89.6848 26.6648 89.5993 26.6306C89.4558 26.599 89.3075 26.5961 89.163 26.6219C89.0184 26.6478 88.8803 26.7019 88.7567 26.7813C88.3221 27.0751 87.9048 27.3937 87.5068 27.7354C87.2501 27.9252 86.9488 28.0702 86.7088 28.2488C86.4101 28.4568 86.1284 28.6882 85.8662 28.9407Z" fill="#FFA8A7"/>
<path d="M81.6916 31.7974C81.4572 31.7974 81.2228 31.7974 80.9829 31.7974H80.7876C81.202 31.6272 81.6046 31.4296 81.9929 31.206C82.6904 30.8321 83.4046 30.9102 84.1747 30.8042C84.2656 30.7718 84.3451 30.7136 84.4034 30.6368C85.1937 29.5367 86.1883 28.5989 87.3329 27.8747C88.0472 27.4171 88.6052 26.5132 89.5649 26.6304C88.6387 26.4127 87.9746 27.3725 87.2548 27.7464C86.088 28.4283 85.0632 29.3281 84.236 30.3969C84.236 30.4359 84.1858 30.475 84.1579 30.5085C83.3512 30.5119 82.5524 30.6671 81.8032 30.966C81.4377 31.1864 81.0529 31.3732 80.6537 31.524C78.9295 31.7082 77.3057 30.5531 75.6317 30.235C73.8963 29.8165 71.7257 30.023 70.9668 31.909C72.1721 29.8891 74.1362 30.0955 76.0781 30.6982C75.2485 30.529 74.3856 30.6848 73.6675 31.1334C73.2853 31.4064 72.9641 31.7561 72.7245 32.1601C72.4859 32.5572 72.3267 32.9969 72.2558 33.4547C72.4662 33.0322 72.7009 32.6224 72.9589 32.2271C73.2261 31.9021 73.538 31.6166 73.8851 31.3789C74.5918 30.9437 75.4103 30.7246 76.2399 30.7484C77.2889 31.0776 78.3212 31.5129 79.2252 31.7528C79.6262 31.8532 80.0412 31.8853 80.4528 31.8477C80.8528 31.9569 81.2658 32.0113 81.6804 32.0095C82.1689 32.004 82.6497 31.8876 83.0866 31.6691C82.6247 31.7412 82.1588 31.784 81.6916 31.7974ZM85.0396 31.6803C85.1902 31.6021 85.3297 31.5184 85.4804 31.4515C85.6279 31.3874 85.7788 31.3316 85.9324 31.2841C86.0845 31.2365 86.2391 31.1974 86.3955 31.1669C86.5465 31.1377 86.6994 31.119 86.8531 31.1111H86.9368L86.9926 31.033C87.2228 30.6996 87.5055 30.4057 87.8296 30.1625C87.991 30.0412 88.1607 29.9312 88.3373 29.8333C88.5171 29.738 88.7036 29.6559 88.8953 29.5878L88.9679 29.5599L89.0014 29.5152C89.205 29.1829 89.4425 28.8725 89.71 28.5889C90.0107 28.303 90.3555 28.0675 90.7312 27.8914C90.6622 27.895 90.5943 27.9101 90.5303 27.9361C90.4173 27.9857 90.3089 28.0455 90.2066 28.1146C89.7847 28.3554 89.4072 28.6668 89.0906 29.0353C89.0174 29.1474 88.9313 29.2504 88.834 29.3422C88.7232 29.4129 88.603 29.4674 88.4768 29.5041C87.9493 29.7004 87.4887 30.043 87.1488 30.4917C87.0769 30.6014 86.9906 30.7008 86.8921 30.7875C86.7473 30.8837 86.5837 30.9483 86.4122 30.9772C85.8845 31.0526 85.3962 31.2997 85.0228 31.6803H85.0396ZM89.3194 27.1437C89.1799 27.2721 89.0572 27.4227 88.9121 27.5455C88.6163 27.8022 88.2425 27.9417 87.93 28.176C87.6002 28.4234 87.3516 28.7633 87.2158 29.1525C87.211 29.1765 87.2015 29.1992 87.1879 29.2195C87.1042 29.3367 86.8698 29.3478 86.747 29.3757C86.6243 29.4036 86.3843 29.465 86.189 29.5208C85.6275 29.7138 85.1165 30.0303 84.6936 30.4471C84.8945 30.3299 85.0786 30.196 85.2851 30.0955C85.4836 29.9865 85.6886 29.8896 85.8989 29.8054C86.1053 29.7239 86.3157 29.6531 86.5294 29.5933C86.7364 29.5422 86.9473 29.5086 87.16 29.4929H87.2827L87.3274 29.3813C87.4784 29.0265 87.6941 28.703 87.9635 28.4271C88.2259 28.1804 88.5161 27.965 88.8284 27.7854C88.8905 27.749 88.9485 27.706 89.0014 27.6571C89.0507 27.6115 89.0972 27.5631 89.1409 27.512C89.3334 27.2555 89.5522 27.0199 89.7937 26.8089C89.7212 26.8647 89.6152 26.8926 89.537 26.9484C89.4541 27.0075 89.3758 27.0728 89.3027 27.1437H89.3194Z" fill="#F28F8F"/>
<path d="M10.2005 84.428C8.95615 76.058 7.41049 64.7307 8.79433 53.3251C9.23515 49.6702 12.4381 38.4823 13.3978 35.7537L20.6518 33.8677C20.6518 33.8677 30.6958 33.1032 31.9569 33.0697C34.1889 33.0139 36.1977 33.0697 36.1977 33.0697C36.6776 33.5775 45.2541 39.6374 47.4079 45.8312C48.6355 49.3522 48.1557 54.8094 44.0599 57.8896C44.0599 57.8896 43.4406 64.0276 43.4406 64.1001C43.4406 64.1727 47.2238 69.9926 47.8543 71.3541C46.9002 77.4363 39.6238 82.8154 29.3008 84.9637C16.8965 87.5584 10.9705 84.8968 10.2005 84.428Z" fill="#FAFAFA"/>
<path d="M34.0541 33.5999C34.9469 33.5999 35.6612 33.5999 35.9904 33.5999L36.5484 34.0295C38.6688 35.7035 45.1248 40.8371 46.9216 45.9874C48.166 49.5586 47.4796 54.6309 43.741 57.4209L43.5457 57.5659V57.8115C42.9263 63.9885 42.9263 64.0332 42.9263 64.0499V64.2285L43.0212 64.3791C43.0603 64.4349 46.5422 69.8699 47.3289 71.4267C46.2966 77.2466 39.2268 82.33 29.2386 84.4113C26.0227 85.1156 22.7432 85.4895 19.4513 85.5273C14.6915 85.5273 11.7732 84.5676 10.78 84.0709C9.42401 74.903 8.11271 64.2396 9.41843 53.3809C9.84251 49.86 12.8892 39.1966 13.8824 36.2001L20.8016 34.4034C21.5661 34.3476 30.8456 33.6445 32.023 33.6166C32.6759 33.6166 33.3734 33.6166 34.0988 33.6166M34.0988 33.0586C33.4738 33.0586 32.754 33.0586 32.0119 33.0865C30.734 33.0865 20.7068 33.8789 20.7068 33.8789L13.4528 35.7649C12.4316 38.4824 9.24545 49.6703 8.80463 53.3252C7.43753 64.7307 8.96645 76.0358 10.2108 84.4281C10.7297 84.7461 13.6481 86.1021 19.3899 86.1021C22.719 86.0694 26.036 85.6955 29.2888 84.9861C39.6118 82.8378 46.8881 77.4586 47.8423 71.3764C47.2118 70.0038 43.4285 64.1224 43.4285 64.1224L44.0479 57.9119C48.166 54.8318 48.6458 49.3745 47.3959 45.8535C45.242 39.6597 36.6656 33.5775 36.1857 33.0977C36.1857 33.0977 35.2929 33.0697 34.0318 33.0697L34.0988 33.0586Z" fill="#EBEBEB"/>
<path d="M36.7561 58.7378C36.7561 58.7378 33.6927 62.4374 27.6886 61.712C25.921 61.5232 24.2244 60.9128 22.7417 59.9321C21.259 58.9514 20.0334 57.629 19.168 56.0762C19.168 56.0762 20.0105 62.5378 27.4096 63.4362C34.234 64.2676 36.7561 58.7378 36.7561 58.7378Z" fill="#E0E0E0"/>
<path d="M16.7122 7.44649C16.6731 7.61947 15.691 8.12726 15.5069 8.28908C15.155 8.59609 14.8438 8.94674 14.5806 9.33254C14.0412 10.1819 13.6769 11.1304 13.5093 12.1225C13.1745 13.7965 13.2135 15.5096 13.0461 17.2059C12.8358 18.8424 12.5057 20.4612 12.0585 22.0494C11.6408 23.4432 11.4082 24.8859 11.3665 26.3404C11.3348 27.8114 11.8818 29.236 12.8899 30.3078C12.59 28.8697 12.6282 27.3817 13.0015 25.9609C13.0219 26.87 13.1857 27.7702 13.4869 28.6282C14.069 29.9475 15.0905 31.0242 16.3774 31.6749C17.6533 32.3205 19.0102 32.7916 20.4117 33.0754C22.6785 33.629 25.0032 33.91 27.3365 33.9124C28.7761 33.9124 30.2158 33.8232 31.6443 33.6725C33.4968 33.4716 35.3829 33.1145 36.962 32.1547C38.5411 31.195 39.752 29.4094 39.6069 27.5568C40.1108 28.4675 40.3432 29.5035 40.2765 30.5421C41.2846 29.4157 41.8236 27.9463 41.7831 26.4352C41.7281 24.9371 41.3473 23.469 40.6671 22.1331C40.2108 21.3017 39.8154 20.4382 39.4842 19.5495C39.1668 18.7398 39.149 17.8434 39.4339 17.0218C39.6962 16.4973 40.1259 16.023 40.3993 15.4873C41.1993 14.0376 41.6107 12.4056 41.5934 10.7499C41.4316 7.34605 39.5288 2.85974 33.3573 1.33082C28.2237 0.0641569 18.2634 0.767232 16.7122 7.44649Z" fill="#263238"/>
<path d="M19.0943 24.9899C18.4463 25.0523 17.7928 24.9518 17.1935 24.6975C16.5942 24.4431 16.0679 24.043 15.6626 23.5335C13.9105 21.4689 13.8268 19.4433 14.7419 18.1376C15.4896 17.0607 17.2585 16.4301 18.4415 17.2281C19.7081 18.0818 19.7193 18.7347 20.1713 19.661C20.6232 20.5872 21.9178 19.9344 21.65 16.2851C24.2223 15.2249 23.9991 11.0566 25.4332 9.42166C27.6652 6.86044 31.1694 7.69744 32.2854 8.37262C33.0016 7.92063 33.8277 7.6729 34.6744 7.65618C35.5211 7.63946 36.3563 7.85439 37.0898 8.27776C38.7638 9.2431 39.8017 11.1682 40.1198 17.641C40.449 24.2477 39.1042 28.5778 37.4972 29.917C36.3812 30.8321 34.3891 31.3957 32.0399 31.1613L31.9618 33.6277C31.9618 33.6277 38.4625 40.8817 29.8135 39.8885C27.8866 39.6433 26.0341 38.9904 24.3792 37.9735C22.7244 36.9565 21.3051 35.5987 20.2159 33.9904L20.5898 24.0189C20.5898 24.0189 20.4 24.8057 19.0943 24.9899Z" fill="#FFA8A7"/>
<path d="M38.2847 14.5586L36.2089 12.9404C36.3106 12.8018 36.4391 12.6851 36.5869 12.5973C36.7347 12.5095 36.8987 12.4525 37.069 12.4295C37.2394 12.4066 37.4126 12.4183 37.5784 12.4639C37.7441 12.5095 37.8989 12.588 38.0336 12.6949C38.3083 12.9128 38.4879 13.2286 38.5347 13.5761C38.5815 13.9236 38.4919 14.2758 38.2847 14.5586Z" fill="#263238"/>
<path d="M30.734 17.5242C30.734 17.7449 30.6685 17.9607 30.5459 18.1442C30.4232 18.3277 30.249 18.4708 30.045 18.5553C29.8411 18.6397 29.6167 18.6618 29.4002 18.6188C29.1837 18.5757 28.9849 18.4694 28.8288 18.3133C28.6727 18.1573 28.5665 17.9584 28.5234 17.7419C28.4803 17.5254 28.5024 17.3011 28.5869 17.0971C28.6714 16.8932 28.8144 16.7189 28.9979 16.5963C29.1815 16.4737 29.3972 16.4082 29.618 16.4082C29.9139 16.4082 30.1978 16.5258 30.4071 16.7351C30.6164 16.9444 30.734 17.2282 30.734 17.5242Z" fill="#263238"/>
<path d="M38.2886 17.0164C38.2886 17.2371 38.2232 17.4529 38.1006 17.6364C37.9779 17.8199 37.8036 17.963 37.5997 18.0474C37.3958 18.1319 37.1714 18.154 36.9549 18.1109C36.7384 18.0679 36.5396 17.9616 36.3835 17.8055C36.2274 17.6494 36.1211 17.4506 36.0781 17.2341C36.035 17.0176 36.0571 16.7932 36.1416 16.5893C36.2261 16.3854 36.3691 16.2111 36.5526 16.0885C36.7361 15.9658 36.9519 15.9004 37.1726 15.9004C37.4686 15.9004 37.7525 16.018 37.9618 16.2273C38.1711 16.4365 38.2886 16.7204 38.2886 17.0164Z" fill="#263238"/>
<path d="M29.6348 13.8892L27.1238 15.167C27.0306 15.0102 26.9709 14.8358 26.9487 14.6547C26.9264 14.4737 26.942 14.29 26.9945 14.1153C27.047 13.9406 27.1351 13.7787 27.2534 13.6399C27.3717 13.5011 27.5176 13.3884 27.6818 13.3089C28.0206 13.1422 28.4098 13.1094 28.7718 13.2169C29.1338 13.3245 29.4419 13.5645 29.6348 13.8892Z" fill="#263238"/>
<path d="M37.1853 20.6435L33.7368 22.217L33.0059 14.9463L37.1853 20.6435Z" fill="#F28F8F"/>
<path d="M31.6422 23.8105C31.6422 23.8551 31.7371 23.8719 31.7817 23.8942L31.8933 23.9444C31.9305 23.9664 31.9729 23.978 32.0161 23.9779C32.0223 23.9805 32.0289 23.9819 32.0356 23.9819C32.0423 23.9819 32.049 23.9805 32.0552 23.9779C32.0603 23.9635 32.0603 23.9477 32.0552 23.9333C32.0569 23.9125 32.0538 23.8915 32.0461 23.8722C32.0383 23.8528 32.0261 23.8355 32.0105 23.8217C31.9626 23.7836 31.9101 23.7518 31.8543 23.7268L31.7204 23.6654C31.709 23.66 31.6966 23.6572 31.6841 23.6572C31.6715 23.6572 31.6591 23.66 31.6478 23.6654C31.6405 23.689 31.6405 23.7143 31.6478 23.738C31.6408 23.7615 31.6389 23.7862 31.6422 23.8105ZM30.5932 24.1397C30.6841 24.2287 30.7832 24.309 30.8889 24.3797C31.1009 24.5219 31.3249 24.6451 31.5585 24.7479C31.7866 24.8475 32.024 24.9241 32.2672 24.9767C32.5236 25.0553 32.7941 25.0763 33.0596 25.0381C33.2437 24.9935 33.1098 24.7703 32.9926 24.7368C32.7136 24.6419 32.4346 24.6363 32.1277 24.5471C31.9029 24.4785 31.6845 24.3908 31.4748 24.2848C31.2712 24.1727 31.0738 24.0497 30.8834 23.9165C30.7718 23.8384 30.6546 23.7714 30.5486 23.6933C30.5064 23.6583 30.4568 23.6335 30.4035 23.6208C30.3365 23.6208 30.3198 23.6598 30.3254 23.7212C30.3709 23.8843 30.4641 24.0301 30.5932 24.1397Z" fill="#B16668"/>
<path d="M32.0407 31.1722C28.6481 30.8988 24.1506 29.4982 23.0234 27.3164C23.5814 29.6656 25.9418 30.9657 27.8278 31.5739C29.169 32.0149 30.5531 32.3123 31.957 32.4612L32.0407 31.1722Z" fill="#F28F8F"/>
<path d="M86.4837 120.106L79.6035 108.985L90.1218 100.71C92.9118 107.763 96.5388 118.081 98.6313 120.893C98.6313 120.893 94.4686 125.245 91.1764 124.933C87.8842 124.62 86.8129 122.048 86.4837 120.106Z" fill="#FFA8A7"/>
<path d="M87.4277 126.155C87.5904 126.82 87.8824 127.445 88.2871 127.997C88.6777 128.594 91.3784 129.581 92.4609 130.446C93.5434 131.311 93.761 131.719 95.0556 132.952C96.4952 134.313 97.5554 136.166 102.516 136.635C107.477 137.103 110.473 135.792 112.315 134.403C112.954 133.865 113.455 133.182 113.776 132.41C113.776 132.41 113.866 129.62 112.287 129.392C110.707 129.163 87.4277 126.155 87.4277 126.155Z" fill="#263238"/>
<path d="M96.6572 117.578C97.0813 117.835 97.511 118.756 97.7732 119.169C98.6549 120.547 100.173 121.646 101.517 122.556C107.873 126.875 112.555 125.58 113.604 130.407C113.838 131.774 112.716 133.945 106.908 135.54C103.939 136.349 98.9227 135.434 97.126 133.866C95.3292 132.298 94.336 130.82 92.9354 129.715C91.5348 128.61 88.4323 127.594 87.4223 126.138C86.8842 125.239 86.5562 124.23 86.4626 123.186C86.3342 122.355 86.0664 119.531 86.0664 119.531C87.2494 121.456 88.8006 121.094 89.7101 121.44C90.6558 121.894 91.5516 122.446 92.383 123.086C91.652 121.763 90.8429 121.01 91.4065 120.134C91.97 119.258 91.9645 119.124 93.8059 118.298C95.6473 117.472 96.2778 117.35 96.6572 117.578Z" fill="#BA68C8"/>
<path opacity="0.4" d="M96.6572 117.578C97.0813 117.835 97.511 118.756 97.7732 119.169C98.6549 120.547 100.173 121.646 101.517 122.556C107.873 126.875 112.555 125.58 113.604 130.407C113.838 131.774 112.716 133.945 106.908 135.54C103.939 136.349 98.9227 135.434 97.126 133.866C95.3292 132.298 94.336 130.82 92.9354 129.715C91.5348 128.61 88.4323 127.594 87.4223 126.138C86.8842 125.239 86.5562 124.23 86.4626 123.186C86.3342 122.355 86.0664 119.531 86.0664 119.531C87.2494 121.456 88.8006 121.094 89.7101 121.44C90.6558 121.894 91.5516 122.446 92.383 123.086C91.652 121.763 90.8429 121.01 91.4065 120.134C91.97 119.258 91.9645 119.124 93.8059 118.298C95.6473 117.472 96.2778 117.35 96.6572 117.578Z" fill="black"/>
<path opacity="0.3" d="M106.913 135.518C103.944 136.327 98.9278 135.412 97.131 133.844C96.5412 133.331 95.9822 132.783 95.457 132.204C95.5854 132.293 95.7081 132.393 95.8197 132.46C96.0764 132.617 96.3275 132.767 96.5898 132.901C97.5878 133.502 98.7233 133.836 99.8876 133.872C100.92 133.839 103.47 133.833 104.006 132.684C104.307 132.036 103.894 131.205 103.258 130.641C102.99 130.407 102.22 129.877 102.22 129.877C102.915 128.908 103.761 128.056 104.725 127.355C106.556 126.121 106.779 126.289 106.779 126.289C107.226 126.595 107.723 126.824 108.246 126.964C108.821 127.093 109.418 127.093 109.993 126.964C110.18 126.893 110.356 126.797 110.517 126.679C112.091 127.416 113.179 128.353 113.614 130.385C113.838 131.774 112.716 133.945 106.913 135.518Z" fill="black"/>
<path d="M101.517 122.556C103.193 123.682 104.997 124.604 106.891 125.301C108.403 126.685 108.119 127.221 107.164 126.914C106.21 126.607 102.896 123.8 100.111 121.568C100.597 121.909 101.054 122.244 101.517 122.556Z" fill="#37474F"/>
<path d="M88.611 122.126C87.7014 121.864 86.9704 121.781 86.2618 121.189C85.8098 120.838 85.754 119.627 85.8823 119.113L86.5296 120.146C87.7963 121.044 88.8063 121.089 89.7158 121.435C90.6626 121.887 91.5586 122.439 92.3886 123.081C95.1116 125.045 95.8538 126.111 98.5657 127.628C101.278 129.146 103.426 129.38 103.42 129.86C103.415 130.34 102.756 131.01 100.407 130.206C98.0579 129.403 94.6429 126.791 93.1196 125.324C91.5963 123.856 89.8888 122.511 88.611 122.126Z" fill="#37474F"/>
<path d="M102.326 130.2C102.382 130.176 102.43 130.138 102.465 130.089C103.71 128.258 104.658 127.399 107.03 126.64C107.078 126.639 107.125 126.626 107.167 126.604C107.209 126.581 107.245 126.549 107.273 126.51C107.301 126.471 107.319 126.426 107.326 126.378C107.333 126.331 107.328 126.283 107.313 126.237C107.298 126.192 107.273 126.15 107.239 126.116C107.205 126.083 107.164 126.057 107.119 126.042C107.073 126.027 107.025 126.023 106.977 126.03C106.93 126.037 106.885 126.055 106.846 126.082C104.335 126.886 103.28 127.823 101.958 129.77C101.921 129.825 101.902 129.89 101.905 129.956C101.907 130.021 101.931 130.085 101.972 130.136C102.013 130.187 102.07 130.224 102.134 130.24C102.197 130.257 102.265 130.253 102.326 130.228V130.2Z" fill="#EBEBEB"/>
<path d="M100.1 128.85C100.154 128.824 100.202 128.786 100.239 128.738C101.361 126.963 103.117 125.682 105.15 125.156C105.19 125.144 105.227 125.124 105.26 125.097C105.292 125.07 105.319 125.036 105.337 124.999C105.356 124.961 105.367 124.92 105.369 124.878C105.372 124.836 105.365 124.793 105.35 124.754C105.338 124.715 105.317 124.678 105.291 124.647C105.264 124.615 105.231 124.59 105.194 124.571C105.157 124.552 105.117 124.541 105.076 124.538C105.035 124.535 104.993 124.54 104.954 124.553C102.793 125.122 100.926 126.485 99.7257 128.37C99.6866 128.426 99.6664 128.492 99.6681 128.56C99.6698 128.629 99.6933 128.694 99.7351 128.748C99.777 128.802 99.835 128.841 99.9006 128.859C99.9662 128.877 100.036 128.874 100.1 128.85Z" fill="#EBEBEB"/>
<path d="M97.4602 127.812C97.5198 127.784 97.5716 127.742 97.6109 127.689C99.0896 125.625 100.356 124.581 103.118 123.688C103.162 123.674 103.202 123.652 103.237 123.623C103.272 123.593 103.301 123.557 103.322 123.516C103.343 123.475 103.356 123.431 103.36 123.385C103.363 123.34 103.358 123.294 103.344 123.25C103.33 123.207 103.308 123.166 103.278 123.131C103.249 123.096 103.213 123.068 103.172 123.047C103.131 123.026 103.087 123.013 103.041 123.009C102.996 123.005 102.95 123.01 102.906 123.024C100.494 123.67 98.4064 125.187 97.0473 127.282C96.994 127.358 96.9723 127.452 96.9869 127.543C97.0014 127.635 97.0511 127.717 97.1254 127.773C97.1744 127.805 97.2302 127.825 97.2882 127.832C97.3463 127.838 97.4052 127.832 97.4602 127.812Z" fill="#EBEBEB"/>
<path d="M95.3781 126.501C95.4393 126.479 95.492 126.438 95.5287 126.384C96.9795 124.359 98.2016 123.349 100.913 122.478C100.956 122.464 100.995 122.442 101.029 122.413C101.063 122.384 101.091 122.348 101.111 122.309C101.132 122.269 101.144 122.225 101.147 122.181C101.15 122.136 101.145 122.091 101.131 122.049C101.118 122.006 101.096 121.966 101.067 121.931C101.038 121.897 101.003 121.869 100.962 121.849C100.922 121.828 100.879 121.816 100.834 121.813C100.789 121.81 100.744 121.816 100.701 121.831C98.3415 122.458 96.3001 123.942 94.9763 125.994C94.9495 126.03 94.9302 126.072 94.9196 126.116C94.909 126.16 94.9073 126.205 94.9146 126.25C94.9219 126.295 94.938 126.337 94.962 126.376C94.986 126.414 95.0174 126.447 95.0544 126.474C95.1022 126.504 95.1565 126.522 95.2128 126.527C95.2692 126.532 95.3259 126.523 95.3781 126.501Z" fill="#EBEBEB"/>
<path d="M93.5437 124.772C93.6049 124.749 93.6576 124.708 93.6944 124.654C94.9349 122.722 96.8572 121.328 99.0791 120.748C99.164 120.719 99.2343 120.658 99.2749 120.578C99.3155 120.497 99.3233 120.405 99.2967 120.319C99.2833 120.276 99.2616 120.236 99.2327 120.201C99.2039 120.167 99.1684 120.138 99.1285 120.117C99.0885 120.097 99.0448 120.084 98.9999 120.08C98.9551 120.077 98.9099 120.082 98.867 120.096C96.5069 120.725 94.4659 122.211 93.1419 124.264C93.1153 124.3 93.0961 124.341 93.0855 124.384C93.075 124.428 93.0733 124.473 93.0806 124.518C93.0879 124.562 93.104 124.604 93.128 124.642C93.1519 124.68 93.1832 124.713 93.2201 124.738C93.2662 124.772 93.3205 124.793 93.3774 124.798C93.4342 124.804 93.4916 124.795 93.5437 124.772Z" fill="#EBEBEB"/>
<path d="M85.3848 85.1753C83.0858 78.4793 81.4007 76.6379 72.2941 74.724C60.0851 72.1516 34.5789 68.8984 34.5789 68.8984L33.4629 96.9435C34.4896 97.3397 34.7574 97.0607 35.8679 97.4011C40.1031 98.6956 53.8968 96.4692 70.6034 95.4927C72.3722 99.834 74.4536 103.305 79.085 109.326C82.3716 113.589 83.694 115.424 83.694 115.424C83.694 115.424 89.9213 115.625 94.1119 110.687C94.1342 110.687 91.1099 101.765 85.3848 85.1753Z" fill="#455A64"/>
<path d="M80.8828 112.183C83.1595 112.428 90.6367 111.502 93.0416 107.11L94.565 111.63C94.565 111.63 94.2246 113.583 89.4091 115.402C85.5031 116.87 83.5166 116.206 83.5166 116.206L80.8828 112.183Z" fill="#37474F"/>
<path d="M64.231 73.2229C51.916 71.0635 34.5789 68.8984 34.5789 68.8984L33.4629 96.9435C34.4896 97.3397 34.7574 97.0607 35.8679 97.4011C39.6009 98.545 50.7665 96.9491 64.8058 95.8833L64.231 73.2229Z" fill="#37474F"/>
<path d="M48.3124 85.5385L47.6707 84.9805L33.7207 97.0333C34.5521 97.3011 34.8758 97.1002 35.8913 97.4127C37.3903 97.7589 38.9309 97.8905 40.4669 97.8033C44.4901 94.6339 46.9118 88.7079 48.3124 85.5385Z" fill="#263238"/>
<path d="M75.1969 118.985C75.1969 117.662 72.1056 115.48 69.8011 113.55C66.1071 110.458 63.7468 108.494 62.9042 105.676C62.0616 102.859 61.6654 101.302 61.6766 99.4157C61.6878 97.5296 61.6766 95.1247 61.8217 88.9085C61.8217 88.1162 49.4341 88.8248 49.6573 89.8013C50.4106 93.0712 51.7219 100.638 51.7554 101.346C51.7614 102.202 51.6159 103.052 51.3257 103.857C50.8358 105.381 50.7721 107.01 51.1416 108.567C51.6047 110.291 52.8156 110.581 54.138 111.96C55.4605 113.338 55.7339 113.399 56.5932 115.374C57.5195 117.484 58.9201 120.832 64.2378 122.679C67.3889 123.671 70.79 123.513 73.8354 122.232C75.3085 121.568 75.1969 119.476 75.1969 118.985Z" fill="#FFA8A7"/>
<path d="M50.9349 108.566C50.8979 109.276 51.0042 109.986 51.2474 110.653C51.4595 111.368 53.8589 113.148 54.6847 114.325C55.5105 115.502 55.6054 115.999 56.5373 117.584C57.564 119.364 58.0773 121.523 62.8761 123.448C67.6749 125.373 71.0564 124.955 73.2996 124.107C74.0957 123.757 74.7976 123.224 75.3474 122.55C75.3474 122.55 76.257 119.793 74.7504 119.107C73.2438 118.421 50.9349 108.566 50.9349 108.566Z" fill="#263238"/>
<path d="M62.6518 102.736C62.9978 103.115 63.1596 104.164 63.2991 104.649C63.7678 106.284 64.9731 107.825 66.0277 109.113C71.0944 115.285 76.1387 115.374 75.7648 120.491C75.5918 121.925 73.8341 123.755 67.579 123.633C64.3872 123.571 59.661 121.177 58.3218 119.107C56.9826 117.037 56.458 115.257 55.3699 113.739C54.2818 112.222 51.5086 110.296 50.9338 108.55C50.6625 107.497 50.63 106.397 50.839 105.33C50.9617 104.46 51.5253 101.569 51.5253 101.569C52.1335 103.829 53.7908 103.93 54.5943 104.543C55.4027 105.274 56.1338 106.085 56.7761 106.965C56.4357 105.436 55.8498 104.443 56.6701 103.74C57.4903 103.037 57.5238 102.897 59.5996 102.624C61.6753 102.351 62.3338 102.401 62.6518 102.736Z" fill="#BA68C8"/>
<path opacity="0.4" d="M62.6518 102.736C62.9978 103.115 63.1596 104.164 63.2991 104.649C63.7678 106.284 64.9731 107.825 66.0277 109.113C71.0944 115.285 76.1387 115.374 75.7648 120.491C75.5918 121.925 73.8341 123.755 67.579 123.633C64.3872 123.571 59.661 121.177 58.3218 119.107C56.9826 117.037 56.458 115.257 55.3699 113.739C54.2818 112.222 51.5086 110.296 50.9338 108.55C50.6625 107.497 50.63 106.397 50.839 105.33C50.9617 104.46 51.5253 101.569 51.5253 101.569C52.1335 103.829 53.7908 103.93 54.5943 104.543C55.4027 105.274 56.1338 106.085 56.7761 106.965C56.4357 105.436 55.8498 104.443 56.6701 103.74C57.4903 103.037 57.5238 102.897 59.5996 102.624C61.6753 102.351 62.3338 102.401 62.6518 102.736Z" fill="black"/>
<path opacity="0.3" d="M67.5744 123.649C64.3826 123.588 59.6564 121.194 58.3172 119.124C57.8775 118.438 57.4788 117.726 57.123 116.992C57.2235 117.115 57.3183 117.255 57.4132 117.355C57.6197 117.584 57.8261 117.807 58.0493 118.025C58.8668 118.918 59.9008 119.585 61.0514 119.961C62.0837 120.229 64.6282 120.977 65.5154 119.989C66.012 119.431 65.839 118.482 65.3759 117.757C65.175 117.439 64.5668 116.686 64.5668 116.686C65.5454 115.924 66.6401 115.325 67.8088 114.911C69.9905 114.225 70.1635 114.454 70.1635 114.454C70.5176 114.894 70.944 115.272 71.4246 115.57C71.9628 115.863 72.5591 116.035 73.1711 116.072C73.378 116.049 73.5819 116.004 73.7794 115.938C75.1297 117.138 75.9332 118.399 75.777 120.541C75.5873 121.942 73.8128 123.8 67.5744 123.649Z" fill="black"/>
<path d="M65.9994 109.131C67.3381 110.746 68.8648 112.196 70.5471 113.45C71.6631 115.269 71.2055 115.721 70.3462 115.124C69.4869 114.526 66.9982 110.749 64.8945 107.702C65.2796 108.21 65.6534 108.684 65.9994 109.131Z" fill="#37474F"/>
<path d="M53.2838 104.923C52.4524 104.399 51.7493 104.092 51.2192 103.3C51.0853 102.184 51.2583 101.497 51.7772 101.347L51.8163 102.334C52.8151 103.607 53.8083 103.947 54.6063 104.566C55.4147 105.297 56.1458 106.108 56.7881 106.988C58.9196 109.75 59.3437 111.028 61.598 113.344C63.8523 115.659 65.9281 116.519 65.783 116.982C65.6379 117.445 64.7842 117.93 62.6805 116.424C60.5769 114.917 57.9375 111.329 56.855 109.415C55.7725 107.501 54.45 105.66 53.2838 104.923Z" fill="#37474F"/>
<path d="M64.5774 116.981C64.6403 116.976 64.7003 116.953 64.7503 116.914C66.5304 115.458 67.7245 114.883 70.3303 114.822C70.4142 114.819 70.4937 114.784 70.552 114.723C70.6103 114.663 70.6429 114.582 70.6428 114.498C70.6429 114.456 70.6344 114.415 70.618 114.376C70.6016 114.337 70.5776 114.302 70.5474 114.273C70.5172 114.244 70.4814 114.221 70.4422 114.206C70.403 114.191 70.3612 114.184 70.3192 114.186C67.585 114.247 66.257 114.867 64.3653 116.418C64.3317 116.444 64.3038 116.476 64.2832 116.514C64.2626 116.551 64.2498 116.592 64.2457 116.634C64.2415 116.676 64.246 116.719 64.2589 116.76C64.2718 116.8 64.2928 116.838 64.3207 116.87C64.3516 116.907 64.3909 116.937 64.4356 116.957C64.4802 116.976 64.5288 116.984 64.5774 116.981Z" fill="#EBEBEB"/>
<path d="M62.7576 114.984C62.8187 114.978 62.877 114.955 62.925 114.917C64.5668 113.476 66.6955 112.714 68.8788 112.785C68.922 112.785 68.9648 112.777 69.0045 112.76C69.0443 112.743 69.0801 112.718 69.1099 112.686C69.1396 112.655 69.1627 112.618 69.1777 112.577C69.1926 112.537 69.1992 112.494 69.1969 112.45C69.194 112.364 69.1574 112.281 69.095 112.221C69.0325 112.16 68.949 112.127 68.8621 112.127C66.5389 112.061 64.2759 112.871 62.5232 114.398C62.4676 114.442 62.4278 114.503 62.4095 114.571C62.3913 114.64 62.3956 114.712 62.422 114.778C62.4483 114.844 62.4952 114.9 62.5557 114.937C62.6161 114.974 62.687 114.99 62.7576 114.984Z" fill="#EBEBEB"/>
<path d="M60.421 113.198C60.4885 113.19 60.5524 113.163 60.6051 113.12C62.6864 111.502 64.2544 110.832 67.2732 110.754C67.3242 110.76 67.376 110.756 67.4252 110.74C67.4743 110.725 67.5196 110.7 67.5582 110.666C67.5967 110.632 67.6276 110.59 67.6487 110.543C67.6699 110.496 67.6808 110.445 67.6808 110.394C67.6808 110.343 67.6699 110.292 67.6487 110.245C67.6276 110.198 67.5967 110.156 67.5582 110.122C67.5196 110.088 67.4743 110.063 67.4252 110.047C67.376 110.032 67.3242 110.028 67.2732 110.034C64.1038 110.118 62.3907 110.832 60.181 112.551C60.1058 112.61 60.0571 112.697 60.0456 112.792C60.0341 112.887 60.0607 112.983 60.1196 113.058C60.1554 113.104 60.2014 113.14 60.2537 113.164C60.306 113.188 60.3633 113.2 60.421 113.198Z" fill="#EBEBEB"/>
<path d="M58.747 111.251C58.8142 111.246 58.8782 111.22 58.9312 111.179C60.9679 109.589 62.48 108.947 65.443 108.863C65.5368 108.86 65.6256 108.821 65.6903 108.753C65.7551 108.685 65.7905 108.594 65.789 108.5C65.7808 108.413 65.7411 108.333 65.6774 108.273C65.6137 108.213 65.5303 108.179 65.443 108.177C62.335 108.255 60.6721 108.958 58.5071 110.643C58.4445 110.69 58.3992 110.756 58.3782 110.831C58.3572 110.906 58.3618 110.986 58.3912 111.058C58.4206 111.13 58.4731 111.19 58.5406 111.229C58.608 111.269 58.6865 111.284 58.7638 111.274L58.747 111.251Z" fill="#EBEBEB"/>
<path d="M57.429 108.991C57.4955 108.982 57.5588 108.957 57.6132 108.918C59.6555 107.328 61.1621 106.686 64.1306 106.603C64.2244 106.598 64.3126 106.557 64.3763 106.488C64.44 106.419 64.474 106.328 64.471 106.234C64.4703 106.188 64.4603 106.142 64.4415 106.1C64.4228 106.057 64.3957 106.019 64.3618 105.987C64.328 105.955 64.2881 105.931 64.2445 105.915C64.201 105.899 64.1547 105.892 64.1083 105.894C60.9947 105.972 59.3374 106.675 57.1779 108.355C57.1035 108.413 57.0548 108.498 57.0422 108.592C57.0297 108.686 57.0544 108.781 57.111 108.857C57.1493 108.903 57.1983 108.939 57.2536 108.963C57.309 108.986 57.3692 108.996 57.429 108.991Z" fill="#EBEBEB"/>
<path d="M62.0943 67.1242C62.0106 55.5792 59.0309 50.4902 55.5657 48.7102C52.1508 46.8018 46.0797 48.3196 37.7432 55.4062C30.997 61.1313 26.7339 66.4546 21.6617 74.3782C19.5189 75.1817 12.1757 79.4002 10.2227 84.4222C10.4073 86.6625 10.9992 88.8504 11.9692 90.8783C16.8629 99.9904 28.4358 101.179 35.5949 97.8198C39.9306 95.7775 44.0988 90.8504 47.67 84.9858C48.5796 88.7802 49.344 91.6818 49.344 91.6818C53.7632 92.5656 58.3463 92.0909 62.4905 90.3203C62.4905 90.3203 62.1725 80.187 62.0943 67.1242Z" fill="#455A64"/>
<path opacity="0.2" d="M51.218 91.8543L51.67 91.8822C50.9669 88.3724 50.275 85.1193 49.6556 82.2232C48.2941 75.8509 47.2171 70.8177 47.0888 67.7431C47.0154 65.8202 47.0714 63.8945 47.2562 61.979C47.3901 60.3552 47.4571 59.5405 47.0107 59.256C46.6814 59.0439 46.2071 59.256 45.7887 59.5015C44.7619 60.093 43.2776 62.0404 39.0926 69.9082C38.8025 70.4662 38.5346 71.0242 38.211 71.5822C34.5784 78.4679 30.0754 87.0109 22.6986 86.531L22.3694 86.5031C17.9054 86.0567 14.9759 83.8135 13.5586 79.835L13.207 80.181C14.6634 84.1818 17.7157 86.4641 22.2969 86.9272C30.1591 87.7196 34.8239 78.8808 38.5681 71.7775L39.4498 70.1035C43.0489 63.4075 44.8847 60.517 46.0118 59.8698C46.5698 59.5517 46.7317 59.5852 46.7763 59.6131C46.9995 59.7526 46.9158 60.7626 46.821 61.9288C46.6366 63.8629 46.5788 65.807 46.648 67.7487C46.7819 70.8624 47.8588 75.9067 49.2259 82.3014C49.8174 85.1806 50.5261 88.3891 51.218 91.8543Z" fill="black"/>
<path d="M48.7461 90.6999C51.0674 91.47 59.0077 92.2735 62.5789 88.5684L62.7184 93.144C62.7184 93.144 61.8982 95.0356 56.413 95.6103C50.9279 96.1851 49.8956 95.0523 49.8956 95.0523L48.7461 90.6999Z" fill="#37474F"/>
<path opacity="0.2" d="M47.6694 84.9691C44.0982 90.8615 39.93 95.7943 35.5887 97.8031C29.2498 100.783 19.1724 100.242 13.7598 93.5176C16.3824 96.0844 22.5538 98.043 30.1482 95.9561C38.1667 93.7631 41.1352 88.1776 41.4254 81.6211C41.7714 73.8872 44.4442 59.7475 46.8324 57.2979C46.5693 57.8037 46.3472 58.33 46.1684 58.8714C43.0101 69.2279 44.8794 72.3973 46.3916 79.35C46.8436 81.4648 47.2788 83.3509 47.6694 84.9691Z" fill="black"/>
<path d="M49.2041 52.873C50.2532 52.1811 51.146 51.5282 52.3066 50.6912C52.6615 50.4506 52.9808 50.1614 53.2552 49.8319C53.5565 49.419 53.5286 48.7159 53.1436 48.6657C52.7626 48.6594 52.3838 48.7256 52.0276 48.861C51.2343 49.11 50.4634 49.4255 49.7231 49.804C50.3871 49.3464 50.973 48.9335 51.5366 48.4704C51.6344 48.4062 51.7185 48.3232 51.784 48.2262C51.8495 48.1291 51.8949 48.02 51.9178 47.9052C51.9406 47.7905 51.9404 47.6723 51.9171 47.5576C51.8938 47.4429 51.8479 47.334 51.7821 47.2372C51.5812 46.8801 51.0399 46.8689 50.0244 47.2372C49.7789 46.9805 49.1204 46.7238 48.1049 47.1647C47.8872 46.9024 47.2009 46.8522 46.4699 47.1647C45.7389 47.4771 45.287 47.7227 44.5783 48.0519C43.6799 48.4815 43.1498 48.8498 42.2849 49.3409C40.6556 50.2783 33.1728 55.0604 31.9005 55.9699C30.3047 57.1138 18.3635 65.2606 18.3635 65.2606C18.3635 65.2606 16.0422 66.9346 14.4296 72.057C13.5535 74.847 12.6774 77.9774 15.5456 78.7251C18.4137 79.4729 23.6756 76.4485 27.0683 73.4409C31.5044 69.5014 34.0767 66.477 37.793 62.0075C38.3566 61.2124 39.1792 60.6383 40.1199 60.3837C40.9291 60.2328 41.7102 59.9581 42.4356 59.569C42.9374 59.2714 43.4117 58.9297 43.8529 58.5479C44.6065 57.8267 45.2885 57.0344 45.8896 56.1819C46.124 55.8639 46.336 55.5291 46.5815 55.2166C47.3247 54.3001 48.2101 53.5088 49.2041 52.873Z" fill="#FFA8A7"/>
<path d="M48.1437 47.1873C47.5244 46.7409 46.7041 47.1427 46.1015 47.4496C44.1383 48.4271 42.2425 49.5344 40.4266 50.7641C33.2786 55.2783 25.5559 60.7635 18.4023 65.2721C25.4945 60.066 32.6592 54.9379 40.2034 50.4014C42.0624 49.2135 44.0165 48.1814 46.0457 47.3157C46.6651 47.0367 47.5523 46.6851 48.1437 47.1873Z" fill="#F28F8F"/>
<path d="M50.0359 47.2598L48.6298 48.1024C48.1666 48.3925 47.6979 48.6603 47.2459 48.9728L45.9123 49.8768L44.5508 50.7975C44.9444 50.413 45.3598 50.0516 45.7951 49.715C46.2248 49.3746 46.6712 49.0621 47.1343 48.7552C47.5975 48.4483 48.0718 48.1972 48.5628 47.9294C49.0383 47.6734 49.5304 47.4497 50.0359 47.2598Z" fill="#F28F8F"/>
<path d="M48.1433 47.1865C47.6523 47.432 47.178 47.7055 46.7037 47.9789L45.2975 48.8215L43.8858 49.6696C43.4171 49.9486 42.9428 50.2276 42.4629 50.4955C42.887 50.1439 43.3278 49.8203 43.7798 49.5022C44.2318 49.1842 44.6949 48.8884 45.1636 48.6038C45.6323 48.3193 46.1122 48.0458 46.6088 47.8059C47.1001 47.5524 47.6138 47.345 48.1433 47.1865Z" fill="#F28F8F"/>
<path d="M40.3591 59.9538C39.0645 59.7752 38.2778 58.57 37.9653 59.4237C37.6528 60.2775 37.8704 60.8578 35.471 64.1165C34.6508 65.2325 33.0326 67.2971 31.7324 68.9823C33.8193 66.8061 35.7389 64.5183 37.809 62.024C38.1598 61.5269 38.6126 61.1103 39.1371 60.802L39.3938 60.6625L39.4998 60.6178L39.7062 60.5285L39.8067 60.4951C39.9136 60.4543 40.0237 60.4226 40.1359 60.4002L40.5265 60.2998H40.56C40.972 60.204 41.3766 60.0791 41.7708 59.9259C41.3048 60.0111 40.8281 60.0205 40.3591 59.9538Z" fill="#F28F8F"/>
<path d="M51.5469 48.4699C51.734 48.3483 51.8673 48.1595 51.9192 47.9425C51.9711 47.7255 51.9377 47.4968 51.8259 47.3037C51.8511 47.4635 51.831 47.6272 51.7679 47.7761C51.7047 47.925 51.6011 48.0533 51.4688 48.1463C50.9945 48.4923 49.6776 49.2232 48.6788 49.8817C48.1094 50.2597 47.6028 50.7248 47.1777 51.2599C47.4233 51.1148 49.1809 50.0714 49.7278 49.8036C50.3751 49.346 50.9833 48.9331 51.5469 48.4699Z" fill="#F28F8F"/>
<path d="M13.4093 35.7539C4.93329 37.9245 4.80495 46.0658 6.15531 53.303C7.62843 61.0481 12.6002 76.951 14.3802 78.1619L23.6263 69.7473L19.871 51.2607C19.871 51.2607 17.2763 37.9915 13.4093 35.7539Z" fill="#FFA8A7"/>
<path d="M21.8581 60.9756C21.8581 60.9756 16.3674 63.9051 15.3574 69.6748C17.701 65.0992 18.8505 65.2108 22.232 62.8058L21.8581 60.9756Z" fill="#F28F8F"/>
</svg>
