<svg width="111" height="158" viewBox="0 0 111 158" fill="none" xmlns="http://www.w3.org/2000/svg">
<path d="M82.5522 19L79.182 16.9839C79.0435 16.8852 78.8689 16.7702 78.6631 16.6371C76.3707 15.1313 71 11.6038 71 5.61954C71 2.51705 73.5671 0.0023479 76.7346 0.0023479C79.5178 0.0023479 81.8376 1.94493 82.3588 4.52146C82.8801 1.94258 85.1999 0 87.9831 0C91.1505 0 93.7177 2.51471 93.7177 5.61719C93.7177 11.6515 88.5309 15.1962 86.316 16.7099C86.1689 16.8109 86.0358 16.9017 85.9247 16.9823L82.5522 19Z" fill="#BA68C8"/>
<path opacity="0.3" d="M82.5522 19L79.182 16.9839C79.0435 16.8852 78.8689 16.7702 78.6631 16.6371C76.3707 15.1313 71 11.6038 71 5.61954C71 2.51705 73.5671 0.0023479 76.7346 0.0023479C79.5178 0.0023479 81.8376 1.94493 82.3588 4.52146C82.8801 1.94258 85.1999 0 87.9831 0C91.1505 0 93.7177 2.51471 93.7177 5.61719C93.7177 11.6515 88.5309 15.1962 86.316 16.7099C86.1689 16.8109 86.0358 16.9017 85.9247 16.9823L82.5522 19Z" fill="white"/>
<path d="M89.4634 110.765H89.3741L86.8687 109.576C86.8352 109.56 86.8063 109.536 86.7848 109.506C86.7633 109.475 86.7499 109.44 86.7459 109.403C86.7459 109.331 85.9145 102.317 92.8505 94.4488C97.7943 88.8353 104.222 85.8444 107.476 87.6411C108.083 87.934 108.601 88.3847 108.975 88.9462C109.349 89.5076 109.566 90.1593 109.602 90.8329C109.575 91.6016 109.346 92.3496 108.936 93.0006C108.526 93.6515 107.951 94.182 107.269 94.538C106.94 94.7333 106.432 94.99 105.79 95.3192C101.823 97.3336 92.538 102.06 89.7033 110.631C89.6922 110.662 89.6745 110.691 89.6514 110.715C89.6283 110.739 89.6004 110.758 89.5694 110.77C89.534 110.774 89.4982 110.772 89.4634 110.765ZM87.1979 109.208L89.3406 110.229C92.3315 101.641 101.617 96.9263 105.567 94.9063C106.203 94.5827 106.683 94.3483 107.018 94.1363C107.633 93.8196 108.153 93.3454 108.524 92.7621C108.896 92.1788 109.106 91.5073 109.133 90.8162C109.099 90.2235 108.906 89.651 108.573 89.1597C108.24 88.6683 107.779 88.2766 107.241 88.0262C104.178 86.3522 98.012 89.2817 93.2076 94.7222C86.9245 101.87 87.1254 108.276 87.1979 109.208Z" fill="#BA68C8"/>
<path d="M88.0407 110.09C88.0109 110.086 87.9821 110.076 87.9564 110.06C87.9306 110.045 87.9084 110.024 87.8911 109.999C87.8738 109.974 87.8618 109.946 87.8558 109.917C87.8499 109.887 87.8502 109.857 87.8566 109.828C89.9826 99.5715 99.675 91.2573 105.155 90.2585C105.214 90.2466 105.275 90.258 105.326 90.2902C105.377 90.3224 105.413 90.373 105.428 90.4315C105.438 90.4906 105.424 90.5512 105.39 90.6002C105.355 90.6493 105.303 90.6828 105.244 90.6937C99.8257 91.6814 90.3341 100.18 88.3141 109.917C88.2984 109.975 88.2616 110.024 88.211 110.056C88.1604 110.088 88.0997 110.1 88.0407 110.09Z" fill="#BA68C8"/>
<path d="M86.9636 109.576C86.9288 109.573 86.8948 109.563 86.8632 109.548L85.1892 108.661C85.156 108.645 85.1274 108.62 85.106 108.59C85.0845 108.56 85.071 108.525 85.0664 108.488C85.0664 108.388 84.1123 97.9809 89.4356 85.3087C92.1475 78.8582 97.7498 73.1666 102.755 71.7772C103.817 71.4311 104.944 71.3306 106.051 71.4834C107.158 71.6361 108.215 72.038 109.144 72.6588C109.599 72.916 109.987 73.276 110.278 73.7101C110.568 74.1442 110.753 74.6403 110.818 75.1587C110.991 77.798 107.426 80.9451 103.653 84.2764C101.014 86.6032 98.2855 89.0138 96.7621 91.3239C96.727 91.3743 96.6743 91.4097 96.6144 91.4231C96.5545 91.4365 96.4917 91.427 96.4385 91.3965C96.413 91.3816 96.3908 91.3617 96.3733 91.338C96.3557 91.3143 96.3432 91.2873 96.3364 91.2586C96.3296 91.2299 96.3287 91.2001 96.3338 91.171C96.3389 91.142 96.3498 91.1142 96.3659 91.0896C97.9172 88.7292 100.674 86.2963 103.335 83.9472C107.024 80.694 110.511 77.6194 110.349 75.1865C110.295 74.7348 110.134 74.3025 109.88 73.9252C109.626 73.5478 109.286 73.2362 108.887 73.0159C108.017 72.4372 107.026 72.0636 105.99 71.9235C104.953 71.7833 103.899 71.8802 102.906 72.2068C98.0232 73.5572 92.5492 79.1372 89.8876 85.4761C84.9046 97.328 85.457 107.166 85.5407 108.354L87.1143 109.18C87.1404 109.193 87.1635 109.212 87.1822 109.235C87.2009 109.257 87.2149 109.283 87.2232 109.312C87.2316 109.34 87.2341 109.369 87.2308 109.398C87.2274 109.428 87.2181 109.456 87.2036 109.481C87.1768 109.518 87.1399 109.547 87.0974 109.564C87.0549 109.58 87.0085 109.585 86.9636 109.576Z" fill="#BA68C8"/>
<path d="M87.9293 103.265C87.8994 103.262 87.8704 103.253 87.844 103.239C87.8175 103.225 87.7942 103.205 87.7755 103.182C87.7567 103.159 87.7429 103.132 87.7348 103.103C87.7267 103.074 87.7246 103.044 87.7284 103.014C89.9604 86.9378 102.142 76.1851 105.384 74.5557C105.439 74.5275 105.502 74.5216 105.562 74.5393C105.621 74.557 105.671 74.5969 105.702 74.6506C105.716 74.6768 105.724 74.7056 105.727 74.7353C105.73 74.7649 105.726 74.7948 105.717 74.823C105.707 74.8513 105.692 74.8773 105.672 74.8994C105.652 74.9216 105.628 74.9395 105.601 74.9519C102.404 76.5367 90.4124 87.1442 88.1916 103.053C88.1905 103.085 88.1825 103.116 88.1682 103.145C88.154 103.173 88.1337 103.199 88.1088 103.219C88.084 103.239 88.0551 103.253 88.0241 103.261C87.9931 103.269 87.9608 103.27 87.9293 103.265Z" fill="#BA68C8"/>
<path d="M42.7955 53.9037C39.9077 55.0879 37.4181 57.0722 35.6196 59.6232C31.7638 64.9409 26.4628 71.5867 26.4628 71.5867L25.1348 88.2207C26.6223 87.8305 27.9932 87.0857 29.13 86.05C34.4924 81.5247 44.1123 71.2296 44.1123 71.2296L47.1813 52.5254C45.6875 52.8763 44.2215 53.337 42.7955 53.9037Z" fill="#FFBDA7"/>
<path d="M26.4746 71.5867C27.4363 74.3939 28.1825 77.2703 28.7066 80.191C28.7066 80.191 29.9621 74.6724 27.5906 70.2363L26.4746 71.5867Z" fill="#F0997A"/>
<path d="M36.5965 57.5421C34.5486 59.9582 29.2644 66.9499 27.1719 69.7399C28.4051 73.8468 32.7519 77.5519 36.7639 79.2259C41.0717 74.9293 44.481 71.28 44.481 71.28L47.4329 51.9844C41.8026 52.3638 39.18 54.5233 36.5965 57.5421Z" fill="#455A64"/>
<path d="M13.0817 50.6955C13.2881 49.4511 11.642 48.8039 11.4077 47.7046C11.3702 47.5493 11.3752 47.3867 11.4219 47.234C11.4687 47.0812 11.5556 46.9438 11.6736 46.836C11.7916 46.7283 11.9364 46.6542 12.0927 46.6215C12.2491 46.5887 12.4115 46.5986 12.5627 46.65C13.3049 46.8174 13.8071 47.4591 14.4041 47.8832C15.1123 48.3612 15.9124 48.6862 16.7533 48.8373C18.5054 49.2 20.4752 49.9533 21.0946 51.8338C20.6833 51.7311 20.2626 51.6712 19.8391 51.6552C17.6126 51.3372 15.3583 51.0024 13.0817 50.6955Z" fill="#F0997A"/>
<path d="M8.06094 46.426C8.1837 46.6213 8.30089 46.8222 8.41249 47.0175L8.85331 47.782C8.92027 47.9103 8.98165 48.0386 9.04303 48.167C9.10441 48.2953 9.14905 48.5464 9.19927 48.5687C9.80191 48.8422 10.6947 48.9705 11.4815 49.7182C12.2683 50.4659 12.3296 50.7673 14.1487 50.7282C15.3707 50.7282 17.1061 50.3097 18.5346 50.5441C19.9631 50.7784 21.2744 51.2527 21.7041 53.0885C22.1337 54.9243 21.9049 55.9678 22.435 57.8148C22.8368 59.2098 23.7073 62.3848 26.0564 69.0306C28.7014 76.4911 29.0083 79.8725 29.0083 79.8725C28.6288 81.8925 26.8767 87.824 25.1525 88.2425C22.8033 88.8005 19.7232 87.4334 17.6418 81.3624C16.8606 79.0746 16.5258 76.4799 16.2914 73.1096C16.1185 70.3698 15.8339 68.6009 15.4265 64.6838C15.0583 61.1293 14.6174 59.1596 13.8865 57.9543C13.0581 56.6776 11.9272 55.6253 10.5943 54.8909C9.00955 54.1041 8.86446 54.3329 7.7652 52.564C7.07328 51.3643 5.81221 50.2595 5.13703 49.4336C4.47956 48.6056 3.94229 47.6889 3.54114 46.7106C3.29831 46.0296 3.00164 45.3691 2.65392 44.7353C2.53578 44.5985 2.46873 44.4249 2.4642 44.2442C2.47503 44.1814 2.49902 44.1216 2.5346 44.0687C2.57018 44.0158 2.61655 43.971 2.67066 43.9373C2.77986 43.8668 2.90409 43.8228 3.03336 43.809C2.9664 43.809 2.64834 43.3849 2.59812 43.3235C2.47536 43.1673 2.37492 43.0278 2.23542 42.8771C2.1796 42.8335 2.13996 42.7725 2.12278 42.7037C2.10559 42.635 2.11186 42.5625 2.14057 42.4977C2.19223 42.4294 2.2681 42.3834 2.3526 42.3694C2.69846 42.2752 3.06503 42.2908 3.40164 42.414C3.8311 42.6221 4.23082 42.8867 4.59018 43.2008C4.64487 43.2466 4.70719 43.2825 4.77431 43.3068C4.86698 43.318 4.96065 43.318 5.05331 43.3068C5.34701 43.3198 5.62373 43.4481 5.82336 43.6639C6.17174 44.0568 6.49598 44.4705 6.79429 44.9027C6.99517 45.1482 7.22953 45.3602 7.43599 45.6002C7.66558 45.8587 7.87453 46.1348 8.06094 46.426Z" fill="#FFBDA7"/>
<path d="M10.0197 49.7962C10.3839 50.1218 10.8198 50.3569 11.2919 50.4825C11.6922 50.5899 12.1051 50.6425 12.5195 50.6388C12.91 50.7788 13.3212 50.8523 13.736 50.8564C14.6678 50.8564 15.7783 50.6946 16.8719 50.6332C17.6834 50.8179 18.4227 51.2371 18.9979 51.8385C19.2706 52.1582 19.4995 52.5129 19.6787 52.8931C19.8278 53.3394 19.9507 53.794 20.047 54.2546C20.0952 53.7952 20.0535 53.3309 19.9242 52.8875C19.7938 52.4376 19.5715 52.0195 19.2713 51.6599C18.6852 51.0451 17.8873 50.6761 17.0393 50.6276C19.0704 50.5383 21.0234 50.8285 21.6819 53.0884C21.4252 51.0963 19.3662 50.3486 17.5862 50.2984C15.8787 50.1812 14.0485 50.8954 12.4247 50.2984C12.0794 50.0456 11.7564 49.7637 11.4593 49.4558C10.8081 48.9789 10.074 48.6269 9.29428 48.4179C9.2747 48.3763 9.25793 48.3334 9.24406 48.2896C8.71903 47.0422 7.96158 45.906 7.01206 44.9416C6.415 44.3836 6.01325 43.2676 5.06465 43.2676C6.00767 43.3903 6.32015 44.3836 6.89489 45.0309C7.81853 46.0214 8.54564 47.1784 9.03761 48.4402C9.07338 48.5309 9.1356 48.6086 9.21617 48.6634C9.93599 48.9592 10.6447 49.0652 11.225 49.5953C11.5416 49.9118 11.881 50.2046 12.2405 50.4714L12.0508 50.4267C11.822 50.3653 11.5933 50.3151 11.3645 50.2482C10.9063 50.1286 10.457 49.9776 10.0197 49.7962ZM7.0288 48.2896C6.86911 48.2207 6.72631 48.1178 6.6103 47.9883C6.53939 47.8781 6.48135 47.7601 6.43732 47.6367C6.22064 47.1158 5.86079 46.6669 5.39945 46.3422C5.28128 46.2823 5.1776 46.1974 5.09568 46.0933C5.01375 45.9892 4.95555 45.8684 4.92515 45.7395C4.71497 45.2996 4.4277 44.9008 4.07698 44.5621C3.99748 44.4686 3.90764 44.3843 3.80915 44.311C3.75424 44.2669 3.69187 44.2328 3.625 44.2106C3.94422 44.4782 4.21918 44.7946 4.43969 45.148C4.62578 45.4911 4.77719 45.8519 4.89167 46.225V46.2752L4.95304 46.3143C5.11415 46.4323 5.26877 46.559 5.41619 46.6937C5.5619 46.8331 5.69798 46.9823 5.82352 47.1401C6.07608 47.4555 6.27583 47.8098 6.415 48.1891L6.44848 48.284L6.52661 48.3119C6.67429 48.3555 6.81802 48.4115 6.95626 48.4793C7.10134 48.5518 7.24084 48.6244 7.37476 48.7081C7.51247 48.7928 7.64479 48.886 7.77095 48.9871C7.89843 49.0893 8.01955 49.1993 8.13365 49.3163C7.88374 48.8654 7.49677 48.5058 7.0288 48.2896ZM4.98652 43.5968C4.92514 43.5243 4.83028 43.4685 4.77448 43.3959C4.95451 43.66 5.10603 43.9425 5.22647 44.2385C5.25474 44.2997 5.2864 44.3594 5.32132 44.4171C5.36481 44.4735 5.41138 44.5275 5.46082 44.5789C5.71648 44.8338 5.94293 45.1164 6.136 45.4215C6.32708 45.7558 6.45389 46.123 6.50987 46.504V46.6267L6.62704 46.6602C6.82981 46.7299 7.02591 46.8177 7.21295 46.9225C7.4067 47.029 7.59312 47.1483 7.77095 47.2796C7.94951 47.4191 8.12249 47.5586 8.28989 47.7148C8.46004 47.872 8.62207 48.0378 8.77535 48.2115C8.47262 47.6983 8.05654 47.2612 7.55891 46.9336C7.40267 46.8332 7.24085 46.7439 7.07345 46.6546C6.90605 46.5654 6.73865 46.5263 6.68843 46.398C6.68313 46.3741 6.68313 46.3493 6.68843 46.3254C6.65262 45.9176 6.49734 45.5294 6.24202 45.2094C5.9965 44.9025 5.68403 44.6514 5.44967 44.3557C5.33807 44.1939 5.25994 44.0209 5.1595 43.8591C5.10868 43.7673 5.05085 43.6796 4.98652 43.5968Z" fill="#F0997A"/>
<path d="M33.5951 128.853L28.149 120.093L19.2656 126.387L31.9936 139.003C31.9936 139.003 37.6685 137.977 38.3269 134.913C38.9853 131.85 35.2579 129.707 33.5951 128.853Z" fill="#FFBDA7"/>
<path d="M40.5032 131.873C41.0575 132.212 41.5407 132.656 41.9261 133.179C42.3502 133.737 42.4841 136.432 42.9361 137.643C43.388 138.854 43.7173 139.183 44.4538 140.706C45.2741 142.38 46.6467 143.887 45.6479 148.518C44.6491 153.15 42.6013 155.471 40.8101 156.732C40.1373 157.158 39.3715 157.414 38.5781 157.48C38.5781 157.48 36.028 156.765 36.2791 155.248C36.5302 153.73 40.5032 131.873 40.5032 131.873Z" fill="#263238"/>
<path d="M30.1068 137.754C30.2128 138.206 30.9215 138.87 31.2228 139.216C32.2216 140.41 32.7796 142.095 33.2148 143.574C35.2906 150.554 32.7796 154.416 36.8363 156.748C38.0081 157.351 40.2903 156.96 43.3983 152.172C44.9831 149.728 45.5913 144.918 44.7096 142.859C43.828 140.8 42.7511 139.484 42.1596 137.882C41.5681 136.281 41.5346 133.206 40.4856 131.872C39.8262 131.132 39.0105 130.546 38.0973 130.159C37.3831 129.802 35.8654 129.389 35.1232 129.043C34.3811 128.697 34.0072 128.296 33.5776 128.837L34.4648 129.752C35.8598 131.37 35.5361 131.655 35.5808 132.575C35.7176 133.562 35.9589 134.531 36.3006 135.466C35.3129 134.422 34.8665 133.474 33.9123 133.731C32.9582 133.987 32.8354 133.954 31.5632 135.377C30.2909 136.8 30.0119 137.346 30.1068 137.754Z" fill="#455A64"/>
<path d="M43.3934 152.172C44.9781 149.728 45.5863 144.918 44.7047 142.859C44.409 142.177 44.0755 141.512 43.7059 140.867C43.7449 141.007 43.8007 141.152 43.8342 141.269C43.9012 141.542 43.9625 141.827 44.0128 142.089C44.2682 143.164 44.2432 144.286 43.9402 145.348C43.611 146.274 42.88 148.573 41.7082 148.729C41.033 148.813 40.4025 148.205 40.0789 147.468C39.9394 147.156 39.6827 146.313 39.6827 146.313C38.6052 146.661 37.5913 147.181 36.6807 147.853C35.0457 149.153 35.135 149.399 35.135 149.399C35.2811 149.891 35.3433 150.404 35.3191 150.917C35.2683 151.473 35.0928 152.011 34.8058 152.49C34.6871 152.639 34.5503 152.772 34.3984 152.887C34.6105 154.516 35.1517 155.771 36.8536 156.748C38.0031 157.351 40.2853 156.96 43.3934 152.172Z" fill="#37474F"/>
<path d="M33.2092 143.573C33.7463 145.41 34.061 147.304 34.1467 149.215C34.9613 150.978 35.5305 150.889 35.5249 149.923C35.5193 148.958 33.9235 145.169 32.707 142.017C32.8968 142.541 33.0586 143.066 33.2092 143.573Z" fill="#37474F"/>
<path d="M36.5456 131.789C36.5388 130.861 36.2116 129.964 35.6193 129.25C35.4407 129.183 35.2733 129.121 35.1394 129.06C34.3526 128.697 34.0234 128.312 33.5938 128.854L34.481 129.769C35.876 131.387 35.5523 131.672 35.597 132.592C35.7338 133.579 35.9751 134.547 36.3168 135.483C37.31 138.507 38.0577 139.478 38.6548 142.368C39.2519 145.259 38.839 147.262 39.263 147.39C39.6871 147.519 40.4962 147.117 40.4404 144.768C40.3846 142.419 39.0175 138.58 38.1247 136.783C37.2319 134.986 36.5177 133.05 36.5456 131.789Z" fill="#37474F"/>
<path d="M39.8657 146.498C39.8304 146.543 39.7816 146.576 39.7262 146.593C38.8165 146.793 37.9562 147.174 37.1962 147.712C36.4362 148.251 35.7919 148.937 35.3013 149.729C35.2814 149.765 35.2538 149.797 35.2204 149.823C35.187 149.848 35.1485 149.865 35.1077 149.874C35.0668 149.883 35.0245 149.883 34.9836 149.874C34.9428 149.865 34.9044 149.847 34.871 149.822C34.8377 149.797 34.8102 149.765 34.7904 149.728C34.7706 149.691 34.759 149.65 34.7564 149.609C34.7538 149.567 34.7603 149.525 34.7754 149.486C34.7904 149.447 34.8138 149.412 34.8437 149.383C35.9168 147.685 37.6179 146.482 39.5756 146.035C39.6126 146.024 39.6514 146.02 39.6898 146.024C39.7282 146.028 39.7654 146.04 39.7992 146.059C39.8329 146.078 39.8626 146.103 39.8865 146.133C39.9104 146.163 39.928 146.198 39.9383 146.235C39.9486 146.282 39.9473 146.33 39.9347 146.376C39.922 146.421 39.8983 146.463 39.8657 146.498Z" fill="#EBEBEB"/>
<path d="M39.3077 144.098C39.2693 144.14 39.2215 144.173 39.1682 144.193C37.2409 144.696 35.5782 145.915 34.5201 147.603C34.4974 147.635 34.4684 147.662 34.4348 147.683C34.4013 147.704 34.364 147.718 34.325 147.724C34.2859 147.731 34.2461 147.729 34.2077 147.72C34.1694 147.71 34.1333 147.693 34.1016 147.669C34.0367 147.623 33.9926 147.554 33.979 147.475C33.9654 147.397 33.9834 147.316 34.0291 147.251C35.1665 145.462 36.9355 144.168 38.9841 143.624C39.0214 143.611 39.061 143.606 39.1005 143.608C39.14 143.611 39.1785 143.621 39.2139 143.639C39.2493 143.656 39.2807 143.681 39.3064 143.711C39.3321 143.741 39.3516 143.776 39.3635 143.814C39.3784 143.862 39.3811 143.913 39.3714 143.963C39.3616 144.013 39.3398 144.059 39.3077 144.098Z" fill="#EBEBEB"/>
<path d="M39.1188 141.415C39.0795 141.463 39.0273 141.5 38.9681 141.521C36.8179 142.1 34.9638 143.467 33.7731 145.349C33.7208 145.419 33.643 145.466 33.5564 145.479C33.4698 145.493 33.3813 145.472 33.31 145.421C33.2392 145.371 33.1912 145.294 33.1766 145.208C33.1619 145.123 33.1818 145.035 33.2319 144.964C34.508 142.969 36.4781 141.517 38.7616 140.89C38.803 140.876 38.8468 140.871 38.8903 140.874C38.9339 140.877 38.9763 140.889 39.0153 140.909C39.0542 140.928 39.0889 140.956 39.1172 140.989C39.1455 141.022 39.1669 141.061 39.1801 141.102C39.1983 141.155 39.2022 141.212 39.1914 141.267C39.1806 141.322 39.1556 141.373 39.1188 141.415Z" fill="#EBEBEB"/>
<path d="M38.5318 139.16C38.4926 139.208 38.4402 139.243 38.3812 139.261C36.278 139.826 34.4638 141.16 33.2978 142.999C33.2753 143.038 33.2449 143.073 33.2085 143.099C33.172 143.126 33.1304 143.145 33.0862 143.155C33.0421 143.164 32.9964 143.164 32.9521 143.155C32.9078 143.146 32.866 143.128 32.8292 143.102C32.7924 143.076 32.7615 143.042 32.7384 143.003C32.7154 142.964 32.7008 142.921 32.6956 142.876C32.6903 142.831 32.6945 142.786 32.7079 142.743C32.7213 142.699 32.7435 142.659 32.7733 142.625C34.0172 140.672 35.9453 139.253 38.1803 138.647C38.2625 138.62 38.3518 138.627 38.429 138.666C38.5062 138.704 38.5652 138.772 38.5932 138.853C38.6088 138.906 38.6113 138.961 38.6006 139.014C38.5899 139.068 38.5663 139.118 38.5318 139.16Z" fill="#EBEBEB"/>
<path d="M37.4997 137.006C37.4605 137.054 37.4081 137.089 37.349 137.107C35.2459 137.672 33.4317 139.006 32.2657 140.846C32.2153 140.915 32.1399 140.962 32.0555 140.976C31.9711 140.991 31.8844 140.972 31.8137 140.924C31.7792 140.899 31.75 140.867 31.7277 140.831C31.7054 140.795 31.6905 140.755 31.6838 140.713C31.677 140.671 31.6786 140.628 31.6885 140.586C31.6983 140.545 31.7162 140.506 31.7411 140.472C32.985 138.518 34.9132 137.1 37.1482 136.493C37.2148 136.471 37.2869 136.471 37.3535 136.493C37.4201 136.516 37.4776 136.559 37.5173 136.617C37.557 136.675 37.5768 136.745 37.5736 136.815C37.5704 136.885 37.5445 136.952 37.4997 137.006Z" fill="#EBEBEB"/>
<path d="M31.1339 129.808L25.5037 135.287L22.2617 137.737L26.8206 144.795L37.3891 138.557L31.1339 129.808Z" fill="#FFBDA7"/>
<path d="M40.5972 95.6416C40.5972 95.6416 18.2214 93.9062 8.79117 94.7879C-0.834332 95.6918 -0.276332 104.832 2.65317 108.916C10.6995 120.076 23.634 131.549 23.634 131.549C23.634 131.549 29.8166 128.949 31.0665 124.139L26.6751 116.064L38.5158 118.748L44.0512 114.284L44.2688 111.238L40.5972 95.6416Z" fill="#455A64"/>
<path d="M40.5968 95.6416L79.3387 98.6715C79.3387 98.6715 80.5105 107.778 77.6312 116.276C76.6095 119.26 74.8518 121.938 72.5207 124.062C70.1897 126.187 67.3605 127.689 64.295 128.43C60.5092 129.287 56.6794 129.937 52.8226 130.377C51.0941 131.963 49.1791 133.333 47.1198 134.456C44.1903 135.929 31.373 142.659 31.373 142.659C31.373 142.659 27.361 139.818 27.1602 133.201L38.5545 118.748C41.0934 115.038 41.9918 113.832 43.504 112.912C40.9037 103.069 40.7753 100.837 40.5968 95.6416Z" fill="#455A64"/>
<path d="M40.2339 116.343C39.0788 117.961 38.532 118.748 38.532 118.748L36.6348 118.302C36.6348 118.302 39.5922 114.463 41.5396 112.409C43.6656 110.177 46.7067 109.776 49.6585 110.01C53.4082 110.3 64.2725 111.193 64.2725 111.193C64.2725 111.193 53.9328 111.159 48.576 111.422C43.2192 111.684 41.3889 114.725 40.2339 116.343Z" fill="#37474F"/>
<path d="M39.8655 102.996C40.496 106.707 43.3362 110.624 44.8261 111.556L42.7392 112.8C42.7392 112.8 39.5083 108.04 39.8655 102.996Z" fill="#37474F"/>
<path d="M24.1468 109.089C26.153 111.531 28.0162 114.087 29.7268 116.745L26.7025 116.064C22.696 108.453 21.8144 106.21 16.1953 102.968C16.1842 102.968 20.1125 104.073 24.1468 109.089Z" fill="#37474F"/>
<path d="M55.2506 125.701C55.2506 125.701 53.4985 128.792 47.2265 132.118C43.7056 133.987 32.7688 139.406 29.3984 140.522C29.9316 141.333 30.5909 142.055 31.3514 142.659C31.3514 142.659 44.1854 135.929 47.0982 134.456C47.7378 134.131 48.3582 133.77 48.9563 133.374C49.2186 133.206 49.4809 133.028 49.7264 132.855C50.3737 132.403 50.9596 131.951 51.445 131.56C51.9305 131.17 52.3099 130.84 52.561 130.628L52.8065 130.405L52.84 130.377C55.4905 127.621 55.2506 125.701 55.2506 125.701Z" fill="#37474F"/>
<path d="M8.70106 142.804C6.19564 144.054 4.68346 145.22 3.62326 146.894C2.56306 148.568 2.33428 150.18 3.62326 151.983C4.91224 153.785 7.2112 155.822 9.68314 155.459C12.1551 155.096 13.6282 154.343 15.8211 152.898L8.70106 142.804Z" fill="#263238"/>
<path d="M29.6265 143.189C29.7325 143.965 26.591 145.801 23.3267 147.72C19.828 149.779 19.0301 150.996 16.1787 152.742C12.92 154.712 11.6366 154.924 8.92468 154.416C6.2128 153.908 2.63044 150.415 4.60018 146.744C6.20164 143.747 8.53409 142.76 12.0885 141.487C14.9175 140.503 17.6798 139.336 20.3581 137.994C22.8914 136.744 24.9002 134.724 25.4973 135.31C25.1402 135.528 22.5399 137.464 23.0979 137.877C23.243 138.106 23.6559 137.994 24.2809 137.659C24.4196 137.572 24.5757 137.515 24.7384 137.493C24.9011 137.47 25.0667 137.484 25.2239 137.531C25.5433 137.704 25.8037 137.968 25.9716 138.29C26.3441 138.94 26.6794 139.611 26.976 140.299C27.2215 140.762 27.1155 140.494 27.3443 140.963C27.573 141.432 28.0808 142.269 28.0697 142.771C28.0697 143.078 27.8576 143.189 27.64 143.357C27.4224 143.524 27.082 143.73 26.9034 143.915C26.8253 143.993 26.6858 144.227 26.7472 144.339C26.8086 144.45 27.3052 144.389 27.5005 144.288C27.6958 144.188 28.0194 144.082 28.2482 143.97C28.477 143.859 29.0517 143.524 29.6265 143.189Z" fill="#455A64"/>
<path d="M17.3008 152.055C16.8321 152.34 13.8691 154.047 12.8368 153.272C11.8045 152.496 14.0589 150.727 14.0589 150.727C14.0589 150.727 14.2318 148.361 11.1182 145.181C10.6662 145.599 8.62953 145.739 8.55699 144.561C8.48445 143.384 11.7543 141.598 11.8045 141.576C8.40074 142.809 6.1799 143.808 4.62308 146.721C2.65334 150.393 6.24128 153.891 8.94758 154.393C11.6539 154.896 12.9373 154.689 16.2016 152.719C16.5085 152.519 17.0163 152.256 17.3008 152.055Z" fill="#37474F"/>
<path d="M13.6909 150.498C12.4354 151.056 13.423 152.139 15.2756 151.614C18.0656 150.8 20.2641 148.992 23.3275 147.708C26.5918 145.789 29.9287 143.975 29.6274 143.133C29.0694 143.417 27.786 144.07 27.786 144.07C27.5404 144.204 26.9043 144.506 26.9043 144.506C24.4156 145.845 21.7205 147.887 18.9975 148.886C16.5925 149.779 14.9408 149.979 13.6909 150.498Z" fill="#37474F"/>
<path d="M11.3298 145.605C12.4458 144.818 12.602 144.221 14.8229 142.954C17.0437 141.688 20.7544 139.048 23.0478 137.458C23.9051 136.78 24.7247 136.055 25.503 135.288C25.0622 134.869 23.6281 135.416 22.2331 136.476C20.8381 137.536 20.0011 138.206 18.6005 139.093C15.9054 141.046 12.7694 142.48 11.2405 143.663C9.7116 144.846 10.2082 146.392 11.3298 145.605Z" fill="#37474F"/>
<path d="M11.129 145.31C11.1481 145.345 11.1726 145.377 11.2015 145.405C12.6422 146.927 13.586 148.852 13.9078 150.923C13.9202 151.006 13.9629 151.082 14.0278 151.136C14.0928 151.189 14.1752 151.217 14.2593 151.213C14.2987 151.207 14.3365 151.193 14.3701 151.172C14.4038 151.151 14.4326 151.123 14.4547 151.09C14.4768 151.056 14.4916 151.019 14.4984 150.98C14.5051 150.941 14.5035 150.9 14.4937 150.862C14.1563 148.623 13.1283 146.545 11.5531 144.919C11.5254 144.891 11.4921 144.869 11.4554 144.856C11.4187 144.842 11.3794 144.836 11.3402 144.839C11.301 144.841 11.2629 144.852 11.2284 144.871C11.1938 144.89 11.1637 144.916 11.1401 144.947C11.1042 145 11.0842 145.063 11.0822 145.127C11.0802 145.191 11.0964 145.254 11.129 145.31Z" fill="#F0F0F0"/>
<path d="M13.2668 143.44C13.2893 143.471 13.3135 143.501 13.3393 143.529C15.0056 145.365 16.1601 147.607 16.6873 150.03C16.7022 150.112 16.7468 150.186 16.8127 150.238C16.8786 150.289 16.9611 150.314 17.0444 150.309C17.0837 150.301 17.1209 150.285 17.1537 150.263C17.1866 150.24 17.2143 150.21 17.2353 150.176C17.2562 150.142 17.2699 150.104 17.2755 150.065C17.2811 150.025 17.2784 149.985 17.2676 149.946C16.7313 147.377 15.511 145 13.7355 143.066C13.7098 143.036 13.6778 143.011 13.6417 142.994C13.6055 142.977 13.5661 142.969 13.5263 142.969C13.4864 142.969 13.447 142.977 13.4108 142.994C13.3747 143.011 13.3427 143.036 13.317 143.066C13.274 143.117 13.2464 143.18 13.2375 143.246C13.2286 143.312 13.2388 143.379 13.2668 143.44Z" fill="#F0F0F0"/>
<path d="M18.8851 149.594C18.9121 149.648 18.9535 149.693 19.0048 149.725C19.056 149.756 19.1151 149.773 19.1752 149.773C19.2146 149.77 19.253 149.76 19.2879 149.741C19.3228 149.723 19.3533 149.697 19.3776 149.666C19.4019 149.635 19.4192 149.599 19.4286 149.561C19.438 149.522 19.4391 149.482 19.4319 149.444C18.9353 145.32 15.9333 141.676 15.7993 141.553C15.7737 141.523 15.7417 141.498 15.7055 141.482C15.6694 141.465 15.63 141.456 15.5901 141.456C15.5502 141.456 15.5108 141.465 15.4747 141.482C15.4385 141.498 15.4065 141.523 15.3808 141.553C15.337 141.626 15.3197 141.711 15.3319 141.794C15.3442 141.878 15.3851 141.954 15.4478 142.011C15.4757 142.039 18.3829 145.599 18.8404 149.438C18.845 149.493 18.8601 149.546 18.8851 149.594Z" fill="#F0F0F0"/>
<path d="M20.8941 148.055C20.9198 148.109 20.9601 148.155 21.0103 148.187C21.0606 148.22 21.1188 148.238 21.1787 148.239C21.218 148.237 21.2564 148.227 21.2915 148.209C21.3266 148.192 21.3576 148.167 21.3823 148.136C21.4071 148.105 21.4251 148.07 21.4352 148.032C21.4453 147.994 21.4473 147.954 21.4409 147.915C21.1022 145.063 19.7685 142.421 17.6744 140.455C17.6453 140.428 17.6107 140.408 17.5731 140.396C17.5354 140.384 17.4956 140.38 17.4564 140.385C17.4171 140.39 17.3794 140.403 17.3457 140.424C17.3121 140.444 17.2833 140.472 17.2615 140.505C17.2201 140.579 17.2069 140.666 17.2243 140.749C17.2417 140.832 17.2886 140.906 17.3564 140.957C19.2709 142.816 20.4984 145.269 20.8383 147.915C20.8435 147.966 20.8628 148.015 20.8941 148.055Z" fill="#F0F0F0"/>
<path d="M23.5224 146.66C23.5485 146.712 23.5882 146.756 23.6373 146.787C23.6864 146.819 23.7431 146.836 23.8014 146.838C23.8412 146.839 23.8807 146.831 23.917 146.814C23.9532 146.798 23.9854 146.773 24.011 146.743C24.0367 146.713 24.0552 146.677 24.0653 146.638C24.0754 146.6 24.0767 146.559 24.0692 146.52C23.6786 142.224 20.3641 139.16 20.219 139.037C20.1907 139.01 20.1567 138.989 20.1196 138.976C20.0824 138.963 20.0428 138.958 20.0036 138.962C19.9644 138.966 19.9264 138.978 19.8924 138.998C19.8583 139.017 19.8289 139.044 19.8061 139.076C19.7613 139.149 19.7445 139.236 19.7589 139.32C19.7733 139.404 19.8178 139.48 19.8842 139.534C19.9177 139.534 23.1151 142.525 23.4778 146.515C23.4841 146.565 23.4992 146.614 23.5224 146.66Z" fill="#EBEBEB"/>
<path d="M40.145 67.1725C39.4029 56.8942 42.3212 53.2225 47.4325 52.0061L58.3135 51.1523C58.3135 51.1523 68.2961 52.9547 71.3595 53.6187C73.3348 54.0428 77.0344 58.9253 78.2173 65.1693C79.1771 70.2471 80.1201 74.4991 80.3824 81.6247C80.6726 89.454 80.4508 97.2939 79.7184 105.094C63.687 111.846 41.0266 103.236 38.8281 95.5133C39.2243 93.3204 42.2208 89.9612 42.1092 85.6646C40.7532 76.8036 40.3794 70.4033 40.145 67.1725Z" fill="#263238"/>
<path d="M56.3042 36.0252L60.8072 37.2082C61.4361 37.3337 62.0566 37.4977 62.6654 37.6992L62.7435 41.1309L62.9723 46.0246C63.7274 45.7338 64.3425 45.1647 64.6909 44.4343C65.8967 42.1565 66.7562 39.7116 67.241 37.1803C68.5132 30.7019 67.8994 28.509 67.174 27.3372C66.5882 26.2808 65.6259 25.4839 64.4789 25.1052C63.6809 21.3721 60.3999 19.793 58.8989 19.3243C56.9293 18.7882 54.8712 18.659 52.8501 18.9449C51.9268 19.0222 51.0142 19.1962 50.1271 19.4638C48.9107 19.8655 47.7947 20.5463 46.5726 20.909C45.3506 21.2717 43.8887 21.2717 42.9233 20.4291C42.8172 20.3207 42.6971 20.2269 42.5662 20.1501C42.3969 20.0861 42.2116 20.0775 42.037 20.1256C41.8625 20.1738 41.7078 20.2761 41.5953 20.418C41.3777 20.7093 41.2445 21.0548 41.2103 21.4168C41.0049 22.7848 41.2538 24.1824 41.9189 25.3953C41.7638 25.3546 41.6003 25.3575 41.4467 25.4038C41.2931 25.4501 41.1553 25.5379 41.0484 25.6576C40.8417 25.9033 40.7049 26.2001 40.6523 26.5169C40.2003 28.5703 41.4391 30.7075 43.18 31.8904C43.9302 32.3753 44.7287 32.7811 45.5627 33.1013C47.3333 33.8267 49.1532 34.4252 51.0088 34.8925C52.7665 35.35 54.5409 35.5509 56.3042 36.0252Z" fill="#37474F"/>
<path d="M67.3026 42.2467C64.8586 43.6585 63.5584 41.7445 63.5584 41.7445L63.9602 52.7427C59.5743 59.5949 46.4167 57.9209 51.3829 52.659L51.1764 49.5677C50.4315 49.5901 49.6859 49.564 48.9444 49.4896C47.7986 49.3942 46.7065 48.9626 45.8051 48.2488C44.9037 47.535 44.2332 46.571 43.8778 45.4775C43.6666 44.8747 43.4914 44.2598 43.3532 43.6361C42.6463 40.2186 42.4582 36.7141 42.7952 33.2406C42.8704 31.3605 43.2472 29.5048 43.9112 27.7443C44.0858 27.2395 44.3763 26.7828 44.7594 26.4107C46.2604 25.0938 47.2258 27.3537 48.5705 27.5713C49.1029 27.5979 49.6322 27.4762 50.0995 27.2198C51.0432 26.8172 52.0148 26.4834 53.0066 26.221C53.9106 25.981 54.9987 25.8415 55.6795 26.4888C55.9822 26.8374 56.2153 27.2409 56.3658 27.6773C57.08 29.2732 58.2797 30.9305 60.149 31.109C60.1881 32.4036 60.2104 33.966 60.707 35.1769C60.9247 35.7349 61.5217 36.9736 62.2248 37.0685C63.7816 37.2805 63.8653 35.9525 64.5014 35.1824C64.8156 34.8773 65.1962 34.6493 65.6135 34.5164C66.0307 34.3834 66.4731 34.3491 66.9058 34.4162C67.3386 34.4832 67.7498 34.6499 68.1072 34.9029C68.4646 35.1559 68.7584 35.4885 68.9654 35.8744C69.2811 36.4003 69.4886 36.9839 69.5758 37.591C69.663 38.1981 69.6281 38.8165 69.4733 39.41C69.3184 40.0035 69.0466 40.5601 68.6739 41.0472C68.3012 41.5343 67.835 41.9421 67.3026 42.2467Z" fill="#FFBDA7"/>
<path d="M60.539 45.9521C60.1931 48.4743 56.9511 50.3492 51.2651 50.896L51.1758 49.5457C52.5757 49.4313 53.9641 49.2037 55.3273 48.8649C57.9611 48.2344 60.539 45.9521 60.539 45.9521Z" fill="#F0997A"/>
<path d="M53.8933 31.9289L56.3429 33.0449C56.4891 32.7095 56.4999 32.3305 56.373 31.9873C56.2461 31.6441 55.9914 31.3632 55.6622 31.2035C55.499 31.1301 55.3227 31.0906 55.1438 31.0876C54.9649 31.0845 54.7873 31.118 54.6218 31.1858C54.4562 31.2537 54.3063 31.3546 54.181 31.4824C54.0558 31.6101 53.9579 31.7621 53.8933 31.9289Z" fill="#37474F"/>
<path d="M44.6854 31.252L46.8281 29.578C46.725 29.4333 46.5936 29.3111 46.4418 29.2188C46.2901 29.1265 46.1211 29.066 45.9453 29.041C45.7695 29.0159 45.5903 29.0269 45.4189 29.0731C45.2474 29.1194 45.0871 29.2 44.9477 29.3101C44.6646 29.5394 44.4799 29.868 44.4311 30.229C44.3824 30.5899 44.4733 30.9558 44.6854 31.252Z" fill="#37474F"/>
<path d="M55.3614 34.9925C55.3831 35.2135 55.3383 35.4359 55.2329 35.6313C55.1275 35.8267 54.9661 35.9862 54.7695 36.0895C54.5729 36.1927 54.35 36.2349 54.1293 36.2107C53.9085 36.1865 53.7 36.0971 53.5304 35.9538C53.3608 35.8104 53.2378 35.6198 53.1772 35.4062C53.1166 35.1925 53.121 34.9657 53.19 34.7547C53.259 34.5436 53.3894 34.3579 53.5644 34.2213C53.7395 34.0848 53.9514 34.0036 54.1729 33.9881C54.4628 33.9678 54.7491 34.0614 54.9711 34.249C55.1931 34.4365 55.3331 34.7033 55.3614 34.9925Z" fill="#263238"/>
<path d="M46.7618 34.9318C46.7835 35.1528 46.7387 35.3752 46.6333 35.5707C46.5278 35.7661 46.3665 35.9256 46.1699 36.0288C45.9733 36.132 45.7504 36.1742 45.5297 36.1501C45.3089 36.1259 45.1004 36.0364 44.9308 35.8931C44.7612 35.7498 44.6382 35.5591 44.5776 35.3455C44.5169 35.1319 44.5214 34.9051 44.5904 34.694C44.6594 34.4829 44.7897 34.2972 44.9648 34.1607C45.1399 34.0241 45.3518 33.9429 45.5733 33.9274C45.7199 33.899 45.8709 33.9038 46.0153 33.9415C46.1598 33.9792 46.294 34.0487 46.408 34.1451C46.522 34.2415 46.613 34.3622 46.6742 34.4983C46.7355 34.6344 46.7654 34.7826 46.7618 34.9318Z" fill="#263238"/>
<path d="M50.6571 32.7607L50.8189 39.9589L46.7734 39.2112C47.4654 36.3319 49.29 34.2506 50.6571 32.7607Z" fill="#F0997A"/>
<path d="M52.3907 41.7244C52.3907 41.7244 52.3907 41.6686 52.3907 41.6574C52.3794 41.652 52.367 41.6491 52.3544 41.6491C52.3419 41.6491 52.3295 41.652 52.3182 41.6574L52.1954 41.7132C52.1404 41.7341 52.0895 41.7643 52.0447 41.8025C52.0306 41.816 52.0197 41.8326 52.0129 41.851C52.0061 41.8693 52.0037 41.889 52.0057 41.9085C52.0001 41.9228 52.0001 41.9388 52.0057 41.9531C52.0057 41.9531 52.0057 41.9531 52.0447 41.9531C52.0853 41.9479 52.1248 41.9366 52.1619 41.9197L52.2679 41.875C52.3187 41.8614 52.365 41.8344 52.4018 41.7969C52.4015 41.7723 52.3978 41.7479 52.3907 41.7244ZM53.6016 41.7244C53.6016 41.663 53.6016 41.6239 53.529 41.6295C53.4787 41.638 53.4321 41.6613 53.3951 41.6965L53.077 41.9085C52.8976 42.0341 52.7113 42.1496 52.519 42.2545C52.3195 42.3543 52.1124 42.4383 51.8997 42.5056C51.6318 42.5893 51.3417 42.5948 51.0794 42.6841C50.9734 42.7176 50.8395 42.9296 51.018 42.9743C51.2706 43.007 51.5273 42.986 51.7713 42.9129C52.0006 42.8607 52.2247 42.7878 52.4409 42.6953C52.6645 42.6002 52.8776 42.4824 53.077 42.3437C53.1775 42.2771 53.271 42.2004 53.356 42.115C53.47 42.0108 53.5497 41.8747 53.5848 41.7244H53.6016Z" fill="#B16668"/>
<path d="M89.0269 68.7189C89.0269 68.7189 87.431 66.8217 83.3353 62.0564C79.4293 57.4808 78.2408 55.7454 75.1048 54.8638C73.6875 54.4676 72.1362 54.1663 71.6452 54.0547C69.1621 57.2074 71.0872 66.8887 74.4352 72.3459C74.4352 72.3459 83.3632 80.9391 89.1106 85.1799C94.1996 88.9408 97.3578 86.5024 97.994 84.9233L89.0269 68.7189Z" fill="#FFBDA7"/>
<path d="M97.4186 47.9109C96.9331 46.7447 98.3839 45.7347 98.3449 44.6131C98.3465 44.4536 98.3051 44.2965 98.225 44.1585C98.1449 44.0206 98.029 43.9067 97.8897 43.829C97.7503 43.7514 97.5925 43.7127 97.433 43.7171C97.2735 43.7216 97.1182 43.7689 96.9833 43.8542C96.297 44.189 95.9511 44.9256 95.4712 45.478C94.8911 46.1049 94.1858 46.603 93.401 46.94C91.7828 47.6989 90.053 48.893 89.8633 50.846C90.2405 50.6511 90.637 50.4959 91.0462 50.3828C93.1722 49.5682 95.2926 48.7256 97.4186 47.9109Z" fill="#F0997A"/>
<path d="M101.357 42.593C101.285 42.8106 101.218 43.0338 101.156 43.2514C101.095 43.469 100.978 43.8094 100.905 44.094C100.864 44.2353 100.831 44.3748 100.805 44.5125C100.802 44.6573 100.783 44.8014 100.749 44.9421C100.224 45.3439 99.3818 45.6731 98.7904 46.5827C98.1989 47.4922 98.1989 47.7991 96.4244 48.173C95.2247 48.4296 93.4503 48.4464 92.1111 49.0044C90.7719 49.5624 89.6057 50.3213 89.6113 52.2073C89.6168 54.0933 90.0744 55.0587 89.9851 56.9782C89.9126 58.4234 89.7898 61.71 89.0254 68.6962C88.166 76.5696 88.6403 79.9287 88.6403 79.9287C89.4718 81.8092 92.5463 87.1827 94.2985 87.1548C96.709 87.1548 99.4042 85.1405 100.04 78.7514C100.28 76.3464 100.04 73.7294 99.4823 70.4093C99.0247 67.703 98.8964 65.9174 98.3942 62.0058C97.9422 58.4625 97.9199 56.4258 98.3495 55.1033C98.8654 53.6721 99.7259 52.39 100.855 51.3703C102.216 50.2543 102.412 50.4384 103.087 48.4575C103.483 47.1295 104.454 45.7624 104.928 44.8082C105.368 43.85 105.674 42.8362 105.838 41.795C105.918 41.0767 106.054 40.3659 106.245 39.669C106.329 39.5097 106.355 39.3262 106.318 39.1501C106.294 39.09 106.257 39.036 106.209 38.9916C106.162 38.9473 106.106 38.9138 106.044 38.8934C105.922 38.8533 105.793 38.8381 105.665 38.8488C105.732 38.8488 105.944 38.3522 105.977 38.2908C106.051 38.1149 106.135 37.9434 106.228 37.7774C106.271 37.7374 106.299 37.6849 106.309 37.6277C106.32 37.5705 106.312 37.5114 106.286 37.4592C106.26 37.4069 106.219 37.3641 106.167 37.3371C106.116 37.31 106.057 37.3001 106 37.3087C105.642 37.2978 105.289 37.3971 104.99 37.5933C104.617 37.8917 104.288 38.2411 104.013 38.6312C103.97 38.6871 103.917 38.7344 103.857 38.7707C103.771 38.8059 103.681 38.8302 103.589 38.8432C103.305 38.9228 103.065 39.1113 102.92 39.3677C102.67 39.8303 102.448 40.3073 102.256 40.7962C102.122 41.0808 101.937 41.3542 101.792 41.6276C101.624 41.9384 101.479 42.2611 101.357 42.593Z" fill="#FFBDA7"/>
<path d="M99.0139 47.0962C98.8075 47.2133 98.601 47.3138 98.389 47.4254L98.216 47.5147C98.508 47.1738 98.7747 46.812 99.0139 46.4321C99.4548 45.7793 100.13 45.5114 100.755 45.0594C100.822 44.9891 100.865 44.8992 100.878 44.8028C101.064 43.461 101.505 42.1673 102.178 40.9916C102.596 40.2495 102.669 39.1893 103.562 38.8545C102.641 39.0889 102.501 40.2551 102.049 40.9414C101.337 42.0881 100.852 43.3612 100.621 44.6912C100.621 44.7395 100.621 44.7842 100.621 44.8251C99.91 45.2073 99.2762 45.7182 98.7517 46.3317C98.5359 46.7006 98.2855 47.0481 98.004 47.3696C96.5643 48.3405 94.6169 48.0671 92.982 48.5693C91.2577 49.0101 89.4219 50.2098 89.634 52.2074C89.7511 49.8583 91.587 49.1273 93.5846 48.7478C92.7724 48.9857 92.083 49.5272 91.6595 50.26C91.4476 50.6783 91.3259 51.1365 91.3024 51.6048C91.277 52.0671 91.3434 52.5298 91.4977 52.9663C91.4842 52.4953 91.4991 52.0238 91.5423 51.5546C91.6264 51.1438 91.7693 50.7473 91.9664 50.3772C92.3836 49.6554 93.0048 49.073 93.752 48.7032C94.8345 48.5079 95.9505 48.4075 96.8601 48.201C97.257 48.1013 97.6343 47.9352 97.9761 47.7099C98.3807 47.6175 98.7711 47.4711 99.1367 47.2747C99.5654 47.0453 99.9342 46.7185 100.214 46.3205C99.8319 46.6061 99.431 46.8653 99.0139 47.0962ZM101.904 45.4222C101.999 45.2827 102.083 45.1432 102.189 45.0148C102.387 44.7645 102.614 44.5379 102.864 44.3396C102.983 44.24 103.11 44.1504 103.244 44.0718L103.311 44.0327V43.9323C103.358 43.5305 103.47 43.1388 103.64 42.7717C103.728 42.5802 103.826 42.3939 103.936 42.2137C104.046 42.0483 104.169 41.8916 104.304 41.7449L104.354 41.6891C104.383 41.3007 104.449 40.9159 104.549 40.5397C104.673 40.1398 104.862 39.7628 105.107 39.4237C105.046 39.4609 104.991 39.508 104.945 39.5632C104.869 39.6589 104.802 39.7616 104.745 39.8701C104.483 40.2813 104.295 40.7343 104.187 41.2093C104.179 41.3411 104.15 41.471 104.103 41.5943C104.041 41.711 103.96 41.8166 103.863 41.9068C103.492 42.3301 103.245 42.8476 103.149 43.4022C103.138 43.5319 103.11 43.6595 103.065 43.7816C102.984 43.9367 102.867 44.0705 102.725 44.1722C102.331 44.4994 102.046 44.9396 101.91 45.4333L101.904 45.4222ZM103.578 39.4125C103.517 39.5911 103.478 39.7808 103.411 39.9705C103.266 40.3332 102.998 40.6345 102.853 40.9861C102.679 41.3603 102.619 41.7775 102.68 42.1858C102.685 42.2096 102.685 42.2344 102.68 42.2583C102.68 42.3978 102.457 42.515 102.362 42.5987C102.267 42.6824 102.083 42.8498 101.955 42.9781C101.548 43.4126 101.245 43.9333 101.067 44.5014C101.185 44.3006 101.291 44.0941 101.425 43.91C101.548 43.717 101.683 43.5307 101.826 43.352C101.971 43.1826 102.125 43.0223 102.289 42.8721C102.448 42.7267 102.62 42.5959 102.803 42.4815L102.903 42.4257V42.3029C102.876 41.9269 102.916 41.5491 103.02 41.1869C103.138 40.846 103.295 40.5201 103.489 40.216C103.524 40.1545 103.556 40.0912 103.584 40.0263C103.606 39.9626 103.623 39.8973 103.634 39.831C103.686 39.5144 103.77 39.2039 103.885 38.9047C103.841 38.9884 103.768 39.061 103.723 39.1502C103.664 39.2362 103.614 39.3278 103.573 39.4237L103.578 39.4125Z" fill="#F0997A"/>
<path d="M89.026 68.7185C88.5184 71.6347 88.4132 74.6068 88.7135 77.5516C87.2647 74.2917 86.9142 70.6493 87.7147 67.1729L89.026 68.7185Z" fill="#F0997A"/>
<path d="M81.7166 79.2481C77.526 75.5262 73.9994 72.1559 73.9994 72.1559C72.9895 70.5991 67.7833 59.5786 71.3545 53.6191C73.9492 54.1771 76.3765 54.7351 77.738 55.7228C79.0995 56.7105 80.1207 57.8823 82.3583 60.5495C83.8649 62.3407 86.4205 65.3985 87.9383 67.212C86.6437 76.4581 81.7166 79.2481 81.7166 79.2481Z" fill="#455A64"/>
</svg>
