<svg width="117" height="199" viewBox="0 0 117 199" fill="none" xmlns="http://www.w3.org/2000/svg">
<g opacity="0.2">
<circle cx="77.6801" cy="5.43156" r="3.79397" transform="rotate(30.3619 77.6801 5.43156)" fill="#511B4B"/>
<circle cx="91.4297" cy="13.4862" r="3.79397" transform="rotate(30.3619 91.4297 13.4862)" fill="#511B4B"/>
<circle cx="105.178" cy="21.5409" r="3.79397" transform="rotate(30.3619 105.178 21.5409)" fill="#511B4B"/>
<circle cx="118.928" cy="29.5956" r="3.79397" transform="rotate(30.3619 118.928 29.5956)" fill="#511B4B"/>
<circle cx="69.6259" cy="19.1816" r="3.79397" transform="rotate(30.3619 69.6259 19.1816)" fill="#511B4B"/>
<circle cx="83.375" cy="27.2362" r="3.79397" transform="rotate(30.3619 83.375 27.2362)" fill="#511B4B"/>
<circle cx="97.1245" cy="35.29" r="3.79397" transform="rotate(30.3619 97.1245 35.29)" fill="#511B4B"/>
<circle cx="110.874" cy="43.3446" r="3.79397" transform="rotate(30.3619 110.874 43.3446)" fill="#511B4B"/>
<circle cx="61.5713" cy="32.9306" r="3.79397" transform="rotate(30.3619 61.5713 32.9306)" fill="#511B4B"/>
<circle cx="75.3203" cy="40.9853" r="3.79397" transform="rotate(30.3619 75.3203 40.9853)" fill="#511B4B"/>
<circle cx="89.0698" cy="49.039" r="3.79397" transform="rotate(30.3619 89.0698 49.039)" fill="#511B4B"/>
<circle cx="102.819" cy="57.0937" r="3.79397" transform="rotate(30.3619 102.819 57.0937)" fill="#511B4B"/>
<circle cx="116.568" cy="65.1484" r="3.79397" transform="rotate(30.3619 116.568 65.1484)" fill="#511B4B"/>
<circle cx="53.5171" cy="46.6796" r="3.79397" transform="rotate(30.3619 53.5171 46.6796)" fill="#511B4B"/>
<circle cx="67.2666" cy="54.7343" r="3.79397" transform="rotate(30.3619 67.2666 54.7343)" fill="#511B4B"/>
<circle cx="81.0156" cy="62.788" r="3.79397" transform="rotate(30.3619 81.0156 62.788)" fill="#511B4B"/>
<circle cx="94.7651" cy="70.8427" r="3.79397" transform="rotate(30.3619 94.7651 70.8427)" fill="#511B4B"/>
<circle cx="108.514" cy="78.8964" r="3.79397" transform="rotate(30.3619 108.514 78.8964)" fill="#511B4B"/>
<circle cx="45.4629" cy="60.4296" r="3.79397" transform="rotate(30.3619 45.4629 60.4296)" fill="#511B4B"/>
<circle cx="59.2124" cy="68.4843" r="3.79397" transform="rotate(30.3619 59.2124 68.4843)" fill="#511B4B"/>
<circle cx="72.9614" cy="76.538" r="3.79397" transform="rotate(30.3619 72.9614 76.538)" fill="#511B4B"/>
<circle cx="86.7104" cy="84.5927" r="3.79397" transform="rotate(30.3619 86.7104 84.5927)" fill="#511B4B"/>
<circle cx="100.46" cy="92.6474" r="3.79397" transform="rotate(30.3619 100.46 92.6474)" fill="#511B4B"/>
<circle cx="114.209" cy="100.701" r="3.79397" transform="rotate(30.3619 114.209 100.701)" fill="#511B4B"/>
<circle cx="37.4087" cy="74.1777" r="3.79397" transform="rotate(30.3619 37.4087 74.1777)" fill="#511B4B"/>
<circle cx="51.1582" cy="82.2323" r="3.79397" transform="rotate(30.3619 51.1582 82.2323)" fill="#511B4B"/>
<circle cx="64.9067" cy="90.287" r="3.79397" transform="rotate(30.3619 64.9067 90.287)" fill="#511B4B"/>
<circle cx="78.6562" cy="98.3417" r="3.79397" transform="rotate(30.3619 78.6562 98.3417)" fill="#511B4B"/>
<circle cx="92.4057" cy="106.395" r="3.79397" transform="rotate(30.3619 92.4057 106.395)" fill="#511B4B"/>
<circle cx="106.154" cy="114.449" r="3.79397" transform="rotate(30.3619 106.154 114.449)" fill="#511B4B"/>
<circle cx="119.904" cy="122.505" r="3.79397" transform="rotate(30.3619 119.904 122.505)" fill="#511B4B"/>
<circle cx="29.354" cy="87.9277" r="3.79397" transform="rotate(30.3619 29.354 87.9277)" fill="#511B4B"/>
<circle cx="43.103" cy="95.9823" r="3.79397" transform="rotate(30.3619 43.103 95.9823)" fill="#511B4B"/>
<circle cx="56.8525" cy="104.036" r="3.79397" transform="rotate(30.3619 56.8525 104.036)" fill="#511B4B"/>
<circle cx="70.6015" cy="112.091" r="3.79397" transform="rotate(30.3619 70.6015 112.091)" fill="#511B4B"/>
<circle cx="84.351" cy="120.145" r="3.79397" transform="rotate(30.3619 84.351 120.145)" fill="#511B4B"/>
<circle cx="98.1001" cy="128.199" r="3.79397" transform="rotate(30.3619 98.1001 128.199)" fill="#511B4B"/>
<circle cx="111.85" cy="136.254" r="3.79397" transform="rotate(30.3619 111.85 136.254)" fill="#511B4B"/>
<circle cx="21.2998" cy="101.677" r="3.79397" transform="rotate(30.3619 21.2998 101.677)" fill="#511B4B"/>
<circle cx="117.544" cy="158.058" r="3.79397" transform="rotate(30.3619 117.544 158.058)" fill="#511B4B"/>
<circle cx="35.0488" cy="109.731" r="3.79397" transform="rotate(30.3619 35.0488 109.731)" fill="#511B4B"/>
<circle cx="48.7983" cy="117.786" r="3.79397" transform="rotate(30.3619 48.7983 117.786)" fill="#511B4B"/>
<circle cx="62.5473" cy="125.84" r="3.79397" transform="rotate(30.3619 62.5473 125.84)" fill="#511B4B"/>
<circle cx="76.2968" cy="133.894" r="3.79397" transform="rotate(30.3619 76.2968 133.894)" fill="#511B4B"/>
<circle cx="90.0459" cy="141.948" r="3.79397" transform="rotate(30.3619 90.0459 141.948)" fill="#511B4B"/>
<circle cx="103.795" cy="150.003" r="3.79397" transform="rotate(30.3619 103.795 150.003)" fill="#511B4B"/>
<circle cx="13.2456" cy="115.426" r="3.79397" transform="rotate(30.3619 13.2456 115.426)" fill="#511B4B"/>
<circle cx="109.49" cy="171.806" r="3.79397" transform="rotate(30.3619 109.49 171.806)" fill="#511B4B"/>
<circle cx="26.9951" cy="123.48" r="3.79397" transform="rotate(30.3619 26.9951 123.48)" fill="#511B4B"/>
<circle cx="40.7441" cy="131.534" r="3.79397" transform="rotate(30.3619 40.7441 131.534)" fill="#511B4B"/>
<circle cx="54.4936" cy="139.589" r="3.79397" transform="rotate(30.3619 54.4936 139.589)" fill="#511B4B"/>
<circle cx="68.2426" cy="147.643" r="3.79397" transform="rotate(30.3619 68.2426 147.643)" fill="#511B4B"/>
<circle cx="81.9917" cy="155.697" r="3.79397" transform="rotate(30.3619 81.9917 155.697)" fill="#511B4B"/>
<circle cx="95.7412" cy="163.752" r="3.79397" transform="rotate(30.3619 95.7412 163.752)" fill="#511B4B"/>
<circle cx="5.19138" cy="129.176" r="3.79397" transform="rotate(30.3619 5.19138 129.176)" fill="#511B4B"/>
<circle cx="101.436" cy="185.556" r="3.79397" transform="rotate(30.3619 101.436 185.556)" fill="#511B4B"/>
<circle cx="18.9409" cy="137.23" r="3.79397" transform="rotate(30.3619 18.9409 137.23)" fill="#511B4B"/>
<circle cx="115.186" cy="193.61" r="3.79397" transform="rotate(30.3619 115.186 193.61)" fill="#511B4B"/>
<circle cx="32.6899" cy="145.284" r="3.79397" transform="rotate(30.3619 32.6899 145.284)" fill="#511B4B"/>
<circle cx="46.4389" cy="153.339" r="3.79397" transform="rotate(30.3619 46.4389 153.339)" fill="#511B4B"/>
<circle cx="60.1884" cy="161.393" r="3.79397" transform="rotate(30.3619 60.1884 161.393)" fill="#511B4B"/>
<circle cx="73.9375" cy="169.447" r="3.79397" transform="rotate(30.3619 73.9375 169.447)" fill="#511B4B"/>
<circle cx="87.687" cy="177.502" r="3.79397" transform="rotate(30.3619 87.687 177.502)" fill="#511B4B"/>
</g>
</svg>
