<svg width="158" height="120" viewBox="0 0 158 120" fill="none" xmlns="http://www.w3.org/2000/svg">
<path d="M134.994 19.3767H130.988V16.79H125.727V19.3767H123.169V16.79H115.664V19.3767H70.0719V18.3503C70.0719 18.0477 69.9517 17.7575 69.7378 17.5436C69.5239 17.3296 69.2337 17.2094 68.9311 17.2094H67.3122C67.0097 17.2094 66.7195 17.3296 66.5055 17.5436C66.2916 17.7575 66.1714 18.0477 66.1714 18.3503V23.6292C66.1714 23.9318 66.2916 24.222 66.5055 24.4359C66.7195 24.6499 67.0097 24.7701 67.3122 24.7701H68.9311C69.2337 24.7701 69.5239 24.6499 69.7378 24.4359C69.9517 24.222 70.0719 23.9318 70.0719 23.6292V22.591H134.994C135.209 22.591 135.415 22.5057 135.567 22.3539C135.718 22.2021 135.804 21.9963 135.804 21.7816V20.1832C135.804 20.0771 135.783 19.972 135.742 19.8739C135.701 19.7759 135.642 19.6868 135.566 19.6119C135.491 19.537 135.402 19.4776 135.304 19.4373C135.206 19.3969 135.1 19.3763 134.994 19.3767Z" fill="#511B4B"/>
<path d="M61.3825 21.2832L63.2712 19.4062C63.7424 18.9371 64.1166 18.3798 64.3724 17.7661C64.6283 17.1524 64.7607 16.4943 64.7622 15.8294C64.7637 15.1645 64.6342 14.5058 64.3812 13.891C64.1281 13.2761 63.7564 12.7171 63.2873 12.2459C62.8182 11.7747 62.2609 11.4005 61.6472 11.1447C61.0335 10.8888 60.3754 10.7564 59.7105 10.7549C59.0456 10.7534 58.3869 10.8829 57.7721 11.1359C57.1572 11.389 56.5982 11.7607 56.127 12.2298L56.1094 12.2503L44.8389 23.5414L46.6748 25.3744L57.9483 14.0774C58.4114 13.6142 59.0397 13.354 59.6947 13.354C60.3498 13.354 60.978 13.6142 61.4412 14.0774C61.9044 14.5406 62.1646 15.1688 62.1646 15.8239C62.1646 16.4789 61.9044 17.1071 61.4412 17.5703L57.6638 21.3213L61.4764 24.9696C61.7123 25.1965 61.9009 25.4679 62.0313 25.7682C62.1617 26.0685 62.2312 26.3916 62.2358 26.7189C62.2405 27.0462 62.1801 27.3712 62.0583 27.675C61.9365 27.9788 61.7557 28.2555 61.5262 28.4889L61.4969 28.5183C61.0344 28.9805 60.4073 29.2402 59.7534 29.2402C59.0995 29.2402 58.4724 28.9805 58.0098 28.5183L51.9097 22.5208L50.0914 24.3684L56.2062 30.3747C57.1548 31.3187 58.4386 31.8486 59.7768 31.8486C61.1151 31.8486 62.3989 31.3187 63.3475 30.3747L63.3651 30.3571L63.3944 30.3278C63.8684 29.85 64.2423 29.2824 64.4941 28.6583C64.746 28.0341 64.8708 27.366 64.8613 26.6931C64.8517 26.0201 64.708 25.3558 64.4385 24.7391C64.169 24.1224 63.7791 23.5656 63.2917 23.1015L61.3825 21.2832Z" fill="#511B4B"/>
<path d="M41.2987 22.6787L39.4687 24.5087L50.7657 35.7822C51.2302 36.2438 51.4926 36.8708 51.4954 37.5257C51.4981 38.1805 51.241 38.8097 50.7803 39.2751C50.3167 39.7386 49.688 39.999 49.0324 39.999C48.3768 39.999 47.7481 39.7386 47.2845 39.2751L43.5218 35.5066L39.8734 39.3191C39.6466 39.5551 39.3751 39.7437 39.0749 39.8741C38.7746 40.0044 38.4515 40.0739 38.1242 40.0786C37.7969 40.0832 37.4719 40.0229 37.1681 39.9011C36.8642 39.7793 36.5876 39.5984 36.3541 39.369L36.3248 39.3397C35.8613 38.876 35.6009 38.2473 35.6009 37.5917C35.6009 36.9362 35.8613 36.3074 36.3248 35.8438L42.3193 29.7554L40.4688 27.9371L34.4596 34.0343C33.9915 34.5065 33.621 35.0663 33.3694 35.6817C33.1178 36.2972 32.99 36.9562 32.9932 37.621C32.9965 38.2859 33.1308 38.9436 33.3884 39.5566C33.6461 40.1695 34.022 40.7256 34.4948 41.1932L34.5241 41.2225C35.0019 41.6965 35.5695 42.0704 36.1936 42.3222C36.8177 42.5741 37.4858 42.6989 38.1588 42.6894C38.8318 42.6798 39.4961 42.5361 40.1128 42.2666C40.7295 41.9971 41.2862 41.6072 41.7504 41.1198L43.5599 39.2224L45.4339 41.111C45.9042 41.5833 46.4632 41.9581 47.0787 42.2138C47.6942 42.4695 48.3542 42.6011 49.0207 42.6011C49.6872 42.6011 50.3471 42.4695 50.9626 42.2138C51.5782 41.9581 52.1371 41.5833 52.6074 41.111L52.625 41.0934C53.5685 40.1396 54.095 38.8504 54.0889 37.5088C54.0829 36.1672 53.5448 34.8828 52.5928 33.9375L41.2987 22.6787Z" fill="#511B4B"/>
<path d="M40.3314 17.2971L29.0609 28.594C28.8304 28.8259 28.5562 29.0099 28.2541 29.1352C27.9521 29.2606 27.6282 29.3248 27.3012 29.3243C26.8113 29.3282 26.3313 29.186 25.9224 28.916C25.5136 28.646 25.1944 28.2604 25.0056 27.8082C24.8169 27.3561 24.767 26.858 24.8625 26.3774C24.9579 25.8968 25.1944 25.4556 25.5416 25.1099L29.319 21.356L25.5064 17.7076C25.2697 17.4812 25.0805 17.2099 24.9497 16.9096C24.8189 16.6093 24.7491 16.286 24.7445 15.9584C24.7398 15.6309 24.8004 15.3057 24.9226 15.0018C25.0449 14.6979 25.2264 14.4214 25.4565 14.1883L25.4859 14.159C25.9491 13.6982 26.576 13.4395 27.2294 13.4395C27.8828 13.4395 28.5096 13.6982 28.9729 14.159L35.073 20.1565L36.8913 18.3059L30.7942 12.3114C29.8425 11.3712 28.5577 10.8454 27.2199 10.8486C25.8821 10.8519 24.5999 11.3841 23.6529 12.329L23.6353 12.3466L23.606 12.3759C23.1325 12.8539 22.759 13.4215 22.5074 14.0454C22.2557 14.6694 22.1308 15.3372 22.1401 16.01C22.1494 16.6827 22.2926 17.3468 22.5614 17.9636C22.8302 18.5804 23.2192 19.1374 23.7057 19.6022L25.6032 21.4117L23.7174 23.2857H23.7028C23.2331 23.7571 22.8609 24.3164 22.6073 24.9317C22.3538 25.5469 22.224 26.2061 22.2252 26.8716C22.2264 27.537 22.3587 28.1957 22.6145 28.81C22.8703 29.4243 23.2446 29.9822 23.716 30.4519C24.1874 30.9216 24.7467 31.2938 25.3619 31.5473C25.9772 31.8008 26.6363 31.9307 27.3018 31.9295C27.9672 31.9282 28.6259 31.796 29.2402 31.5402C29.8545 31.2844 30.4125 30.9101 30.8821 30.4387L30.8997 30.4211L42.1674 19.1271L40.3314 17.2971Z" fill="#511B4B"/>
<path d="M45.7185 19.9957L47.5514 18.1598L36.2545 6.88924C36.0236 6.66128 35.8399 6.39 35.714 6.09093C35.5881 5.79187 35.5225 5.47091 35.5208 5.14644C35.5192 4.82196 35.5816 4.50036 35.7045 4.20004C35.8274 3.89973 36.0083 3.62661 36.2369 3.39634C36.4661 3.1657 36.7387 2.98267 37.0389 2.85777C37.3391 2.73287 37.6611 2.66856 37.9863 2.66856C38.3114 2.66856 38.6334 2.73287 38.9336 2.85777C39.2339 2.98267 39.5064 3.1657 39.7357 3.39634L43.4925 7.17078L47.1408 3.35821C47.3673 3.12154 47.6386 2.93228 47.9389 2.80147C48.2392 2.67066 48.5625 2.60091 48.8901 2.59627C49.2176 2.59163 49.5428 2.6522 49.8467 2.77445C50.1505 2.8967 50.4271 3.07819 50.6601 3.30835L50.6895 3.33768C51.1549 3.79936 51.4179 4.42699 51.4207 5.08256C51.4234 5.73813 51.1657 6.36795 50.7041 6.83352L44.7067 12.9336L46.5543 14.7519L52.5488 8.65475C53.4927 7.69993 54.0193 6.40976 54.0133 5.06719C54.0072 3.72463 53.469 2.43926 52.5166 1.49298L52.4873 1.46366C52.0088 0.990749 51.4411 0.617817 50.817 0.366613C50.193 0.115408 49.5252 -0.0090431 48.8526 0.000511232C48.18 0.0100656 47.516 0.153436 46.8993 0.422264C46.2827 0.691092 45.7257 1.07999 45.261 1.56629L43.4514 3.46378L41.5745 1.57803C41.1042 1.1062 40.5455 0.731827 39.9302 0.476385C39.315 0.220943 38.6554 0.0894478 37.9892 0.0894478C37.323 0.0894478 36.6634 0.220943 36.0482 0.476385C35.4329 0.731827 34.8742 1.1062 34.4039 1.57803L34.3863 1.59856C33.9185 2.07047 33.5481 2.62994 33.2965 3.245C33.0449 3.86006 32.917 4.51867 32.92 5.18319C32.923 5.84772 33.0569 6.50515 33.314 7.11792C33.5711 7.73069 33.9465 8.28679 34.4186 8.75447L45.7185 19.9957Z" fill="#511B4B"/>
<path d="M2.76508 94.3936H0.480469V114.377H11.5311V112.409H2.76508V94.3936Z" fill="#511B4B"/>
<path d="M30.7026 100.262C29.4778 99.6323 28.1205 99.3037 26.7433 99.3037C25.3662 99.3037 24.0089 99.6323 22.7841 100.262C21.6518 100.88 20.7166 101.805 20.086 102.931C19.4484 104.146 19.1152 105.498 19.1152 106.871C19.1152 108.244 19.4484 109.596 20.086 110.811C20.7166 111.937 21.6518 112.862 22.7841 113.48C24.0089 114.11 25.3662 114.438 26.7433 114.438C28.1205 114.438 29.4778 114.11 30.7026 113.48C31.834 112.861 32.7682 111.937 33.3977 110.811C34.0354 109.596 34.3685 108.244 34.3685 106.871C34.3685 105.498 34.0354 104.146 33.3977 102.931C32.7682 101.806 31.834 100.881 30.7026 100.262ZM31.468 109.881C31.0357 110.722 30.3776 111.424 29.5676 111.911C28.7095 112.388 27.7441 112.638 26.7624 112.638C25.7807 112.638 24.8153 112.388 23.9572 111.911C23.1418 111.428 22.4791 110.724 22.0451 109.881C21.5717 108.949 21.336 107.915 21.3588 106.87C21.3372 105.839 21.5731 104.818 22.0451 103.902C22.4822 103.066 23.1446 102.369 23.9572 101.89C24.8147 101.411 25.7804 101.16 26.7624 101.16C27.7444 101.16 28.7101 101.411 29.5676 101.89C30.3749 102.372 31.0327 103.068 31.468 103.902C31.9376 104.819 32.1724 105.839 32.1513 106.87C32.1736 107.914 31.939 108.949 31.468 109.881Z" fill="#511B4B"/>
<path d="M48.0734 112.265L43.2783 99.3613H40.9351L46.8739 114.377H49.1878L55.0973 99.3613H52.842L48.0734 112.265Z" fill="#511B4B"/>
<path d="M72.9117 100.347C71.848 99.645 70.5068 99.294 68.8879 99.294C67.536 99.2878 66.2047 99.6259 65.0196 100.276C63.9075 100.896 62.9927 101.817 62.3801 102.934C61.7345 104.139 61.4103 105.49 61.4387 106.858C61.4114 108.23 61.7355 109.587 62.3801 110.799C62.9888 111.921 63.9043 112.847 65.0196 113.468C66.2222 114.123 67.5747 114.452 68.9436 114.424C70.1081 114.438 71.2636 114.22 72.3427 113.782C73.3441 113.377 74.2449 112.759 74.9822 111.969L73.7563 110.741C72.5558 112.037 71.0044 112.684 69.102 112.682C68.1 112.699 67.1123 112.443 66.2455 111.94C65.4123 111.448 64.7353 110.73 64.2923 109.87C63.9312 109.172 63.7081 108.411 63.6354 107.629H75.8972C76.0177 106.141 75.8084 104.645 75.2843 103.247C74.8156 102.057 73.9859 101.042 72.9117 100.347ZM63.6178 105.987C63.6883 105.219 63.9075 104.471 64.263 103.787C64.6904 102.962 65.3368 102.271 66.1311 101.79C66.9661 101.301 67.9205 101.053 68.8879 101.074C69.785 101.048 70.674 101.25 71.4717 101.661C72.198 102.054 72.8003 102.642 73.2108 103.359C73.659 104.158 73.9 105.056 73.9117 105.972L63.6178 105.987Z" fill="#511B4B"/>
<path d="M114.166 94.3936H111.424L100.69 106.271V94.3936H98.4053V114.377H100.69V109.098L104.605 104.825L111.94 114.377H114.708L106.177 103.113L114.166 94.3936Z" fill="#511B4B"/>
<path d="M133.722 100.347C132.656 99.645 131.315 99.294 129.698 99.294C128.346 99.2878 127.015 99.6259 125.83 100.276C124.718 100.896 123.803 101.817 123.19 102.934C122.545 104.139 122.22 105.49 122.249 106.858C122.221 108.23 122.546 109.587 123.19 110.799C123.799 111.921 124.714 112.847 125.83 113.468C127.032 114.123 128.385 114.452 129.754 114.424C130.918 114.438 132.074 114.22 133.153 113.782C134.149 113.375 135.045 112.757 135.778 111.969L134.552 110.741C133.353 112.037 131.802 112.684 129.897 112.682C128.895 112.699 127.908 112.443 127.041 111.94C126.208 111.448 125.531 110.73 125.088 109.87C124.727 109.172 124.503 108.411 124.431 107.629H136.693C136.813 106.141 136.604 104.645 136.08 103.247C135.615 102.059 134.791 101.045 133.722 100.347ZM124.437 105.987C124.507 105.219 124.726 104.471 125.082 103.787C125.509 102.962 126.156 102.271 126.95 101.79C127.785 101.301 128.739 101.053 129.707 101.074C130.604 101.048 131.493 101.25 132.291 101.661C133.018 102.054 133.621 102.642 134.033 103.359C134.478 104.158 134.718 105.056 134.731 105.972L124.437 105.987Z" fill="#511B4B"/>
<path d="M155.193 99.3613L150.424 112.01L145.4 99.3613H143.086L149.312 114.292L148.682 115.758C148.461 116.412 148.06 116.99 147.526 117.427C147.077 117.787 146.518 117.983 145.943 117.984C145.184 117.979 144.445 117.739 143.828 117.298L142.887 118.943C143.325 119.294 143.821 119.564 144.353 119.744C144.907 119.92 145.485 120.006 146.066 119.999C147.02 120.014 147.951 119.703 148.705 119.119C149.547 118.434 150.192 117.539 150.576 116.524L157.486 99.3643L155.193 99.3613Z" fill="#511B4B"/>
<path d="M17.1562 83.0906C16.9341 82.8692 16.6712 82.6929 16.382 82.5715C16.0789 82.4456 15.754 82.3809 15.4259 82.3809C15.0978 82.3809 14.7729 82.4456 14.4698 82.5715C14.1807 82.6929 13.9177 82.8692 13.6956 83.0906C13.4692 83.3181 13.2899 83.588 13.1681 83.8849C13.0463 84.1819 12.9844 84.5 12.9859 84.8209C12.9885 85.1812 13.0708 85.5363 13.227 85.861C13.3832 86.1856 13.6093 86.4716 13.8892 86.6985C14.169 86.9254 14.4956 87.0875 14.8455 87.1732C15.1954 87.2589 15.56 87.266 15.913 87.1941C16.266 87.1221 16.5987 86.973 16.8872 86.7572C17.1757 86.5414 17.4128 86.2645 17.5816 85.9462C17.7504 85.6279 17.8465 85.2762 17.8633 84.9164C17.88 84.5565 17.8168 84.1974 17.6783 83.8648C17.5567 83.575 17.3793 83.3119 17.1562 83.0906Z" fill="#511B4B"/>
<path d="M55.6577 72.3919C55.6614 72.8015 55.5604 73.2053 55.3645 73.565C55.2696 73.7461 55.1566 73.9171 55.0272 74.0753C54.8932 74.2352 54.7313 74.3694 54.5492 74.4712C54.3324 74.5907 54.0992 74.6777 53.857 74.7293C53.5286 74.7933 53.1944 74.8228 52.8599 74.8173H50.0884C49.9594 74.8173 49.8685 74.8173 49.8186 74.8173H49.7365C49.7365 74.8173 49.7365 74.8173 49.7101 74.7997C49.281 74.723 48.8898 74.5052 48.5986 74.1809C48.2183 73.7651 47.9092 73.2895 47.6836 72.7732C47.4196 72.169 47.1694 71.6362 46.9328 71.1748C46.6962 70.7134 46.4851 70.3224 46.2993 70.0017C46.0804 69.6263 45.836 69.2353 45.5661 68.8286C45.2963 68.4219 45.0031 67.982 44.6863 67.5089C43.2708 65.6847 41.3586 64.7726 38.9499 64.7726C36.5411 64.7726 34.6192 65.6632 33.1841 67.4444C33.0932 67.5411 33.011 67.6438 32.926 67.7376C32.8426 67.8432 32.769 67.956 32.706 68.0749L32.5066 68.3682C32.4421 68.4679 32.3746 68.5705 32.3101 68.682L35.8294 70.6909C36.3573 69.8111 36.9263 69.2421 37.5421 68.9782C38.2377 68.822 38.9603 68.8331 39.6508 69.0104C40.34 69.2096 40.9656 69.5846 41.4662 70.0985C42.1817 70.7809 42.7627 71.5917 43.1789 72.4887C43.3871 72.9491 43.5895 73.3685 43.7801 73.7586C43.9707 74.1486 44.1467 74.4947 44.2992 74.8114H32.0726C31.5551 74.8389 31.0405 74.7189 30.5886 74.4654C30.2249 74.2341 29.9293 73.9102 29.7322 73.5269C29.6321 73.3597 29.5626 73.1759 29.5269 72.9843C29.4891 72.7911 29.4695 72.5947 29.4683 72.3978V64.6289H25.4152V72.3919C25.4137 72.5898 25.3881 72.7868 25.339 72.9785C25.2921 73.1694 25.217 73.3523 25.1161 73.521C24.9146 73.9087 24.6102 74.2334 24.2363 74.4595C23.8589 74.691 23.4237 74.8109 22.981 74.8056H6.51072C6.06044 74.8127 5.61728 74.6927 5.23204 74.4595C4.85775 74.2339 4.55322 73.9091 4.35222 73.521C4.26158 73.3484 4.1898 73.1665 4.13812 72.9785C4.08571 72.7873 4.05811 72.5901 4.05601 72.3919V64.6289H1.80831e-05V72.3919C-0.00200688 73.2447 0.166055 74.0894 0.494383 74.8764C0.82271 75.6635 1.30471 76.3772 1.91217 76.9758C2.51218 77.5623 3.21635 78.0318 3.98855 78.36C4.78533 78.7015 5.64388 78.8752 6.51072 78.8703H23.289C24.064 78.8176 24.8245 78.6342 25.5384 78.3278C26.2408 78.0229 26.8849 77.5981 27.4417 77.0726C27.735 77.3658 27.999 77.6122 28.2571 77.8322C28.5239 78.0574 28.8198 78.2458 29.1369 78.3923C29.5113 78.5598 29.9055 78.679 30.31 78.7472C30.828 78.8287 31.3517 78.8689 31.8761 78.8674H53.2382V78.8527C54.1901 78.8459 55.1341 78.6783 56.0302 78.3571C56.8344 78.0622 57.5613 77.5889 58.1564 76.9729C58.6986 76.3867 59.0998 75.6846 59.3295 74.9199C59.574 74.1017 59.6955 73.2517 59.6903 72.3978V57.1475H55.6577V72.3919Z" fill="#511B4B"/>
<path d="M66.5853 57.1299H62.5293V78.8704H66.5853V57.1299Z" fill="#511B4B"/>
<path d="M98.3348 71.782C97.9056 71.7052 97.5137 71.4887 97.2204 71.1661C96.8407 70.7487 96.5317 70.2723 96.3053 69.7554C96.0326 69.1396 95.7804 68.6058 95.5487 68.1483C95.317 67.6908 95.1088 67.3066 94.9211 66.9752C94.7021 66.6037 94.4577 66.2127 94.1879 65.8021L93.3081 64.4823C91.8847 62.664 89.9647 61.7549 87.5481 61.7549C85.1316 61.7549 83.1979 62.6396 81.7472 64.409C81.6827 64.5205 81.6093 64.629 81.5331 64.7404C81.4568 64.8519 81.3835 64.9545 81.319 65.0513L81.1049 65.3651L80.9084 65.6584L84.4277 67.6878C84.9771 66.808 85.548 66.2361 86.1404 65.9722C86.8347 65.8109 87.5584 65.8276 88.2445 66.0209C88.9305 66.2142 89.5565 66.5778 90.0644 67.0778C90.4032 67.417 90.7141 67.7828 90.9941 68.1717C91.2872 68.5828 91.5387 69.0219 91.7449 69.4827C91.9649 69.9431 92.1731 70.3625 92.3696 70.7614C92.5661 71.1602 92.745 71.4887 92.8975 71.7731H84.5157C83.6487 71.7696 82.7902 71.9443 81.9935 72.2864C80.4402 72.9403 79.2044 74.1761 78.5505 75.7294C78.2094 76.5263 78.0357 77.3848 78.0402 78.2516V80.4776C78.0345 81.3492 78.2082 82.2127 78.5505 83.0144C79.2038 84.5688 80.4397 85.8057 81.9935 86.4604C82.7904 86.8015 83.6489 86.9752 84.5157 86.9707H93.0881V82.9587H84.5157V82.9235C84.1144 82.9267 83.7186 82.831 83.3631 82.6449C82.9866 82.4332 82.669 82.1308 82.4393 81.765C82.2053 81.3812 82.0852 80.9388 82.0932 80.4893V78.2633C82.0949 78.0656 82.1196 77.8688 82.1666 77.6768C82.2142 77.4852 82.2893 77.3015 82.3894 77.1313C82.5921 76.7444 82.8962 76.4199 83.2693 76.1928C83.6453 75.9608 84.0797 75.8408 84.5216 75.8467H84.589L99.1413 75.879V71.8171H98.6134C98.5192 71.8227 98.4247 71.8108 98.3348 71.782Z" fill="#511B4B"/>
<path d="M109.835 60.9371C110.126 61.2275 110.486 61.4396 110.881 61.5537C111.276 61.6678 111.693 61.6802 112.094 61.5898C112.496 61.4994 112.867 61.3091 113.175 61.0365C113.483 60.764 113.717 60.418 113.856 60.0308C114.023 60.502 114.33 60.9111 114.735 61.2039C115.077 61.4462 115.476 61.5975 115.892 61.6437C116.309 61.6898 116.73 61.6294 117.117 61.4679C117.407 61.3473 117.671 61.1709 117.894 60.9488C118.115 60.7261 118.291 60.4633 118.413 60.1745C118.664 59.5617 118.664 58.8752 118.413 58.2624C118.29 57.9744 118.114 57.7118 117.894 57.4882C117.666 57.2617 117.396 57.0826 117.098 56.9613C116.801 56.8399 116.482 56.7788 116.161 56.7814C115.656 56.7768 115.163 56.9298 114.75 57.2189C114.337 57.5081 114.024 57.919 113.856 58.3944C113.688 57.9207 113.377 57.5108 112.966 57.2218C112.555 56.9328 112.065 56.7788 111.562 56.7814C111.235 56.7783 110.911 56.8422 110.609 56.9691C110.319 57.089 110.056 57.2654 109.835 57.4882C109.607 57.7146 109.427 57.9843 109.305 58.2815C109.183 58.5787 109.122 58.8973 109.125 59.2185C109.122 59.5466 109.186 59.872 109.313 60.1745C109.435 60.4605 109.613 60.7196 109.835 60.9371Z" fill="#511B4B"/>
<path d="M130.302 60.9049C130.762 61.3612 131.384 61.6173 132.032 61.6173C132.68 61.6173 133.302 61.3612 133.762 60.9049C134.221 60.4458 134.478 59.8234 134.478 59.1746C134.478 58.5257 134.221 57.9034 133.762 57.4443C133.303 56.9853 132.681 56.7275 132.032 56.7275C131.383 56.7275 130.761 56.9853 130.302 57.4443C129.843 57.9032 129.585 58.5256 129.585 59.1746C129.585 59.8236 129.843 60.446 130.302 60.9049Z" fill="#511B4B"/>
<path d="M157.926 76.8761V66.8549H151.547C150.68 66.8504 149.822 67.0241 149.025 67.3652C147.471 68.0198 146.235 69.2567 145.582 70.8111C145.241 71.6079 145.067 72.4665 145.072 73.3333V74.7997H136.273V63.7901H129.86C128.997 63.7841 128.143 63.9579 127.352 64.3004C126.587 64.629 125.891 65.0986 125.299 65.6847C124.706 66.2725 124.233 66.9696 123.906 67.7376C123.565 68.5351 123.385 69.3924 123.378 70.2598V72.386C123.374 73.2156 123.531 74.0381 123.839 74.8085H118.354V74.7762C117.909 74.7845 117.472 74.6644 117.093 74.4301C116.726 74.2097 116.423 73.8973 116.213 73.5239C116.018 73.1639 115.917 72.7604 115.92 72.3508V64.6289H111.876V72.3919C111.875 72.5897 111.851 72.7866 111.803 72.9784C111.756 73.1694 111.681 73.3523 111.58 73.521C111.379 73.9091 111.074 74.234 110.7 74.4595C110.324 74.6918 109.889 74.8118 109.448 74.8055H108.568C108.034 74.8338 107.504 74.714 107.034 74.4595C106.66 74.2332 106.356 73.9085 106.154 73.521C106.063 73.3484 105.992 73.1665 105.94 72.9784C105.886 72.7876 105.859 72.5902 105.858 72.3919V57.1416H101.808V72.3919C101.802 73.254 101.958 74.1096 102.268 74.9141C102.565 75.682 103.016 76.3808 103.594 76.967C104.199 77.5665 104.919 78.0373 105.711 78.3512C106.548 78.6755 107.436 78.8454 108.333 78.8527H109.453C110.288 78.8578 111.114 78.6952 111.885 78.3747C112.635 78.0646 113.32 77.617 113.905 77.055C114.497 77.6058 115.183 78.0442 115.932 78.3483C116.7 78.6647 117.524 78.8252 118.354 78.8205V78.8527H145.336C145.542 79.4959 145.85 80.1019 146.248 80.6476C146.64 81.1893 147.113 81.668 147.65 82.067C148.191 82.4677 148.792 82.7814 149.43 82.9967C150.09 83.2242 150.784 83.3392 151.483 83.3369H151.515C152.379 83.3411 153.235 83.1663 154.028 82.8237C154.794 82.4971 155.491 82.0272 156.081 81.4394C156.68 80.8365 157.153 80.1217 157.475 79.3357C157.797 78.5497 157.962 77.7079 157.958 76.8585L157.926 76.8761ZM132.215 74.8231H129.76C129.573 74.8238 129.387 74.7961 129.208 74.741C129.033 74.6896 128.863 74.6178 128.704 74.5269C128.333 74.3206 128.021 74.0228 127.798 73.6618C127.564 73.2834 127.443 72.8456 127.452 72.4007H127.419V70.2598H127.452C127.452 70.062 127.476 69.865 127.525 69.6732C127.575 69.4827 127.645 69.2979 127.733 69.1219C127.947 68.7445 128.249 68.4245 128.613 68.1893C128.986 67.9536 129.419 67.8313 129.86 67.8373H132.206L132.215 74.8231ZM153.873 77.1987C153.852 77.3517 153.819 77.5028 153.773 77.6503C153.726 77.7941 153.672 77.9351 153.609 78.0726C153.399 78.4454 153.095 78.7575 152.729 78.9788C152.363 79.2063 151.94 79.3262 151.509 79.3249C151.064 79.3314 150.627 79.2114 150.248 78.9788C149.887 78.762 149.589 78.4548 149.383 78.0876C149.178 77.7203 149.071 77.3058 149.075 76.8849V73.3333H149.107C149.105 72.9226 149.195 72.5167 149.371 72.1455C149.584 71.7771 149.887 71.4684 150.251 71.2481C150.635 71.0203 151.074 70.9035 151.521 70.9108H153.846L153.873 77.1987Z" fill="#511B4B"/>
</svg>
