<svg width="171" height="177" viewBox="0 0 171 177" fill="none" xmlns="http://www.w3.org/2000/svg">
<path d="M123.818 58.5827H121.212V56.9004H117.79V58.5827H116.127V56.9004H111.246V58.5827H81.5933V57.9151C81.5933 57.7183 81.5151 57.5296 81.3759 57.3905C81.2368 57.2513 81.0481 57.1731 80.8513 57.1731H79.7984C79.6016 57.1731 79.4129 57.2513 79.2737 57.3905C79.1346 57.5296 79.0564 57.7183 79.0564 57.9151V61.3485C79.0564 61.5453 79.1346 61.734 79.2737 61.8731C79.4129 62.0123 79.6016 62.0905 79.7984 62.0905H80.8513C81.0481 62.0905 81.2368 62.0123 81.3759 61.8731C81.5151 61.734 81.5933 61.5453 81.5933 61.3485V60.6732H123.818C123.957 60.6732 124.091 60.6178 124.19 60.5191C124.289 60.4203 124.344 60.2864 124.344 60.1468V59.1073C124.344 59.0382 124.33 58.9699 124.304 58.9061C124.277 58.8423 124.239 58.7844 124.19 58.7357C124.141 58.6869 124.083 58.6484 124.019 58.6221C123.955 58.5959 123.887 58.5825 123.818 58.5827Z" fill="#511B4B"/>
<path d="M75.9418 59.822L77.1702 58.6013C77.4767 58.2962 77.72 57.9337 77.8864 57.5346C78.0528 57.1354 78.1389 56.7074 78.1399 56.275C78.1409 55.8426 78.0567 55.4142 77.8921 55.0143C77.7275 54.6144 77.4858 54.2508 77.1807 53.9443C76.8756 53.6379 76.5131 53.3945 76.114 53.2281C75.7148 53.0617 75.2868 52.9756 74.8544 52.9746C74.4219 52.9736 73.9935 53.0579 73.5937 53.2224C73.1938 53.387 72.8302 53.6288 72.5237 53.9339L72.5123 53.9472L65.1821 61.2907L66.3762 62.4829L73.7082 55.1355C74.0095 54.8343 74.4181 54.665 74.8441 54.665C75.2701 54.665 75.6787 54.8343 75.98 55.1355C76.2812 55.4368 76.4505 55.8454 76.4505 56.2714C76.4505 56.6974 76.2812 57.106 75.98 57.4072L73.5232 59.8468L76.0029 62.2196C76.1563 62.3672 76.279 62.5437 76.3638 62.739C76.4486 62.9343 76.4938 63.1444 76.4968 63.3573C76.4998 63.5702 76.4606 63.7815 76.3813 63.9791C76.3021 64.1768 76.1845 64.3567 76.0353 64.5085L76.0162 64.5276C75.7154 64.8282 75.3075 64.9971 74.8823 64.9971C74.457 64.9971 74.0491 64.8282 73.7483 64.5276L69.7809 60.6269L68.5983 61.8286L72.5752 65.735C73.1922 66.3489 74.0271 66.6936 74.8975 66.6936C75.7679 66.6936 76.6028 66.3489 77.2198 65.735L77.2312 65.7235L77.2503 65.7045C77.5586 65.3937 77.8017 65.0246 77.9656 64.6186C78.1294 64.2127 78.2106 63.7782 78.2043 63.3405C78.1981 62.9028 78.1046 62.4708 77.9294 62.0697C77.7541 61.6686 77.5005 61.3065 77.1835 61.0046L75.9418 59.822Z" fill="#511B4B"/>
<path d="M62.8798 60.7305L61.6896 61.9207L69.0369 69.2528C69.3391 69.553 69.5097 69.9608 69.5115 70.3867C69.5133 70.8126 69.3461 71.2218 69.0465 71.5245C68.7449 71.8259 68.336 71.9953 67.9097 71.9953C67.4833 71.9953 67.0744 71.8259 66.7728 71.5245L64.3256 69.0735L61.9528 71.5531C61.8053 71.7066 61.6287 71.8292 61.4335 71.914C61.2382 71.9988 61.028 72.044 60.8152 72.047C60.6023 72.05 60.3909 72.0108 60.1933 71.9316C59.9957 71.8524 59.8158 71.7348 59.6639 71.5855L59.6449 71.5665C59.3434 71.2649 59.1741 70.856 59.1741 70.4296C59.1741 70.0033 59.3434 69.5944 59.6449 69.2928L63.5436 65.333L62.34 64.1504L58.4318 68.116C58.1273 68.423 57.8864 68.7871 57.7227 69.1874C57.5591 69.5877 57.4759 70.0163 57.4781 70.4487C57.4802 70.8811 57.5675 71.3089 57.7351 71.7075C57.9027 72.1062 58.1472 72.4679 58.4546 72.7719L58.4737 72.791C58.7845 73.0993 59.1536 73.3424 59.5595 73.5063C59.9655 73.6701 60.4 73.7513 60.8377 73.745C61.2753 73.7388 61.7074 73.6453 62.1085 73.4701C62.5096 73.2948 62.8717 73.0412 63.1736 72.7242L64.3504 71.4902L65.5693 72.7185C65.8752 73.0257 66.2387 73.2694 66.639 73.4357C67.0393 73.602 67.4685 73.6876 67.902 73.6876C68.3355 73.6876 68.7647 73.602 69.1651 73.4357C69.5654 73.2694 69.9289 73.0257 70.2348 72.7185L70.2462 72.7071C70.8599 72.0867 71.2023 71.2483 71.1983 70.3757C71.1944 69.5031 70.8444 68.6678 70.2252 68.053L62.8798 60.7305Z" fill="#511B4B"/>
<path d="M62.2503 57.231L54.9202 64.5784C54.7702 64.7292 54.5919 64.8489 54.3955 64.9304C54.199 65.0119 53.9884 65.0537 53.7757 65.0533C53.4571 65.0559 53.1449 64.9634 52.879 64.7878C52.6131 64.6122 52.4055 64.3614 52.2827 64.0673C52.1599 63.7733 52.1275 63.4493 52.1896 63.1367C52.2517 62.8242 52.4054 62.5372 52.6313 62.3124L55.088 59.8709L52.6084 57.4981C52.4545 57.3508 52.3314 57.1744 52.2463 56.9791C52.1612 56.7837 52.1158 56.5734 52.1128 56.3604C52.1098 56.1474 52.1492 55.9359 52.2287 55.7383C52.3082 55.5406 52.4263 55.3608 52.5759 55.2092L52.595 55.1901C52.8963 54.8904 53.304 54.7222 53.729 54.7222C54.1539 54.7222 54.5616 54.8904 54.8629 55.1901L58.8303 59.0908L60.0129 57.8872L56.0474 53.9885C55.4285 53.3769 54.5929 53.035 53.7228 53.0371C52.8527 53.0393 52.0188 53.3853 51.4029 53.9999L51.3915 54.0113L51.3724 54.0304C51.0644 54.3413 50.8215 54.7104 50.6579 55.1162C50.4942 55.5221 50.413 55.9564 50.419 56.3939C50.4251 56.8315 50.5182 57.2634 50.693 57.6646C50.8678 58.0657 51.1208 58.428 51.4372 58.7303L52.6713 59.9071L51.4449 61.126H51.4353C51.1299 61.4326 50.8878 61.7963 50.7229 62.1965C50.558 62.5966 50.4735 63.0253 50.4743 63.4581C50.4751 63.8909 50.5612 64.3193 50.7275 64.7189C50.8939 65.1184 51.1373 65.4813 51.4439 65.7867C51.7505 66.0922 52.1143 66.3343 52.5144 66.4992C52.9146 66.664 53.3433 66.7485 53.7761 66.7477C54.2088 66.7469 54.6372 66.6609 55.0368 66.4945C55.4363 66.3282 55.7992 66.0847 56.1047 65.7781L56.1161 65.7667L63.4444 58.4213L62.2503 57.231Z" fill="#511B4B"/>
<path d="M65.7544 58.9853L66.9465 57.7913L59.5992 50.4611C59.449 50.3128 59.3295 50.1364 59.2476 49.9419C59.1658 49.7474 59.1231 49.5386 59.122 49.3276C59.121 49.1166 59.1615 48.9074 59.2414 48.7121C59.3214 48.5168 59.439 48.3392 59.5877 48.1894C59.7368 48.0394 59.9141 47.9203 60.1093 47.8391C60.3046 47.7579 60.514 47.7161 60.7255 47.7161C60.937 47.7161 61.1464 47.7579 61.3416 47.8391C61.5369 47.9203 61.7142 48.0394 61.8632 48.1894L64.3066 50.6442L66.6795 48.1646C66.8267 48.0107 67.0032 47.8876 67.1985 47.8025C67.3938 47.7174 67.6041 47.6721 67.8171 47.669C68.0301 47.666 68.2416 47.7054 68.4393 47.7849C68.6369 47.8644 68.8168 47.9825 68.9683 48.1322L68.9874 48.1512C69.2901 48.4515 69.4612 48.8597 69.463 49.2861C69.4648 49.7124 69.2971 50.1221 68.997 50.4249L65.0963 54.3923L66.298 55.5749L70.1967 51.6094C70.8106 50.9884 71.1531 50.1493 71.1491 49.2761C71.1452 48.4029 70.7951 47.5669 70.1757 46.9515L70.1567 46.9324C69.8455 46.6248 69.4762 46.3823 69.0704 46.2189C68.6645 46.0555 68.2302 45.9746 67.7927 45.9808C67.3553 45.987 66.9234 46.0803 66.5224 46.2551C66.1213 46.4299 65.7591 46.6829 65.4568 46.9992L64.2799 48.2333L63.0592 47.0068C62.7533 46.6999 62.3899 46.4564 61.9898 46.2903C61.5896 46.1242 61.1606 46.0386 60.7274 46.0386C60.2941 46.0386 59.8651 46.1242 59.465 46.2903C59.0648 46.4564 58.7014 46.6999 58.3956 47.0068L58.3841 47.0201C58.0798 47.3271 57.839 47.6909 57.6754 48.091C57.5117 48.491 57.4285 48.9193 57.4305 49.3515C57.4324 49.7837 57.5195 50.2113 57.6867 50.6098C57.854 51.0084 58.0981 51.37 58.4051 51.6742L65.7544 58.9853Z" fill="#511B4B"/>
<path d="M37.8184 107.371H36.3325V120.368H43.5196V119.088H37.8184V107.371Z" fill="#511B4B"/>
<path d="M55.9883 111.188C55.1918 110.778 54.309 110.564 53.4133 110.564C52.5176 110.564 51.6349 110.778 50.8383 111.188C50.1019 111.59 49.4937 112.191 49.0835 112.923C48.6688 113.714 48.4521 114.593 48.4521 115.486C48.4521 116.379 48.6688 117.258 49.0835 118.049C49.4937 118.781 50.1019 119.382 50.8383 119.784C51.6349 120.194 52.5176 120.408 53.4133 120.408C54.309 120.408 55.1918 120.194 55.9883 119.784C56.7242 119.382 57.3318 118.781 57.7412 118.049C58.1559 117.258 58.3726 116.379 58.3726 115.486C58.3726 114.593 58.1559 113.714 57.7412 112.923C57.3318 112.192 56.7242 111.59 55.9883 111.188ZM56.4862 117.444C56.205 117.99 55.777 118.448 55.2502 118.764C54.6921 119.074 54.0642 119.237 53.4257 119.237C52.7873 119.237 52.1594 119.074 51.6013 118.764C51.071 118.45 50.64 117.992 50.3577 117.444C50.0498 116.838 49.8965 116.165 49.9113 115.485C49.8973 114.815 50.0507 114.151 50.3577 113.555C50.6419 113.011 51.0727 112.558 51.6013 112.246C52.159 111.935 52.787 111.772 53.4257 111.772C54.0644 111.772 54.6925 111.935 55.2502 112.246C55.7752 112.56 56.2031 113.013 56.4862 113.555C56.7916 114.152 56.9443 114.815 56.9306 115.485C56.9451 116.165 56.7925 116.837 56.4862 117.444Z" fill="#511B4B"/>
<path d="M67.2859 118.996L64.1673 110.604H62.6433L66.5058 120.369H68.0108L71.8542 110.604H70.3874L67.2859 118.996Z" fill="#511B4B"/>
<path d="M83.4397 111.243C82.748 110.787 81.8756 110.559 80.8227 110.559C79.9435 110.555 79.0777 110.774 78.3069 111.198C77.5836 111.601 76.9886 112.2 76.5902 112.926C76.1703 113.71 75.9594 114.589 75.9779 115.478C75.9602 116.371 76.1709 117.253 76.5902 118.041C76.9861 118.771 77.5815 119.373 78.3069 119.777C79.089 120.203 79.9687 120.417 80.859 120.399C81.6163 120.408 82.3679 120.266 83.0697 119.981C83.7209 119.718 84.3068 119.316 84.7863 118.802L83.989 118.003C83.2083 118.846 82.1993 119.267 80.962 119.266C80.3103 119.277 79.6679 119.11 79.1042 118.783C78.5623 118.463 78.1219 117.996 77.8338 117.437C77.599 116.983 77.4539 116.488 77.4066 115.979H85.3814C85.4598 115.012 85.3237 114.039 84.9828 113.13C84.678 112.355 84.1384 111.696 83.4397 111.243ZM77.3951 114.911C77.441 114.412 77.5835 113.926 77.8148 113.481C78.0928 112.944 78.5131 112.495 79.0298 112.182C79.5728 111.864 80.1935 111.703 80.8227 111.716C81.4062 111.699 81.9844 111.83 82.5032 112.098C82.9756 112.354 83.3673 112.736 83.6343 113.202C83.9258 113.722 84.0825 114.306 84.0901 114.902L77.3951 114.911Z" fill="#511B4B"/>
<path d="M110.271 107.371H108.488L101.507 115.096V107.371H100.021V120.368H101.507V116.935L104.053 114.156L108.823 120.368H110.624L105.075 113.042L110.271 107.371Z" fill="#511B4B"/>
<path d="M122.99 111.243C122.297 110.787 121.424 110.559 120.373 110.559C119.494 110.555 118.628 110.774 117.857 111.198C117.134 111.601 116.539 112.2 116.14 112.926C115.72 113.71 115.509 114.589 115.528 115.478C115.51 116.371 115.721 117.253 116.14 118.041C116.536 118.771 117.132 119.373 117.857 119.777C118.639 120.203 119.519 120.417 120.409 120.399C121.166 120.408 121.918 120.266 122.62 119.981C123.268 119.717 123.85 119.315 124.327 118.802L123.53 118.003C122.75 118.846 121.741 119.267 120.503 119.266C119.851 119.277 119.208 119.11 118.645 118.783C118.103 118.463 117.662 117.996 117.374 117.437C117.139 116.983 116.994 116.488 116.947 115.979H124.922C125 115.012 124.864 114.039 124.523 113.13C124.221 112.357 123.685 111.697 122.99 111.243ZM116.951 114.911C116.997 114.412 117.139 113.926 117.371 113.481C117.649 112.944 118.069 112.495 118.586 112.182C119.129 111.864 119.749 111.703 120.379 111.716C120.962 111.699 121.54 111.83 122.059 112.098C122.532 112.354 122.924 112.736 123.192 113.202C123.482 113.722 123.638 114.306 123.646 114.902L116.951 114.911Z" fill="#511B4B"/>
<path d="M136.954 110.604L133.852 118.83L130.585 110.604H129.08L133.13 120.314L132.719 121.268C132.576 121.693 132.315 122.069 131.968 122.353C131.676 122.587 131.312 122.715 130.938 122.716C130.445 122.712 129.964 122.556 129.563 122.269L128.95 123.339C129.236 123.567 129.558 123.743 129.904 123.86C130.264 123.975 130.64 124.031 131.018 124.026C131.639 124.035 132.244 123.834 132.735 123.454C133.282 123.008 133.702 122.426 133.952 121.766L138.446 110.605L136.954 110.604Z" fill="#511B4B"/>
<path d="M47.1779 100.02C47.0335 99.8762 46.8624 99.7615 46.6744 99.6826C46.4773 99.6007 46.266 99.5586 46.0526 99.5586C45.8391 99.5586 45.6278 99.6007 45.4307 99.6826C45.2427 99.7615 45.0717 99.8762 44.9272 100.02C44.7799 100.168 44.6634 100.344 44.5841 100.537C44.5049 100.73 44.4646 100.937 44.4656 101.146C44.4673 101.38 44.5209 101.611 44.6224 101.822C44.724 102.033 44.8711 102.219 45.0531 102.367C45.2351 102.514 45.4475 102.62 45.6751 102.675C45.9027 102.731 46.1398 102.736 46.3693 102.689C46.5989 102.642 46.8153 102.545 47.0029 102.405C47.1906 102.265 47.3448 102.084 47.4546 101.877C47.5643 101.67 47.6269 101.442 47.6378 101.208C47.6486 100.974 47.6075 100.74 47.5174 100.524C47.4384 100.335 47.323 100.164 47.1779 100.02Z" fill="#511B4B"/>
<path d="M72.2183 93.0631C72.2207 93.3296 72.155 93.5922 72.0276 93.8261C71.9659 93.9439 71.8924 94.0551 71.8082 94.158C71.7211 94.262 71.6158 94.3493 71.4973 94.4155C71.3563 94.4932 71.2046 94.5498 71.0472 94.5833C70.8336 94.625 70.6162 94.6442 70.3987 94.6406H68.5962C68.5122 94.6406 68.4531 94.6406 68.4207 94.6406H68.3673C68.3673 94.6406 68.3673 94.6406 68.3501 94.6291C68.071 94.5793 67.8166 94.4376 67.6272 94.2267C67.3799 93.9563 67.1788 93.6469 67.0321 93.3111C66.8604 92.9182 66.6976 92.5717 66.5438 92.2716C66.3899 91.9715 66.2526 91.7172 66.1318 91.5086C65.9894 91.2645 65.8304 91.0101 65.6549 90.7456C65.4795 90.4812 65.2887 90.195 65.0827 89.8873C64.1621 88.7009 62.9184 88.1077 61.3518 88.1077C59.7852 88.1077 58.5352 88.6869 57.6019 89.8454C57.5427 89.9083 57.4893 89.9751 57.434 90.0361C57.3798 90.1047 57.3319 90.1781 57.2909 90.2554L57.1612 90.4462C57.1193 90.511 57.0754 90.5778 57.0334 90.6503L59.3223 91.9568C59.6657 91.3846 60.0357 91.0146 60.4363 90.8429C60.8886 90.7414 61.3586 90.7486 61.8077 90.8639C62.2559 90.9935 62.6628 91.2373 62.9884 91.5716C63.4538 92.0154 63.8316 92.5427 64.1023 93.1261C64.2377 93.4255 64.3693 93.6983 64.4933 93.952C64.6173 94.2057 64.7317 94.4308 64.8309 94.6368H56.8789C56.5424 94.6546 56.2077 94.5766 55.9138 94.4117C55.6773 94.2613 55.485 94.0506 55.3568 93.8013C55.2917 93.6926 55.2465 93.5731 55.2233 93.4484C55.1987 93.3227 55.1859 93.195 55.1852 93.067V88.0142H52.5491V93.0631C52.5481 93.1919 52.5315 93.32 52.4995 93.4446C52.4691 93.5688 52.4202 93.6877 52.3546 93.7975C52.2235 94.0497 52.0255 94.2608 51.7824 94.4079C51.5369 94.5584 51.2539 94.6364 50.966 94.6329H40.254C39.9611 94.6376 39.6729 94.5596 39.4224 94.4079C39.1789 94.2611 38.9809 94.0499 38.8501 93.7975C38.7912 93.6852 38.7445 93.5669 38.7109 93.4446C38.6768 93.3203 38.6589 93.1921 38.6575 93.0631V88.0142H36.0195V93.0631C36.0182 93.6178 36.1275 94.1671 36.3411 94.679C36.5546 95.1909 36.8681 95.6551 37.2632 96.0444C37.6534 96.4259 38.1114 96.7312 38.6136 96.9447C39.1318 97.1668 39.6902 97.2797 40.254 97.2766H51.1663C51.6703 97.2423 52.165 97.123 52.6292 96.9237C53.0861 96.7254 53.505 96.4492 53.8672 96.1074C54.0579 96.2981 54.2296 96.4583 54.3974 96.6014C54.571 96.7479 54.7634 96.8704 54.9696 96.9657C55.2132 97.0746 55.4695 97.1522 55.7326 97.1965C56.0695 97.2495 56.4101 97.2757 56.7512 97.2747H70.6447V97.2652C71.2638 97.2607 71.8777 97.1517 72.4606 96.9428C72.9836 96.751 73.4564 96.4432 73.8434 96.0425C74.196 95.6613 74.457 95.2046 74.6064 94.7073C74.7654 94.1752 74.8444 93.6223 74.841 93.067V83.1484H72.2183V93.0631Z" fill="#511B4B"/>
<path d="M79.3254 83.1367H76.6875V97.2763H79.3254V83.1367Z" fill="#511B4B"/>
<path d="M99.975 92.666C99.6958 92.616 99.441 92.4752 99.2502 92.2654C99.0033 91.994 98.8023 91.6841 98.6551 91.3479C98.4777 90.9474 98.3136 90.6002 98.1629 90.3027C98.0123 90.0051 97.8768 89.7553 97.7548 89.5397C97.6123 89.2981 97.4534 89.0438 97.2779 88.7768L96.7057 87.9184C95.78 86.7358 94.5312 86.1445 92.9595 86.1445C91.3878 86.1445 90.1302 86.7199 89.1867 87.8707C89.1447 87.9432 89.097 88.0138 89.0475 88.0863C88.9979 88.1588 88.9502 88.2255 88.9082 88.2885L88.769 88.4925L88.6412 88.6833L90.9301 90.0032C91.2874 89.431 91.6587 89.0591 92.044 88.8874C92.4955 88.7825 92.9662 88.7934 93.4124 88.9191C93.8586 89.0448 94.2658 89.2813 94.5961 89.6065C94.8164 89.827 95.0186 90.065 95.2007 90.3179C95.3913 90.5853 95.5549 90.8709 95.689 91.1705C95.8321 91.47 95.9675 91.7428 96.0953 92.0022C96.2231 92.2616 96.3395 92.4752 96.4387 92.6602H90.9873C90.4234 92.6579 89.8651 92.7715 89.3469 92.994C88.3367 93.4193 87.5329 94.2231 87.1076 95.2333C86.8858 95.7516 86.7728 96.3099 86.7757 96.8737V98.3214C86.772 98.8883 86.885 99.4499 87.1076 99.9713C87.5325 100.982 88.3363 101.787 89.3469 102.213C89.8652 102.434 90.4235 102.547 90.9873 102.544H96.5626V99.9351H90.9873V99.9122C90.7263 99.9143 90.4689 99.852 90.2377 99.731C89.9928 99.5933 89.7863 99.3966 89.6368 99.1588C89.4846 98.9091 89.4066 98.6214 89.4118 98.3291V96.8813C89.4129 96.7527 89.4289 96.6247 89.4594 96.4998C89.4905 96.3752 89.5393 96.2557 89.6044 96.1451C89.7362 95.8934 89.934 95.6824 90.1766 95.5347C90.4212 95.3838 90.7037 95.3058 90.9911 95.3096H91.035L100.5 95.3306V92.6888H100.156C100.095 92.6925 100.033 92.6847 99.975 92.666Z" fill="#511B4B"/>
<path d="M107.454 85.613C107.643 85.8019 107.877 85.9398 108.134 86.0141C108.391 86.0883 108.663 86.0964 108.923 86.0376C109.184 85.9788 109.426 85.855 109.626 85.6777C109.827 85.5005 109.979 85.2755 110.069 85.0236C110.178 85.3301 110.377 85.5962 110.641 85.7866C110.864 85.9441 111.122 86.0426 111.393 86.0726C111.664 86.1026 111.938 86.0633 112.19 85.9583C112.379 85.8798 112.551 85.7651 112.695 85.6207C112.839 85.4758 112.954 85.3049 113.033 85.1171C113.196 84.7185 113.196 84.272 113.033 83.8735C112.953 83.6861 112.838 83.5154 112.695 83.3699C112.547 83.2226 112.371 83.1061 112.178 83.0272C111.984 82.9483 111.777 82.9086 111.568 82.9102C111.24 82.9073 110.919 83.0067 110.651 83.1948C110.382 83.3829 110.179 83.6501 110.069 83.9593C109.96 83.6512 109.758 83.3847 109.491 83.1967C109.223 83.0087 108.904 82.9086 108.577 82.9102C108.365 82.9083 108.154 82.9498 107.957 83.0323C107.769 83.1103 107.598 83.2251 107.454 83.3699C107.306 83.5172 107.188 83.6926 107.109 83.8859C107.03 84.0792 106.99 84.2864 106.992 84.4953C106.99 84.7087 107.032 84.9203 107.114 85.1171C107.194 85.3031 107.309 85.4716 107.454 85.613Z" fill="#511B4B"/>
<path d="M120.766 85.5919C121.065 85.8887 121.47 86.0552 121.891 86.0552C122.313 86.0552 122.717 85.8887 123.016 85.5919C123.315 85.2933 123.482 84.8885 123.482 84.4665C123.482 84.0445 123.315 83.6398 123.016 83.3411C122.718 83.0427 122.313 82.875 121.891 82.875C121.469 82.875 121.064 83.0427 120.766 83.3411C120.467 83.6396 120.3 84.0444 120.3 84.4665C120.3 84.8886 120.467 85.2934 120.766 85.5919Z" fill="#511B4B"/>
<path d="M138.732 95.9795V89.4619H134.583C134.019 89.4589 133.461 89.5719 132.943 89.7938C131.932 90.2195 131.128 91.024 130.703 92.035C130.481 92.5532 130.368 93.1115 130.372 93.6753V94.629H124.649V87.4686H120.478C119.917 87.4647 119.362 87.5777 118.847 87.8005C118.349 88.0142 117.896 88.3196 117.512 88.7008C117.126 89.0831 116.819 89.5365 116.606 90.036C116.384 90.5547 116.267 91.1122 116.262 91.6764V93.0592C116.26 93.5988 116.362 94.1337 116.562 94.6348H112.995V94.6138C112.706 94.6192 112.421 94.541 112.175 94.3887C111.936 94.2453 111.739 94.0422 111.603 93.7993C111.476 93.5652 111.41 93.3027 111.412 93.0363V88.0141H108.782V93.0631C108.781 93.1917 108.765 93.3198 108.734 93.4445C108.703 93.5687 108.655 93.6877 108.589 93.7974C108.458 94.0498 108.26 94.2611 108.017 94.4078C107.772 94.5588 107.49 94.6369 107.202 94.6328H106.63C106.283 94.6512 105.938 94.5733 105.632 94.4078C105.389 94.2606 105.191 94.0494 105.06 93.7974C105.001 93.6851 104.955 93.5668 104.921 93.4445C104.886 93.3204 104.868 93.192 104.868 93.0631V83.1445H102.233V93.0631C102.23 93.6238 102.331 94.1802 102.533 94.7034C102.726 95.2029 103.019 95.6574 103.395 96.0386C103.789 96.4285 104.257 96.7347 104.772 96.9389C105.316 97.1498 105.894 97.2603 106.477 97.2651H107.206C107.749 97.2684 108.286 97.1626 108.787 96.9542C109.275 96.7524 109.721 96.4613 110.102 96.0958C110.486 96.4541 110.933 96.7392 111.42 96.937C111.919 97.1428 112.455 97.2472 112.995 97.2441V97.2651H130.543C130.677 97.6834 130.878 98.0775 131.136 98.4324C131.392 98.7847 131.699 99.0961 132.048 99.3556C132.4 99.6162 132.791 99.8202 133.206 99.9602C133.636 100.108 134.087 100.183 134.541 100.181H134.562C135.124 100.184 135.681 100.071 136.197 99.8477C136.695 99.6353 137.148 99.3297 137.532 98.9474C137.921 98.5553 138.229 98.0904 138.439 97.5791C138.648 97.0679 138.755 96.5205 138.753 95.968L138.732 95.9795ZM122.009 94.6443H120.413C120.291 94.6447 120.171 94.6267 120.054 94.5909C119.94 94.5574 119.83 94.5107 119.726 94.4516C119.485 94.3174 119.282 94.1237 119.137 93.8889C118.985 93.6429 118.906 93.3581 118.912 93.0688H118.891V91.6764H118.912C118.912 91.5477 118.928 91.4196 118.96 91.2949C118.992 91.171 119.038 91.0508 119.095 90.9363C119.234 90.6908 119.43 90.4827 119.667 90.3297C119.909 90.1764 120.191 90.0969 120.478 90.1008H122.004L122.009 94.6443ZM136.096 96.1893C136.082 96.2888 136.061 96.3871 136.031 96.483C136 96.5765 135.965 96.6682 135.924 96.7577C135.787 97.0001 135.59 97.2031 135.352 97.3471C135.114 97.495 134.839 97.573 134.558 97.5722C134.269 97.5764 133.985 97.4983 133.738 97.3471C133.503 97.2061 133.31 97.0063 133.176 96.7674C133.042 96.5286 132.973 96.259 132.975 95.9852V93.6753H132.996C132.995 93.4082 133.053 93.1442 133.168 92.9028C133.306 92.6632 133.503 92.4624 133.74 92.3192C133.99 92.171 134.276 92.095 134.566 92.0998H136.079L136.096 96.1893Z" fill="#511B4B"/>
<path opacity="0.2" d="M170.789 88.5016C170.789 137.061 135.311 176.427 91.5473 176.427C47.7833 176.427 0.177734 140.141 0.177734 91.5808C0.177734 43.0209 47.7833 0.576172 91.5473 0.576172C135.311 0.576172 170.789 39.9417 170.789 88.5016Z" fill="#E0C7DD"/>
</svg>
