<svg width="124" height="280" viewBox="0 0 124 280" fill="none" xmlns="http://www.w3.org/2000/svg">
<path d="M43.4016 31.12C36.8696 31.318 23.2126 34.683 20.0466 50.716C16.8786 66.749 20.6406 67.935 15.2956 73.477C9.95058 79.021 4.01258 86.344 5.39958 94.855C6.78458 103.367 31.7236 103.168 31.7236 103.168C31.7236 103.168 64.1856 104.553 66.5606 100.397C68.9366 96.24 63.7896 87.335 63.9886 79.614C64.1856 71.895 66.9576 53.487 64.7796 47.35C62.6026 41.215 49.9346 30.922 43.4016 31.12Z" fill="#BD592A"/>
<path d="M81.1939 225.77L81.1699 249.264C81.1699 249.264 81.4049 256.9 89.0599 259.273C96.7119 261.65 94.3369 250.037 94.3369 250.037L96.4069 227.465L81.1939 225.77Z" fill="#FFC5AC"/>
<path d="M94.337 250.563C94.337 250.563 100.406 259.01 106.49 263.403C109.961 265.911 113.158 268.493 114.13 271.415C115.345 275.064 110.267 279.319 105.685 279.066C97.446 278.608 81.109 266.827 80.198 262.806C79.286 258.788 80.775 248.729 80.775 248.729C80.775 248.729 84.307 251.883 88.795 251.621C93.282 251.354 94.337 250.563 94.337 250.563Z" fill="#41383D"/>
<path d="M64.5756 214.62L54.2306 235.714C54.2306 235.714 51.0876 242.675 56.9186 248.173C62.7496 253.668 65.7186 242.194 65.7186 242.194L77.4986 222.829L64.5756 214.62Z" fill="#FFC5AC"/>
<path d="M65.4857 242.667C65.4857 242.667 67.2267 252.924 70.7597 259.542C72.7747 263.32 74.5127 267.046 74.1017 270.098C73.5877 273.908 67.1587 275.497 63.1527 273.259C55.9537 269.227 46.4557 251.463 47.4037 247.451C48.3507 243.441 54.1087 235.06 54.1087 235.06C54.1087 235.06 55.8967 239.448 60.0437 241.181C64.1907 242.916 65.4857 242.667 65.4857 242.667Z" fill="#41383D"/>
<path d="M42.2783 155.439C42.2783 155.439 64.8273 158.571 79.8233 164.266C85.1183 166.274 92.2253 169.544 94.3383 171.918C96.4493 174.294 98.5613 184.059 99.0883 193.824C100.157 213.59 100.444 235.424 99.3953 236.476C97.8433 238.028 77.7113 236.31 76.6563 234.201C75.6013 232.092 79.2833 197.305 77.1853 193.296C75.0833 189.283 48.8943 194.053 38.0813 192.473C26.8643 190.832 14.8503 183.494 12.0163 176.559C9.37033 170.084 15.1213 153.226 15.1213 153.226L42.2783 155.439Z" fill="#48304F"/>
<path d="M48.3226 31.7227C48.3226 31.7227 67.5416 36.2667 65.9406 51.0437C64.6006 63.4257 56.3466 67.6727 56.3466 67.6727C56.3466 67.6727 53.8186 51.6227 50.4276 46.8067C47.0386 41.9867 48.3226 31.7227 48.3226 31.7227Z" fill="#BD592A"/>
<path d="M107.93 167.695C101.068 152.386 65.07 153.004 65.07 153.004L45.916 154.664C53.898 159.163 81.671 175.613 81.671 175.613C81.671 175.613 57.834 223.613 58.579 225.493C59.332 227.376 75.128 236.076 76.261 234.201C77.387 232.322 114.792 183.002 107.93 167.695Z" fill="#48304F"/>
<path d="M47.4378 79.792C47.4378 79.792 66.6278 82.496 67.7388 98.287C68.1798 104.543 66.4608 118.245 66.3638 128.902C66.2158 145.156 71.8788 153.757 71.8768 153.757C71.8768 153.757 60.6778 162.014 42.8668 159.222C28.5928 156.989 12.8508 159.338 12.8508 159.338C12.8508 159.338 -0.841228 95.506 11.0118 85.558C20.4508 77.633 47.4378 79.792 47.4378 79.792Z" fill="#A1366D"/>
<path d="M43.1384 95.9113C49.7094 94.9723 55.0144 87.4663 56.6954 82.8723C51.9304 80.4293 47.4374 79.7913 47.4374 79.7913C47.4374 79.7913 35.6884 78.8523 24.9824 80.4903C27.6474 85.6143 35.7484 96.9663 43.1384 95.9113Z" fill="#FFC5AC"/>
<path d="M35.0472 39.2105C40.5732 33.9005 46.8883 33.1625 53.5533 36.6955C58.0793 39.0935 61.5382 46.9325 61.7182 52.6225C61.8652 57.2375 61.1672 74.2625 48.0732 76.1815C40.2362 77.3285 38.7272 75.3015 34.4812 71.8835C24.0882 63.5365 26.1472 47.7685 35.0472 39.2105Z" fill="#FFC5AC"/>
<path d="M47.9855 67.3905L47.5345 83.3625C47.5345 83.3625 46.4415 92.4865 41.5565 92.4805C36.6675 92.4765 31.6035 80.5675 31.6035 80.5675L37.0115 62.5635L47.9855 67.3905Z" fill="#FFC5AC"/>
<path d="M30.0406 58.9235C28.6246 60.0155 31.0616 68.0746 30.2956 68.4245C28.8066 69.1026 24.6286 62.5795 22.9296 59.6145C20.3536 55.1265 21.3756 45.6315 24.1806 40.6785C26.9846 35.7255 32.6946 33.0685 37.6436 30.7085C44.8536 27.2695 63.2796 37.1515 60.1446 43.1215C57.0086 49.0905 51.7166 49.9245 47.7576 49.9245C43.7996 49.9245 38.4656 51.1805 36.3826 52.3335C34.2986 53.4865 34.2076 55.7055 30.0406 58.9235Z" fill="#BD592A"/>
<path d="M26.1063 52.788C26.8343 51.592 28.2633 50.717 29.5603 51.085C30.6753 51.4 33.7083 54.945 33.7373 58.703C33.7613 61.605 31.1693 62.723 29.6043 63.037C28.2673 63.302 27.1603 62.486 26.4363 61.415C24.8493 59.074 24.5243 55.379 26.1063 52.788Z" fill="#FFC5AC"/>
<path d="M34.5048 140.348C34.5058 140.337 34.5108 140.327 34.5138 140.32C31.2618 138.493 22.6378 136.56 19.8548 135.13C17.0698 133.697 19.9808 122.727 20.7368 117.863C21.6048 112.255 22.9648 84.9963 22.9648 84.9963C21.3118 79.2353 9.9208 81.4293 5.7248 93.9993C2.5088 103.634 -1.90019 129.363 0.88081 139.239C3.65681 149.111 32.4908 153.041 32.4908 153.041L34.4978 140.505C34.5048 140.45 34.4938 140.405 34.5048 140.348Z" fill="#A1366D"/>
<path d="M44.6895 59.2022C44.6875 60.5142 43.6244 61.5762 42.3134 61.5752C41.0004 61.5732 39.9385 60.5092 39.9395 59.1972C39.9415 57.8862 41.0054 56.8232 42.3174 56.8252C43.6284 56.8272 44.6915 57.8902 44.6895 59.2022Z" fill="#7C564F"/>
<path d="M58.1816 60.8135C58.1796 62.1245 57.1166 63.1875 55.8036 63.1855C54.4926 63.1835 53.4306 62.1205 53.4316 60.8085C53.4336 59.4965 54.4976 58.4355 55.8086 58.4355C57.1206 58.4375 58.1836 59.5025 58.1816 60.8135Z" fill="#7C564F"/>
<path d="M50.8437 56.1592C50.8957 56.9952 50.8477 57.7842 50.8117 58.5522C50.7927 58.9332 50.7817 59.3122 50.7807 59.6612C50.7767 59.8352 50.7887 60.0032 50.8047 60.1392C50.8037 60.2712 50.9007 60.3852 50.8037 60.2352L50.9667 60.5562C51.0287 60.7692 51.1477 61.0822 51.2437 61.3822C51.3457 61.6882 51.4417 62.0072 51.5127 62.3472C51.5827 62.6892 51.6397 63.0462 51.6127 63.4612C51.5937 63.6702 51.5607 63.8962 51.4497 64.1442C51.3917 64.2682 51.3147 64.3942 51.2087 64.5042C51.1397 64.5702 51.1327 64.5792 50.9937 64.6762L50.8867 64.7312C50.8337 64.7622 50.6687 64.8232 50.5637 64.8572C50.4417 64.8972 50.3707 64.8982 50.2727 64.9202C50.0907 64.9472 49.9177 64.9642 49.7477 64.9682C49.4067 64.9872 49.0787 64.9532 48.7537 64.9262C48.1057 64.8652 47.4707 64.7402 46.8477 64.5722C47.4877 64.4952 48.1187 64.4082 48.7367 64.3142C49.0447 64.2662 49.3487 64.2012 49.6357 64.1322C49.7817 64.1002 49.9187 64.0562 50.0447 64.0102C50.0977 63.9852 50.1847 63.9592 50.2077 63.9382C50.2457 63.9052 50.2407 63.9322 50.3157 63.8692L50.4087 63.7952C50.3337 63.8472 50.3827 63.7952 50.3647 63.8042C50.3587 63.7922 50.3547 63.7762 50.3527 63.7512C50.3487 63.7002 50.3367 63.6052 50.3107 63.4972C50.2627 63.2792 50.1767 63.0152 50.0807 62.7462L49.7637 61.9062C49.6527 61.6082 49.5417 61.3292 49.4437 60.9302L49.6067 61.2502C49.4227 61.0212 49.3727 60.8222 49.3327 60.6602C49.3007 60.5002 49.2887 60.3612 49.2847 60.2322C49.2797 59.9752 49.3097 59.7512 49.3427 59.5342C49.4137 59.1012 49.5377 58.7052 49.6777 58.3192C49.8097 57.9322 49.9877 57.5632 50.1747 57.2012C50.3677 56.8392 50.5787 56.4882 50.8437 56.1592Z" fill="#DC8C7A"/>
<path d="M46.6514 76.3638C40.8514 76.9788 38.9234 75.5328 35.8594 73.0098" stroke="#DC8C7A" stroke-width="0.7917" stroke-miterlimit="10"/>
<path d="M40.2791 53.6986C40.3081 53.6886 40.3391 53.6786 40.3681 53.6686C39.6761 53.6236 39.6671 54.7406 40.3681 54.7506C40.9441 54.7586 41.4761 54.6236 42.0661 54.6746C42.7291 54.7316 43.3421 54.8196 43.9911 54.9446C44.5091 55.0446 45.0801 54.3566 44.5681 53.9536C43.9801 53.4896 43.2651 53.4326 42.5351 53.4326C41.6911 53.4326 41.0261 53.4276 40.2251 53.6886C40.4531 53.8626 40.6811 54.0366 40.9101 54.2096C40.9001 54.2396 40.8901 54.2696 40.8811 54.2996C41.0751 53.8896 40.6861 53.5096 40.2791 53.6986Z" fill="#B3402A"/>
<path d="M54.6472 55.098C54.6842 55.102 54.7212 55.107 54.7582 55.112C54.0692 54.972 53.7913 56.048 54.4713 56.155C55.1173 56.257 55.7322 56.216 56.3862 56.374C56.6802 56.445 56.9802 56.491 57.2762 56.557C57.6052 56.63 57.8762 56.835 58.2092 56.883C58.6682 56.95 59.1102 56.527 58.8402 56.063C58.4692 55.428 57.6233 55.284 56.9503 55.187C56.0543 55.059 55.3623 54.958 54.4713 55.112C54.6993 55.286 54.9272 55.46 55.1562 55.633C55.1522 55.67 55.1482 55.706 55.1432 55.742C55.3552 55.421 55.0072 54.988 54.6472 55.098Z" fill="#B3402A"/>
<path d="M62.4043 119.2C62.4043 119.2 63.7293 146.313 70.3263 146.056C76.9263 145.799 80.3593 143.163 79.8383 134.982C79.3203 126.799 66.9563 112.273 66.9563 112.273L62.4043 119.2Z" fill="#FFC5AC"/>
<path d="M31.1309 118.013C31.1309 118.013 2.38486 128.567 2.11086 137.276C1.83786 145.983 9.22486 149.422 15.2959 148.109C21.3669 146.798 34.8919 124.151 34.8919 124.151L31.1309 118.013Z" fill="#FFC5AC"/>
<path d="M14.1719 90.8408C14.1719 90.8408 19.2989 96.3678 20.2299 102.458C21.2799 109.322 20.6399 121.972 20.6399 121.972" stroke="#782A59" stroke-width="0.7917" stroke-miterlimit="10"/>
<path d="M4.35742 128.37C4.35742 128.37 11.7334 121.576 20.0464 121.972" stroke="#782A59" stroke-width="0.756" stroke-miterlimit="10"/>
<path d="M4.12891 122.299C4.12891 122.299 11.2049 120.161 14.2849 122.571" stroke="#782A59" stroke-width="0.756" stroke-miterlimit="10"/>
<path d="M60.3594 89.3057C60.3594 89.3057 62.7274 95.6427 61.6654 101.975" stroke="#782A59" stroke-width="0.7917" stroke-miterlimit="10"/>
<path d="M30.593 160.793C30.593 160.793 28.605 169.503 16.332 169.883" stroke="#726281" stroke-width="0.7917" stroke-miterlimit="10"/>
<path d="M18.3047 175.431C18.3047 175.431 18.8177 175.945 19.7797 176.744" stroke="#726281" stroke-width="0.7917" stroke-miterlimit="10"/>
<path d="M21.6504 178.197C26.0744 181.427 34.5674 186.269 45.2134 185.748C61.0484 184.975 83.2194 183.018 84.7964 189.353C86.0904 194.555 83.6274 220.303 82.7044 229.35" stroke="#726281" stroke-width="0.7917" stroke-miterlimit="10" stroke-dasharray="3.95 2.37"/>
<path d="M82.582 230.535C82.453 231.785 82.375 232.501 82.375 232.501" stroke="#726281" stroke-width="0.7917" stroke-miterlimit="10"/>
<path d="M47.5591 36.0684C47.5591 36.0684 36.6311 36.0384 32.1211 49.9234" stroke="#A94A06" stroke-width="0.7917" stroke-miterlimit="10"/>
<path d="M57.5107 40.5752C57.5107 40.5752 52.2527 46.9732 47.5977 47.7632" stroke="#A94A06" stroke-width="0.7917" stroke-miterlimit="10"/>
<path d="M51.9688 38.0977C51.9688 38.0977 39.2459 42.9957 38.2559 48.3407" stroke="#A94A06" stroke-width="0.7917" stroke-miterlimit="10"/>
<path d="M41.6866 65.6924L51.8476 67.9354C51.8476 67.9354 47.4936 74.2704 44.1946 72.4214C40.8956 70.5744 41.6866 65.6924 41.6866 65.6924Z" fill="white"/>
<path d="M28.7542 42.9951C28.7542 42.9951 23.0151 47.3491 22.8171 57.2461C22.6771 64.1841 24.9931 68.5291 22.4211 71.8941C19.8481 75.2571 16.4832 77.8321 16.2852 80.6031" stroke="#A94A06" stroke-width="0.7917" stroke-miterlimit="10"/>
<path d="M27.9639 69.5186C27.9639 69.5186 28.7549 71.6955 26.9749 73.6745C25.1919 75.6545 24.7969 78.2286 24.7969 78.2286" stroke="#A94A06" stroke-width="0.7917" stroke-miterlimit="10"/>
<path d="M61.4141 65.7588C61.4141 65.7588 59.435 68.3318 58.842 73.8738C58.246 79.4158 60.029 80.4058 60.227 82.3848" stroke="#A94A06" stroke-width="0.7917" stroke-miterlimit="10"/>
<path d="M23.94 81.462C22.944 82.273 21.0889 85.011 23.1939 85.661C24.0979 85.94 25.4689 85.852 25.4339 87.236C25.4249 87.61 25.1509 88.37 25.3819 88.718C25.7799 89.316 26.7849 90.557 27.6739 90.229C27.3849 90.335 28.9939 92.564 29.1869 92.707C29.1719 92.695 31.656 94.006 31.479 93.11C31.725 94.36 32.084 95.378 33.151 96.113C33.975 96.679 35.3029 95.539 35.6739 96.392C36.1969 97.593 36.6989 98.18 38.0199 98.537C38.3589 98.629 38.808 98.542 39.134 98.396C40.323 97.867 40.5909 98.976 41.6159 99.137C42.8659 99.333 43.742 98.973 44.707 98.145C45.167 97.75 44.1889 97.658 44.8359 98.125C45.3609 98.505 45.9959 98.558 46.6159 98.603C47.4959 98.667 48.5839 97.998 49.0179 97.259C49.2509 96.867 49.4259 96.491 49.5639 96.06C49.6999 95.715 49.5769 95.732 49.1979 96.11C49.5909 96.265 49.996 96.334 50.41 96.401C52.698 96.777 53.5339 94.662 53.3439 92.745C53.1579 92.887 52.9719 93.028 52.7859 93.169C55.6829 94.31 56.285 90.559 55.707 88.668C55.5639 88.856 55.4219 89.042 55.2789 89.229C57.5779 89.093 59.6469 86.444 57.6569 84.561C57.3579 84.278 56.7979 84.664 57.0639 85.018C58.0399 86.312 56.7559 88.253 55.2789 88.342C55.0009 88.359 54.7619 88.613 54.8509 88.903C55.1539 89.887 55.5439 93.31 53.0199 92.32C52.7679 92.22 52.4359 92.475 52.4619 92.744C52.6459 94.558 51.169 95.95 49.324 95.224C49.116 95.143 48.8249 95.312 48.7859 95.53C48.5099 97.075 46.7269 98.691 45.0289 97.187C44.8619 97.04 44.576 96.999 44.414 97.187C43.665 98.058 42.7059 98.677 41.4119 98.109C40.9499 97.906 40.6059 97.464 40.1089 97.328C39.7959 97.242 39.3809 97.397 39.0969 97.473C37.5209 97.895 36.5199 96.883 36.4419 95.646C36.4289 95.435 36.3159 95.309 36.1269 95.231C35.5349 94.989 35.5799 95.023 34.9419 95.167C33.0159 95.6 32.4899 93.826 32.2019 92.366C32.1569 92.141 31.887 92.003 31.677 92.067C31.105 92.242 30.7809 92.654 30.1569 92.38C28.6859 91.735 29.1349 91.193 28.6779 90.163C28.3159 89.344 26.1119 88.515 26.1459 87.891C26.1869 87.142 26.4589 86.064 25.6609 85.596C25.1719 85.31 24.5039 85.246 23.9629 85.128C21.8139 84.661 23.6699 82.436 24.3359 81.856C24.6079 81.617 24.214 81.24 23.94 81.462Z" fill="#E5A7B5"/>
<path d="M47.7883 96.2814C47.7883 96.2814 41.6503 120.607 43.8903 122.377C46.1303 124.147 59.1353 125.396 60.2023 124.488C61.2683 123.583 65.3693 99.8854 64.9043 98.2594C64.4403 96.6324 48.5863 93.7644 47.7883 96.2814Z" fill="#393131"/>
<path d="M62.9327 104.356C62.9327 104.356 68.5406 112.47 68.3436 116.034C68.1446 119.597 63.1976 124.347 56.8646 122.367C50.5296 120.389 52.9047 114.78 54.4887 110.03C56.0707 105.279 60.2947 101.585 62.9327 104.356Z" fill="#FFC5AC"/>
<path d="M62.9325 104.489C62.1425 102.774 58.7035 101.61 55.6755 101.322C53.0965 101.073 49.8985 101.475 49.4735 101.717C48.5505 102.246 48.9465 103.697 50.2665 104.093C51.5845 104.489 53.0275 104.223 54.3555 104.752C56.3355 105.545 58.0265 106.342 58.8435 106.469" fill="#FFC5AC"/>
<path d="M58.9741 106.072C58.9741 106.072 57.1831 105.166 55.2801 104.883C52.4801 104.474 47.6541 104.29 47.8891 105.941C48.2851 108.711 56.3341 108.842 56.3341 108.842" fill="#FFC5AC"/>
<path d="M57.5235 108.842C57.5235 108.842 48.2865 107.259 48.5505 110.559C48.8135 113.858 58.9745 111.614 58.9745 111.614" fill="#FFC5AC"/>
<path d="M53.6059 112.502C46.2769 114.686 42.6479 114.335 42.6479 114.335L44.7229 112.01L45.3829 107.919C45.3829 107.919 38.8599 109.255 36.6869 111.641C34.1479 114.436 30.9179 115.793 30.0029 117.785C29.0909 119.783 27.2619 124.562 30.9029 126.119C32.6229 126.852 36.4619 127.72 39.5609 127.628C42.3839 127.543 51.6459 125.965 56.2209 123.902C58.3629 122.935 57.7179 121.096 57.7179 121.096C57.7179 121.096 58.8949 120.484 59.2609 119.916C59.6279 119.344 59.2279 118.401 59.2279 118.401C59.2279 118.401 59.9209 117.701 59.9709 116.368C60.0209 115.04 59.1739 114.677 59.1739 114.677C59.1739 114.677 59.7379 113.052 59.2269 112.586C58.3769 111.811 55.9129 111.816 53.6059 112.502Z" fill="#FFC5AC"/>
<path d="M45.7285 117.465C45.7285 117.465 53.9735 117.678 59.0055 114.67" stroke="#DC8C7A" stroke-width="0.7917" stroke-miterlimit="10"/>
<path d="M45.3594 120.487C45.3594 120.487 53.5854 121.115 58.7624 118.363" stroke="#DC8C7A" stroke-width="0.7917" stroke-miterlimit="10"/>
<path d="M45.8184 123.437C45.8184 123.437 52.8784 123.709 57.3934 121.352" stroke="#DC8C7A" stroke-width="0.7917" stroke-miterlimit="10"/>
<path d="M56.2209 123.901C58.3629 122.934 57.718 121.095 57.718 121.095C57.718 121.095 58.895 120.483 59.261 119.915C59.628 119.343 59.228 118.4 59.228 118.4C59.228 118.4 59.9209 117.7 59.9709 116.367C60.0209 115.039 59.174 114.676 59.174 114.676C59.174 114.676 59.738 113.051 59.227 112.585C58.376 111.811 55.913 111.815 53.6049 112.501C52.6789 112.777 51.811 113.014 51.002 113.213" stroke="#DC8C7A" stroke-width="0.7917" stroke-miterlimit="10"/>
<path d="M49.0254 102.954C49.1754 103.429 49.6034 103.893 50.2644 104.092C51.5824 104.488 53.0254 104.222 54.3534 104.751C56.3334 105.544 58.0244 106.341 58.8414 106.468" stroke="#DC8C7A" stroke-width="0.7917" stroke-miterlimit="10"/>
<path d="M55.2782 104.884C52.4782 104.475 47.6522 104.291 47.8872 105.942C48.2832 108.712 56.3322 108.843 56.3322 108.843" stroke="#DC8C7A" stroke-width="0.7917" stroke-miterlimit="10"/>
<path d="M55.6749 108.58C55.6749 108.58 48.2849 108.315 48.5499 110.56C48.9369 113.846 58.9739 111.615 58.9739 111.615" stroke="#DC8C7A" stroke-width="0.7917" stroke-miterlimit="10"/>
<path d="M66.3984 160.17C71.0274 161.334 75.7095 162.706 79.8235 164.267C85.1185 166.275 92.2254 169.545 94.3384 171.919C96.4494 174.295 98.5614 184.06 99.0884 193.825C99.2684 197.145 99.4254 200.524 99.5594 203.855" stroke="#726281" stroke-width="0.7917" stroke-miterlimit="10"/>
<path d="M80.9319 235.768C78.6109 235.313 76.9399 234.772 76.6549 234.202C75.5999 232.093 79.2819 197.306 77.1839 193.297C76.7539 192.476 75.3169 192.023 73.2109 191.807" stroke="#726281" stroke-width="0.7917" stroke-miterlimit="10"/>
<path d="M84.7812 254.278C85.7812 260.612 92.4483 265.278 96.1143 267.945C99.5453 270.441 103.429 272.122 105.781 272.278C110.781 272.611 112.115 269.278 112.115 269.278" stroke="#66545E" stroke-width="0.8" stroke-miterlimit="10"/>
<path d="M53.7812 243.945C53.7812 243.945 53.7813 250.612 56.8883 255.945C59.9953 261.278 64.3703 267.558 66.5543 268.612C70.0073 270.278 73.1153 267.945 73.1153 267.945" stroke="#66545E" stroke-width="0.8142" stroke-miterlimit="10"/>
<path d="M103.093 53.3863C100.698 52.9183 98.9646 56.2713 98.9646 56.2713C98.9646 56.2713 99.2756 52.5093 96.9946 51.6363C95.2916 50.9813 92.7986 51.3083 92.5766 54.7673C92.3526 58.2233 96.7477 63.9943 96.7477 63.9943C96.7477 63.9943 103.534 61.4333 105.179 58.3863C106.825 55.3363 104.887 53.7363 103.093 53.3863Z" fill="#FF6081"/>
<path d="M105.583 0.12481C99.9369 1.03481 98.8379 9.81381 98.8379 9.81381C98.8379 9.81381 96.4769 1.28781 90.7539 1.21081C86.4749 1.15081 81.2589 3.89181 83.5659 11.6768C85.8749 19.4598 100.211 28.6018 100.211 28.6018C100.211 28.6018 113.066 17.4708 114.219 9.43681C115.368 1.39781 109.809 -0.55419 105.583 0.12481Z" fill="#FF6081"/>
<path d="M120.773 34.154C119.262 34.493 119.11 36.883 119.11 36.883C119.11 36.883 118.331 34.617 116.785 34.69C115.628 34.745 114.264 35.57 115.014 37.635C115.766 39.7 119.789 41.934 119.789 41.934C119.789 41.934 123.079 38.716 123.258 36.528C123.438 34.337 121.904 33.901 120.773 34.154Z" fill="#FF6081"/>
</svg>
