<svg width="117" height="384" viewBox="0 0 117 384" fill="none" xmlns="http://www.w3.org/2000/svg">
<path d="M63.5249 358.015L78.1149 357.728C78.1149 357.728 81.2789 365.613 80.8719 370.521C80.6689 372.989 78.9589 373.502 75.5719 375.719C73.4479 377.114 70.5919 380.05 67.2499 381.845C63.6979 383.753 54.3429 384.152 50.5319 382.695C42.5419 379.639 45.2089 375.754 49.6559 372.495C51.2289 371.341 53.9529 368.908 55.3029 367.262C59.2819 362.405 63.5249 358.015 63.5249 358.015Z" fill="#908492"/>
<path d="M68.3837 364.145C68.3837 364.145 64.4097 362.39 60.2207 362.913" stroke="#636372" stroke-width="0.8228" stroke-miterlimit="10"/>
<path d="M65.7177 368.03C65.7177 368.03 61.7437 366.275 57.5547 366.801" stroke="#636372" stroke-width="0.8228" stroke-miterlimit="10"/>
<path d="M80.348 368.951C80.348 368.951 75.8341 371.285 72.8111 374.065C69.7891 376.847 67.316 380.293 63.223 381.439C59.128 382.585 49.924 382.636 45.623 379.469" stroke="#636372" stroke-width="0.8228" stroke-miterlimit="10"/>
<path d="M24.9003 355.253L39.4653 356.165C39.4653 356.165 41.9693 364.282 41.1623 369.143C40.7563 371.582 39.0123 371.955 35.4523 373.885C33.2213 375.101 30.1343 377.791 26.6553 379.31C22.9583 380.914 13.6013 380.546 9.92229 378.784C2.21129 375.08 5.1883 371.422 9.8883 368.543C11.5513 367.522 14.4663 365.322 15.9453 363.792C20.3103 359.277 24.9003 355.253 24.9003 355.253Z" fill="#908492"/>
<path d="M29.2391 361.76C29.2391 361.76 25.4231 359.684 21.2051 359.863" stroke="#636372" stroke-width="0.8228" stroke-miterlimit="10"/>
<path d="M26.2616 365.415C26.2616 365.415 22.4446 363.339 18.2266 363.518" stroke="#636372" stroke-width="0.8228" stroke-miterlimit="10"/>
<path d="M40.9034 366.692C40.9034 366.692 36.2584 368.748 33.0734 371.341C29.8884 373.936 27.2134 377.225 23.0574 378.125C18.9014 379.021 9.71138 378.518 5.60938 375.099" stroke="#636372" stroke-width="0.8228" stroke-miterlimit="10"/>
<path d="M16.0012 208.995C16.0012 208.995 15.6752 185.088 16.0012 181.295C16.3272 177.502 18.1952 150.304 18.1952 150.304L2.56321 143.173C2.56321 143.173 1.14621 153.724 0.917211 158.532C0.648211 164.163 -0.727792 174.713 0.644208 183.216C2.01521 191.718 9.41921 219.416 12.9862 220.513C16.5502 221.611 16.0012 208.995 16.0012 208.995Z" fill="#FAC4A8"/>
<path d="M76.4733 267.743C77.0523 248.868 73.5683 206.017 73.5683 206.017C73.5683 206.017 48.4333 201.639 42.8453 202.025C37.2553 202.41 16.8243 208.172 16.8243 208.172C16.8243 208.172 13.6303 234.464 13.2593 255.892C13.0273 269.274 13.0343 288.215 13.7383 294.202C15.0503 305.357 18.9283 334.32 20.6353 345.159C21.3093 349.445 20.5173 350.958 22.1733 354.212C23.8283 357.467 37.8723 358.589 40.2733 355.857C42.6763 353.127 41.5073 345.376 41.5073 339.403C41.5073 333.231 40.8883 321.55 41.2133 315.996C41.7213 307.296 40.2763 298.362 41.2133 292.372C43.0513 280.607 42.1293 248.79 42.1293 248.79C42.1293 248.79 47.7493 277.582 50.9693 294.976C54.0863 311.805 57.6733 335.106 59.6813 348.505C60.6533 354.984 58.7853 357.504 61.2533 359.151C63.7213 360.796 78.9423 359.974 79.7653 357.504C80.5883 355.035 79.8993 352.396 80.0463 345.568C80.2983 333.811 80.5863 316.964 80.2873 312.335C79.6793 302.868 76.1783 277.361 76.4733 267.743Z" fill="#3B2F4F"/>
<path d="M74.6246 171.249C74.7946 164.193 80.7486 130.237 76.7996 122.182C73.8416 116.154 55.1196 111.084 42.4826 111.793C38.2426 112.03 31.7186 112.96 29.3086 113.597C18.3396 116.499 13.3696 124.88 12.8236 132.229C12.5496 135.959 16.6976 154.138 16.2086 170.696C15.9316 180.121 16.6886 194.512 16.8256 197.371C16.9636 200.229 14.0296 210.202 15.7296 215.605C17.0176 219.698 34.1386 219.027 40.7576 219.027C47.3766 219.027 74.1846 220.846 75.5596 215.846C76.9326 210.848 73.7266 207.665 74.8546 199.942C76.2496 190.364 74.4526 178.307 74.6246 171.249Z" fill="#97B8B0"/>
<path d="M25.3266 115.201C22.3516 114.989 8.63858 121.917 6.00758 128.902C3.37558 135.886 -0.496426 148.441 0.0525741 151.626C0.603574 154.812 10.7566 161.46 17.1676 160.626C23.5796 159.792 23.6806 139.609 25.0526 133.302C26.4236 126.994 28.3016 115.412 25.3266 115.201Z" fill="#97B8B0"/>
<path d="M73.5949 232.855C73.5949 232.855 63.7219 230.799 61.2539 221.336" stroke="#4C5B88" stroke-width="0.8228" stroke-miterlimit="10"/>
<path d="M35.7188 221.772C35.7188 221.772 36.6347 240.089 42.1297 248.789" stroke="#4C5B88" stroke-width="0.8228" stroke-miterlimit="10"/>
<path d="M32.0547 236.426C32.0547 236.426 39.3817 245.584 40.7557 245.584" stroke="#4C5B88" stroke-width="0.8228" stroke-miterlimit="10"/>
<path d="M34.2274 69.8686C34.2274 69.8686 43.0504 63.6776 50.2224 69.5106C57.3944 75.3446 58.6364 78.8076 58.3004 83.3256C57.9654 87.8426 58.7654 94.9826 56.3804 97.5966C53.9944 100.211 54.4114 107.095 52.0414 107.848C49.6734 108.599 40.3364 103.543 36.1874 94.9656C32.0374 86.3876 31.2044 72.6136 34.2274 69.8686Z" fill="#894725"/>
<path d="M34.6555 106.216L51.2035 103.778L55.3045 115.49C55.3045 115.49 49.5995 127.961 43.2145 127.467C36.8285 126.973 34.0195 116.41 34.0195 116.41L34.6555 106.216Z" fill="#FFC4A8"/>
<path d="M25.2405 78.794C27.7925 71.443 38.6325 68.92 44.6085 71.209C50.5845 73.499 59.8945 90.005 54.9525 101.784C54.0185 104.012 49.1045 112.333 41.6035 113.475C34.8985 114.495 26.1005 105.426 24.0825 95.885C23.1025 91.266 22.6895 86.145 25.2405 78.794Z" fill="#FAC4A8"/>
<path d="M53.5733 88.4601C50.5043 91.0601 50.9723 94.7531 51.1123 97.6041C52.7473 101.807 60.6453 99.7011 60.5993 93.4451C60.7403 89.8361 57.0893 85.8221 53.5733 88.4601Z" fill="#FAC4A8"/>
<path d="M46.4931 102.61C46.4931 102.61 37.7031 105.927 35.7031 106.056C35.7031 106.056 38.5441 110.079 42.7771 108.762C47.0101 107.447 46.4931 102.61 46.4931 102.61Z" fill="white"/>
<path d="M43.2481 97.0247C43.3881 98.3317 44.5591 99.2777 45.8671 99.1407C47.1751 98.9987 48.1211 97.8257 47.9811 96.5187C47.8411 95.2107 46.6681 94.2647 45.3591 94.4067C44.0541 94.5437 43.1081 95.7197 43.2481 97.0247Z" fill="#7C564F"/>
<path d="M33.8983 98.9644C34.0373 100.271 33.1333 101.441 31.8783 101.575C30.6213 101.708 29.4893 100.757 29.3483 99.4514C29.2083 98.1444 30.1143 96.9744 31.3713 96.8414C32.6263 96.7094 33.7583 97.6574 33.8983 98.9644Z" fill="#7C564F"/>
<path d="M36.3843 94.2441C36.3843 94.2441 36.8813 94.8871 37.3403 95.9431C37.4693 96.2031 37.5633 96.4991 37.6833 96.8101C37.7953 97.1291 37.8993 97.4481 37.9743 97.8561C38.0383 97.9651 38.0163 98.4871 37.9463 98.6831C37.8833 98.9251 37.8073 99.1281 37.7253 99.3191C37.5563 99.6961 37.3823 100.034 37.2113 100.352C37.0483 100.669 36.8873 100.978 36.8063 101.219L36.7423 101.437C36.7363 101.444 36.7283 101.416 36.7063 101.396L36.6983 101.389L36.6933 101.386L36.6903 101.385L36.6893 101.384C36.5933 101.278 36.6643 101.357 36.6433 101.334L36.6863 101.385L36.7713 101.487C36.8023 101.508 36.8103 101.522 36.8433 101.555L37.0023 101.681C37.1233 101.763 37.2433 101.846 37.3743 101.919C37.6443 102.069 37.8993 102.21 38.1353 102.341C39.1183 102.849 39.8063 103.255 39.8063 103.255C39.8063 103.255 39.0183 103.384 37.8553 103.228C37.5643 103.187 37.2453 103.141 36.9093 103.039C36.7413 102.994 36.5643 102.932 36.3813 102.865L36.0963 102.736C35.9863 102.673 35.8543 102.583 35.7433 102.501L35.6413 102.416L35.5903 102.374L35.5203 102.295L35.4973 102.264L35.4513 102.201C35.3333 102.032 35.2623 101.831 35.2353 101.659C35.1763 101.302 35.2273 101.033 35.2823 100.796C35.4043 100.327 35.5763 99.9601 35.7503 99.6101C35.9143 99.2871 36.0793 98.9651 36.2403 98.6471C36.3093 98.5021 36.3723 98.3661 36.4083 98.2601C36.4343 98.1081 36.4563 98.2661 36.4423 98.0301C36.4203 97.7021 36.3983 97.3851 36.3793 97.0841C36.3653 96.7651 36.3273 96.4661 36.3263 96.1811C36.2733 95.0491 36.3843 94.2441 36.3843 94.2441Z" fill="#DC8C7A"/>
<path d="M47.0851 90.8359C46.0191 90.8909 44.9901 90.8239 43.9301 91.0579C43.0491 91.2519 41.7971 91.5269 41.2931 92.3359C40.8861 92.9909 41.6601 93.5689 42.2581 93.3009C43.0341 92.9529 43.8251 92.6569 44.6531 92.4389C45.5051 92.2139 46.3991 92.2549 47.2411 91.9849C47.8491 91.7899 47.7691 90.8009 47.0851 90.8359Z" fill="#894725"/>
<path d="M27.3522 95.9029C28.0602 95.8179 28.7132 95.5799 29.3942 95.3779C30.4032 95.0789 31.5192 94.9979 32.5652 95.0289C33.2562 95.0499 33.5732 94.0109 32.9272 93.6939C32.0632 93.2699 30.9042 93.5039 29.9922 93.6979C28.9852 93.9119 28.1362 94.3829 27.1972 94.7549C26.6362 94.9759 26.6442 95.9879 27.3522 95.9029Z" fill="#894725"/>
<path d="M46.6194 68.868C42.3874 68.755 34.7154 66.304 30.5024 69.451C26.2894 72.597 24.5794 74.265 24.1304 75.718C24.0964 75.728 24.0594 75.729 24.0264 75.746C20.9564 77.345 20.3834 83.256 20.5204 86.311C20.6304 88.762 20.5194 95.588 23.7954 96.009C24.3154 96.077 25.6074 94.129 25.8764 93.68C27.4814 91.004 28.2304 89.781 28.2304 89.781C28.2304 89.781 29.2474 93.288 30.8824 92.124C32.1184 91.245 33.1204 89.962 33.9564 88.59C34.1954 89.972 34.9344 91.205 36.2694 91.311C37.7584 91.429 41.0974 86.402 41.0974 86.402C41.0974 86.402 42.0714 88.969 43.4554 89.479C44.8844 90.006 46.7654 89.911 47.9894 88.963C49.3014 89.642 50.5164 91.1 51.1064 94.519C51.6824 97.855 54.0134 92.244 55.1304 90.698C56.7404 88.472 55.0494 69.093 46.6194 68.868Z" fill="#894725"/>
<path d="M50.7641 108.206C50.7641 108.206 47.5071 112.668 43.8751 113.419C39.2451 114.377 35.0371 111.875 35.0371 111.875" stroke="#DC8C7A" stroke-width="0.8228" stroke-miterlimit="10"/>
<path d="M43.1543 71.1816C43.1543 71.1816 40.4813 75.2946 41.0983 78.9976" stroke="#732E11" stroke-width="0.8228" stroke-miterlimit="10"/>
<path d="M45.9902 77.3633C45.9902 77.3633 52.7862 79.6943 53.6882 85.1583" stroke="#732E11" stroke-width="0.8228" stroke-miterlimit="10"/>
<path d="M47.2598 74.3984C47.2598 74.3984 52.5518 74.4044 54.3418 79.3214" stroke="#732E11" stroke-width="0.7689" stroke-miterlimit="10"/>
<path d="M29.1973 81.4798C29.1973 81.4798 31.0723 76.4167 37.9813 73.8438" stroke="#732E11" stroke-width="0.8228" stroke-miterlimit="10"/>
<path d="M71.2868 130.526C65.7828 132.519 64.1168 137.469 66.0698 147.259C68.0228 157.049 70.9788 165.908 70.9788 165.908L56.4788 158.276L52.5098 165.297C52.5098 165.297 64.4258 183.291 73.8788 185.445C79.6498 186.758 84.8498 185.515 86.7008 182.392C91.5858 174.149 88.0228 141.353 85.6638 134.68C83.3068 128.007 76.7918 128.537 71.2868 130.526Z" fill="#FAC4A8"/>
<path d="M60.7733 124.951C62.6053 118.082 72.2213 113.045 80.4633 123.577C88.1183 133.358 90.6283 150.259 89.9623 151.815C89.2963 153.37 80.7193 156.236 75.4263 157.004C70.2763 157.754 66.1113 158.075 63.9783 156.546C61.8473 155.018 58.9413 131.818 60.7733 124.951Z" fill="#97B8B0"/>
<path d="M63.8031 125C63.8031 125 62.8881 129.579 63.1931 134.158C63.4981 138.737 64.4141 144.537 65.9411 148.811C66.8871 151.462 68.0781 157.969 68.0781 157.969" stroke="#7F9A8B" stroke-width="0.8228" stroke-miterlimit="10"/>
<path d="M81.5115 171.706C81.5115 171.706 73.2685 166.823 70.9785 165.907" stroke="#DC8C7A" stroke-width="0.8228" stroke-miterlimit="10"/>
<path d="M69.3748 199.792C69.3748 199.792 64.1099 203.227 53.1189 203.685C42.1299 204.143 39.8398 204.372 39.8398 204.372" stroke="#7F9A8B" stroke-width="0.8228" stroke-miterlimit="10"/>
<path d="M74.4111 208.492C74.4111 208.492 60.2171 206.661 52.2031 207.349" stroke="#7F9A8B" stroke-width="0.8228" stroke-miterlimit="10"/>
<path d="M7.77525 211.463C7.50025 215.851 8.04925 223.531 9.14625 226.822C10.2443 230.113 14.0823 232.855 14.0823 232.855C14.0823 232.855 19.5683 228.194 19.8423 221.885C20.1163 215.576 18.1963 209.268 15.4553 206.8C12.7113 204.333 8.04925 207.076 7.77525 211.463Z" fill="#FAC4A8"/>
<path d="M20.3904 218.32C20.3904 218.32 19.8424 227.918 14.3574 233.129" stroke="#3B5BA1" stroke-width="0.8228" stroke-miterlimit="10"/>
<path d="M41.3408 136.427C41.3408 136.427 47.7178 161.706 45.3898 163.546C43.0618 165.385 29.5468 166.683 28.4398 165.741C27.3308 164.799 23.0698 140.173 23.5538 138.483C24.0358 136.794 40.5108 133.812 41.3408 136.427Z" fill="#393131"/>
<path d="M35.293 153.283C42.91 155.554 46.682 155.186 46.682 155.186L44.525 152.772L43.839 148.523C43.839 148.523 50.616 149.91 52.876 152.388C55.514 155.293 58.87 156.706 59.821 158.773C60.771 160.85 62.67 165.818 58.885 167.434C57.098 168.196 53.11 169.097 49.888 169.002C46.954 168.914 37.327 167.275 32.576 165.131C30.349 164.125 31.019 162.216 31.019 162.216C31.019 162.216 29.796 161.58 29.414 160.989C29.034 160.396 29.449 159.415 29.449 159.415C29.449 159.415 28.728 158.686 28.676 157.304C28.625 155.921 29.505 155.545 29.505 155.545C29.505 155.545 28.919 153.854 29.449 153.372C30.336 152.565 32.896 152.572 35.293 153.283Z" fill="#FFC5AC"/>
<path d="M43.4796 158.44C43.4796 158.44 34.9116 158.662 29.6816 155.534" stroke="#DC8C7A" stroke-width="0.8228" stroke-miterlimit="10"/>
<path d="M43.8625 161.581C43.8625 161.581 35.3155 162.234 29.9355 159.375" stroke="#DC8C7A" stroke-width="0.8228" stroke-miterlimit="10"/>
<path d="M43.3854 164.648C43.3854 164.648 36.0484 164.931 31.3574 162.481" stroke="#DC8C7A" stroke-width="0.8228" stroke-miterlimit="10"/>
<path d="M32.576 165.13C30.349 164.124 31.019 162.215 31.019 162.215C31.019 162.215 29.796 161.579 29.414 160.988C29.034 160.395 29.449 159.414 29.449 159.414C29.449 159.414 28.728 158.685 28.676 157.303C28.625 155.92 29.505 155.544 29.505 155.544C29.505 155.544 28.919 153.853 29.449 153.371C30.334 152.565 32.895 152.572 35.291 153.283C36.254 153.57 37.155 153.815 37.997 154.024" stroke="#DC8C7A" stroke-width="0.8228" stroke-miterlimit="10"/>
<path d="M10.791 223.257C10.791 223.257 11.339 226.55 15.178 231.211" stroke="#DC8C7A" stroke-width="0.8228" stroke-miterlimit="10"/>
<path d="M12.9863 219.967C12.9863 219.967 13.5333 223.259 17.3733 227.92" stroke="#DC8C7A" stroke-width="0.8228" stroke-miterlimit="10"/>
<path d="M15.1797 215.578C15.1797 215.578 15.7287 218.87 19.5687 223.532" stroke="#DC8C7A" stroke-width="0.8228" stroke-miterlimit="10"/>
<path d="M18.4713 131.381C18.4713 131.381 16.8253 142.626 16.2773 158.259" stroke="#7F9A8B" stroke-width="0.8228" stroke-miterlimit="10"/>
<path d="M72.498 237.792C72.498 237.792 72.6511 238.591 72.8461 239.817" stroke="#4C5B88" stroke-width="0.8228" stroke-miterlimit="10"/>
<path d="M73.1953 242.257C73.4843 244.522 73.7253 247.227 73.5953 249.313C73.3213 253.7 73.3213 260.006 73.5953 264.121C73.8693 268.235 74.1433 278.656 74.9673 282.77C75.7903 286.883 77.9843 303.337 77.9843 307.179C77.9843 311.019 79.0813 331.038 78.8063 335.702C78.6133 339.001 78.2813 347.658 78.1043 352.436" stroke="#4C5B88" stroke-width="0.8228" stroke-miterlimit="10" stroke-dasharray="4.11 2.46"/>
<path d="M78.0574 353.668C78.0104 354.937 77.9824 355.722 77.9824 355.722" stroke="#4C5B88" stroke-width="0.8228" stroke-miterlimit="10"/>
<path d="M67.1747 22.2021C63.3577 22.9361 62.7927 28.9201 62.7927 28.9201C62.7927 28.9201 61.0127 23.1791 57.1257 23.2441C54.2197 23.2911 50.7317 25.2611 52.4607 30.4981C54.1897 35.7361 64.1107 41.6471 64.1107 41.6471C64.1107 41.6471 72.6107 33.8271 73.2267 28.3461C73.8457 22.8661 70.0297 21.6531 67.1747 22.2021Z" fill="#FF6081"/>
<path d="M109.621 1.26208C104.31 1.28708 102.044 9.18208 102.044 9.18208C102.044 9.18208 101.099 1.02308 95.8607 0.130078C91.9457 -0.537922 86.7647 1.22707 87.7667 8.69907C88.7677 16.1701 100.608 26.6111 100.608 26.6111C100.608 26.6111 113.996 18.2481 116.206 11.0411C118.415 3.83508 113.594 1.24408 109.621 1.26208Z" fill="#FF6081"/>
<path d="M86.9063 60.4924C85.4033 60.1894 84.3023 62.2894 84.3023 62.2894C84.3023 62.2894 84.5113 59.9274 83.0823 59.3694C82.0153 58.9524 80.4483 59.1484 80.2953 61.3204C80.1413 63.4904 82.8793 67.1334 82.8793 67.1334C82.8793 67.1334 87.1513 65.5504 88.1973 63.6424C89.2413 61.7324 88.0293 60.7194 86.9063 60.4924Z" fill="#FF6081"/>
</svg>
