<svg width="529" height="516" viewBox="0 0 529 516" fill="none" xmlns="http://www.w3.org/2000/svg">
<rect x="0.226562" width="528.227" height="515.696" fill="#E0C7DD" fill-opacity="0.5"/>
<g clip-path="url(#clip0_386_10681)">
<path d="M253.621 238.09C256.213 240.859 258.16 244.168 259.321 247.78C261.031 253.48 272.141 281.12 271.571 283.97C271.001 286.82 262.741 290.81 259.891 289.67C257.041 288.53 252.481 275.67 252.481 275.67L253.621 238.09Z" fill="#B74141" stroke="#263238" stroke-linecap="round" stroke-linejoin="round"/>
<path d="M220.721 229.28C220.721 229.28 220.721 229.28 220.771 229.23C220.821 229.18 220.741 229.26 220.721 229.28Z" fill="#263238" stroke="#263238" stroke-linecap="round" stroke-linejoin="round"/>
<path d="M221.33 228.62L221.24 228.72" stroke="#263238" stroke-linecap="round" stroke-linejoin="round"/>
<path d="M198.14 309.11C200.577 303.413 203.352 297.866 206.45 292.5C206.45 292.5 201.801 260.26 201.801 253.28C201.801 246.3 206.451 241.64 209.801 237.66C212.241 234.73 216.64 232.52 219.47 230.37C220.87 235.26 226.23 251.8 234.73 250.95C244.73 249.95 238.73 232.67 238.73 232.67C240.06 236.33 253.02 233.67 255.35 240.98C257.68 248.29 254.021 277.87 253.681 286.51C253.341 295.15 253.021 316.43 254.681 327.06C256.341 337.69 261.001 389.55 259.681 401.84C258.361 414.13 249.37 441.4 249.04 445.72C248.71 450.04 251.37 451.03 250.7 453.36C250.302 454.767 250.081 456.218 250.04 457.68C250.04 457.68 252.36 459.34 256.35 462.68C260.34 466.02 264.661 467.99 259.681 469.32C254.701 470.65 245.051 468.99 245.051 468.99C245.051 468.99 252.701 473.64 249.051 474.99C245.401 476.34 222.79 475.33 218.81 474.99C214.83 474.65 213.49 472.99 213.81 467.99C213.88 465.627 214.216 463.279 214.81 460.99C214.81 460.99 212.48 454.68 212.48 451.69V443.05C212.48 439.72 212.48 425.43 209.82 418.12C207.16 410.81 207.5 404.12 207.5 398.84C207.662 394.277 208.107 389.728 208.831 385.22C208.831 385.22 196.81 358.64 193.51 344C190.21 329.36 193.82 319.09 198.14 309.11ZM230.051 429.43C230.051 429.43 232.05 414.81 234.37 408.16C236.69 401.51 237.69 397.52 237.69 395.86C237.69 394.2 230.69 364.62 230.69 364.62C230.69 364.62 232.351 396.86 231.021 407.83C230.214 415 229.89 422.217 230.051 429.43Z" fill="#263238" stroke="#263238" stroke-linecap="round" stroke-linejoin="round"/>
<path d="M217.421 326.73C205.061 325.19 198.241 321.85 194.421 318.73C195.468 315.462 196.693 312.254 198.091 309.12C200.528 303.423 203.303 297.876 206.401 292.51C206.401 292.51 201.751 260.27 201.751 253.29C201.751 246.31 206.401 241.65 209.751 237.67C212.191 234.74 216.591 232.53 219.421 230.38C220.821 235.27 226.181 251.81 234.681 250.96C244.681 249.96 238.681 232.68 238.681 232.68C240.011 236.34 252.971 233.68 255.301 240.99C257.631 248.3 253.971 277.88 253.631 286.52C253.341 294.27 253.041 312.16 254.181 323.45C247.031 325.89 234.211 328.83 217.421 326.73Z" fill="#B74141" stroke="#263238" stroke-linecap="round" stroke-linejoin="round"/>
<path d="M245.98 275.2C245.98 275.2 235.98 286.69 230.78 289.66" stroke="#263238" stroke-linecap="round" stroke-linejoin="round"/>
<path d="M233.131 292.09C232.371 292.52 231.581 292.95 230.781 293.36" stroke="#263238" stroke-linecap="round" stroke-linejoin="round"/>
<path d="M247.842 281.13C244.198 284.599 240.219 287.698 235.962 290.38" stroke="#263238" stroke-linecap="round" stroke-linejoin="round"/>
<path d="M251.06 223.39C251.06 223.39 254.06 233.72 253.06 237.25C252.06 240.78 250.22 246.25 250.22 246.25C250.22 246.25 272.92 279.33 273.22 283.32C273.52 287.31 269.09 290.15 265.11 290.41C261.13 290.67 258.72 288.82 257.29 284.35C255.86 279.88 244.04 247.22 244.04 247.22C244.04 247.22 240.04 237.77 239.32 236.1C238.6 234.43 238.16 227.04 238.16 227.04C238.16 227.04 240 224.63 240.16 226.62C240.46 228.542 240.967 230.427 241.67 232.24L244.04 229.24C244.04 229.24 244.04 225.24 244.04 224.1C244.04 222.96 244.59 219.5 246.04 220.26C247.49 221.02 249.72 220.33 251.06 223.39Z" fill="white" stroke="#263238" stroke-linecap="round" stroke-linejoin="round"/>
<path d="M249.512 228.61L250.512 233.77C250.512 233.77 245.362 239.57 246.002 244.08" stroke="#263238" stroke-linecap="round" stroke-linejoin="round"/>
<path d="M247.331 185.81C247.331 185.81 251.011 182.37 251.691 178.6C252.371 174.83 235.571 171.39 228.031 173.45C220.491 175.51 202.031 183.61 201.281 192.66C199.911 209.47 210.281 218.32 211.571 220.44C215.121 226.31 223.711 224.64 225.631 223.18C227.551 221.72 233.861 209.81 236.951 205.35C240.041 200.89 247.331 185.81 247.331 185.81Z" fill="#263238" stroke="#263238" stroke-linecap="round" stroke-linejoin="round"/>
<path d="M236.951 190.94C236.951 190.94 223.571 198.15 213.281 198.83" stroke="#757575" stroke-linecap="round" stroke-linejoin="round"/>
<path d="M233.512 197.8C233.512 197.8 225.622 209.12 209.162 208.44" stroke="#757575" stroke-linecap="round" stroke-linejoin="round"/>
<path d="M221.742 228C223.232 225.32 221.522 221.84 221.152 221.15L225.732 218.35C224.16 218.282 222.599 218.057 221.072 217.68C218.072 217.02 216.072 211.49 218.752 209.04C222.212 205.92 225.392 209.38 225.392 209.38C225.392 209.38 230.712 209.38 233.702 202.73C236.692 196.08 236.702 191.73 240.702 189.73C243.022 188.577 245.246 187.24 247.352 185.73C247.352 185.73 251.042 194.23 250.712 200.22C250.382 206.21 255.992 208.99 256.322 210.65C256.652 212.31 252.322 213.65 252.322 213.65C252.322 213.65 252.992 225.28 251.662 226.65C250.332 228.02 238.662 226.65 238.662 226.65C238.662 226.65 237.332 228.98 238.662 232.65C238.662 232.65 244.662 249.93 234.662 250.93C226.162 251.78 220.802 235.24 219.402 230.35L219.282 230.44C220.258 229.801 221.094 228.971 221.742 228Z" fill="white" stroke="#263238" stroke-linecap="round" stroke-linejoin="round"/>
<path d="M246.66 206.41C246.108 206.41 245.66 205.519 245.66 204.42C245.66 203.321 246.108 202.43 246.66 202.43C247.212 202.43 247.66 203.321 247.66 204.42C247.66 205.519 247.212 206.41 246.66 206.41Z" fill="#263238"/>
<path d="M249.512 216.39C248.321 216.674 247.078 216.651 245.898 216.322C244.719 215.993 243.643 215.37 242.772 214.51" stroke="#263238" stroke-linecap="round" stroke-linejoin="round"/>
<path d="M248.441 199C248.058 198.692 247.607 198.478 247.125 198.378C246.644 198.277 246.145 198.291 245.67 198.42C245.196 198.549 244.758 198.788 244.393 199.118C244.028 199.448 243.747 199.86 243.571 200.32" stroke="#263238" stroke-linecap="round" stroke-linejoin="round"/>
<path d="M247.992 471.14C242.742 470.14 234.692 467.56 233.372 463.33C231.712 458.01 231.372 457.68 231.372 457.68C235.284 459.244 239.602 459.479 243.662 458.35C243.662 458.35 244.332 453.69 247.322 453.35C249.832 453.07 250.002 456.28 249.992 457.35C249.992 457.56 249.992 457.68 249.992 457.68C249.992 457.68 252.312 459.34 256.302 462.68C260.292 466.02 264.612 467.99 259.632 469.32C254.652 470.65 245.002 468.99 245.002 468.99C246.045 469.639 247.044 470.358 247.992 471.14Z" fill="#646464" stroke="#263238" stroke-linecap="round" stroke-linejoin="round"/>
<path d="M213.76 468C213.867 466.213 214.074 464.434 214.38 462.67C218.776 463.495 223.263 463.724 227.72 463.35C227.72 463.35 229.72 453.05 233.04 459.35C236.36 465.65 245.04 468.99 245.04 468.99C245.04 468.99 252.69 473.64 249.04 474.99C245.39 476.34 222.781 475.33 218.801 474.99C214.821 474.65 213.43 473 213.76 468Z" fill="#646464" stroke="#263238" stroke-linecap="round" stroke-linejoin="round"/>
<path d="M216.002 250.06C216.002 250.06 225.692 284.54 226.002 287.68C226.312 290.82 222.582 300.22 216.602 298.79C210.622 297.36 206.912 291.1 205.772 284.79C204.632 278.48 197.772 257.14 197.772 251.73C197.772 246.32 212.302 236.62 212.302 236.62" fill="#B74141"/>
<path d="M216.002 250.06C216.002 250.06 225.692 284.54 226.002 287.68C226.312 290.82 222.582 300.22 216.602 298.79C210.622 297.36 206.912 291.1 205.772 284.79C204.632 278.48 197.772 257.14 197.772 251.73C197.772 246.32 212.302 236.62 212.302 236.62" stroke="#263238" stroke-linecap="round" stroke-linejoin="round"/>
<path d="M228.112 250.71C228.112 250.71 223.232 239.55 223.012 237.85C222.792 236.15 225.222 230.39 226.942 228.16C228.662 225.93 238.562 224.66 237.612 226.21C236.662 227.76 232.852 229.41 232.852 229.41C232.852 229.41 235.942 244.53 235.382 246.9C234.822 249.27 233.382 253.77 233.382 253.77C233.382 253.77 227.382 292.17 227.112 294.51C226.842 296.85 222.282 299.44 218.782 299.02C215.282 298.6 213.152 295.43 212.782 290.02C212.412 284.61 224.012 263.29 224.782 260.32C225.552 257.35 228.112 250.71 228.112 250.71Z" fill="white" stroke="#263238" stroke-linecap="round" stroke-linejoin="round"/>
<path d="M226.942 228.16C226.749 228.419 226.622 228.721 226.572 229.04C226.521 229.358 226.549 229.684 226.652 229.99C226.932 231.27 227.932 235.39 227.932 235.39" stroke="#263238" stroke-linecap="round" stroke-linejoin="round"/>
<path d="M224.661 233.4L225.941 237.66" stroke="#263238" stroke-linecap="round" stroke-linejoin="round"/>
<path d="M369.141 256.939L363.851 263.849L318.691 268.329L321.111 273.959L374.831 278.089L383.791 259.379L369.141 256.939Z" fill="white" stroke="#263238" stroke-linecap="round" stroke-linejoin="round"/>
<path d="M389.281 175.85C389.281 175.85 368.531 175.21 360.541 174.57C352.551 173.93 349.051 173.57 349.051 173.57C349.051 173.57 350.971 157.93 351.601 153.77C352.231 149.61 368.851 143.88 376.191 145.15C383.531 146.42 391.191 153.45 391.841 158.56C392.491 163.67 389.281 175.85 389.281 175.85Z" fill="#B74141" stroke="#263238" stroke-linecap="round" stroke-linejoin="round"/>
<path d="M309.391 231.43C309.391 231.43 306.601 222.29 301.441 221.5C296.281 220.71 287.531 221.89 287.331 224.5C287.131 227.11 291.101 231.06 291.101 231.06L309.391 231.43Z" fill="#B35042" stroke="#263238" stroke-linecap="round" stroke-linejoin="round"/>
<path d="M289.511 222.52C293.831 222.81 297.511 230.65 297.791 231.18L291.051 231.04C291.051 231.04 287.051 227.04 287.281 224.48C287.391 223.69 288.251 223 289.511 222.52Z" fill="#263238" stroke="#263238" stroke-linecap="round" stroke-linejoin="round"/>
<path d="M314.51 220.299C314.51 220.299 325.04 217.919 327.43 221.889C329.82 225.859 319.68 231.229 319.68 231.229H305.21L314.51 220.299Z" fill="#B35042" stroke="#263238" stroke-linecap="round" stroke-linejoin="round"/>
<path d="M303.622 231.429C303.622 231.429 309.192 218.519 314.512 220.299C319.832 222.079 309.512 231.229 308.352 231.229L303.622 231.429Z" fill="#263238" stroke="#263238" stroke-linecap="round" stroke-linejoin="round"/>
<path d="M284.741 231.229H334.621V273.95H284.741V231.229Z" fill="#FF725E" stroke="#263238" stroke-linecap="round" stroke-linejoin="round"/>
<path d="M284.752 231.229H299.852V273.95H284.752V231.229Z" fill="#FF725E" stroke="#263238" stroke-linecap="round" stroke-linejoin="round"/>
<path d="M311.171 231.229H321.111V273.95H311.171V231.229Z" fill="#B35042" stroke="#263238" stroke-linecap="round" stroke-linejoin="round"/>
<path d="M295.871 231.63V252.5L291.501 246.14L287.721 251.3V231.43L295.871 231.63Z" fill="#B35042" stroke="#263238" stroke-linecap="round" stroke-linejoin="round"/>
<path d="M372.381 259.85L367.011 268.59L327.871 270.78C327.871 270.78 319.521 264.02 318.871 264.02C318.221 264.02 313.511 263.82 310.331 264.02C307.151 264.22 305.161 262.43 304.961 263.43C304.925 264.155 305.144 264.871 305.581 265.452C306.018 266.033 306.644 266.442 307.351 266.61C309.638 267.145 311.892 267.812 314.101 268.61L311.321 271.2C311.321 271.2 300.791 273.2 301.391 274.2C301.991 275.2 309.141 280.36 309.141 280.36C309.141 280.36 316.091 280.75 318.671 279.56C320.812 278.645 323.002 277.85 325.231 277.18C325.231 277.18 375.711 285.13 379.231 285.92C382.751 286.71 385.591 283.14 386.391 281.55C387.191 279.96 390.961 266.25 390.961 266.25L372.381 259.85Z" fill="white" stroke="#263238" stroke-linecap="round" stroke-linejoin="round"/>
<path d="M351.268 481.967L412.186 467.683C413.465 467.383 414.512 464.434 414.512 461.105V147.895C414.512 144.566 413.477 141.617 412.186 141.317L351.268 127.033C349.75 126.673 348.512 129.342 348.512 133.03V476.01C348.512 479.658 349.75 482.327 351.268 481.967Z" fill="#263238" stroke="#263238" stroke-linecap="round" stroke-linejoin="round"/>
</g>
<path d="M302.528 210.228C302.426 210.295 302.612 210.744 302.942 211.226C303.272 211.708 303.619 212.072 303.72 211.97C303.822 211.869 303.636 211.454 303.306 210.972C302.976 210.49 302.629 210.16 302.528 210.228Z" fill="#511B4B"/>
<path d="M298.095 203.122C298.246 203.812 298.534 204.465 298.941 205.042C299.533 206.041 300.091 206.802 300.201 206.734C300.048 206.045 299.761 205.392 299.355 204.814C299.053 204.171 298.625 203.595 298.095 203.122Z" fill="#511B4B"/>
<path d="M294.667 195.5C294.716 196.207 294.912 196.895 295.243 197.522C295.428 198.211 295.756 198.854 296.207 199.408C296.156 198.702 295.96 198.014 295.632 197.386C295.447 196.697 295.118 196.054 294.667 195.5Z" fill="#511B4B"/>
<path d="M292.73 187.37C292.633 188.073 292.688 188.788 292.891 189.468C292.946 190.173 293.148 190.859 293.483 191.481C293.57 190.778 293.516 190.065 293.322 189.383C293.26 188.68 293.059 187.996 292.73 187.37Z" fill="#511B4B"/>
<path d="M292.58 179.013C292.338 179.679 292.235 180.387 292.275 181.094C292.165 181.796 292.22 182.514 292.436 183.192C292.653 182.52 292.748 181.815 292.715 181.111C292.819 180.41 292.773 179.694 292.58 179.013Z" fill="#511B4B"/>
<path d="M293.897 170.748C293.549 171.365 293.333 172.048 293.262 172.753C293.054 173.431 292.985 174.145 293.059 174.851C293.396 174.231 293.603 173.549 293.668 172.846C293.886 172.169 293.963 171.456 293.897 170.748Z" fill="#511B4B"/>
<path d="M296.826 162.914C296.323 163.42 295.946 164.037 295.726 164.716C295.379 165.339 295.18 166.034 295.143 166.746C295.58 166.192 295.915 165.565 296.132 164.894C296.479 164.28 296.713 163.61 296.826 162.914Z" fill="#511B4B"/>
<path d="M301.631 156.096C301.546 156.011 300.785 156.62 300.074 157.525C299.57 158.032 299.195 158.653 298.983 159.336C299.084 159.403 299.694 158.693 300.421 157.805C301.149 156.916 301.724 156.189 301.631 156.096Z" fill="#511B4B"/>
<path d="M308.27 151.055C307.566 151.17 306.902 151.461 306.341 151.901C305.359 152.527 304.649 153.195 304.75 153.288C305.413 153.052 306.034 152.709 306.586 152.273C307.207 151.956 307.774 151.545 308.27 151.055Z" fill="#511B4B"/>
<path d="M316.131 148.254C315.421 148.167 314.7 148.257 314.033 148.516C313.328 148.637 312.664 148.928 312.096 149.362C312.8 149.344 313.495 149.204 314.151 148.947C314.844 148.824 315.513 148.59 316.131 148.254Z" fill="#511B4B"/>
<path d="M324.463 147.882C323.814 147.578 323.097 147.446 322.382 147.501C321.673 147.404 320.951 147.488 320.284 147.746C320.965 147.924 321.671 147.989 322.373 147.941C323.069 148.031 323.774 148.011 324.463 147.882Z" fill="#511B4B"/>
<path d="M332.289 150.648C332.356 150.555 331.637 149.903 330.597 149.387C329.986 149.008 329.285 148.798 328.566 148.778C329.127 149.197 329.746 149.533 330.402 149.777C330.991 150.146 331.625 150.439 332.289 150.648Z" fill="#511B4B"/>
<path d="M336.865 157.424C336.938 156.703 336.787 155.976 336.434 155.343C336.218 154.652 335.796 154.044 335.224 153.601C335.436 154.267 335.72 154.908 336.07 155.512C336.269 156.175 336.535 156.816 336.865 157.424Z" fill="#511B4B"/>
<path d="M335.756 165.571C336.239 165.036 336.569 164.382 336.712 163.676C336.985 163.009 337.07 162.281 336.957 161.569C336.648 162.197 336.424 162.863 336.289 163.549C336.018 164.195 335.839 164.875 335.756 165.571Z" fill="#511B4B"/>
<path d="M330.74 172.211C330.816 172.304 331.586 171.771 332.432 170.917C333.278 170.062 333.726 169.225 333.624 169.166C333.523 169.107 332.897 169.783 332.11 170.612C331.324 171.441 330.664 172.118 330.74 172.211Z" fill="#511B4B"/>
<path d="M323.497 176.331C324.91 176.162 326.239 175.573 327.312 174.639C326.623 174.78 325.96 175.031 325.35 175.383C324.685 175.596 324.059 175.916 323.497 176.331Z" fill="#511B4B"/>
<path d="M315.251 177.414C315.913 177.691 316.636 177.79 317.349 177.701C318.065 177.758 318.783 177.624 319.43 177.312C318.739 177.193 318.035 177.176 317.34 177.261C316.64 177.208 315.936 177.26 315.251 177.414Z" fill="#511B4B"/>
<path d="M307.526 174.444C307.958 175.036 308.543 175.498 309.218 175.781C309.81 176.191 310.504 176.431 311.223 176.475C310.674 176.04 310.071 175.679 309.429 175.4C308.843 174.994 308.202 174.672 307.526 174.444Z" fill="#511B4B"/>
<path d="M302.536 167.829C302.595 168.546 302.843 169.235 303.255 169.826C303.838 170.849 304.507 171.517 304.6 171.467C304.366 170.806 304.045 170.18 303.644 169.606C303.36 168.964 302.987 168.366 302.536 167.829Z" fill="#511B4B"/>
<path d="M301.342 159.649C301.051 160.308 300.942 161.033 301.029 161.747C300.972 162.464 301.11 163.183 301.426 163.828C301.54 163.137 301.554 162.434 301.469 161.739C301.522 161.04 301.48 160.337 301.342 159.649Z" fill="#511B4B"/>
<path d="M304.016 151.757C303.489 152.241 303.091 152.849 302.857 153.525C302.491 154.14 302.293 154.84 302.281 155.555C302.698 154.998 303.029 154.383 303.263 153.728C303.621 153.117 303.875 152.451 304.016 151.757Z" fill="#511B4B"/>
<path d="M309.201 145.208C309.117 145.124 308.355 145.707 307.577 146.562C306.799 147.416 306.283 148.254 306.376 148.304C306.469 148.355 307.129 147.704 307.898 146.858C308.668 146.012 309.286 145.268 309.201 145.208Z" fill="#511B4B"/>
<path d="M315.792 140.073C315.111 140.273 314.478 140.61 313.931 141.063C312.975 141.723 312.299 142.383 312.366 142.476C312.434 142.569 313.212 142.078 314.185 141.427C315.158 140.775 315.86 140.192 315.792 140.073Z" fill="#511B4B"/>
<path d="M323.236 136.259C322.531 136.344 321.851 136.574 321.24 136.936C320.572 137.169 319.957 137.531 319.43 138.001C320.134 137.921 320.815 137.693 321.426 137.333C322.095 137.1 322.711 136.735 323.236 136.259Z" fill="#511B4B"/>
<path d="M331.213 133.729C330.503 133.697 329.795 133.813 329.132 134.067C328.431 134.183 327.762 134.446 327.169 134.837C327.879 134.859 328.586 134.741 329.25 134.49C329.949 134.37 330.616 134.111 331.213 133.729Z" fill="#511B4B"/>
<path d="M339.479 132.426C338.784 132.277 338.066 132.277 337.372 132.426C336.664 132.442 335.968 132.603 335.325 132.9C336.729 133.022 338.143 132.852 339.479 132.401V132.426Z" fill="#511B4B"/>
<path d="M347.811 132.3C347.139 132.072 346.428 131.983 345.721 132.037C345.017 131.952 344.303 132.013 343.623 132.215C344.293 132.451 345.005 132.54 345.713 132.477C346.417 132.565 347.131 132.505 347.811 132.3Z" fill="#511B4B"/>
<path d="M356.15 133.331C354.834 132.821 353.424 132.597 352.014 132.671C353.33 133.182 354.74 133.407 356.15 133.331Z" fill="#511B4B"/>
<path d="M364.23 135.506C363.649 135.094 362.99 134.806 362.293 134.66C361.642 134.38 360.938 134.241 360.229 134.254C360.819 134.67 361.486 134.963 362.192 135.117C362.838 135.384 363.531 135.516 364.23 135.506Z" fill="#511B4B"/>
<path d="M371.895 138.856C371.955 138.746 371.159 138.238 370.127 137.722C369.52 137.351 368.838 137.117 368.131 137.037C368.08 137.156 368.901 137.612 369.933 138.12C370.529 138.498 371.197 138.749 371.895 138.856Z" fill="#511B4B"/>
<path d="M378.993 143.289C379.069 143.196 378.35 142.586 377.385 141.935C376.84 141.48 376.206 141.143 375.524 140.945C375.465 141.047 376.184 141.656 377.14 142.299C377.684 142.751 378.314 143.087 378.993 143.289Z" fill="#511B4B"/>
<path d="M385.395 148.652C385.479 148.567 384.853 147.865 383.99 147.087C383.128 146.308 382.366 145.75 382.299 145.843C382.231 145.936 382.848 146.638 383.703 147.408C384.557 148.178 385.31 148.77 385.395 148.652Z" fill="#511B4B"/>
<path d="M390.953 154.912C390.682 154.258 390.282 153.665 389.777 153.169C389.033 152.281 388.348 151.621 388.263 151.706C388.178 151.79 388.694 152.551 389.439 153.448C390.183 154.345 390.885 154.988 390.953 154.912Z" fill="#511B4B"/>
<path d="M395.682 161.84C395.502 161.155 395.185 160.513 394.751 159.954C394.134 158.972 393.55 158.262 393.448 158.262C393.623 158.949 393.94 159.591 394.379 160.148C394.988 161.163 395.572 161.908 395.682 161.84Z" fill="#511B4B"/>
<path d="M399.412 169.344C399.328 168.641 399.104 167.962 398.752 167.348C398.51 166.691 398.143 166.087 397.669 165.571C397.75 166.275 397.974 166.955 398.329 167.568C398.569 168.226 398.937 168.83 399.412 169.344Z" fill="#511B4B"/>
<path d="M402.052 177.278C402.065 176.571 401.933 175.868 401.663 175.214C401.521 174.513 401.233 173.85 400.817 173.269C400.807 173.975 400.936 174.676 401.197 175.333C401.343 176.034 401.634 176.697 402.052 177.278Z" fill="#511B4B"/>
<path d="M403.592 185.51C403.697 184.807 403.66 184.091 403.482 183.403C403.445 182.697 403.264 182.006 402.949 181.373C402.839 182.072 402.873 182.786 403.051 183.471C403.086 184.181 403.271 184.876 403.592 185.51Z" fill="#511B4B"/>
<path d="M404.438 193.833C404.588 193.142 404.588 192.426 404.438 191.735C404.449 191.026 404.31 190.323 404.032 189.671C403.886 190.363 403.886 191.077 404.032 191.769C404.024 192.477 404.162 193.18 404.438 193.833Z" fill="#511B4B"/>
<path d="M405.334 202.166C405.477 201.471 405.477 200.754 405.334 200.06C405.323 199.35 405.168 198.651 404.877 198.004C404.734 198.699 404.734 199.415 404.877 200.11C404.884 200.82 405.04 201.52 405.334 202.166Z" fill="#511B4B"/>
<path d="M441.86 231.651C441.164 231.514 440.447 231.52 439.754 231.67C439.045 231.687 438.347 231.849 437.702 232.145C438.399 232.282 439.115 232.276 439.809 232.126C440.518 232.113 441.217 231.951 441.86 231.651Z" fill="#511B4B"/>
<path d="M505.342 231.874C504.635 231.808 503.95 231.598 503.327 231.258C502.652 231.041 502.029 230.687 501.495 230.22C502.201 230.286 502.887 230.496 503.509 230.836C504.186 231.05 504.81 231.404 505.342 231.874Z" fill="#511B4B"/>
<path d="M499.796 229.71C499.133 229.458 498.528 229.074 498.019 228.58C497.426 228.19 496.919 227.684 496.529 227.091C497.193 227.343 497.797 227.728 498.307 228.222C498.902 228.608 499.409 229.115 499.796 229.71Z" fill="#511B4B"/>
<path d="M406.906 210.406C406.968 209.699 406.882 208.987 406.652 208.316C406.566 207.614 406.336 206.937 405.976 206.328C405.913 207.035 406 207.746 406.229 208.418C406.314 209.12 406.544 209.797 406.906 210.406Z" fill="#511B4B"/>
<path d="M450.087 230.003C449.38 229.947 448.669 230.04 448 230.276C447.299 230.368 446.624 230.605 446.018 230.971C446.726 231.026 447.437 230.934 448.106 230.698C448.807 230.607 449.482 230.37 450.087 230.003Z" fill="#511B4B"/>
<path d="M512.764 235.788C512.07 235.641 511.415 235.35 510.84 234.934C510.194 234.647 509.614 234.228 509.137 233.706C509.831 233.853 510.487 234.144 511.061 234.559C511.708 234.846 512.288 235.264 512.764 235.788Z" fill="#511B4B"/>
<path d="M409.859 218.205C409.747 217.51 409.512 216.839 409.166 216.226C408.951 215.555 408.619 214.927 408.184 214.373C408.212 215.083 408.409 215.776 408.76 216.395C409.225 217.469 409.749 218.264 409.859 218.205Z" fill="#511B4B"/>
<path d="M473.985 218.889C473.339 219.169 472.648 219.333 471.944 219.372C471.264 219.553 470.556 219.612 469.855 219.544C470.468 219.185 471.158 218.977 471.868 218.939C473.024 218.752 473.976 218.765 473.985 218.889Z" fill="#511B4B"/>
<path d="M457.857 226.98C457.163 227.099 456.495 227.34 455.884 227.691C455.215 227.912 454.591 228.25 454.041 228.69C454.751 228.655 455.442 228.452 456.057 228.096C457.127 227.621 457.918 227.089 457.857 226.98Z" fill="#511B4B"/>
<path d="M519.358 240.891C518.726 240.58 518.154 240.159 517.668 239.649C517.089 239.248 516.586 238.747 516.183 238.169C516.854 238.403 517.459 238.794 517.948 239.31C518.84 240.069 519.447 240.803 519.358 240.891Z" fill="#511B4B"/>
<path d="M414.639 225.075C414.741 224.973 414.14 224.229 413.472 223.332C412.803 222.435 412.127 221.742 412.025 221.809C411.924 221.877 412.414 222.655 413.125 223.603C413.497 224.213 414.018 224.72 414.639 225.075Z" fill="#511B4B"/>
<path d="M482.348 219.213C482.317 219.353 481.366 219.249 480.251 219.169C479.135 219.09 478.186 218.894 478.188 218.772C478.191 218.65 479.111 218.643 480.292 218.731C481.007 218.715 481.714 218.881 482.348 219.213Z" fill="#511B4B"/>
<path d="M464.682 222.138C464.58 222.037 463.841 222.644 462.95 223.321C462.06 223.997 461.372 224.68 461.441 224.781C461.509 224.882 462.283 224.384 463.224 223.665C463.831 223.288 464.333 222.762 464.682 222.138Z" fill="#511B4B"/>
<path d="M524.529 247.471C524.402 247.538 523.866 246.746 523.204 245.845C522.542 244.944 522.076 244.094 522.171 244.016C522.265 243.939 522.866 244.636 523.564 245.592C524.039 246.127 524.371 246.773 524.529 247.471Z" fill="#511B4B"/>
<path d="M421.231 230.133C421.29 230.023 420.504 229.507 419.539 228.889C418.989 228.449 418.369 228.106 417.704 227.874C417.636 227.967 418.313 228.627 419.302 229.261C419.864 229.706 420.526 230.005 421.231 230.133Z" fill="#511B4B"/>
<path d="M490.16 222.037C490.1 222.146 489.241 221.761 488.201 221.282C487.534 221.056 486.91 220.718 486.356 220.283C486.398 220.176 487.319 220.39 488.387 220.882C489.064 221.115 489.673 221.512 490.16 222.037Z" fill="#511B4B"/>
<path d="M527.482 253.649C527.369 253.702 526.896 252.888 526.331 251.892C525.922 251.319 525.612 250.681 525.416 250.005C525.513 249.942 526.135 250.653 526.716 251.676C527.129 252.26 527.393 252.938 527.482 253.649Z" fill="#511B4B"/>
<path d="M429.139 232.747C428.507 232.441 427.83 232.238 427.134 232.146C426.47 231.915 425.773 231.795 425.07 231.791C425.649 232.212 426.323 232.482 427.032 232.578C427.709 232.811 428.434 232.87 429.139 232.747Z" fill="#511B4B"/>
<path d="M495.627 226.289C495.029 225.922 494.493 225.461 494.041 224.925C493.488 224.49 493.011 223.967 492.629 223.378C493.295 223.638 493.886 224.061 494.349 224.606C494.911 225.05 495.351 225.629 495.627 226.289Z" fill="#511B4B"/>
<path d="M435.45 232.612C435.45 232.485 434.943 232.451 434.376 232.528C433.809 232.604 433.344 232.764 433.352 232.883C433.361 233.001 433.843 233.044 434.435 232.967C435.027 232.891 435.476 232.731 435.45 232.612Z" fill="#511B4B"/>
<defs>
<clipPath id="clip0_386_10681">
<rect width="216" height="415" fill="white" transform="translate(136.227 77)"/>
</clipPath>
</defs>
</svg>
