<svg width="529" height="516" viewBox="0 0 529 516" fill="none" xmlns="http://www.w3.org/2000/svg">
<rect width="528.227" height="515.696" fill="#F9EEB6" fill-opacity="0.5"/>
<path d="M293.552 160.724C292.877 156.339 290.575 152.369 287.104 149.605C283.633 146.841 279.248 145.486 274.823 145.81L273.918 145.877C264.13 147.172 259.757 156.206 261.313 165.952L264.697 200.551L264.866 207.707L288.172 209.822L287.673 194.722C287.673 194.722 296.978 192.565 296.445 183.107C296.192 178.539 294.863 169.183 293.552 160.724Z" fill="#FFBE9D"/>
<path d="M287.777 194.697C283.388 195.01 279.001 194.055 275.139 191.947C275.139 191.947 278.421 198.766 287.828 197.226L287.777 194.697Z" fill="#EB996E"/>
<path d="M289.35 169.225C289.378 169.577 289.269 169.927 289.045 170.2C288.821 170.473 288.499 170.648 288.148 170.689C287.978 170.715 287.803 170.707 287.636 170.665C287.468 170.622 287.311 170.547 287.173 170.443C287.035 170.339 286.919 170.208 286.832 170.059C286.746 169.909 286.69 169.744 286.668 169.572C286.641 169.221 286.751 168.872 286.975 168.6C287.199 168.327 287.519 168.151 287.869 168.109C288.04 168.083 288.214 168.091 288.382 168.133C288.55 168.175 288.707 168.251 288.845 168.355C288.983 168.459 289.099 168.589 289.185 168.739C289.272 168.889 289.328 169.054 289.35 169.225Z" fill="#263238"/>
<path d="M291.863 165.496C291.71 165.682 290.628 165.005 289.181 165.115C287.734 165.225 286.719 166.029 286.55 165.86C286.381 165.69 286.609 165.454 287.049 165.081C287.642 164.59 288.371 164.295 289.139 164.235C289.895 164.176 290.651 164.36 291.296 164.76C291.761 165.107 291.939 165.411 291.863 165.496Z" fill="#263238"/>
<path d="M275.62 170.528C275.65 170.88 275.542 171.229 275.317 171.502C275.092 171.774 274.77 171.947 274.418 171.983C274.248 172.008 274.074 171.999 273.907 171.956C273.74 171.914 273.583 171.838 273.445 171.734C273.307 171.63 273.191 171.5 273.104 171.351C273.017 171.202 272.961 171.037 272.938 170.866C272.91 170.515 273.019 170.167 273.243 169.895C273.468 169.623 273.789 169.45 274.139 169.411C274.31 169.385 274.484 169.394 274.652 169.436C274.82 169.478 274.977 169.553 275.115 169.657C275.253 169.762 275.369 169.892 275.455 170.042C275.542 170.191 275.598 170.357 275.62 170.528Z" fill="#263238"/>
<path d="M277.609 166.806C277.456 166.992 276.374 166.316 274.927 166.417C273.48 166.519 272.465 167.331 272.296 167.17C272.127 167.009 272.355 166.764 272.795 166.392C273.391 165.901 274.123 165.605 274.893 165.546C275.647 165.487 276.4 165.671 277.042 166.07C277.516 166.417 277.685 166.722 277.609 166.806Z" fill="#263238"/>
<path d="M283.665 177.186C284.413 176.894 285.195 176.695 285.992 176.594C286.355 176.526 286.702 176.425 286.753 176.171C286.755 175.785 286.64 175.407 286.423 175.088L285.12 172.347C283.302 168.439 281.965 165.216 282.117 165.14C282.27 165.064 283.877 168.177 285.696 172.085C286.127 173.05 286.542 173.972 286.948 174.851C287.213 175.281 287.318 175.79 287.244 176.29C287.201 176.425 287.128 176.549 287.03 176.652C286.931 176.755 286.811 176.833 286.677 176.882C286.475 176.952 286.264 176.995 286.051 177.009C285.267 177.17 284.465 177.23 283.665 177.186Z" fill="#263238"/>
<path d="M279.461 178.505C279.698 178.505 279.817 180.044 281.246 181.043C282.676 182.041 284.342 181.77 284.368 181.99C284.368 182.083 284.021 182.32 283.31 182.396C282.389 182.473 281.47 182.225 280.713 181.694C279.986 181.183 279.486 180.409 279.318 179.537C279.208 178.902 279.36 178.505 279.461 178.505Z" fill="#263238"/>
<path d="M277.575 161.088C277.456 161.494 275.993 161.409 274.309 161.739C272.626 162.069 271.272 162.636 271.018 162.297C270.909 162.137 271.12 161.747 271.644 161.324C272.35 160.795 273.17 160.438 274.039 160.284C274.901 160.118 275.791 160.158 276.636 160.402C277.278 160.648 277.617 160.893 277.575 161.088Z" fill="#263238"/>
<path d="M291.025 161.332C290.788 161.679 289.765 161.408 288.563 161.485C287.362 161.561 286.356 161.865 286.102 161.535C285.983 161.375 286.102 161.036 286.542 160.689C287.11 160.264 287.795 160.025 288.504 160.004C289.211 159.965 289.912 160.148 290.509 160.529C290.957 160.833 291.127 161.163 291.025 161.332Z" fill="#263238"/>
<path d="M263.507 175.029C263.474 174.681 263.371 174.343 263.202 174.037C263.033 173.731 262.803 173.463 262.525 173.251C262.248 173.038 261.93 172.884 261.591 172.8C261.252 172.716 260.899 172.703 260.554 172.761C258.803 173.058 256.917 174.2 257.298 177.837C257.974 184.283 264.31 182.278 264.302 182.067C264.293 181.855 263.811 177.736 263.507 175.029Z" fill="#FFBE9D"/>
<path d="M262.644 179.808C262.644 179.808 262.542 179.901 262.356 180.011C262.098 180.154 261.795 180.19 261.51 180.113C261.067 179.893 260.69 179.559 260.418 179.146C260.146 178.733 259.989 178.255 259.962 177.761C259.89 177.209 259.942 176.649 260.114 176.12C260.153 175.912 260.242 175.716 260.373 175.549C260.504 175.383 260.674 175.251 260.867 175.164C260.993 175.117 261.132 175.116 261.259 175.161C261.385 175.206 261.492 175.294 261.561 175.409C261.663 175.578 261.637 175.705 261.671 175.714C261.705 175.722 261.798 175.595 261.722 175.333C261.667 175.177 261.563 175.044 261.426 174.952C261.33 174.895 261.224 174.858 261.114 174.842C261.003 174.826 260.891 174.832 260.783 174.859C260.525 174.94 260.292 175.084 260.105 175.28C259.919 175.475 259.785 175.715 259.717 175.976C259.501 176.565 259.432 177.198 259.514 177.82C259.691 179.114 260.487 180.256 261.451 180.426C261.629 180.461 261.813 180.453 261.987 180.405C262.162 180.357 262.323 180.268 262.458 180.147C262.644 179.969 262.669 179.825 262.644 179.808Z" fill="#EB996E"/>
<path d="M258.337 168.464C258.87 170.317 258.675 173.388 260.333 172.965C263.607 172.119 262.82 178.886 264.394 178.201C265.967 177.516 267.321 175.663 267.414 171.51C267.541 166.256 265.426 162.475 267.498 156.46C268.157 155.262 269.113 154.253 270.275 153.532C271.436 152.81 272.764 152.4 274.131 152.341C275.509 152.312 276.872 152.636 278.09 153.282C279.308 153.927 280.342 154.873 281.093 156.029C281.389 154.202 282.277 151.435 283.91 150.556C284.724 150.107 285.653 149.909 286.58 149.986C287.507 150.062 288.391 150.411 289.121 150.987C289.821 151.6 290.276 152.445 290.402 153.367C290.527 154.289 290.316 155.225 289.806 156.004C290.185 156.114 290.588 156.102 290.959 155.968C291.33 155.834 291.649 155.586 291.87 155.259C291.898 155.689 291.838 156.121 291.692 156.527C291.547 156.933 291.319 157.305 291.024 157.619C291.71 157.452 292.312 157.04 292.716 156.46L292.234 158.736C294.992 158.804 297.699 156.13 298.468 153.745C299.627 150.141 298.731 146.504 296.717 143.289C295.726 141.667 294.345 140.319 292.698 139.369C291.052 138.419 289.194 137.896 287.294 137.85C283.504 137.85 280.331 139.677 278.834 143.179C276.372 141.436 271.39 140.836 268.64 142.079C267.264 142.718 266.075 143.698 265.187 144.928C264.298 146.157 263.74 147.594 263.565 149.101C262.683 148.793 261.736 148.724 260.819 148.9C259.903 149.077 259.049 149.494 258.345 150.107L257.99 150.412C257.026 151.333 256.311 152.483 255.911 153.755C255.512 155.027 255.441 156.38 255.706 157.687C255.901 158.736 256.264 159.827 256.484 160.665C257.178 163.186 258.337 168.464 258.337 168.464Z" fill="#263238"/>
<path d="M292.293 155.09C292.293 155.09 292.377 155.039 292.521 154.912C292.721 154.733 292.902 154.535 293.063 154.32C293.656 153.514 294.024 152.565 294.129 151.571C294.219 150.831 294.152 150.08 293.93 149.368C293.708 148.656 293.338 148 292.843 147.442C292.234 146.754 291.467 146.225 290.607 145.9C289.748 145.576 288.822 145.467 287.911 145.581C286.973 145.721 286.08 146.071 285.297 146.605C284.566 147.087 283.915 147.681 283.368 148.364C281.795 150.294 280.978 152.729 281.067 155.217C281.082 155.483 281.11 155.748 281.152 156.012C281.158 156.106 281.175 156.2 281.203 156.291C281.118 154.959 281.246 153.623 281.583 152.332C281.971 150.94 282.648 149.645 283.571 148.534C284.655 147.136 286.215 146.185 287.953 145.86C288.818 145.754 289.695 145.857 290.511 146.162C291.327 146.467 292.057 146.964 292.64 147.612C293.119 148.141 293.482 148.766 293.703 149.445C293.925 150.125 294.001 150.843 293.926 151.554C293.84 152.522 293.505 153.452 292.953 154.252C292.572 154.819 292.276 155.064 292.293 155.09Z" fill="#455A64"/>
<path d="M293.564 157.975C293.641 157.879 293.706 157.774 293.758 157.662C293.877 157.45 294.054 157.137 294.266 156.731C294.9 155.583 295.421 154.376 295.822 153.128C296.08 152.259 296.223 151.36 296.245 150.454C296.279 149.403 296.089 148.356 295.687 147.384C295.223 146.31 294.456 145.396 293.479 144.753C292.409 144.059 291.175 143.66 289.901 143.594C288.655 143.527 287.409 143.726 286.246 144.177C285.171 144.588 284.165 145.158 283.26 145.869C281.68 147.042 280.532 148.705 279.995 150.598C279.662 151.881 279.727 153.236 280.181 154.481C280.312 154.813 280.476 155.13 280.672 155.428C280.732 155.536 280.806 155.636 280.891 155.725C280.662 155.313 280.461 154.886 280.291 154.447C279.882 153.219 279.847 151.897 280.189 150.649C280.746 148.816 281.88 147.211 283.421 146.072C285.25 144.591 287.548 143.812 289.901 143.873C291.106 143.945 292.273 144.33 293.285 144.99C294.23 145.607 294.972 146.49 295.416 147.527C295.806 148.465 295.999 149.473 295.983 150.488C295.97 151.376 295.839 152.257 295.594 153.111C295.213 154.342 294.723 155.536 294.13 156.68L293.674 157.636C293.628 157.746 293.591 157.859 293.564 157.975Z" fill="#455A64"/>
<path d="M260.622 164.294C260.622 164.294 260.022 163.812 259.243 162.873C258.217 161.654 257.508 160.201 257.179 158.643C256.871 157.089 256.944 155.484 257.391 153.965C257.746 152.798 258.144 152.138 258.093 152.112C257.974 152.247 257.874 152.398 257.797 152.561C257.556 152.986 257.358 153.433 257.205 153.897C256.674 155.443 256.569 157.103 256.901 158.703C257.233 160.303 257.989 161.784 259.091 162.991C259.418 163.356 259.778 163.69 260.165 163.989C260.303 164.112 260.456 164.214 260.622 164.294Z" fill="#455A64"/>
<path d="M266.502 164.108C266.502 164.108 266.18 163.964 265.656 163.617C264.944 163.126 264.381 162.447 264.032 161.655L263.761 161.037L263.82 161.714C263.896 162.619 263.998 163.668 264.099 164.802L264.302 164.675C263.486 164.114 262.773 163.416 262.196 162.611C261.471 161.604 260.98 160.448 260.758 159.227C260.575 158.223 260.575 157.194 260.758 156.19C260.953 155.268 261.26 154.373 261.671 153.525C261.671 153.525 261.621 153.576 261.544 153.678C261.468 153.779 261.375 153.957 261.257 154.177C260.939 154.804 260.703 155.469 260.555 156.156C260.339 157.181 260.313 158.236 260.479 159.269C260.675 160.409 261.101 161.497 261.731 162.467C262.36 163.437 263.181 164.268 264.142 164.912L264.378 165.072V164.793C264.252 163.66 264.142 162.611 264.048 161.706L263.837 161.765C264.216 162.581 264.828 163.267 265.597 163.736C265.805 163.861 266.022 163.968 266.248 164.057C266.329 164.09 266.415 164.107 266.502 164.108Z" fill="#455A64"/>
<path d="M268.285 150.496C268.661 149.786 269.169 149.154 269.783 148.635C270.472 148.1 271.278 147.735 272.134 147.569C273.175 147.379 274.248 147.476 275.239 147.848C276.228 148.239 277.111 148.856 277.819 149.65C278.399 150.297 278.871 151.034 279.215 151.832C279.513 152.581 279.748 153.354 279.917 154.142C279.935 153.924 279.921 153.704 279.875 153.491C279.643 152.003 278.998 150.611 278.014 149.472C277.278 148.646 276.352 148.013 275.315 147.628C274.274 147.233 273.142 147.139 272.05 147.357C271.168 147.548 270.346 147.952 269.656 148.533C269.193 148.926 268.808 149.402 268.522 149.938C268.449 150.083 268.384 150.233 268.328 150.386C268.294 150.496 268.277 150.496 268.285 150.496Z" fill="#455A64"/>
<path d="M269.799 145.589C270.364 145.294 270.96 145.062 271.576 144.896C273.081 144.572 274.652 144.794 276.008 145.522C277.347 146.293 278.436 147.432 279.147 148.804C279.705 149.853 279.891 150.572 279.942 150.555C279.932 150.382 279.898 150.211 279.841 150.047C279.714 149.587 279.544 149.139 279.333 148.711C278.638 147.285 277.526 146.105 276.144 145.327C274.734 144.563 273.088 144.357 271.533 144.752C271.068 144.876 270.624 145.067 270.214 145.319C269.926 145.42 269.791 145.572 269.799 145.589Z" fill="#455A64"/>
<path d="M290.558 450.13L289.898 467.818C289.898 467.818 307.663 474.417 307.858 477.699H273.512L273.402 450.096L290.558 450.13Z" fill="#455A64"/>
<path d="M279.291 466.32C278.961 466.42 278.679 466.639 278.5 466.934C278.32 467.229 278.256 467.579 278.318 467.919C278.406 468.254 278.62 468.542 278.914 468.724C279.208 468.907 279.561 468.97 279.9 468.9C280.248 468.792 280.543 468.56 280.731 468.248C280.918 467.936 280.984 467.566 280.915 467.208C280.791 466.867 280.538 466.588 280.211 466.43C279.884 466.272 279.509 466.248 279.164 466.362" fill="#E0E0E0"/>
<path d="M273.521 477.673L273.623 474.89L306.513 475.956C306.513 475.956 308.036 476.624 307.867 477.698L273.521 477.673Z" fill="#263238"/>
<path d="M290.466 467.64C290.466 467.809 289.62 467.885 288.774 468.427C287.929 468.968 287.514 469.67 287.362 469.603C287.21 469.535 287.455 468.571 288.461 467.911C289.468 467.251 290.5 467.488 290.466 467.64Z" fill="white"/>
<path d="M294.061 469.137C294.103 469.298 293.376 469.586 292.809 470.288C292.242 470.99 292.073 471.751 291.904 471.743C291.734 471.734 291.633 470.787 292.352 469.916C293.071 469.044 294.061 468.977 294.061 469.137Z" fill="white"/>
<path d="M296.108 473.452C295.956 473.452 295.719 472.648 296.108 471.76C296.498 470.872 297.327 470.483 297.394 470.618C297.462 470.753 296.98 471.252 296.641 472.005C296.303 472.758 296.269 473.435 296.108 473.452Z" fill="white"/>
<path d="M290.162 463.597C290.094 463.749 289.316 463.521 288.377 463.597C287.438 463.673 286.685 463.961 286.601 463.817C286.516 463.673 287.227 463.073 288.343 463.013C289.46 462.954 290.247 463.495 290.162 463.597Z" fill="white"/>
<path d="M251.156 451.754L249.785 473.122L253.575 490.337C253.64 490.63 253.644 490.933 253.587 491.228C253.529 491.523 253.412 491.802 253.243 492.05C253.073 492.297 252.854 492.507 252.6 492.667C252.346 492.826 252.061 492.932 251.765 492.977C251.419 493.028 251.067 492.996 250.736 492.884C250.405 492.772 250.105 492.584 249.861 492.334C246.723 489.068 235.244 476.997 235.43 475.415C235.65 473.605 235.379 452.777 235.379 452.777L251.156 451.754Z" fill="#455A64"/>
<path d="M251.764 492.976L235.488 473.993V474.898C235.453 475.682 235.699 476.453 236.181 477.072C237.476 478.722 241.147 483.205 249.826 492.299C250.076 492.562 250.386 492.759 250.73 492.872C251.074 492.986 251.441 493.013 251.797 492.951L251.764 492.976Z" fill="#263238"/>
<g opacity="0.6">
<path d="M240.167 467.277C240.42 467.482 240.589 467.772 240.642 468.093C240.695 468.415 240.628 468.744 240.454 469.02C240.262 469.273 239.981 469.446 239.668 469.502C239.355 469.558 239.031 469.495 238.763 469.324C238.493 469.106 238.314 468.796 238.26 468.454C238.205 468.113 238.279 467.762 238.467 467.471C238.697 467.219 239.016 467.066 239.356 467.044C239.697 467.022 240.033 467.133 240.294 467.353" fill="white"/>
</g>
<path d="M247.255 483.425C247.799 482.778 248.458 482.239 249.201 481.835C249.996 481.557 250.837 481.433 251.679 481.471C251.679 481.42 251.434 481.243 250.943 481.15C250.286 481.048 249.613 481.139 249.006 481.412C248.398 481.675 247.88 482.11 247.517 482.664C247.246 483.095 247.204 483.408 247.255 483.425Z" fill="white"/>
<path d="M248.66 486.335C248.762 486.437 249.506 485.768 250.598 485.489C251.292 485.384 251.993 485.322 252.696 485.303C252.375 485.084 252.006 484.945 251.62 484.898C251.235 484.851 250.843 484.897 250.479 485.032C249.202 485.371 248.55 486.335 248.66 486.335Z" fill="white"/>
<path d="M244.564 479.635C245.495 479.069 246.465 478.569 247.466 478.138C248.516 477.857 249.584 477.653 250.664 477.529C249.553 477.173 248.352 477.23 247.28 477.689C246.178 478.006 245.219 478.693 244.564 479.635Z" fill="white"/>
<path d="M244.438 473.104C244.488 473.24 245.698 472.791 247.238 472.8C248.777 472.808 249.978 473.223 250.029 473.096C249.218 472.519 248.23 472.246 247.238 472.326C246.242 472.253 245.252 472.528 244.438 473.104Z" fill="white"/>
<path d="M244.685 466.828C245.628 466.557 246.605 466.423 247.586 466.43C248.557 466.578 249.503 466.863 250.395 467.276C250.395 467.225 250.209 466.955 249.726 466.642C249.086 466.258 248.365 466.029 247.62 465.973C246.875 465.918 246.128 466.036 245.437 466.32C244.913 466.532 244.651 466.777 244.685 466.828Z" fill="white"/>
<path d="M247.602 465.23C247.686 464.97 247.709 464.695 247.67 464.426C247.622 463.681 247.433 462.951 247.111 462.277C246.913 461.766 246.554 461.332 246.088 461.042C245.927 460.957 245.743 460.926 245.564 460.953C245.384 460.98 245.218 461.065 245.09 461.194C244.853 461.458 244.718 461.797 244.709 462.15C244.727 462.872 244.997 463.564 245.471 464.107C245.945 464.651 246.594 465.012 247.306 465.128C248.012 465.229 248.732 465.118 249.375 464.809C250.018 464.501 250.555 464.008 250.918 463.394C251.008 463.239 251.064 463.067 251.082 462.889C251.099 462.711 251.078 462.531 251.02 462.362C250.948 462.201 250.828 462.066 250.677 461.977C250.525 461.887 250.349 461.848 250.174 461.863C249.643 461.957 249.147 462.191 248.736 462.539C248.136 462.979 247.617 463.52 247.205 464.138C247.034 464.352 246.912 464.6 246.849 464.866C247.433 464.081 248.132 463.388 248.922 462.81C249.293 462.524 249.729 462.333 250.191 462.252C250.291 462.239 250.392 462.258 250.48 462.307C250.569 462.356 250.639 462.431 250.681 462.523C250.711 462.637 250.717 462.756 250.698 462.873C250.679 462.989 250.636 463.1 250.571 463.199C250.243 463.72 249.772 464.136 249.214 464.395C248.656 464.655 248.034 464.748 247.424 464.663C246.824 464.561 246.276 464.259 245.869 463.806C245.462 463.353 245.22 462.775 245.183 462.167C245.182 461.921 245.265 461.682 245.42 461.491C245.491 461.421 245.582 461.375 245.68 461.358C245.778 461.342 245.879 461.355 245.969 461.397C246.351 461.646 246.647 462.006 246.815 462.43C247.244 463.308 247.51 464.257 247.602 465.23Z" fill="white"/>
<path d="M305.601 300.643C307.429 307.932 308.162 315.454 307.775 322.959C307.522 327.713 292.235 465.229 292.235 465.229L272.779 463.478L276.162 334.895L275.317 335.623C275.317 335.623 263.736 389.712 262.966 398.265C262.289 405.971 253.043 467.725 253.043 467.725L234.17 466.828L238.45 388.773L244.169 317.909L246.461 297.268L305.601 300.643Z" fill="#263238"/>
<path d="M272.406 323.83C272.692 324.025 272.998 324.186 273.32 324.312C274.179 324.717 275.09 325.001 276.027 325.158C276.687 325.276 277.363 325.276 278.023 325.158C278.794 325.011 279.507 324.647 280.079 324.109C280.677 323.483 281.097 322.71 281.297 321.868C281.514 321.006 281.686 320.133 281.813 319.254C282.422 315.675 282.82 312.402 283.031 310.033C283.141 308.849 283.209 307.893 283.243 307.224C283.283 306.882 283.283 306.535 283.243 306.192C283.143 306.523 283.081 306.863 283.057 307.208C282.961 307.969 282.842 308.899 282.701 309.999C282.405 312.359 281.965 315.608 281.356 319.178C281.043 320.946 280.849 322.739 279.774 323.813C279.272 324.253 278.678 324.575 278.036 324.758C277.394 324.941 276.719 324.979 276.061 324.871C275.146 324.732 274.249 324.491 273.388 324.152C273.074 324.008 272.744 323.9 272.406 323.83Z" fill="#455A64"/>
<path d="M278.539 306.919C278.539 306.919 278.395 306.809 278.09 306.801C277.654 306.798 277.23 306.944 276.889 307.215C276.628 307.414 276.416 307.67 276.27 307.963C276.123 308.256 276.046 308.579 276.043 308.907C276.08 309.317 276.234 309.707 276.487 310.031C276.74 310.356 277.08 310.6 277.469 310.736C277.857 310.871 278.276 310.892 278.676 310.796C279.075 310.7 279.439 310.491 279.723 310.193C279.924 309.932 280.062 309.629 280.127 309.306C280.191 308.983 280.18 308.65 280.095 308.332C279.997 307.906 279.755 307.526 279.41 307.258C279.164 307.072 278.995 307.046 278.987 307.072C279.388 307.416 279.664 307.883 279.774 308.4C279.824 308.665 279.817 308.939 279.753 309.202C279.689 309.464 279.569 309.71 279.401 309.922C279.167 310.142 278.877 310.293 278.563 310.36C278.249 310.427 277.923 310.406 277.62 310.301C277.317 310.195 277.048 310.009 276.843 309.762C276.638 309.515 276.505 309.216 276.457 308.899C276.458 308.627 276.517 308.359 276.631 308.112C276.745 307.865 276.911 307.646 277.117 307.469C277.521 307.14 278.018 306.947 278.539 306.919Z" fill="#455A64"/>
<path d="M244.438 316.622C244.678 316.698 244.93 316.732 245.182 316.724C245.858 316.773 246.536 316.773 247.212 316.724C251.724 316.365 255.974 314.459 259.241 311.327C259.736 310.86 260.194 310.357 260.612 309.821C260.783 309.637 260.925 309.429 261.035 309.203C260.967 309.153 260.29 309.965 259.03 311.09C255.708 314.014 251.58 315.866 247.187 316.402C245.503 316.58 244.446 316.546 244.438 316.622Z" fill="#455A64"/>
<path d="M296.861 306.895C297.157 307.67 297.552 308.404 298.037 309.077C299.131 310.755 300.429 312.289 301.903 313.645C303.368 315.01 304.993 316.191 306.742 317.164C307.447 317.605 308.21 317.943 309.009 318.171C309.009 318.103 308.163 317.68 306.911 316.885C305.235 315.846 303.66 314.651 302.208 313.315C300.774 311.967 299.468 310.489 298.308 308.899C297.411 307.673 296.929 306.861 296.861 306.895Z" fill="#455A64"/>
<path d="M316.123 229.22C319.017 237.679 318.661 236.935 324.101 262.127C325.099 266.78 323.339 274.046 319.152 276.288C314.965 278.53 307.503 276.068 305.008 272.058L300.998 233.991L316.123 229.22Z" fill="#FFBE9D"/>
<path d="M246.451 274.918L246.561 254.877L246.476 252.915L226.174 248.169C226.174 248.169 230.167 235.014 233.83 220.879C235.944 212.715 242.983 208.613 244.683 207.733L245.055 207.564L264.63 199.273C268.581 203.503 274.342 206.887 279.857 205.254C283.01 204.229 285.802 202.32 287.902 199.756L301.099 204.281C304.909 205.593 308.133 208.209 310.201 211.666C312.959 216.548 321.782 238.94 321.934 239.439L305.599 240.902C305.599 240.902 308.492 293.892 307.469 303.358C307.469 303.358 303.501 306.107 293.485 306.573C273.183 307.537 242.983 306.09 242.983 306.09C243.456 303.037 243.947 297.927 244.226 295.339L246.451 274.918Z" fill="#3B5BA1"/>
<path d="M305.059 221.167C304.975 221.167 305.415 233.856 306.032 249.396C306.65 264.936 307.216 277.608 307.301 277.608C307.386 277.608 306.946 264.97 306.328 249.379C305.711 233.788 305.127 221.167 305.059 221.167Z" fill="#263238"/>
<path d="M248.684 224.702C248.828 224.702 248.413 235.928 247.762 249.75C247.111 263.573 246.468 274.773 246.324 274.765C246.18 274.757 246.586 263.548 247.237 249.725C247.889 235.902 248.54 224.694 248.684 224.702Z" fill="#263238"/>
<path d="M226.056 257.703C226.716 252.737 227.266 248.338 227.266 248.338L243.525 252.111L242.831 254.734L255.402 241.96L257.39 242.129L263.717 248.711C263.717 248.711 258.202 260.368 254.996 264.902C250.825 270.824 244.261 279.799 235.277 279.046C226.97 278.344 224.863 266.628 226.056 257.703Z" fill="#FFBE9D"/>
<path d="M234.862 260.681C234.761 260.587 236.25 258.989 238.432 257.398C240.615 255.808 242.62 254.928 242.662 255.055C242.704 255.182 240.877 256.273 238.728 257.821C236.58 259.369 234.964 260.791 234.862 260.681Z" fill="#EB996E"/>
<path d="M277.346 225.294L271.763 222.443L264.521 224.744L260.935 228.06L255.411 241.959L250.986 247.559L258.794 257.711L263.726 248.693C263.726 248.693 267.956 246.866 269.597 244.218C271.238 241.57 272.025 240.14 272.025 240.14C272.025 240.14 274.444 238.982 274.893 237.865C275.157 237.234 275.303 236.56 275.324 235.877L274.097 234.092C274.175 233.312 274.049 232.525 273.734 231.808C273.488 231.467 273.151 231.203 272.761 231.047C272.761 231.047 273.125 229.532 272.558 228.991C271.487 228.364 270.352 227.851 269.174 227.46L271.61 226.081C271.61 226.081 277.05 227.773 277.346 225.294Z" fill="#FFBE9D"/>
<path d="M269.055 230.344C269.055 230.412 269.901 230.437 270.933 230.657C271.965 230.877 272.751 231.19 272.777 231.131C272.244 230.756 271.629 230.512 270.983 230.42C270.355 230.247 269.695 230.221 269.055 230.344Z" fill="#EB996E"/>
<path d="M270.73 233.466C270.73 233.534 271.466 233.534 272.346 233.669C273.226 233.804 273.928 234.016 273.954 233.956C273.48 233.656 272.939 233.476 272.38 233.432C271.835 233.314 271.27 233.326 270.73 233.466Z" fill="#EB996E"/>
<path d="M273.091 238.356C273.159 238.356 273.209 238.034 273.201 237.637C273.192 237.239 273.133 236.935 273.065 236.935C272.998 236.935 272.956 237.256 272.964 237.645C272.972 238.034 273.032 238.356 273.091 238.356Z" fill="#EB996E"/>
<path d="M272.026 239.861C272.105 239.401 272.281 238.963 272.542 238.576C272.849 238.213 273.234 237.924 273.667 237.73C273.667 237.73 273.489 237.679 273.227 237.73C272.882 237.851 272.58 238.068 272.355 238.356C272.13 238.644 271.992 238.99 271.958 239.354C271.941 239.701 272 239.861 272.026 239.861Z" fill="#EB996E"/>
<path d="M267.66 235.404C267.916 235.022 268.247 234.697 268.633 234.448C269.048 234.255 269.495 234.144 269.952 234.118C269.952 234.118 269.808 234.016 269.538 233.991C269.18 233.977 268.826 234.061 268.514 234.236C268.204 234.414 267.947 234.671 267.77 234.981C267.643 235.226 267.626 235.395 267.66 235.404Z" fill="#EB996E"/>
<path d="M265.113 232.308C265.172 232.308 265.392 231.758 265.959 231.385C266.34 231.181 266.751 231.039 267.177 230.963C267.177 230.963 267.033 230.878 266.779 230.878C266.442 230.896 266.116 231.001 265.832 231.182C265.548 231.361 265.318 231.612 265.163 231.91C265.096 232.138 265.079 232.299 265.113 232.308Z" fill="#EB996E"/>
<path d="M263.406 230.793C263.406 230.793 263.406 230.598 263.465 230.319C263.514 229.952 263.657 229.604 263.879 229.308C264.101 229.012 264.395 228.777 264.734 228.627C264.996 228.509 265.182 228.475 265.174 228.433C265.165 228.39 264.979 228.382 264.674 228.475C264.275 228.592 263.925 228.835 263.676 229.169C263.427 229.501 263.291 229.904 263.287 230.319C263.296 230.624 263.38 230.801 263.406 230.793Z" fill="#EB996E"/>
<path d="M265.773 227.165C265.773 227.249 266.941 227.266 268.311 227.478C269.682 227.689 270.781 228.188 270.849 228.121C270.099 227.658 269.255 227.369 268.379 227.275C267.766 227.179 267.147 227.134 266.526 227.139C266.276 227.104 266.021 227.113 265.773 227.165Z" fill="#EB996E"/>
<path d="M302.089 231.022L299.627 257.204C299.622 257.799 299.472 258.384 299.19 258.909C298.909 259.433 298.505 259.882 298.012 260.216L282.125 259.886C281.482 259.294 280.771 257.433 280.915 255.428L282.675 230.371C282.776 228.865 283.343 227.774 284.02 227.757L300.753 227.376C301.599 227.351 302.267 229.17 302.089 231.022Z" fill="#263238"/>
<path d="M304.399 236.292C304.709 235.88 304.872 235.377 304.863 234.862C304.854 234.347 304.673 233.85 304.349 233.45C304.011 233.061 303.592 232.75 303.121 232.541C302.651 232.332 302.14 232.229 301.625 232.24C300.596 232.269 299.584 232.502 298.647 232.925C297.463 233.404 296.33 233.999 295.263 234.702C294.865 234.906 294.514 235.19 294.232 235.537C293.949 235.883 293.742 236.284 293.622 236.715C293.495 237.603 294.468 238.585 295.246 238.128C294.704 238.37 294.228 238.738 293.857 239.201C293.486 239.665 293.231 240.21 293.114 240.792C292.971 241.909 293.588 242.484 294.671 242.789C294.264 242.96 293.94 243.282 293.768 243.688C293.596 244.095 293.589 244.552 293.749 244.963C294.005 245.35 294.392 245.633 294.84 245.758C295.287 245.884 295.764 245.845 296.185 245.648C297.016 245.223 297.728 244.598 298.258 243.829C297.738 245.093 297.64 246.49 297.979 247.814C300.347 246.968 302.682 244.312 301.971 241.808C302.56 241.335 302.973 240.68 303.146 239.946C303.319 239.212 303.242 238.441 302.927 237.756C303.47 237.501 303.934 237.105 304.27 236.61C304.606 236.114 304.803 235.537 304.839 234.939" fill="#FFBE9D"/>
<path d="M304.66 234.008L304.855 245.2L307.757 249.565L321.063 261.459C321.063 261.459 319.092 277.633 313.086 275.84C307.08 274.046 305.616 272.921 302.089 266.39C300.194 262.897 299.018 257.212 297.918 253.955C297.275 252.043 297.842 245.876 297.842 245.876L304.66 234.008Z" fill="#FFBE9D"/>
<path d="M294.721 242.805C295.076 242.545 295.415 242.262 295.736 241.96C296.513 241.28 297.432 240.783 298.426 240.504C298.969 240.383 299.532 240.383 300.076 240.504C300.522 240.604 300.94 240.801 301.302 241.08C301.633 241.358 301.919 241.686 302.148 242.053C302.138 241.934 302.104 241.819 302.047 241.714C301.906 241.416 301.704 241.151 301.454 240.936C301.083 240.617 300.643 240.389 300.169 240.268C299.587 240.128 298.982 240.128 298.401 240.268C297.367 240.555 296.422 241.096 295.651 241.841C295.296 242.116 294.982 242.441 294.721 242.805Z" fill="#EB996E"/>
<path d="M294.883 238.246C295.317 238.111 295.734 237.926 296.126 237.696C296.554 237.464 296.994 237.258 297.446 237.078C297.996 236.873 298.562 236.711 299.138 236.596C299.711 236.472 300.301 236.452 300.881 236.537C301.353 236.611 301.802 236.793 302.192 237.07C302.534 237.339 302.822 237.673 303.038 238.051C303.038 238.051 303.038 237.916 302.928 237.704C302.776 237.397 302.556 237.128 302.285 236.918C301.883 236.606 301.414 236.394 300.914 236.3C300.308 236.186 299.685 236.186 299.079 236.3C298.481 236.423 297.895 236.599 297.328 236.825C296.874 237.02 296.433 237.243 296.008 237.493C295.615 237.716 295.239 237.967 294.883 238.246Z" fill="#EB996E"/>
<path d="M319.635 267.896C319.954 266.529 320.008 265.113 319.795 263.726C319.531 262.232 318.998 260.799 318.222 259.496C317.253 257.903 316.068 256.451 314.703 255.182C313.273 253.803 311.801 252.593 310.473 251.46C309.288 250.465 308.159 249.406 307.089 248.287C306.374 247.527 305.726 246.706 305.152 245.834C304.926 245.526 304.738 245.19 304.594 244.836C304.847 245.12 305.079 245.423 305.287 245.741C305.914 246.559 306.592 247.336 307.318 248.067C308.231 248.998 309.39 250.03 310.701 251.147C312.013 252.263 313.51 253.465 314.931 254.86C316.323 256.161 317.522 257.654 318.493 259.293C319.268 260.647 319.787 262.133 320.024 263.675C320.17 264.72 320.133 265.782 319.914 266.813C319.857 267.101 319.778 267.384 319.677 267.659C319.67 267.74 319.656 267.819 319.635 267.896Z" fill="#EB996E"/>
<path d="M330.105 176.543C330.207 176.611 330.021 177.059 329.691 177.541C329.361 178.023 329.014 178.387 328.912 178.286C328.811 178.184 328.997 177.77 329.327 177.287C329.657 176.805 330.004 176.475 330.105 176.543Z" fill="#511B4B"/>
<path d="M334.538 169.438C334.387 170.127 334.099 170.78 333.692 171.358C333.1 172.356 332.542 173.117 332.432 173.05C332.584 172.36 332.872 171.708 333.278 171.129C333.58 170.486 334.008 169.911 334.538 169.438Z" fill="#511B4B"/>
<path d="M337.965 161.815C337.917 162.522 337.721 163.211 337.39 163.837C337.205 164.527 336.876 165.17 336.426 165.724C336.477 165.017 336.672 164.329 337.001 163.702C337.186 163.012 337.515 162.369 337.965 161.815Z" fill="#511B4B"/>
<path d="M339.901 153.686C339.998 154.388 339.943 155.104 339.74 155.783C339.685 156.489 339.483 157.174 339.148 157.797C339.061 157.094 339.115 156.38 339.308 155.699C339.371 154.995 339.572 154.311 339.901 153.686Z" fill="#511B4B"/>
<path d="M340.053 145.328C340.294 145.994 340.398 146.702 340.358 147.409C340.468 148.111 340.413 148.83 340.197 149.507C339.979 148.836 339.885 148.131 339.918 147.426C339.813 146.725 339.859 146.01 340.053 145.328Z" fill="#511B4B"/>
<path d="M338.734 137.063C339.082 137.681 339.298 138.363 339.368 139.068C339.577 139.747 339.646 140.46 339.571 141.166C339.235 140.546 339.028 139.864 338.962 139.161C338.745 138.485 338.667 137.771 338.734 137.063Z" fill="#511B4B"/>
<path d="M335.807 129.229C336.31 129.735 336.687 130.353 336.906 131.031C337.253 131.655 337.453 132.349 337.49 133.062C337.053 132.507 336.718 131.88 336.5 131.209C336.154 130.595 335.919 129.925 335.807 129.229Z" fill="#511B4B"/>
<path d="M331.002 122.411C331.087 122.327 331.848 122.936 332.559 123.841C333.063 124.347 333.437 124.969 333.65 125.651C333.548 125.719 332.939 125.008 332.212 124.12C331.484 123.232 330.909 122.504 331.002 122.411Z" fill="#511B4B"/>
<path d="M324.361 117.37C325.065 117.485 325.729 117.776 326.29 118.216C327.271 118.842 327.982 119.51 327.88 119.603C327.217 119.367 326.597 119.024 326.045 118.588C325.424 118.271 324.856 117.86 324.361 117.37Z" fill="#511B4B"/>
<path d="M316.502 114.569C317.212 114.482 317.933 114.572 318.6 114.831C319.304 114.953 319.969 115.243 320.537 115.677C319.833 115.659 319.137 115.519 318.481 115.263C317.789 115.14 317.12 114.905 316.502 114.569Z" fill="#511B4B"/>
<path d="M308.17 114.197C308.819 113.893 309.536 113.762 310.251 113.816C310.96 113.719 311.682 113.804 312.349 114.062C311.667 114.239 310.962 114.305 310.259 114.256C309.564 114.346 308.859 114.326 308.17 114.197Z" fill="#511B4B"/>
<path d="M300.344 116.963C300.277 116.87 300.996 116.219 302.036 115.703C302.647 115.323 303.348 115.113 304.066 115.094C303.505 115.512 302.887 115.849 302.231 116.092C301.642 116.462 301.008 116.755 300.344 116.963Z" fill="#511B4B"/>
<path d="M295.768 123.74C295.695 123.018 295.846 122.292 296.199 121.659C296.415 120.968 296.837 120.36 297.409 119.916C297.197 120.582 296.913 121.223 296.563 121.828C296.364 122.491 296.098 123.131 295.768 123.74Z" fill="#511B4B"/>
<path d="M296.877 131.886C296.394 131.352 296.064 130.697 295.921 129.991C295.647 129.325 295.563 128.596 295.676 127.885C295.984 128.512 296.209 129.178 296.344 129.864C296.615 130.51 296.794 131.191 296.877 131.886Z" fill="#511B4B"/>
<path d="M301.893 138.527C301.817 138.62 301.047 138.087 300.201 137.232C299.355 136.378 298.907 135.54 299.008 135.481C299.11 135.422 299.736 136.099 300.523 136.928C301.309 137.757 301.969 138.433 301.893 138.527Z" fill="#511B4B"/>
<path d="M309.136 142.646C307.723 142.478 306.393 141.888 305.32 140.954C306.01 141.095 306.673 141.346 307.283 141.699C307.948 141.912 308.574 142.232 309.136 142.646Z" fill="#511B4B"/>
<path d="M317.382 143.729C316.72 144.007 315.997 144.106 315.284 144.017C314.568 144.074 313.85 143.939 313.203 143.627C313.893 143.509 314.597 143.492 315.293 143.577C315.993 143.524 316.697 143.575 317.382 143.729Z" fill="#511B4B"/>
<path d="M325.107 140.76C324.675 141.351 324.09 141.813 323.415 142.096C322.823 142.506 322.129 142.746 321.41 142.79C321.959 142.355 322.562 141.994 323.204 141.716C323.79 141.309 324.431 140.988 325.107 140.76Z" fill="#511B4B"/>
<path d="M330.097 134.145C330.038 134.862 329.79 135.55 329.378 136.141C328.795 137.165 328.126 137.833 328.033 137.782C328.267 137.122 328.588 136.496 328.989 135.921C329.273 135.28 329.646 134.682 330.097 134.145Z" fill="#511B4B"/>
<path d="M331.289 125.965C331.58 126.623 331.688 127.348 331.602 128.063C331.659 128.78 331.521 129.498 331.205 130.144C331.091 129.453 331.077 128.749 331.162 128.054C331.109 127.355 331.151 126.652 331.289 125.965Z" fill="#511B4B"/>
<path d="M328.617 118.072C329.144 118.557 329.542 119.164 329.776 119.84C330.142 120.455 330.34 121.155 330.351 121.871C329.935 121.314 329.604 120.698 329.37 120.043C329.012 119.432 328.758 118.766 328.617 118.072Z" fill="#511B4B"/>
<path d="M323.432 111.524C323.516 111.439 324.278 112.023 325.056 112.877C325.834 113.732 326.35 114.569 326.257 114.62C326.164 114.671 325.504 114.019 324.734 113.173C323.965 112.327 323.347 111.583 323.432 111.524Z" fill="#511B4B"/>
<path d="M316.84 106.389C317.522 106.588 318.155 106.925 318.702 107.378C319.657 108.038 320.334 108.698 320.267 108.791C320.199 108.884 319.421 108.394 318.448 107.742C317.475 107.091 316.773 106.507 316.84 106.389Z" fill="#511B4B"/>
<path d="M309.396 102.574C310.102 102.659 310.781 102.89 311.393 103.251C312.06 103.484 312.675 103.846 313.203 104.317C312.498 104.236 311.818 104.008 311.207 103.649C310.537 103.415 309.922 103.05 309.396 102.574Z" fill="#511B4B"/>
<path d="M301.42 100.044C302.129 100.013 302.838 100.128 303.501 100.382C304.202 100.499 304.87 100.761 305.464 101.152C304.754 101.174 304.047 101.057 303.383 100.805C302.684 100.685 302.017 100.426 301.42 100.044Z" fill="#511B4B"/>
<path d="M293.154 98.7415C293.849 98.5927 294.566 98.5927 295.261 98.7415C295.968 98.7571 296.665 98.9183 297.308 99.2152C295.904 99.3376 294.489 99.1676 293.154 98.7161V98.7415Z" fill="#511B4B"/>
<path d="M284.822 98.6151C285.494 98.3873 286.205 98.2981 286.912 98.3528C287.616 98.2677 288.33 98.3282 289.01 98.5305C288.34 98.766 287.627 98.8554 286.92 98.7927C286.216 98.8808 285.501 98.8203 284.822 98.6151Z" fill="#511B4B"/>
<path d="M276.482 99.6465C277.799 99.1369 279.209 98.912 280.619 98.9866C279.303 99.4979 277.893 99.7229 276.482 99.6465Z" fill="#511B4B"/>
<path d="M268.402 101.821C268.984 101.41 269.643 101.122 270.34 100.975C270.991 100.695 271.695 100.557 272.404 100.569C271.814 100.985 271.146 101.279 270.441 101.432C269.795 101.699 269.101 101.832 268.402 101.821Z" fill="#511B4B"/>
<path d="M260.737 105.171C260.678 105.061 261.473 104.554 262.505 104.038C263.113 103.666 263.794 103.432 264.502 103.353C264.553 103.471 263.732 103.928 262.7 104.435C262.104 104.813 261.435 105.064 260.737 105.171Z" fill="#511B4B"/>
<path d="M253.64 109.604C253.564 109.511 254.283 108.902 255.248 108.25C255.793 107.795 256.427 107.458 257.109 107.261C257.168 107.362 256.449 107.971 255.493 108.614C254.949 109.066 254.318 109.403 253.64 109.604Z" fill="#511B4B"/>
<path d="M247.236 114.967C247.152 114.883 247.778 114.18 248.64 113.402C249.503 112.624 250.265 112.066 250.332 112.159C250.4 112.252 249.782 112.954 248.928 113.724C248.074 114.493 247.321 115.086 247.236 114.967Z" fill="#511B4B"/>
<path d="M241.68 121.227C241.951 120.573 242.351 119.98 242.856 119.484C243.6 118.596 244.285 117.936 244.37 118.021C244.454 118.106 243.938 118.867 243.194 119.764C242.45 120.66 241.747 121.303 241.68 121.227Z" fill="#511B4B"/>
<path d="M236.951 128.155C237.131 127.47 237.447 126.829 237.882 126.269C238.499 125.288 239.083 124.577 239.184 124.577C239.009 125.264 238.692 125.907 238.254 126.464C237.645 127.479 237.061 128.223 236.951 128.155Z" fill="#511B4B"/>
<path d="M233.221 135.66C233.304 134.957 233.529 134.278 233.881 133.663C234.122 133.006 234.49 132.403 234.963 131.887C234.883 132.591 234.659 133.27 234.304 133.883C234.064 134.541 233.696 135.145 233.221 135.66Z" fill="#511B4B"/>
<path d="M230.581 143.594C230.568 142.886 230.7 142.184 230.97 141.53C231.112 140.829 231.4 140.166 231.816 139.584C231.826 140.29 231.696 140.992 231.435 141.648C231.29 142.349 230.999 143.012 230.581 143.594Z" fill="#511B4B"/>
<path d="M229.041 151.825C228.936 151.123 228.973 150.406 229.151 149.719C229.188 149.013 229.369 148.322 229.684 147.688C229.794 148.387 229.76 149.101 229.582 149.786C229.546 150.496 229.362 151.191 229.041 151.825Z" fill="#511B4B"/>
<path d="M228.194 160.148C228.045 159.457 228.045 158.742 228.194 158.05C228.184 157.342 228.323 156.638 228.601 155.986C228.747 156.678 228.747 157.393 228.601 158.084C228.609 158.793 228.47 159.496 228.194 160.148Z" fill="#511B4B"/>
<path d="M227.299 168.481C227.156 167.787 227.156 167.07 227.299 166.375C227.31 165.666 227.465 164.966 227.756 164.319C227.899 165.014 227.899 165.731 227.756 166.426C227.749 167.135 227.593 167.836 227.299 168.481Z" fill="#511B4B"/>
<path d="M190.773 197.966C191.469 197.829 192.186 197.835 192.879 197.985C193.588 198.002 194.286 198.164 194.93 198.461C194.234 198.598 193.518 198.591 192.824 198.442C192.115 198.428 191.416 198.266 190.773 197.966Z" fill="#511B4B"/>
<path d="M225.725 176.721C225.662 176.014 225.749 175.303 225.978 174.632C226.064 173.929 226.295 173.252 226.655 172.644C226.718 173.35 226.631 174.062 226.401 174.733C226.317 175.436 226.086 176.113 225.725 176.721Z" fill="#511B4B"/>
<path d="M182.546 196.318C183.253 196.262 183.964 196.355 184.633 196.591C185.334 196.684 186.009 196.92 186.614 197.286C185.907 197.342 185.196 197.249 184.527 197.013C183.826 196.922 183.15 196.686 182.546 196.318Z" fill="#511B4B"/>
<path d="M222.773 184.521C222.886 183.825 223.121 183.155 223.467 182.541C223.681 181.87 224.014 181.243 224.448 180.688C224.421 181.399 224.223 182.092 223.873 182.71C223.408 183.785 222.883 184.58 222.773 184.521Z" fill="#511B4B"/>
<path d="M174.775 193.295C175.47 193.414 176.138 193.655 176.749 194.007C177.418 194.227 178.042 194.565 178.592 195.005C177.882 194.971 177.191 194.767 176.576 194.411C175.506 193.936 174.715 193.404 174.775 193.295Z" fill="#511B4B"/>
<path d="M217.992 191.39C217.89 191.289 218.491 190.544 219.159 189.647C219.827 188.751 220.504 188.057 220.606 188.125C220.707 188.192 220.217 188.971 219.506 189.918C219.134 190.529 218.613 191.035 217.992 191.39Z" fill="#511B4B"/>
<path d="M167.951 188.453C168.053 188.352 168.792 188.96 169.683 189.636C170.573 190.313 171.261 190.996 171.192 191.097C171.124 191.198 170.35 190.7 169.409 189.981C168.802 189.603 168.3 189.077 167.951 188.453Z" fill="#511B4B"/>
<path d="M211.402 196.448C211.342 196.338 212.129 195.822 213.093 195.205C213.643 194.765 214.264 194.421 214.929 194.189C214.997 194.283 214.32 194.942 213.33 195.577C212.769 196.021 212.106 196.321 211.402 196.448Z" fill="#511B4B"/>
<path d="M162.87 182.776C162.981 182.718 163.49 183.51 164.098 184.48C164.533 185.034 164.871 185.657 165.097 186.325C165.003 186.391 164.349 185.709 163.724 184.713C163.285 184.147 162.991 183.482 162.87 182.776Z" fill="#511B4B"/>
<path d="M203.492 199.062C204.124 198.756 204.801 198.553 205.497 198.462C206.161 198.231 206.858 198.111 207.561 198.106C206.982 198.527 206.308 198.797 205.599 198.893C204.922 199.127 204.197 199.185 203.492 199.062Z" fill="#511B4B"/>
<path d="M197.183 198.928C197.183 198.801 197.69 198.767 198.257 198.843C198.824 198.919 199.289 199.08 199.281 199.198C199.272 199.317 198.79 199.359 198.198 199.283C197.606 199.207 197.157 199.046 197.183 198.928Z" fill="#511B4B"/>
<path d="M158.506 177.208C158.59 177.124 159.352 177.707 160.13 178.562C160.908 179.416 161.424 180.254 161.331 180.304C161.238 180.355 160.578 179.704 159.809 178.858C159.039 178.012 158.421 177.268 158.506 177.208Z" fill="#511B4B"/>
<path d="M151.915 172.073C152.596 172.273 153.229 172.61 153.776 173.063C154.732 173.723 155.408 174.383 155.341 174.476C155.273 174.569 154.495 174.078 153.522 173.427C152.549 172.775 151.847 172.192 151.915 172.073Z" fill="#511B4B"/>
<path d="M144.469 168.259C145.174 168.344 145.854 168.574 146.465 168.936C147.133 169.169 147.748 169.531 148.275 170.001C147.571 169.921 146.891 169.693 146.279 169.333C145.61 169.1 144.994 168.735 144.469 168.259Z" fill="#511B4B"/>
<path d="M136.492 165.729C137.202 165.697 137.91 165.813 138.573 166.067C139.274 166.183 139.943 166.446 140.536 166.837C139.826 166.859 139.119 166.741 138.455 166.49C137.756 166.37 137.089 166.111 136.492 165.729Z" fill="#511B4B"/>
<path d="M128.229 164.426C128.923 164.277 129.641 164.277 130.335 164.426C131.043 164.442 131.74 164.603 132.382 164.9C130.978 165.022 129.564 164.852 128.229 164.401V164.426Z" fill="#511B4B"/>
<path d="M119.896 164.3C120.568 164.072 121.279 163.983 121.986 164.037C122.69 163.952 123.404 164.013 124.084 164.215C123.414 164.451 122.702 164.54 121.994 164.477C121.29 164.565 120.576 164.505 119.896 164.3Z" fill="#511B4B"/>
<path d="M111.555 165.331C112.872 164.821 114.281 164.597 115.691 164.671C114.375 165.182 112.965 165.407 111.555 165.331Z" fill="#511B4B"/>
<path d="M103.477 167.506C104.058 167.094 104.717 166.806 105.414 166.66C106.065 166.38 106.769 166.241 107.478 166.254C106.888 166.67 106.221 166.963 105.515 167.117C104.869 167.384 104.176 167.516 103.477 167.506Z" fill="#511B4B"/>
<path d="M95.8117 170.856C95.7525 170.746 96.5476 170.238 97.5797 169.722C98.1871 169.351 98.8686 169.117 99.5761 169.037C99.6269 169.156 98.8063 169.612 97.7742 170.12C97.1778 170.498 96.5097 170.749 95.8117 170.856Z" fill="#511B4B"/>
<path d="M88.7145 175.289C88.6384 175.196 89.3574 174.586 90.3218 173.935C90.867 173.48 91.5007 173.143 92.1829 172.945C92.2421 173.047 91.523 173.656 90.5671 174.299C90.0229 174.751 89.3926 175.087 88.7145 175.289Z" fill="#511B4B"/>
<path d="M82.3104 180.652C82.2258 180.567 82.8518 179.865 83.7146 179.087C84.5775 178.308 85.3388 177.75 85.4065 177.843C85.4742 177.936 84.8567 178.638 84.0023 179.408C83.1479 180.178 82.395 180.77 82.3104 180.652Z" fill="#511B4B"/>
<path d="M76.7539 186.912C77.0249 186.258 77.4248 185.665 77.9298 185.169C78.6742 184.281 79.3594 183.621 79.444 183.706C79.5286 183.79 79.0126 184.551 78.2681 185.448C77.5237 186.345 76.8216 186.988 76.7539 186.912Z" fill="#511B4B"/>
<path d="M72.0234 193.84C72.203 193.155 72.5196 192.513 72.954 191.954C73.5715 190.972 74.1552 190.262 74.2567 190.262C74.0817 190.949 73.7647 191.591 73.3262 192.148C72.7171 193.163 72.1334 193.908 72.0234 193.84Z" fill="#511B4B"/>
<path d="M68.293 201.344C68.3766 200.641 68.601 199.962 68.9528 199.348C69.1947 198.691 69.5625 198.087 70.0356 197.571C69.9555 198.275 69.7308 198.955 69.3758 199.568C69.1361 200.226 68.768 200.83 68.293 201.344Z" fill="#511B4B"/>
<path d="M65.6552 209.278C65.642 208.571 65.7745 207.868 66.0443 207.214C66.1861 206.513 66.4744 205.85 66.8903 205.269C66.8999 205.975 66.7706 206.676 66.5096 207.333C66.3638 208.034 66.0728 208.697 65.6552 209.278Z" fill="#511B4B"/>
<path d="M64.113 217.51C64.0078 216.807 64.0452 216.091 64.223 215.403C64.2601 214.697 64.4415 214.006 64.7559 213.373C64.8665 214.072 64.832 214.786 64.6544 215.471C64.6187 216.181 64.4342 216.876 64.113 217.51Z" fill="#511B4B"/>
<path d="M63.2667 225.833C63.1168 225.142 63.1168 224.426 63.2667 223.735C63.2565 223.026 63.3948 222.323 63.6728 221.671C63.8189 222.363 63.8189 223.077 63.6728 223.769C63.6809 224.477 63.5426 225.18 63.2667 225.833Z" fill="#511B4B"/>
<path d="M62.3712 234.166C62.2278 233.471 62.2278 232.754 62.3712 232.06C62.3818 231.35 62.5372 230.651 62.828 230.004C62.9714 230.699 62.9714 231.415 62.828 232.11C62.8211 232.82 62.6655 233.52 62.3712 234.166Z" fill="#511B4B"/>
<path d="M25.8469 263.651C26.543 263.514 27.2598 263.52 27.9532 263.67C28.6623 263.687 29.3604 263.849 30.0046 264.145C29.3085 264.282 28.5918 264.276 27.8983 264.126C27.1888 264.113 26.4899 263.951 25.8469 263.651Z" fill="#511B4B"/>
<path d="M60.7989 242.406C60.7366 241.699 60.823 240.987 61.0527 240.316C61.1387 239.614 61.3691 238.937 61.7295 238.328C61.7918 239.035 61.7053 239.746 61.4757 240.418C61.3911 241.12 61.1606 241.797 60.7989 242.406Z" fill="#511B4B"/>
<path d="M17.6198 262.003C18.3269 261.947 19.0379 262.04 19.7069 262.276C20.4083 262.368 21.083 262.605 21.6886 262.971C20.9815 263.026 20.2705 262.934 19.6015 262.698C18.8997 262.607 18.2247 262.37 17.6198 262.003Z" fill="#511B4B"/>
<path d="M57.8457 250.205C57.9585 249.51 58.1934 248.839 58.5394 248.226C58.7537 247.555 59.086 246.927 59.5207 246.373C59.4928 247.083 59.2956 247.776 58.9454 248.395C58.4802 249.469 57.9557 250.264 57.8457 250.205Z" fill="#511B4B"/>
<path d="M9.84773 258.98C10.5422 259.099 11.2102 259.34 11.8208 259.691C12.4898 259.912 13.1141 260.25 13.6644 260.69C12.9545 260.655 12.2631 260.452 11.6479 260.096C10.5779 259.621 9.78751 259.089 9.84773 258.98Z" fill="#511B4B"/>
<path d="M53.0659 257.075C52.9644 256.973 53.5651 256.229 54.2334 255.332C54.9016 254.435 55.5784 253.742 55.6799 253.809C55.7814 253.877 55.2908 254.655 54.5802 255.603C54.208 256.213 53.687 256.72 53.0659 257.075Z" fill="#511B4B"/>
<path d="M3.0231 254.138C3.12554 254.037 3.86444 254.644 4.75499 255.321C5.64554 255.997 6.333 256.68 6.2644 256.781C6.1958 256.882 5.42204 256.384 4.48113 255.665C3.87377 255.288 3.37214 254.762 3.0231 254.138Z" fill="#511B4B"/>
<path d="M46.4758 262.133C46.4166 262.023 47.2033 261.507 48.1677 260.889C48.7177 260.449 49.3384 260.106 50.0034 259.874C50.0711 259.967 49.3943 260.627 48.4045 261.261C47.843 261.706 47.1806 262.005 46.4758 262.133Z" fill="#511B4B"/>
<path d="M38.5664 264.747C39.1983 264.441 39.8752 264.238 40.5713 264.146C41.2352 263.915 41.9325 263.795 42.6354 263.791C42.0564 264.212 41.3821 264.482 40.6728 264.578C39.9963 264.811 39.2715 264.87 38.5664 264.747Z" fill="#511B4B"/>
<path d="M32.2569 264.612C32.2569 264.485 32.7645 264.451 33.3312 264.528C33.898 264.604 34.3633 264.764 34.3548 264.883C34.3464 265.001 33.8642 265.044 33.272 264.967C32.6799 264.891 32.2315 264.731 32.2569 264.612Z" fill="#511B4B"/>
<path d="M348.132 178.286H303.525C302.754 178.286 301.991 178.438 301.278 178.733C300.566 179.028 299.919 179.461 299.374 180.006C298.829 180.551 298.396 181.198 298.101 181.91C297.806 182.623 297.654 183.386 297.654 184.157V212.86C297.654 213.631 297.806 214.394 298.101 215.106C298.396 215.819 298.829 216.466 299.374 217.011C299.919 217.556 300.566 217.989 301.278 218.284C301.991 218.579 302.754 218.731 303.525 218.731H308.601V225.972L318.16 218.731H348.157C349.714 218.731 351.207 218.112 352.308 217.011C353.409 215.91 354.028 214.417 354.028 212.86V184.157C354.028 183.384 353.875 182.618 353.579 181.904C353.282 181.191 352.847 180.542 352.299 179.997C351.752 179.451 351.101 179.019 350.386 178.726C349.671 178.432 348.905 178.283 348.132 178.286Z" fill="white"/>
<path d="M348.132 178.286H348.513C348.89 178.292 349.266 178.346 349.629 178.447C351.066 178.795 352.314 179.682 353.115 180.925C353.708 181.819 354.044 182.857 354.088 183.928C354.088 185.096 354.088 186.348 354.088 187.701C354.088 190.417 354.088 193.513 354.088 196.956C354.088 200.399 354.088 204.18 354.088 208.275V211.405C354.088 211.938 354.088 212.462 354.088 213.012C354.075 213.585 353.987 214.154 353.825 214.704C353.477 215.823 352.812 216.817 351.912 217.568C351.011 218.318 349.913 218.792 348.75 218.933C339.444 219.035 329.098 218.984 318.059 219.01H318.186L308.635 226.251L308.288 226.513V226.073C308.288 223.772 308.288 221.311 308.288 218.832L308.508 219.052H303.433C302.156 219.023 300.921 218.595 299.901 217.827C298.881 217.059 298.128 215.99 297.748 214.771C297.521 213.975 297.429 213.145 297.477 212.318V207.564C297.477 201.279 297.477 195.213 297.477 189.427V185.197C297.451 184.484 297.496 183.77 297.613 183.066C297.83 182.031 298.314 181.071 299.018 180.281C299.721 179.492 300.619 178.9 301.622 178.565C302.269 178.353 302.946 178.247 303.627 178.252H305.573H319.869L340.569 178.328H346.195H347.658H348.158C348.158 178.328 347.988 178.328 347.658 178.328H346.195H340.569L319.844 178.413H305.547C304.265 178.313 302.974 178.416 301.724 178.717C300.785 179.037 299.946 179.595 299.287 180.336C298.629 181.078 298.174 181.977 297.968 182.947C297.859 183.627 297.82 184.315 297.849 185.003C297.849 186.407 297.849 187.837 297.849 189.232C297.849 195.019 297.849 201.076 297.849 207.369V212.251C297.804 213.032 297.89 213.815 298.103 214.568C298.457 215.7 299.156 216.692 300.103 217.405C301.05 218.119 302.197 218.517 303.382 218.544H308.787V218.764C308.787 221.243 308.787 223.705 308.787 226.006L308.441 225.828L317.991 218.595L318.05 218.553H318.127C329.124 218.553 339.52 218.604 348.775 218.553C349.869 218.425 350.902 217.985 351.752 217.284C352.601 216.583 353.23 215.652 353.563 214.602C353.808 213.569 353.896 212.506 353.825 211.447V208.275C353.825 204.18 353.825 200.399 353.825 196.956C353.825 193.513 353.825 190.417 353.825 187.701C353.825 186.348 353.825 185.087 353.825 183.937C353.782 182.693 353.342 181.495 352.568 180.519C351.795 179.543 350.729 178.841 349.528 178.514C349.069 178.402 348.603 178.325 348.132 178.286Z" fill="#263238"/>
<path d="M324.513 195.129C324.513 195.29 321.129 204.671 319.742 208.664C319.677 208.857 319.66 209.063 319.69 209.264C319.721 209.465 319.799 209.656 319.918 209.821C320.037 209.987 320.193 210.121 320.375 210.214C320.556 210.307 320.756 210.356 320.96 210.356H339.807C340.083 210.357 340.352 210.27 340.574 210.107C340.797 209.944 340.961 209.714 341.042 209.451L345.517 195.146L324.513 195.129Z" fill="#FF725E"/>
<path d="M347.328 195.189H321.949C321.887 195.189 321.826 195.174 321.771 195.144C321.717 195.114 321.671 195.071 321.638 195.018C321.605 194.966 321.586 194.906 321.583 194.844C321.579 194.782 321.592 194.72 321.619 194.664L323.481 190.807C323.512 190.746 323.559 190.695 323.617 190.659C323.675 190.623 323.742 190.604 323.811 190.604H348.977C349.038 190.603 349.098 190.617 349.151 190.646C349.205 190.674 349.251 190.715 349.284 190.765C349.318 190.816 349.338 190.874 349.344 190.934C349.349 190.995 349.34 191.055 349.316 191.111L347.624 194.969C347.599 195.029 347.559 195.081 347.506 195.12C347.454 195.159 347.392 195.182 347.328 195.189Z" fill="#FF725E"/>
<g opacity="0.4">
<path d="M331.602 210.338H327.939L333.844 195.188H337.287L331.602 210.338Z" fill="white"/>
</g>
<g opacity="0.4">
<path d="M336.205 195.12L332.271 195.137L333.676 190.603H337.609L336.205 195.12Z" fill="white"/>
</g>
<path d="M346.423 195.188C346.423 195.239 341.068 195.272 334.462 195.272C327.855 195.272 322.5 195.272 322.5 195.188C322.5 195.103 327.855 195.095 334.462 195.095C341.068 195.095 346.423 195.137 346.423 195.188Z" fill="#263238"/>
<path d="M334.673 188.843C334.067 188.807 333.483 188.608 332.981 188.268C332.473 187.947 332.008 187.574 331.5 187.27C330.221 186.533 328.708 186.312 327.271 186.652C327.2 186.661 327.134 186.694 327.084 186.745C327.042 186.811 327.024 186.888 327.034 186.965L327.152 192.269C327.141 192.453 327.185 192.636 327.279 192.794C327.374 192.884 327.488 192.95 327.613 192.988C327.738 193.026 327.869 193.035 327.998 193.014C328.85 193.029 329.701 192.953 330.536 192.785C331.364 192.62 332.136 192.244 332.778 191.694C333.065 191.423 333.311 191.119 333.624 190.848C333.912 190.577 334.286 190.415 334.681 190.391L334.673 188.843Z" fill="#FF725E"/>
<path d="M344.232 193.014C344.463 190.819 344.517 188.61 344.393 186.407C342.962 186.106 341.472 186.296 340.163 186.948C338.835 187.515 337.625 188.302 336.272 188.852L335.908 190.366C336.357 190.333 336.805 190.446 337.186 190.687C337.567 190.934 337.924 191.217 338.251 191.533C339.024 192.21 339.894 192.766 340.832 193.183C341.776 193.598 342.827 193.704 343.835 193.487C343.964 193.474 344.082 193.41 344.165 193.31C344.21 193.218 344.233 193.116 344.232 193.014Z" fill="#FF725E"/>
<g opacity="0.3">
<path d="M334.673 188.842C334.067 188.806 333.483 188.607 332.981 188.267C332.473 187.946 332.008 187.573 331.5 187.269C330.221 186.532 328.708 186.311 327.271 186.651C327.2 186.66 327.134 186.693 327.084 186.744C327.042 186.81 327.024 186.887 327.034 186.964L327.152 192.268C327.141 192.452 327.185 192.635 327.279 192.793C327.374 192.883 327.488 192.949 327.613 192.987C327.738 193.025 327.869 193.034 327.998 193.013C328.85 193.028 329.701 192.952 330.536 192.784C331.364 192.619 332.136 192.243 332.778 191.693C333.065 191.423 333.311 191.118 333.624 190.847C333.912 190.576 334.286 190.414 334.681 190.39L334.673 188.842Z" fill="black"/>
</g>
<path d="M334.674 188.843C334.678 188.877 334.678 188.911 334.674 188.945V189.241C334.674 189.512 334.674 189.901 334.674 190.408C334.399 190.412 334.131 190.498 333.904 190.654C333.63 190.846 333.38 191.07 333.16 191.322C332.911 191.611 332.627 191.866 332.314 192.083C331.952 192.32 331.559 192.505 331.146 192.633C330.214 192.914 329.244 193.048 328.27 193.031C328.005 193.057 327.737 193.028 327.483 192.946C327.417 192.917 327.358 192.874 327.31 192.82C327.262 192.766 327.226 192.702 327.204 192.633C327.167 192.498 327.15 192.358 327.153 192.219C327.153 191.677 327.153 191.127 327.153 190.527C327.153 189.681 327.153 188.894 327.094 188.116C327.094 187.727 327.094 187.337 327.094 186.965C327.074 186.864 327.092 186.758 327.145 186.669C327.217 186.595 327.313 186.55 327.416 186.542C327.591 186.499 327.769 186.468 327.949 186.449C328.629 186.362 329.319 186.397 329.987 186.551C330.568 186.689 331.124 186.914 331.637 187.219C332.102 187.498 332.483 187.803 332.847 188.065C333.148 188.274 333.472 188.45 333.811 188.589C334.025 188.68 334.25 188.742 334.479 188.776H334.716H334.471C334.239 188.748 334.012 188.691 333.794 188.606C333.45 188.471 333.124 188.295 332.821 188.082C332.458 187.845 332.068 187.549 331.603 187.236C330.504 186.597 329.227 186.336 327.966 186.492L327.433 186.585C327.34 186.585 327.247 186.585 327.204 186.686C327.162 186.788 327.204 186.838 327.204 186.931C327.204 187.304 327.204 187.684 327.204 188.073C327.204 188.86 327.247 189.664 327.263 190.493C327.263 191.051 327.263 191.609 327.263 192.185C327.26 192.313 327.274 192.441 327.306 192.565C327.324 192.624 327.355 192.679 327.396 192.726C327.437 192.772 327.487 192.81 327.543 192.836C327.786 192.913 328.042 192.939 328.296 192.912C329.259 192.927 330.22 192.799 331.146 192.532C331.552 192.403 331.939 192.221 332.297 191.99C332.609 191.779 332.894 191.529 333.143 191.246C333.37 190.998 333.622 190.774 333.896 190.577C334.147 190.413 334.441 190.328 334.742 190.332C334.742 189.833 334.742 189.444 334.742 189.173V188.767L334.674 188.843Z" fill="#263238"/>
<g opacity="0.3">
<path d="M344.232 193.014C344.463 190.819 344.517 188.61 344.393 186.407C342.962 186.106 341.472 186.296 340.163 186.948C338.835 187.515 337.625 188.302 336.272 188.852L335.908 190.366C336.357 190.333 336.805 190.446 337.186 190.687C337.567 190.934 337.924 191.217 338.251 191.533C339.024 192.21 339.894 192.766 340.832 193.183C341.776 193.598 342.827 193.704 343.835 193.487C343.964 193.474 344.082 193.41 344.165 193.31C344.21 193.218 344.233 193.116 344.232 193.014Z" fill="black"/>
</g>
<path d="M344.232 193.014C344.243 193.073 344.243 193.133 344.232 193.192C344.225 193.23 344.209 193.266 344.186 193.297C344.162 193.328 344.132 193.353 344.097 193.37C344.009 193.424 343.911 193.461 343.809 193.48C343.163 193.621 342.493 193.621 341.847 193.48C340.868 193.251 339.949 192.818 339.148 192.211C338.911 192.041 338.674 191.864 338.446 191.678L337.727 191.086C337.467 190.882 337.183 190.712 336.881 190.578C336.578 190.444 336.247 190.388 335.917 190.417H335.857V190.358C335.976 189.876 336.094 189.368 336.221 188.844C336.874 188.569 337.512 188.262 338.133 187.922C339.134 187.347 340.191 186.877 341.288 186.517C342.283 186.2 343.345 186.162 344.359 186.407C344.465 188.005 344.451 189.608 344.317 191.204C344.317 191.779 344.241 192.228 344.215 192.541C344.215 192.693 344.215 192.811 344.215 192.896V192.541C344.215 192.228 344.266 191.771 344.3 191.196C344.417 189.604 344.417 188.007 344.3 186.416C343.301 186.181 342.256 186.225 341.28 186.543C340.185 186.897 339.13 187.365 338.133 187.939C337.49 188.277 336.856 188.607 336.221 188.869C336.094 189.394 335.967 189.91 335.857 190.392L335.807 190.341C336.151 190.306 336.499 190.365 336.813 190.51C337.119 190.64 337.404 190.814 337.659 191.026C337.913 191.221 338.141 191.424 338.378 191.618C338.615 191.813 338.844 191.982 339.08 192.151C339.872 192.761 340.783 193.196 341.754 193.429C342.394 193.573 343.059 193.573 343.699 193.429C343.798 193.419 343.893 193.387 343.978 193.336C344.011 193.319 344.039 193.297 344.062 193.269C344.086 193.241 344.103 193.209 344.114 193.175C344.232 193.082 344.224 193.014 344.232 193.014Z" fill="#263238"/>
<path d="M334.834 190.771C334.834 190.771 334.437 190.771 333.861 191.736C333.286 192.7 331.408 197.564 331.408 197.564L335.849 200.043L335.9 191.203L334.834 190.771Z" fill="#FF725E"/>
<path d="M336.271 191.102L337.718 197.201L341 194.663C341 194.663 338.556 191.11 336.551 190.653L336.271 191.102Z" fill="#FF725E"/>
<g opacity="0.3">
<path d="M334.836 190.772C334.836 190.772 334.439 190.772 333.863 191.737C333.288 192.701 331.41 197.565 331.41 197.565L335.851 200.044L335.902 191.204L334.836 190.772Z" fill="black"/>
</g>
<g opacity="0.3">
<path d="M336.271 191.103L337.718 197.202L341 194.664C341 194.664 338.556 191.111 336.551 190.654L336.271 191.103Z" fill="black"/>
</g>
<path d="M334.835 190.771H334.911L335.114 190.848L335.909 191.161C335.909 192.768 335.909 196.067 335.909 200.001V200.077H335.85L334.606 199.383L331.35 197.598C332.196 195.5 332.906 193.707 333.481 192.463C333.681 191.963 333.967 191.502 334.327 191.101C334.427 190.999 334.544 190.916 334.674 190.856H334.784H334.683C334.557 190.926 334.443 191.014 334.344 191.118C333.986 191.52 333.7 191.981 333.498 192.48C332.932 193.724 332.212 195.526 331.392 197.624V197.573L334.598 199.358L335.842 200.051H335.774C335.774 196.118 335.825 192.819 335.85 191.211L335.063 190.881L334.86 190.797L334.835 190.771Z" fill="#263238"/>
<path d="M336.273 191.102L336.324 191.017L336.518 190.671C337.278 190.899 337.972 191.309 338.54 191.863C339.462 192.705 340.288 193.647 341.002 194.672L339.496 195.839L337.719 197.218H337.669V197.159C337.254 195.399 336.899 193.868 336.645 192.777C336.518 192.236 336.425 191.804 336.357 191.5L336.281 191.161V191.051C336.281 191.051 336.281 191.051 336.281 191.17L336.366 191.508C336.442 191.813 336.543 192.244 336.679 192.777L337.728 197.142H337.66L339.437 195.755L340.942 194.596V194.646C340.232 193.629 339.415 192.691 338.506 191.846C337.949 191.29 337.268 190.876 336.518 190.637L336.315 190.967L336.256 191.051C336.256 191.051 336.281 191.102 336.273 191.102Z" fill="#263238"/>
<path d="M334.462 189.985H333.886C333.514 189.985 333.04 189.985 332.44 190.027C331.96 190.062 331.483 190.121 331.01 190.205C330.815 190.253 330.617 190.287 330.418 190.307C330.418 190.307 330.469 190.307 330.57 190.256L330.993 190.146C331.467 190.044 331.948 189.973 332.431 189.934C332.916 189.901 333.402 189.901 333.886 189.934H334.326C334.373 189.945 334.419 189.963 334.462 189.985Z" fill="#263238"/>
<path d="M334.419 189.41C334.236 189.377 334.055 189.335 333.877 189.283C333.442 189.187 333.001 189.113 332.558 189.063C332.033 189.004 331.559 188.987 331.213 188.978C331.027 188.993 330.84 188.993 330.654 188.978H330.807H331.213C331.665 188.968 332.117 188.988 332.566 189.037C333.014 189.09 333.457 189.172 333.894 189.283L334.283 189.41C334.376 189.41 334.427 189.41 334.419 189.41Z" fill="#263238"/>
<path d="M341.585 189.334C341.585 189.334 341.323 189.284 340.908 189.216C340.349 189.126 339.782 189.092 339.216 189.114C338.664 189.139 338.117 189.224 337.584 189.368C337.169 189.478 336.924 189.58 336.924 189.563C336.973 189.53 337.028 189.504 337.085 189.487C337.195 189.436 337.364 189.377 337.567 189.309C338.116 189.142 338.685 189.048 339.259 189.03C339.826 189.002 340.394 189.044 340.95 189.157C341.162 189.199 341.331 189.241 341.441 189.275L341.585 189.334Z" fill="#263238"/>
<path d="M340.967 190.714C340.913 190.72 340.859 190.72 340.806 190.714H340.366C339.402 190.698 338.446 190.532 337.532 190.223L337.126 190.071L336.982 190.003C337.175 190.045 337.364 190.098 337.549 190.164C338.008 190.3 338.474 190.41 338.945 190.494C339.495 190.587 340.002 190.629 340.366 190.654C340.567 190.663 340.768 190.683 340.967 190.714Z" fill="#263238"/>
<path d="M336.999 190.256C337.016 189.951 336.982 189.645 336.897 189.351C336.838 189.097 336.847 188.86 336.568 188.657C336.439 188.587 336.296 188.547 336.15 188.538C336.004 188.529 335.858 188.553 335.722 188.607C335.561 188.361 335.189 188.387 334.876 188.505C334.743 188.572 334.629 188.668 334.54 188.787C334.452 188.906 334.393 189.044 334.368 189.19C334.323 189.474 334.346 189.764 334.436 190.036C334.539 190.455 334.766 190.832 335.087 191.119C335.235 191.243 335.412 191.327 335.601 191.364C335.791 191.401 335.986 191.39 336.17 191.331C336.401 191.257 336.604 191.115 336.752 190.923C336.9 190.731 336.986 190.498 336.999 190.256Z" fill="#FF725E"/>
<g opacity="0.3">
<path d="M336.999 190.256C337.016 189.951 336.982 189.645 336.897 189.351C336.838 189.097 336.847 188.86 336.568 188.657C336.439 188.587 336.296 188.547 336.15 188.538C336.004 188.529 335.858 188.553 335.722 188.607C335.561 188.361 335.189 188.387 334.876 188.505C334.743 188.572 334.629 188.668 334.54 188.787C334.452 188.906 334.393 189.044 334.368 189.19C334.323 189.474 334.346 189.764 334.436 190.036C334.539 190.455 334.766 190.832 335.087 191.119C335.235 191.243 335.412 191.327 335.601 191.364C335.791 191.401 335.986 191.39 336.17 191.331C336.401 191.257 336.604 191.115 336.752 190.923C336.9 190.731 336.986 190.498 336.999 190.256Z" fill="black"/>
</g>
<path d="M337 190.256C337 190.256 337 190.256 337 190.349C336.99 190.438 336.973 190.526 336.949 190.612C336.898 190.772 336.813 190.92 336.701 191.045C336.589 191.17 336.451 191.271 336.298 191.339C336.083 191.436 335.845 191.468 335.612 191.432C335.349 191.382 335.108 191.249 334.927 191.051C334.726 190.837 334.57 190.584 334.47 190.307C334.353 190.014 334.296 189.7 334.301 189.385C334.302 189.207 334.348 189.032 334.436 188.876C334.523 188.721 334.648 188.59 334.8 188.497C334.948 188.417 335.114 188.376 335.282 188.378C335.366 188.375 335.449 188.393 335.525 188.43C335.6 188.467 335.665 188.522 335.714 188.59H335.663C335.841 188.51 336.038 188.486 336.23 188.522C336.407 188.541 336.572 188.622 336.695 188.75C336.801 188.865 336.866 189.01 336.881 189.165C336.881 189.3 336.94 189.427 336.957 189.537C336.997 189.715 337.017 189.897 337.017 190.079C337.022 190.126 337.022 190.175 337.017 190.222C337.02 190.239 337.02 190.256 337.017 190.273C337.017 190.273 337.017 190.206 337.017 190.079C337.006 189.902 336.98 189.727 336.94 189.554C336.94 189.436 336.881 189.317 336.856 189.182C336.838 189.037 336.776 188.901 336.678 188.793C336.559 188.683 336.408 188.612 336.247 188.59C336.069 188.562 335.887 188.585 335.722 188.657C335.681 188.601 335.626 188.556 335.562 188.526C335.499 188.496 335.429 188.483 335.359 188.488C335.206 188.484 335.054 188.519 334.919 188.59C334.775 188.678 334.656 188.803 334.576 188.951C334.496 189.1 334.456 189.267 334.462 189.436C334.463 189.725 334.518 190.012 334.623 190.282C334.718 190.547 334.865 190.791 335.054 191.001C335.223 191.194 335.453 191.322 335.705 191.364C335.922 191.405 336.147 191.379 336.348 191.288C336.496 191.226 336.63 191.133 336.74 191.017C336.851 190.901 336.936 190.763 336.991 190.612C337.003 190.494 337.006 190.375 337 190.256Z" fill="#263238"/>
<path d="M334.859 190.925C334.859 190.925 334.969 190.823 335.13 190.654C335.335 190.428 335.493 190.164 335.595 189.876C335.695 189.588 335.735 189.283 335.714 188.979C335.714 188.751 335.663 188.607 335.714 188.599C335.771 188.718 335.806 188.847 335.815 188.979C335.848 189.29 335.813 189.605 335.714 189.901C335.608 190.202 335.434 190.474 335.206 190.697C335.108 190.797 334.99 190.875 334.859 190.925Z" fill="#263238"/>
<path d="M336.957 189.562C336.936 189.681 336.896 189.795 336.838 189.901C336.715 190.163 336.549 190.403 336.348 190.611C336.141 190.817 335.901 190.986 335.637 191.111C335.532 191.168 335.417 191.205 335.299 191.221C335.658 191.048 335.988 190.823 336.28 190.552C336.546 190.252 336.773 189.919 336.957 189.562Z" fill="#263238"/>
<path d="M319.667 200.272C319.667 200.272 316.081 200.356 311.648 200.356C307.215 200.356 303.637 200.314 303.637 200.272C303.637 200.229 307.224 200.179 311.648 200.179C316.072 200.179 319.667 200.221 319.667 200.272Z" fill="#263238"/>
<path d="M317.373 204.934C317.373 204.976 315.411 205.018 313 205.018C310.589 205.018 308.635 205.018 308.635 204.934C308.635 204.849 310.589 204.841 313 204.841C315.411 204.841 317.373 204.883 317.373 204.934Z" fill="#263238"/>
<path d="M305.311 205.229C304.814 205.316 304.309 205.345 303.805 205.314C303.299 205.344 302.791 205.316 302.291 205.229C302.791 205.143 303.299 205.114 303.805 205.145C304.309 205.114 304.814 205.142 305.311 205.229Z" fill="#263238"/>
<path d="M312.89 195.205C310.56 195.329 308.225 195.329 305.895 195.205C305.895 195.205 307.46 195.12 309.388 195.12C311.317 195.12 312.89 195.162 312.89 195.205Z" fill="#263238"/>
<path d="M318.752 195.128C317.443 195.241 316.127 195.241 314.818 195.128C316.127 195.004 317.444 195.004 318.752 195.128Z" fill="#263238"/>
<path d="M319.921 190.4C318.132 190.512 316.338 190.512 314.549 190.4C316.337 190.276 318.132 190.276 319.921 190.4Z" fill="#263238"/>
<path d="M312.89 209.874C313.806 209.874 314.549 209.836 314.549 209.79C314.549 209.743 313.806 209.705 312.89 209.705C311.975 209.705 311.232 209.743 311.232 209.79C311.232 209.836 311.975 209.874 312.89 209.874Z" fill="#263238"/>
</svg>
