<svg width="40" height="40" viewBox="0 0 40 40" fill="none" xmlns="http://www.w3.org/2000/svg">
<g clip-path="url(#clip0_403_72953)">
<circle cx="20" cy="20.0003" r="17.1429" fill="#511B4B"/>
<path d="M20.0002 37.2782C16.5832 37.2782 13.2429 36.2649 10.4017 34.3665C7.56056 32.4681 5.34615 29.7699 4.03851 26.6129C2.73087 23.456 2.38874 19.9822 3.05537 16.6309C3.72199 13.2795 5.36745 10.2011 7.78365 7.78487C10.1999 5.36867 13.2783 3.72321 16.6296 3.05659C19.981 2.38996 23.4548 2.7321 26.6117 4.03973C29.7686 5.34737 32.4669 7.56178 34.3653 10.4029C36.2637 13.2441 37.277 16.5844 37.277 20.0014C37.2727 24.5822 35.4511 28.9741 32.212 32.2132C28.9729 35.4523 24.581 37.2739 20.0002 37.2782ZM20.0002 5.13533C17.06 5.13533 14.1857 6.00721 11.741 7.64072C9.29632 9.27422 7.3909 11.596 6.26572 14.3124C5.14055 17.0288 4.84615 20.0179 5.41976 22.9016C5.99337 25.7854 7.40922 28.4342 9.48828 30.5133C11.5673 32.5924 14.2162 34.0082 17.1 34.5818C19.9837 35.1554 22.9728 34.861 25.6892 33.7359C28.4056 32.6107 30.7274 30.7053 32.3609 28.2606C33.9944 25.8158 34.8663 22.9416 34.8663 20.0014C34.862 16.06 33.2944 12.2812 30.5074 9.4942C27.7204 6.70719 23.9416 5.13959 20.0002 5.13533Z" fill="black"/>
<path d="M21.6074 29.2427H18.3931C18.0734 29.2427 17.7668 29.1158 17.5408 28.8897C17.3147 28.6637 17.1877 28.3571 17.1877 28.0374C17.1877 27.7177 17.3147 27.4111 17.5408 27.1851C17.7668 26.959 18.0734 26.832 18.3931 26.832H21.6074C21.9271 26.832 22.2337 26.959 22.4597 27.1851C22.6858 27.4111 22.8127 27.7177 22.8127 28.0374C22.8127 28.3571 22.6858 28.6637 22.4597 28.8897C22.2337 29.1158 21.9271 29.2427 21.6074 29.2427Z" fill="#511B4B"/>
<path d="M20.0001 29.2428C19.6817 29.2387 19.3775 29.1103 19.1524 28.8852C18.9272 28.66 18.7989 28.3559 18.7947 28.0375V17.9285C18.5233 17.8362 18.2936 17.6501 18.147 17.4037C18.0004 17.1572 17.9464 16.8666 17.9948 16.584C18.0432 16.3013 18.1908 16.0452 18.4111 15.8616C18.6313 15.678 18.9098 15.5789 19.1965 15.5821H20.0001C20.3185 15.5863 20.6227 15.7146 20.8478 15.9398C21.073 16.1649 21.2013 16.4691 21.2055 16.7875V28.0375C21.2013 28.3559 21.073 28.66 20.8478 28.8852C20.6227 29.1103 20.3185 29.2387 20.0001 29.2428Z" fill="white"/>
<path d="M20.0002 13.5737C20.8878 13.5737 21.6074 12.8541 21.6074 11.9665C21.6074 11.0789 20.8878 10.3594 20.0002 10.3594C19.1126 10.3594 18.3931 11.0789 18.3931 11.9665C18.3931 12.8541 19.1126 13.5737 20.0002 13.5737Z" fill="white"/>
</g>
<defs>
<clipPath id="clip0_403_72953">
<rect width="38.5714" height="38.5714" fill="white" transform="translate(0.714355 0.714844)"/>
</clipPath>
</defs>
</svg>
