<svg width="28" height="28" viewBox="0 0 28 28" fill="none" xmlns="http://www.w3.org/2000/svg">
<circle cx="14" cy="14" r="14" fill="#E0C7DD"/>
<path d="M13.9102 5C10.7473 5 8.10938 7.54777 8.10938 10.8008C8.10938 12.0383 8.48126 13.1419 9.19496 14.176L13.4662 20.8409C13.6734 21.1649 14.1473 21.1643 14.3541 20.8409L18.6439 14.1533C19.3422 13.1661 19.7109 12.0069 19.7109 10.8008C19.7109 7.60223 17.1087 5 13.9102 5ZM13.9102 13.4375C12.4563 13.4375 11.2734 12.2546 11.2734 10.8008C11.2734 9.34696 12.4563 8.16406 13.9102 8.16406C15.364 8.16406 16.5469 9.34696 16.5469 10.8008C16.5469 12.2546 15.364 13.4375 13.9102 13.4375Z" fill="#511B4B"/>
<path d="M18.0327 17.1182L15.3773 21.2697C14.69 22.3413 13.1265 22.3378 12.4424 21.2707L9.78274 17.1193C7.4426 17.6603 6 18.6515 6 19.8359C6 21.8912 10.0756 23 13.9102 23C17.7447 23 21.8203 21.8912 21.8203 19.8359C21.8203 18.6506 20.3757 17.6589 18.0327 17.1182Z" fill="black"/>
</svg>
