<svg width="17" height="23" viewBox="0 0 17 23" fill="none" xmlns="http://www.w3.org/2000/svg">
<path d="M15.4009 19.0197L15.4029 19.0212C15.5 19.0952 15.625 19.1819 15.7557 19.2725L15.7593 19.2751C15.8934 19.3681 16.0364 19.4673 16.1751 19.5696C16.3706 19.7139 16.539 19.8513 16.6568 19.9722C14.5807 21.7843 11.4424 22.75 8.50235 22.75C5.56824 22.75 2.42995 21.7757 0.344352 19.9717C0.46308 19.8505 0.632124 19.714 0.828 19.571C0.963066 19.4725 1.10197 19.377 1.23295 19.2871L1.24438 19.2792C1.3765 19.1884 1.50328 19.1012 1.6018 19.0262L1.6028 19.0254C2.21514 18.5544 3.31599 17.7646 4.51914 17.1865C5.83773 16.5534 6.60677 15.0748 6.40253 13.5909L6.40084 13.5786L6.39909 13.5713C6.39895 13.5702 6.39876 13.5686 6.39853 13.5666L6.39827 13.5643C6.39721 13.5547 6.39504 13.5351 6.39087 13.5135L6.37185 13.4144L6.28951 13.3563L6.2895 13.3563L6.28942 13.3563L6.28934 13.3562L6.28826 13.3555L6.28318 13.3518L6.26183 13.3363C6.24279 13.3224 6.21443 13.3014 6.17817 13.2738C6.10563 13.2185 6.00167 13.1369 5.8778 13.033C5.62954 12.8246 5.30383 12.5285 4.99116 12.1758C4.34979 11.4525 3.83113 10.5681 4.00006 9.73977L4.06477 9.42246L3.74189 9.44016L3.74186 9.44016L3.74172 9.44017L3.74158 9.44018L3.7415 9.44018L3.74146 9.44018L3.74142 9.44019L3.74032 9.44023L3.7316 9.44054C3.72339 9.44078 3.71057 9.44105 3.69392 9.44105C3.66098 9.44105 3.61374 9.44 3.55814 9.43579C3.11699 9.39243 2.86244 9.04282 2.83371 8.63346C2.8047 8.2201 3.01191 7.83492 3.42293 7.72925L3.68242 7.66254L3.59793 7.40828L3.08702 5.87089L3.08641 5.86857C3.08487 5.86266 3.08247 5.85321 3.07938 5.84039C3.07322 5.81475 3.06435 5.77569 3.05431 5.72471C3.03419 5.62267 3.00942 5.47329 2.99197 5.28832C2.95698 4.91758 2.95187 4.40877 3.06947 3.85377C3.30186 2.75692 4.01676 1.45481 6.00828 0.676305L6.00861 0.676175C8.0024 -0.10649 9.44676 0.317412 10.3944 0.919872C10.873 1.22419 11.2297 1.57759 11.4667 1.85522C11.585 1.99378 11.6727 2.11267 11.7303 2.19589C11.7591 2.23747 11.7803 2.27006 11.7939 2.29164C11.8007 2.30243 11.8056 2.31046 11.8087 2.31548L11.8118 2.32071L11.8121 2.32123L11.8122 2.32143L11.8123 2.32155L11.8123 2.32157L11.897 2.46737L12.0642 2.44313C12.6813 2.3537 13.0434 2.51928 13.2698 2.78847C13.5122 3.07652 13.6383 3.52827 13.6719 4.08008C13.7387 5.17878 13.4306 6.50583 13.2461 7.17845L13.231 7.23345L13.2413 7.28955L13.2793 7.49744L13.3168 7.70247H13.505C13.5066 7.70276 13.5083 7.70305 13.51 7.70333C13.5144 7.70406 13.5201 7.70491 13.5268 7.70564C13.9696 7.78471 14.1948 8.16766 14.1777 8.59015C14.1606 9.01502 13.9017 9.38554 13.4464 9.43085C13.3908 9.43507 13.3447 9.4361 13.3132 9.4361C13.2972 9.4361 13.2851 9.43584 13.2774 9.4356L13.2695 9.43531L13.2688 9.43528L13.2688 9.43528L13.2687 9.43527L13.2686 9.43527L13.2685 9.43526L13.2683 9.43525L13.2682 9.43525L12.9453 9.41656L13.0093 9.73423C13.1762 10.5627 12.6562 11.4474 12.0142 12.1708C11.7012 12.5235 11.3754 12.8196 11.127 13.028C11.0031 13.132 10.8991 13.2136 10.8266 13.2688C10.7903 13.2964 10.7619 13.3175 10.7429 13.3314L10.7215 13.3469L10.7164 13.3505L10.7154 13.3513L10.7153 13.3513L10.7152 13.3514L10.7152 13.3514L10.6329 13.4095L10.6138 13.5085C10.6137 13.5092 10.6134 13.5105 10.6131 13.5121C10.6105 13.5242 10.6031 13.5594 10.6006 13.5971C10.397 15.0776 11.1659 16.5502 12.4856 17.1816C13.6846 17.7599 14.7904 18.5452 15.4009 19.0197ZM3.08833 5.8758C3.08835 5.87586 3.08835 5.87585 3.08833 5.8758L3.08833 5.8758Z" fill="#511B4B" stroke="white" stroke-width="0.5"/>
</svg>
