<svg width="40" height="40" viewBox="0 0 40 40" fill="none" xmlns="http://www.w3.org/2000/svg">
<g clip-path="url(#clip0_403_72967)">
<ellipse cx="28.954" cy="11.7348" rx="4.82143" ry="5.5102" fill="white"/>
<path fill-rule="evenodd" clip-rule="evenodd" d="M9.15179 24.8375C5.83344 24.8375 3.125 27.5459 3.125 30.8643C3.125 34.1826 5.83344 36.891 9.15179 36.891H26.0268C29.3451 36.891 32.0536 34.1814 32.0536 30.8643C32.0536 27.5471 29.3451 24.8375 26.0268 24.8375H9.15179ZM17.5893 6.74023C12.9438 6.74023 9.15179 10.5323 9.15179 15.1777C9.15179 19.8232 12.9438 23.6152 17.5893 23.6152C18.891 23.614 20.1748 23.3114 21.34 22.7311C22.5052 22.1507 23.5202 21.3085 24.3055 20.2704C21.0523 18.7179 18.7946 15.3947 18.7946 11.5617C18.7942 9.99523 19.1783 8.45265 19.9132 7.0693C19.1578 6.85127 18.3755 6.7405 17.5893 6.74023Z" fill="black"/>
<path fill-rule="evenodd" clip-rule="evenodd" d="M28.4375 4.33008C24.4284 4.33008 21.2053 7.5532 21.2053 11.5622C21.2053 15.5712 24.4284 18.7944 28.4375 18.7944C32.4465 18.7944 35.6696 15.5712 35.6696 11.5622C35.6696 7.5532 32.4465 4.33008 28.4375 4.33008ZM28.4375 6.74079C28.7571 6.74079 29.0637 6.86779 29.2898 7.09383C29.5158 7.31988 29.6428 7.62647 29.6428 7.94615V11.5622C29.6428 11.8819 29.5158 12.1885 29.2898 12.4145C29.0637 12.6406 28.7571 12.7676 28.4375 12.7676C28.1178 12.7676 27.8112 12.6406 27.5851 12.4145C27.3591 12.1885 27.2321 11.8819 27.2321 11.5622V7.94615C27.2321 7.62647 27.3591 7.31988 27.5851 7.09383C27.8112 6.86779 28.1178 6.74079 28.4375 6.74079ZM28.4375 13.9729C28.7571 13.9729 29.0637 14.0999 29.2898 14.326C29.5158 14.552 29.6428 14.8586 29.6428 15.1783C29.6428 15.498 29.5158 15.8046 29.2898 16.0306C29.0637 16.2567 28.7571 16.3836 28.4375 16.3836C28.1178 16.3836 27.8112 16.2567 27.5851 16.0306C27.3591 15.8046 27.2321 15.498 27.2321 15.1783C27.2321 14.8586 27.3591 14.552 27.5851 14.326C27.8112 14.0999 28.1178 13.9729 28.4375 13.9729Z" fill="#511B4B"/>
</g>
<defs>
<clipPath id="clip0_403_72967">
<rect width="38.5714" height="38.5714" fill="white" transform="translate(0.714233 0.714844)"/>
</clipPath>
</defs>
</svg>
