<svg width="80" height="80" viewBox="0 0 80 80" fill="none" xmlns="http://www.w3.org/2000/svg">
<g clip-path="url(#clip0_10_3413)">
<path d="M35.5222 44.4224H9.54192C7.48338 44.4224 5.79897 46.1065 5.79897 48.165V76.2576C5.79897 78.3161 7.48338 80.0003 9.54192 80.0003H35.9591C36.8396 80.0003 36.8396 79.0543 36.8396 79.0543V45.6942C36.8393 45.6942 36.8393 44.4224 35.5222 44.4224ZM70.4588 44.4224H44.5049C42.9241 44.4224 43.1608 46.0686 43.1608 46.0686V79.0848C43.1608 79.0848 43.148 79.9995 44.0989 79.9995H70.4582C72.5168 79.9995 74.2012 78.3153 74.2012 76.2568V48.165C74.2017 46.1065 72.5173 44.4224 70.4588 44.4224ZM36.8393 22.3186C36.8393 22.3186 36.8393 21.0503 35.586 21.0503H5.31521C3.25667 21.0503 1.57227 22.7347 1.57227 24.793V36.4764C1.57227 38.535 3.25667 40.2191 5.31521 40.2191H35.6886C36.8393 40.2191 36.8393 39.2211 36.8393 39.2211V22.3186ZM74.6852 21.0503H44.3178C43.1614 21.0503 43.1614 22.1523 43.1614 22.1523V39.2442C43.1614 39.2442 43.1614 40.2191 44.5674 40.2191H74.6852C76.7437 40.2191 78.4281 38.535 78.4281 36.4764V24.793C78.4281 22.7347 76.7437 21.0503 74.6852 21.0503ZM24.1088 18.2812C22.3963 18.2812 20.8321 18.1454 19.4605 17.8773C15.9766 17.1967 13.5821 15.8719 12.1401 13.8279C10.8481 11.9959 10.4527 9.7375 10.9645 7.11504C11.8611 2.52675 14.9425 0 19.6405 0C20.6347 0 21.7265 0.114803 22.886 0.341408C25.8354 0.917603 29.6078 2.60883 32.9775 4.86534C38.6944 8.69419 38.9772 11.0745 38.6925 12.532C38.2739 14.6737 36.2721 16.2041 32.5725 17.2109C30.073 17.8909 26.9881 18.2812 24.1088 18.2812ZM19.6407 5.99892C17.8213 5.99892 17.1961 6.50721 16.8527 8.26525C16.5719 9.7026 16.9261 10.2046 17.0423 10.3696C17.5287 11.0595 18.7959 11.6349 20.6107 11.9891C21.5899 12.1805 22.7998 12.2817 24.1085 12.2817C26.9862 12.2817 29.5214 11.8457 31.2036 11.3687C31.3261 11.3341 31.5161 11.1893 31.3124 11.068C29.1132 9.27638 25.0896 6.88407 21.7358 6.22879C20.9546 6.07663 20.2494 5.99892 19.6407 5.99892ZM55.9784 18.2812H55.9778C53.0985 18.2812 50.0138 17.8909 47.5143 17.2109C43.8145 16.2044 41.8129 14.6737 41.3943 12.5323C41.1099 11.0748 41.3922 8.69446 47.1096 4.86561C50.4787 2.6091 54.2511 0.917876 57.2011 0.341681C58.3606 0.115075 59.4524 0.00027269 60.4458 0.00027269C65.1448 0.00027269 68.226 2.52729 69.1218 7.11558C69.6341 9.73777 69.239 11.9962 67.9467 13.8281C66.5048 15.8725 64.1105 17.1969 60.6258 17.8776C59.2547 18.1451 57.6906 18.2812 55.9784 18.2812ZM48.8224 11.0309C48.6274 11.144 48.7218 11.3227 48.823 11.3518C50.5044 11.8353 53.0663 12.282 55.9778 12.282C57.287 12.282 58.4964 12.1808 59.4759 11.9894C61.2904 11.6349 62.5581 11.0598 63.0443 10.3699C63.161 10.2049 63.5155 9.70287 63.2338 8.26552C62.8908 6.50748 62.2652 5.99919 60.4456 5.99919C59.8372 5.99919 59.1326 6.07663 58.3508 6.22934C54.9967 6.88434 51.0217 9.23902 48.8224 11.0309Z" fill="#511B4B"/>
</g>
<defs>
<clipPath id="clip0_10_3413">
<rect width="80" height="80" fill="white"/>
</clipPath>
</defs>
</svg>
