<svg width="62" height="62" viewBox="0 0 62 62" fill="none" xmlns="http://www.w3.org/2000/svg">
<path d="M29.0871 11.1085V15.2923C29.0871 16.0845 28.8629 16.8605 28.4406 17.5308C28.0183 18.201 27.415 18.7381 26.7004 19.0801L21.0842 21.7674C19.0726 22.7307 16.7174 21.3935 16.5122 19.1729L16.2952 16.8098C16.1969 15.7489 16.4075 14.6822 16.9017 13.7382C17.6285 12.3515 17.5383 10.6811 16.6743 9.37539C15.46 7.53771 14.9411 5.24912 15.375 2.93827C15.6956 1.23432 17.1838 0 18.9176 0H18.9182C19.9273 2.45729e-06 20.9264 0.198789 21.8586 0.585004C22.7908 0.97122 23.6378 1.5373 24.3512 2.25091L26.1711 4.07145C28.0377 5.93772 29.0866 8.46898 29.0871 11.1085Z" fill="url(#paint0_linear_560_20562)"/>
<path d="M28.6242 8.10645H15.9795C16.1764 8.54897 16.4099 8.97325 16.6761 9.37687C17.5405 10.6826 17.6304 12.353 16.9034 13.7389C16.4095 14.6831 16.1988 15.7499 16.2968 16.811L16.5144 19.1744C16.7199 21.3943 19.0747 22.7316 21.0855 21.7687L26.7021 19.0808C27.4167 18.739 28.02 18.202 28.4423 17.5319C28.8646 16.8618 29.0887 16.0859 29.0886 15.2938V11.1093C29.0886 10.0808 28.9293 9.0693 28.6242 8.10645Z" fill="url(#paint1_linear_560_20562)"/>
<path d="M28.4248 13.4796C28.4248 9.74136 25.1186 6.71094 21.0401 6.71094C19.1542 6.71094 17.4345 7.35977 16.1294 8.42595C16.2908 8.75399 16.4724 9.07167 16.6733 9.37713C17.5372 10.6828 17.6274 12.3532 16.9008 13.74C16.4066 14.6839 16.196 15.7506 16.2942 16.8115L16.4767 18.7992C17.7331 19.7059 19.317 20.2483 21.0401 20.2483C25.1187 20.2482 28.4248 17.2178 28.4248 13.4796Z" fill="url(#paint2_linear_560_20562)"/>
<path d="M24.0966 16.9951C27.2636 16.9951 29.8309 15.5002 29.8309 13.6562C29.8309 11.8122 27.2636 10.3174 24.0966 10.3174C20.9296 10.3174 18.3623 11.8122 18.3623 13.6562C18.3623 15.5002 20.9296 16.9951 24.0966 16.9951Z" fill="url(#paint3_linear_560_20562)"/>
<path d="M45.0974 13.7382C45.5928 14.6817 45.8034 15.7488 45.7038 16.8098L45.4868 19.1729C45.2829 21.3935 42.9276 22.7306 40.9148 21.7673L35.2998 19.0801C33.8412 18.3835 32.9131 16.9091 32.9131 15.2923V11.108C32.9131 8.46876 33.9615 5.93758 35.8278 4.07132L37.6494 2.25005C38.3627 1.53668 39.2096 0.970808 40.1416 0.584742C41.0736 0.198675 42.0726 -2.12389e-05 43.0814 1.70278e-09C44.8152 1.70278e-09 46.3034 1.23432 46.624 2.93815C47.0592 5.24899 46.539 7.53759 45.3247 9.37527C44.4622 10.6811 44.3721 12.3515 45.0974 13.7382Z" fill="url(#paint4_linear_560_20562)"/>
<path d="M45.3256 9.37687C45.5918 8.97325 45.8253 8.54897 46.0222 8.10645H33.3775C33.0696 9.07765 32.913 10.0904 32.9131 11.1093V15.2938C32.9131 16.9107 33.8419 18.3841 35.2995 19.0808L40.915 21.7687C42.9282 22.7316 45.283 21.3943 45.4873 19.1744L45.7037 16.811C45.8035 15.7498 45.5927 14.6825 45.097 13.7389C44.3725 12.353 44.4624 10.6826 45.3256 9.37687Z" fill="url(#paint5_linear_560_20562)"/>
<path d="M33.5742 13.4796C33.5742 9.74136 36.8805 6.71094 40.959 6.71094C42.8448 6.71094 44.5646 7.35977 45.8696 8.42595C45.7083 8.75402 45.5266 9.0717 45.3257 9.37713C44.4618 10.6828 44.3716 12.3532 45.0983 13.74C45.5924 14.6839 45.8031 15.7506 45.7048 16.8115L45.5223 18.7992C44.266 19.7059 42.682 20.2483 40.959 20.2483C36.8804 20.2482 33.5742 17.2178 33.5742 13.4796Z" fill="url(#paint6_linear_560_20562)"/>
<path d="M37.9037 16.9951C41.0707 16.9951 43.6381 15.5002 43.6381 13.6562C43.6381 11.8122 41.0707 10.3174 37.9037 10.3174C34.7368 10.3174 32.1694 11.8122 32.1694 13.6562C32.1694 15.5002 34.7368 16.9951 37.9037 16.9951Z" fill="url(#paint7_linear_560_20562)"/>
<path d="M35.5978 13.5904C35.634 16.1281 33.6057 18.2147 31.0676 18.2509C28.5294 18.2871 26.4425 16.2592 26.4062 13.7215C26.37 11.1838 28.3983 9.09725 30.9365 9.06102C33.4747 9.02491 35.5617 11.0527 35.5978 13.5904Z" fill="url(#paint8_linear_560_20562)"/>
<path d="M56.1899 61.3516H5.80801C4.18247 61.3516 2.86475 60.0339 2.86475 58.4083V27.7235C2.86475 26.098 4.18247 24.7803 5.80801 24.7803H56.1899C57.8154 24.7803 59.1332 26.098 59.1332 27.7235V58.4082C59.1332 60.0339 57.8154 61.3516 56.1899 61.3516Z" fill="url(#paint9_linear_560_20562)"/>
<path d="M56.1899 24.7803H5.80801C4.18247 24.7803 2.86475 26.098 2.86475 27.7235V30.8126C2.86475 30.8126 19.4253 48.2454 32.3997 61.3514H56.1899C57.8154 61.3514 59.1332 60.0337 59.1332 58.4082V27.7234C59.1332 26.098 57.8154 24.7803 56.1899 24.7803Z" fill="url(#paint10_linear_560_20562)"/>
<path d="M31 24.7803H49.6816V61.3514H31V24.7803Z" fill="url(#paint11_linear_560_20562)"/>
<path d="M2.86475 46.5625V58.4105C2.86475 60.0361 4.18247 61.3538 5.80801 61.3538H56.1899C57.8154 61.3538 59.1332 60.0361 59.1332 58.4105V46.5625H2.86475Z" fill="url(#paint12_linear_560_20562)"/>
<path d="M35.3904 61.9998H26.6143C25.7351 61.9998 25.0225 61.2871 25.0225 60.4079V26.3721C25.0225 25.4929 25.7351 24.7803 26.6143 24.7803H35.3904C36.2696 24.7803 36.9822 25.4929 36.9822 26.3721V60.4079C36.9822 61.2871 36.2696 61.9998 35.3904 61.9998Z" fill="url(#paint13_linear_560_20562)"/>
<path d="M25.0225 26.3721V53.8333C27.5205 56.3954 30.0222 58.9463 32.4032 61.3514H36.6705C36.8731 61.0786 36.9824 60.7478 36.9824 60.4079V26.3721C36.9824 25.4929 36.2697 24.7803 35.3905 24.7803H26.6144C25.7351 24.7803 25.0225 25.4929 25.0225 26.3721Z" fill="url(#paint14_linear_560_20562)"/>
<path d="M57.9108 31.0017H4.0909C1.8316 31.0017 0 29.1701 0 26.9108V21.0343C0 18.775 1.8316 16.9434 4.0909 16.9434H57.9108C60.1701 16.9434 62.0017 18.775 62.0017 21.0343V26.9108C62.0017 29.1701 60.1701 31.0017 57.9108 31.0017Z" fill="url(#paint15_linear_560_20562)"/>
<path d="M57.9098 16.9434H21.7467L17.229 21.4611L26.7697 31.0017H57.9098C60.1691 31.0017 62.0007 29.1701 62.0007 26.9108V21.0343C62.0007 18.7748 60.1691 16.9434 57.9098 16.9434Z" fill="url(#paint16_linear_560_20562)"/>
<path d="M31 16.9434H49.6816V31.0017H31V16.9434Z" fill="url(#paint17_linear_560_20562)"/>
<path d="M55.3351 31.0001H31V20.4307H44.7656L55.3351 31.0001Z" fill="url(#paint18_linear_560_20562)"/>
<path d="M36.1789 31.7347H25.8261C25.6129 31.7347 25.4085 31.65 25.2578 31.4993C25.1071 31.3486 25.0225 31.1442 25.0225 30.9311V17.0136C25.0225 16.8004 25.1071 16.596 25.2578 16.4453C25.4085 16.2946 25.6129 16.21 25.8261 16.21H36.1789C36.392 16.21 36.5964 16.2946 36.7471 16.4453C36.8978 16.596 36.9825 16.8004 36.9825 17.0136V30.9311C36.9824 31.1442 36.8978 31.3486 36.7471 31.4993C36.5964 31.65 36.392 31.7347 36.1789 31.7347Z" fill="url(#paint19_linear_560_20562)"/>
<path d="M36.9827 17.0136V30.9311C36.9827 31.1442 36.8981 31.3486 36.7474 31.4993C36.5966 31.65 36.3923 31.7347 36.1791 31.7347H27.505L25.0225 29.2522V17.0136C25.0225 16.9892 25.0237 16.9661 25.0261 16.943C25.0436 16.7429 25.1355 16.5567 25.2836 16.421C25.4316 16.2853 25.6252 16.21 25.8261 16.21H36.1791C36.5985 16.21 36.9438 16.5321 36.9791 16.943C36.9815 16.9661 36.9827 16.9892 36.9827 17.0136Z" fill="url(#paint20_linear_560_20562)"/>
<path d="M31.0017 16.212L30.9055 16.1481C27.626 13.9696 23.2653 14.4051 20.4813 17.1891L17.2364 20.434C16.7762 20.8943 17.1022 21.6812 17.753 21.6812H18.1291C19.3719 21.6812 20.3792 22.6885 20.3792 23.9313C20.3792 24.5821 21.1661 24.9081 21.6264 24.4478L28.9156 17.1586C29.4734 16.6008 30.2146 16.2645 31.0017 16.212Z" fill="url(#paint21_linear_560_20562)"/>
<path d="M31 16.212L31.0962 16.1481C34.3757 13.9696 38.7364 14.4051 41.5204 17.1891L44.7652 20.434C45.2255 20.8943 44.8996 21.6812 44.2487 21.6812H43.8725C42.6298 21.6812 41.6225 22.6885 41.6225 23.9313C41.6225 24.5821 40.8355 24.9081 40.3753 24.4478L33.0861 17.1586C32.5283 16.6008 31.7871 16.2645 31 16.212Z" fill="url(#paint22_linear_560_20562)"/>
<defs>
<linearGradient id="paint0_linear_560_20562" x1="17.5433" y1="8.34738" x2="28.2755" y2="19.0796" gradientUnits="userSpaceOnUse">
<stop stop-color="#FEE45A"/>
<stop offset="1" stop-color="#FEA613"/>
</linearGradient>
<linearGradient id="paint1_linear_560_20562" x1="22.1772" y1="11.8858" x2="23.3119" y2="16.9107" gradientUnits="userSpaceOnUse">
<stop stop-color="#FEA613" stop-opacity="0"/>
<stop offset="1" stop-color="#E94444"/>
</linearGradient>
<linearGradient id="paint2_linear_560_20562" x1="23.5703" y1="11.3899" x2="32.8503" y2="3.72197" gradientUnits="userSpaceOnUse">
<stop stop-color="#FEA613" stop-opacity="0"/>
<stop offset="1" stop-color="#E94444"/>
</linearGradient>
<linearGradient id="paint3_linear_560_20562" x1="24.0108" y1="14.0979" x2="25.4921" y2="6.47352" gradientUnits="userSpaceOnUse">
<stop stop-color="#FEA613" stop-opacity="0"/>
<stop offset="1" stop-color="#E94444"/>
</linearGradient>
<linearGradient id="paint4_linear_560_20562" x1="38.871" y1="8.64316" x2="48.524" y2="18.2962" gradientUnits="userSpaceOnUse">
<stop stop-color="#FEE45A"/>
<stop offset="1" stop-color="#FEA613"/>
</linearGradient>
<linearGradient id="paint5_linear_560_20562" x1="40.198" y1="11.3123" x2="38.577" y2="16.4994" gradientUnits="userSpaceOnUse">
<stop stop-color="#FEA613" stop-opacity="0"/>
<stop offset="1" stop-color="#E94444"/>
</linearGradient>
<linearGradient id="paint6_linear_560_20562" x1="38.4287" y1="11.3899" x2="29.1488" y2="3.72197" gradientUnits="userSpaceOnUse">
<stop stop-color="#FEA613" stop-opacity="0"/>
<stop offset="1" stop-color="#E94444"/>
</linearGradient>
<linearGradient id="paint7_linear_560_20562" x1="37.9896" y1="14.0979" x2="36.5083" y2="6.47352" gradientUnits="userSpaceOnUse">
<stop stop-color="#FEA613" stop-opacity="0"/>
<stop offset="1" stop-color="#E94444"/>
</linearGradient>
<linearGradient id="paint8_linear_560_20562" x1="29.494" y1="11.5382" x2="33.796" y2="17.5707" gradientUnits="userSpaceOnUse">
<stop stop-color="#FEE45A"/>
<stop offset="1" stop-color="#FEA613"/>
</linearGradient>
<linearGradient id="paint9_linear_560_20562" x1="24.5263" y1="29.5959" x2="42.519" y2="67.0401" gradientUnits="userSpaceOnUse">
<stop stop-color="#D9B1EE"/>
<stop offset="1" stop-color="#814AA0"/>
</linearGradient>
<linearGradient id="paint10_linear_560_20562" x1="30.999" y1="49.4779" x2="30.999" y2="28.3953" gradientUnits="userSpaceOnUse">
<stop stop-color="#5B3374" stop-opacity="0"/>
<stop offset="1" stop-color="#5B3374"/>
</linearGradient>
<linearGradient id="paint11_linear_560_20562" x1="44.7376" y1="43.0658" x2="36.0413" y2="43.0658" gradientUnits="userSpaceOnUse">
<stop stop-color="#5B3374" stop-opacity="0"/>
<stop offset="1" stop-color="#5B3374"/>
</linearGradient>
<linearGradient id="paint12_linear_560_20562" x1="30.999" y1="55.0321" x2="30.999" y2="60.7053" gradientUnits="userSpaceOnUse">
<stop stop-color="#5B3374" stop-opacity="0"/>
<stop offset="1" stop-color="#5B3374"/>
</linearGradient>
<linearGradient id="paint13_linear_560_20562" x1="25.0225" y1="43.39" x2="36.9822" y2="43.39" gradientUnits="userSpaceOnUse">
<stop stop-color="#FEE45A"/>
<stop offset="1" stop-color="#FEA613"/>
</linearGradient>
<linearGradient id="paint14_linear_560_20562" x1="31.0023" y1="41.4136" x2="31.0023" y2="29.2984" gradientUnits="userSpaceOnUse">
<stop stop-color="#FEA613" stop-opacity="0"/>
<stop offset="1" stop-color="#E94444"/>
</linearGradient>
<linearGradient id="paint15_linear_560_20562" x1="31.0009" y1="17.5072" x2="31.0009" y2="31.984" gradientUnits="userSpaceOnUse">
<stop stop-color="#D9B1EE"/>
<stop offset="1" stop-color="#814AA0"/>
</linearGradient>
<linearGradient id="paint16_linear_560_20562" x1="40.4256" y1="21.86" x2="31.6724" y2="8.60862" gradientUnits="userSpaceOnUse">
<stop stop-color="#5B3374" stop-opacity="0"/>
<stop offset="1" stop-color="#5B3374"/>
</linearGradient>
<linearGradient id="paint17_linear_560_20562" x1="44.7376" y1="23.9725" x2="36.0413" y2="23.9725" gradientUnits="userSpaceOnUse">
<stop stop-color="#5B3374" stop-opacity="0"/>
<stop offset="1" stop-color="#5B3374"/>
</linearGradient>
<linearGradient id="paint18_linear_560_20562" x1="43.7428" y1="32.7815" x2="39.9741" y2="21.1106" gradientUnits="userSpaceOnUse">
<stop stop-color="#5B3374" stop-opacity="0"/>
<stop offset="1" stop-color="#5B3374"/>
</linearGradient>
<linearGradient id="paint19_linear_560_20562" x1="27.9351" y1="21.7229" x2="35.2294" y2="27.0721" gradientUnits="userSpaceOnUse">
<stop stop-color="#FEE45A"/>
<stop offset="1" stop-color="#FEA613"/>
</linearGradient>
<linearGradient id="paint20_linear_560_20562" x1="33.594" y1="28.5343" x2="28.488" y2="17.7144" gradientUnits="userSpaceOnUse">
<stop stop-color="#FEA613" stop-opacity="0"/>
<stop offset="1" stop-color="#E94444"/>
</linearGradient>
<linearGradient id="paint21_linear_560_20562" x1="22.2723" y1="16.9939" x2="25.3141" y2="20.0356" gradientUnits="userSpaceOnUse">
<stop stop-color="#FEE45A"/>
<stop offset="1" stop-color="#FEA613"/>
</linearGradient>
<linearGradient id="paint22_linear_560_20562" x1="39.7294" y1="16.9939" x2="36.6876" y2="20.0356" gradientUnits="userSpaceOnUse">
<stop stop-color="#FEE45A"/>
<stop offset="1" stop-color="#FEA613"/>
</linearGradient>
</defs>
</svg>
