<svg width="49" height="29" viewBox="0 0 49 29" fill="none" xmlns="http://www.w3.org/2000/svg">
<circle cx="14.1602" cy="14.1602" r="14.1602" fill="#E0C7DD"/>
<path d="M48.2652 14.0616L46.7924 14.0592L46.7939 13.0919L44.8588 13.0888L44.8573 14.056L43.9167 14.0545L43.9182 13.0873L41.1572 13.0828L41.1557 14.05L24.3821 14.0228L24.3827 13.6348C24.383 13.5788 24.3723 13.5234 24.3515 13.4716C24.3306 13.4198 24.2998 13.3727 24.261 13.3331C24.2222 13.2934 24.176 13.2619 24.1252 13.2403C24.0743 13.2188 24.0198 13.2077 23.9647 13.2076L23.3683 13.2066C23.2569 13.2064 23.1501 13.2512 23.0712 13.3311C22.9923 13.4109 22.9479 13.5193 22.9478 13.6325L22.9445 15.6135C22.9444 15.7266 22.9884 15.8352 23.067 15.9153C23.1456 15.9954 23.2523 16.0405 23.3637 16.0407L23.9601 16.0417C24.0152 16.0418 24.0698 16.0308 24.1207 16.0095C24.1716 15.9881 24.2179 15.9567 24.2568 15.9172C24.2958 15.8776 24.3267 15.8306 24.3477 15.7789C24.3688 15.7272 24.3796 15.6718 24.3795 15.6159L24.3802 15.222L48.2633 15.2607C48.3023 15.2608 48.3409 15.253 48.377 15.2379C48.4131 15.2228 48.4458 15.2006 48.4735 15.1726C48.5011 15.1447 48.523 15.1114 48.538 15.0748C48.553 15.0382 48.5608 14.999 48.5608 14.9594L48.5618 14.3615C48.5613 14.2819 48.5299 14.2057 48.4743 14.1495C48.4188 14.0933 48.3436 14.0617 48.2652 14.0616Z" fill="#511B4B"/>
<path d="M21.1888 14.7331L21.885 14.035C22.0677 13.8622 22.2144 13.6538 22.3163 13.4222C22.4181 13.1907 22.4732 12.9407 22.4781 12.6871C22.483 12.4335 22.4376 12.1815 22.3448 11.9461C22.2519 11.7107 22.1134 11.4966 21.9375 11.3166C21.7617 11.1366 21.5519 10.9944 21.3209 10.8984C21.0898 10.8024 20.8421 10.7545 20.5925 10.7577C20.3428 10.7608 20.0964 10.8149 19.8677 10.9168C19.6391 11.0186 19.4329 11.1661 19.2614 11.3505L19.2545 11.3575L15.1022 15.5716L15.7756 16.2579L19.9302 12.0426C20.0148 11.9571 20.1151 11.8893 20.2255 11.8431C20.3358 11.7969 20.4541 11.7733 20.5734 11.7735C20.6928 11.7738 20.8109 11.7979 20.9211 11.8445C21.0312 11.8912 21.1313 11.9594 21.2155 12.0453C21.2997 12.1312 21.3664 12.2331 21.4119 12.3452C21.4573 12.4574 21.4806 12.5775 21.4803 12.6987C21.4801 12.82 21.4563 12.94 21.4104 13.0519C21.3645 13.1638 21.2974 13.2655 21.2128 13.351L19.8203 14.7472L21.2324 16.1106C21.3196 16.1954 21.3892 16.297 21.4373 16.4095C21.4854 16.5219 21.5109 16.643 21.5124 16.7656C21.5139 16.8882 21.4914 17.0098 21.4461 17.1235C21.4008 17.2371 21.3337 17.3405 21.2486 17.4275L21.2371 17.4391C21.0665 17.6115 20.8356 17.7082 20.5949 17.7078C20.3543 17.7074 20.1236 17.61 19.9536 17.437L17.7135 15.1924L17.0437 15.8824L19.2791 18.1281C19.6278 18.4813 20.0998 18.68 20.5922 18.6808C21.0846 18.6816 21.5573 18.4844 21.9071 18.1324L21.9128 18.1254L21.9243 18.1149C22.0988 17.9365 22.2366 17.7245 22.3295 17.4914C22.4225 17.2583 22.4687 17.0086 22.4656 16.7571C22.4625 16.5056 22.4101 16.2573 22.3114 16.0266C22.2127 15.7959 22.0697 15.5875 21.8908 15.4136L21.1888 14.7331Z" fill="#511B4B"/>
<path d="M13.7968 15.2388L13.1213 15.9241L17.2703 20.1435C17.4413 20.3161 17.5379 20.5507 17.5388 20.7957C17.5397 21.0406 17.4448 21.2759 17.275 21.4499C17.1905 21.5358 17.0901 21.6039 16.9796 21.6503C16.8691 21.6967 16.7506 21.7205 16.6311 21.7203C16.5115 21.7201 16.3931 21.6959 16.2828 21.6492C16.1724 21.6024 16.0723 21.534 15.988 21.4478L14.6138 20.0343L13.2694 21.4608C13.1861 21.5496 13.0862 21.6206 12.9755 21.6696C12.8649 21.7187 12.7457 21.7448 12.625 21.7464C12.5043 21.7481 12.3844 21.7252 12.2725 21.6792C12.1606 21.6332 12.0588 21.565 11.9732 21.4786L11.9618 21.4669C11.7916 21.2933 11.6963 21.0582 11.6967 20.8133C11.6971 20.5683 11.7932 20.3335 11.9639 20.1605L14.1619 17.8847L13.4828 17.2042L11.2733 19.48C11.1003 19.6564 10.9632 19.8657 10.87 20.096C10.7767 20.3263 10.7291 20.573 10.7299 20.822C10.7307 21.0709 10.7798 21.3173 10.8745 21.547C10.9691 21.7767 11.1075 21.9851 11.2816 22.1603L11.293 22.1708C11.4685 22.348 11.6771 22.4879 11.9064 22.5823C12.1357 22.6767 12.3813 22.7237 12.6287 22.7207C12.8761 22.7176 13.1205 22.6645 13.3475 22.5644C13.5745 22.4643 13.7796 22.3193 13.9508 22.1379L14.6173 21.4292L15.3044 22.1365C15.4772 22.313 15.6826 22.4531 15.9088 22.5488C16.135 22.6446 16.3776 22.694 16.6226 22.6944C16.8677 22.6948 17.1104 22.6461 17.3369 22.5512C17.5634 22.4562 17.7692 22.3167 17.9426 22.1408L17.9495 22.1338C18.2974 21.778 18.492 21.2965 18.4906 20.7951C18.4893 20.2936 18.2921 19.8132 17.9424 19.4594L13.7968 15.2388Z" fill="#511B4B"/>
<path d="M13.4429 13.223L9.28942 17.443C9.20538 17.5291 9.10544 17.5975 8.99535 17.6442C8.88525 17.691 8.76715 17.7153 8.64781 17.7156C8.52847 17.716 8.41024 17.6924 8.29988 17.6463C8.18953 17.6001 8.08922 17.5323 8.0047 17.4467C7.92 17.3609 7.85285 17.259 7.80709 17.1467C7.76133 17.0344 7.73787 16.9141 7.73807 16.7925C7.73827 16.671 7.76212 16.5508 7.80824 16.4386C7.85436 16.3265 7.92185 16.2248 8.00682 16.1392L9.39818 14.7431L7.99409 13.3774C7.90693 13.2926 7.83729 13.191 7.78921 13.0785C7.74114 12.966 7.7156 12.845 7.71409 12.7224C7.71258 12.5998 7.73513 12.4781 7.78042 12.3645C7.82571 12.2508 7.89284 12.1475 7.97787 12.0605L7.98821 12.0489C8.15892 11.8771 8.38959 11.7809 8.62986 11.7812C8.87013 11.7816 9.10049 11.8786 9.27064 12.0509L11.5118 14.2955L12.1817 13.6056L9.94395 11.3528C9.59534 11 9.12354 10.8015 8.63145 10.8008C8.13936 10.8 7.66692 10.9969 7.31716 11.3486L7.31027 11.3555L7.29993 11.366C7.12541 11.5444 6.98766 11.7564 6.89471 11.9896C6.80177 12.2227 6.7555 12.4723 6.75862 12.7238C6.76173 12.9753 6.81417 13.2237 6.91286 13.4544C7.01155 13.6851 7.15452 13.8934 7.3334 14.0673L8.02973 14.7444L7.33461 15.4424C6.98418 15.7965 6.78656 16.2775 6.78521 16.7796C6.78385 17.2817 6.97889 17.7638 7.3274 18.1198C7.67592 18.4758 8.14937 18.6765 8.6436 18.6779C9.13783 18.6792 9.61236 18.4811 9.96279 18.127L9.96968 18.12L14.122 13.9059L13.4429 13.223Z" fill="#511B4B"/>
<path d="M15.4229 14.241L16.0973 13.5557L11.9518 9.33631C11.7811 9.16337 11.685 8.92877 11.6843 8.68391C11.6836 8.43905 11.7785 8.20389 11.9482 8.02996C12.0327 7.94406 12.1331 7.87595 12.2436 7.82955C12.3541 7.78314 12.4725 7.75935 12.5921 7.75955C12.7117 7.75974 12.83 7.78391 12.9404 7.83068C13.0507 7.87744 13.1509 7.94587 13.2352 8.03205L14.6094 9.44551L15.9537 8.01898C16.0372 7.93018 16.1372 7.85918 16.2479 7.81013C16.3587 7.76108 16.478 7.73496 16.5988 7.73331C16.7196 7.73166 16.8395 7.75451 16.9515 7.80052C17.0635 7.84653 17.1654 7.91478 17.2511 8.00127L17.2614 8.01294C17.4323 8.18573 17.5287 8.42039 17.5294 8.66534C17.5301 8.9103 17.435 9.14552 17.265 9.31929L15.0578 11.5951L15.7323 12.2768L17.9418 10.001C18.1147 9.82451 18.2517 9.61516 18.3448 9.3849C18.438 9.15464 18.4855 8.90798 18.4848 8.65903C18.484 8.41009 18.4349 8.16373 18.3403 7.93408C18.2458 7.70443 18.1075 7.49598 17.9336 7.32066L17.9221 7.31015C17.7466 7.13296 17.5381 6.99309 17.3087 6.89868C17.0794 6.80428 16.8339 6.75723 16.5864 6.7603C16.339 6.76337 16.0946 6.81649 15.8676 6.91656C15.6406 7.01663 15.4355 7.16164 15.2643 7.34313L14.5967 8.05174L13.9096 7.34443C13.7368 7.16797 13.5314 7.02787 13.3052 6.93214C13.079 6.83641 12.8364 6.78693 12.5914 6.78653C12.3463 6.78614 12.1036 6.83483 11.8771 6.92983C11.6506 7.02482 11.4448 7.16425 11.2714 7.34015L11.2645 7.34713C10.9166 7.70294 10.722 8.18445 10.7234 8.68589C10.7247 9.18734 10.9219 9.66774 11.2716 10.0216L15.4229 14.241Z" fill="#511B4B"/>
</svg>
