<svg width="80" height="80" viewBox="0 0 80 80" fill="none" xmlns="http://www.w3.org/2000/svg">
<path d="M71.3376 17.358C69.8188 15.8351 67.9371 14.7244 65.8701 14.1305C65.0178 11.1932 63.1409 8.65865 60.5798 6.98676C58.0188 5.31486 54.9433 4.61636 51.9113 5.01797C49.1292 5.44215 46.5579 6.75157 44.5785 8.7521C42.5991 10.7526 41.3171 13.3378 40.9226 16.1242C39.8176 22.6905 41.3501 30.6167 41.8376 32.8605L6.00007 68.6955C5.29658 69.399 4.90137 70.3531 4.90137 71.348C4.90137 72.3428 5.29658 73.297 6.00007 74.0005C6.70356 74.704 7.65769 75.0992 8.65257 75.0992C9.64745 75.0992 10.6016 74.704 11.3051 74.0005L16.6076 68.6967L21.0276 73.1167C21.7309 73.82 22.6848 74.2152 23.6794 74.2152C24.6741 74.2152 25.628 73.82 26.3313 73.1167C27.0346 72.4134 27.4298 71.4595 27.4298 70.4648C27.4298 69.4702 27.0346 68.5163 26.3313 67.813L21.9126 63.393L25.4476 59.858L29.8663 64.2767C30.5807 64.9588 31.5305 65.3395 32.5182 65.3395C33.5059 65.3395 34.4557 64.9588 35.1701 64.2767C35.5183 63.9286 35.7946 63.5153 35.983 63.0604C36.1715 62.6055 36.2685 62.1179 36.2685 61.6255C36.2685 61.1331 36.1715 60.6455 35.983 60.1906C35.7946 59.7357 35.5183 59.3223 35.1701 58.9742L30.7501 54.553L47.1401 38.163C49.3876 38.6505 57.3326 40.1805 63.8763 39.078C66.6633 38.6833 69.2489 37.401 71.2496 35.4212C73.2504 33.4413 74.5599 30.8694 74.9838 28.0867C75.2464 26.1383 75.0539 24.1554 74.4212 22.2939C73.7886 20.4324 72.7331 18.7429 71.3376 17.358ZM67.5476 27.108C67.3364 28.301 66.7423 29.3928 65.8553 30.218C64.9682 31.0433 63.8365 31.5571 62.6313 31.6817C61.3477 31.8843 60.0495 31.9804 58.7501 31.9692C55.5056 31.917 52.2732 31.5612 49.0951 30.9067C48.6501 28.7067 47.5013 22.2305 48.3201 17.3692C48.4446 16.1642 48.9583 15.0326 49.7833 14.1456C50.6083 13.2586 51.6998 12.6644 52.8926 12.453C53.1263 12.4222 53.3618 12.4068 53.5976 12.4067C54.3792 12.4076 55.1509 12.5818 55.857 12.9169C56.5632 13.2519 57.1862 13.7394 57.6813 14.3442C58.1669 14.9203 58.5168 15.5983 58.705 16.3279C58.8933 17.0575 58.9151 17.8201 58.7688 18.5592C58.6713 19.0613 58.5427 19.5568 58.3838 20.043L57.6263 22.3742L59.9588 21.618C60.4447 21.4598 60.9398 21.3317 61.4413 21.2342C62.324 21.0614 63.2367 21.1262 64.086 21.4221C64.9354 21.7179 65.6908 22.2342 66.2751 22.918C66.7726 23.4859 67.1434 24.1534 67.3626 24.8759C67.5818 25.5984 67.6457 26.3593 67.5476 27.108Z" fill="#511B4B"/>
</svg>
