<svg width="74" height="74" viewBox="0 0 74 74" fill="none" xmlns="http://www.w3.org/2000/svg">
<path d="M37 73.7696C57.3073 73.7696 73.7696 57.3073 73.7696 37C73.7696 16.6928 57.3073 0.230469 37 0.230469C16.6928 0.230469 0.230469 16.6928 0.230469 37C0.230469 57.3073 16.6928 73.7696 37 73.7696Z" fill="#E0C7DD"/>
<path d="M51.1581 63.5918L51.1561 63.5902C49.8713 62.5938 47.5414 60.9423 45.0094 59.7237C42.3573 58.4579 40.805 55.4961 41.2203 52.5149C41.2227 52.4597 41.2338 52.4052 41.2408 52.3711C41.2421 52.3647 41.2433 52.359 41.2442 52.3542L41.2633 52.255L41.3458 52.197L41.3459 52.1969L41.3459 52.1969L41.3465 52.1965L41.3492 52.1946L41.3608 52.1863C41.3712 52.1789 41.3869 52.1676 41.4074 52.1525C41.4486 52.1225 41.5093 52.0776 41.5867 52.0188C41.7414 51.9012 41.9623 51.7283 42.2251 51.5082C42.7514 51.0677 43.4434 50.4402 44.1094 49.6915C44.7763 48.9416 45.4106 48.0773 45.8285 47.1637C46.2462 46.2504 46.4415 45.3021 46.2538 44.3727L46.1897 44.0549L51.1581 63.5918ZM51.1581 63.5918C51.3563 63.7423 51.6136 63.9205 51.8899 64.1118L51.8938 64.1144C52.1737 64.3082 52.476 64.5175 52.7698 64.7338C53.2798 65.1093 53.7348 65.4852 54.0002 65.8151C49.5998 69.7677 42.8557 71.8613 36.56 71.8613C30.2755 71.8613 23.5314 69.7483 19.111 65.8146C19.3799 65.482 19.8368 65.1081 20.3481 64.7359C20.6337 64.5279 20.927 64.3268 21.2001 64.1396L21.2252 64.1224C21.5032 63.9317 21.7624 63.7537 21.962 63.6021L21.963 63.6013C23.2497 62.6138 25.5694 60.9523 28.1108 59.734C30.7571 58.4661 32.3097 55.4972 31.8979 52.5119L31.8962 52.4996L31.8933 52.4876C31.8924 52.4838 31.8913 52.4775 31.8887 52.4546L31.8882 52.4498C31.8859 52.4296 31.8825 52.3987 31.8759 52.3645L31.8568 52.2654L31.7743 52.2073L31.7742 52.2073L31.7742 52.2072L31.7736 52.2068L31.7709 52.2049L31.7593 52.1966C31.7489 52.1892 31.7332 52.1779 31.7127 52.1629C31.6715 52.1328 31.6108 52.0879 31.5334 52.0291C31.3788 51.9116 31.1579 51.7386 30.8952 51.5186C30.3691 51.078 29.6774 50.4506 29.012 49.7019C28.3457 48.952 27.7124 48.0879 27.2959 47.1743C26.8796 46.2611 26.6861 45.3129 26.8761 44.3836L26.941 44.0662L26.6177 44.0839C26.6178 44.0839 26.6177 44.0839 26.6177 44.0839L26.6176 44.0839L26.6176 44.0839L26.6175 44.0839L26.6175 44.0839L26.6168 44.084L26.6119 44.0842L26.5901 44.0849C26.5704 44.0855 26.5409 44.0861 26.5032 44.0861C26.4281 44.0861 26.3211 44.0837 26.1954 44.0741C25.1057 43.9688 24.4988 43.0996 24.4319 42.148C24.3646 41.1923 24.8477 40.2406 25.8683 39.9788L26.1282 39.9121L26.0434 39.6576L24.9722 36.4412M51.1581 63.5918L24.9722 36.4412M24.9722 36.4412L24.9685 36.4272C24.9649 36.4132 24.9594 36.3918 24.9525 36.3634C24.9388 36.3065 24.9195 36.2213 24.8977 36.111C24.8541 35.8903 24.8008 35.5695 24.7634 35.1733C24.6884 34.3801 24.6771 33.2896 24.9302 32.0978C25.4335 29.7273 26.9859 26.9307 31.2442 25.2697L31.2445 25.2696C35.5025 23.6017 38.6146 24.5019 40.6638 25.8019C41.6932 26.4549 42.4592 27.2124 42.9677 27.8069C43.2218 28.1039 43.4109 28.3594 43.5359 28.5396C43.5984 28.6297 43.6448 28.7009 43.6752 28.749C43.6904 28.773 43.7016 28.7913 43.7088 28.8032L43.7167 28.8162L43.7184 28.8191L43.7186 28.8194L43.7187 28.8196L24.9722 36.4412ZM46.5131 44.0736L46.513 44.0736L43.8034 28.9653L43.9704 28.9411C45.3334 28.744 46.1931 29.1071 46.7402 29.756C47.3032 30.4236 47.573 31.437 47.6445 32.6098C47.7872 34.9506 47.1316 37.7572 46.7448 39.1642L46.7297 39.2193L46.74 39.2755L46.8195 39.7094L46.857 39.9143H47.0496C47.0518 39.9148 47.0551 39.9155 47.059 39.9162C47.0644 39.9173 47.0711 39.9186 47.078 39.9197C47.0847 39.9208 47.0944 39.9223 47.1062 39.9233C48.2085 40.114 48.7424 41.0679 48.7027 42.0495C48.6629 43.0342 48.0491 43.9539 46.9244 44.0638C46.7987 44.0734 46.6943 44.0758 46.6219 44.0758C46.5855 44.0758 46.5573 44.0752 46.5387 44.0746L46.5183 44.0739L46.5138 44.0737L46.5133 44.0736L46.5132 44.0736L46.5132 44.0736L46.5131 44.0736Z" fill="#511B4B" stroke="white" stroke-width="0.5"/>
</svg>
