<svg width="17" height="21" viewBox="0 0 17 21" fill="none" xmlns="http://www.w3.org/2000/svg">
<path d="M5.4185 19.1056C5.91146 20.22 7.02708 21 8.32203 21C9.61698 21 10.7326 20.22 11.2256 19.1056H5.4185ZM8.32182 2.00635C9.17636 2.00635 9.99687 2.15712 10.7583 2.43316V2.33937C10.7583 1.04943 9.70888 0 8.41899 0H8.22511C6.93518 0 5.88574 1.04943 5.88574 2.33937V2.43197C6.64677 2.15675 7.46704 2.00635 8.32182 2.00635ZM16.0116 17.8731H0.632499C0.341547 17.8731 0.0750391 17.6768 0.0145234 17.3922C-0.0453762 17.1104 0.0830503 16.8323 0.343601 16.7119C0.405431 16.6718 0.870824 16.3464 1.33675 15.3618C2.19248 13.5538 2.37209 11.0068 2.37209 9.18854C2.37209 5.90783 5.04115 3.23885 8.32182 3.23885C11.5947 3.23885 14.2589 5.89497 14.2715 9.16491C14.2718 9.17276 14.272 9.18065 14.272 9.18854C14.272 11.0068 14.4516 13.5538 15.3073 15.3618C15.7732 16.3464 16.2386 16.6719 16.3005 16.7119C16.561 16.8323 16.6895 17.1104 16.6295 17.3922C16.569 17.6768 16.3026 17.8731 16.0116 17.8731Z" fill="#511B4B"/>
</svg>
