<svg width="18" height="26" viewBox="0 0 18 26" fill="none" xmlns="http://www.w3.org/2000/svg">
<circle cx="8.8816" cy="8.8816" r="8.8816" fill="#E0C7DD"/>
<path d="M9.51597 25.8551V25.1366H9.98783V24.1926H9.51597V23.7337H9.98783V22.3868H9.51597V14.2039H9.70528C9.73258 14.204 9.75962 14.1988 9.78486 14.1886C9.8101 14.1783 9.83305 14.1633 9.85238 14.1443C9.8717 14.1254 9.88704 14.1028 9.89751 14.078C9.90797 14.0532 9.91336 14.0266 9.91336 13.9997V13.7087C9.91336 13.6544 9.89143 13.6023 9.85241 13.5639C9.81339 13.5255 9.76047 13.5039 9.70528 13.5039H8.73883C8.68365 13.5039 8.63072 13.5255 8.5917 13.5639C8.55268 13.6023 8.53076 13.6544 8.53076 13.7087V13.9997C8.53076 14.0266 8.53615 14.0532 8.54661 14.078C8.55707 14.1028 8.57241 14.1254 8.59174 14.1443C8.61107 14.1633 8.63401 14.1783 8.65925 14.1886C8.68449 14.1988 8.71153 14.204 8.73883 14.2039H8.93098V25.8551C8.93098 25.8742 8.93479 25.893 8.94219 25.9106C8.94959 25.9282 8.96044 25.9442 8.97411 25.9576C8.98778 25.9711 9.00402 25.9818 9.02188 25.989C9.03975 25.9963 9.05889 26.0001 9.07823 26.0001H9.36987C9.40872 25.9998 9.44588 25.9844 9.47325 25.9572C9.50062 25.9301 9.51597 25.8934 9.51597 25.8551Z" fill="#511B4B"/>
<path d="M9.16752 12.6473L9.50863 12.9864C9.59309 13.0754 9.69487 13.1468 9.80792 13.1963C9.92096 13.2458 10.043 13.2725 10.1667 13.2747C10.2904 13.2769 10.4133 13.2546 10.5281 13.2091C10.6428 13.1636 10.7472 13.0959 10.8348 13.0099C10.9225 12.924 10.9917 12.8215 11.0384 12.7087C11.085 12.5959 11.1082 12.4751 11.1064 12.3533C11.1047 12.2315 11.0781 12.1113 11.0282 11.9998C10.9784 11.8884 10.9063 11.7879 10.8162 11.7044L10.8128 11.7011L8.75366 9.67871L8.41938 10.0077L10.4791 12.0312C10.5209 12.0724 10.554 12.1213 10.5766 12.1751C10.5992 12.2289 10.6109 12.2866 10.6108 12.3448C10.6108 12.403 10.5991 12.4607 10.5765 12.5144C10.5538 12.5682 10.5206 12.6171 10.4788 12.6582C10.4369 12.6994 10.3873 12.732 10.3326 12.7543C10.2779 12.7765 10.2194 12.788 10.1602 12.788C10.1011 12.7879 10.0425 12.7764 9.98785 12.7541C9.93321 12.7318 9.88358 12.6991 9.84177 12.658L9.15957 11.9797L8.49556 12.6697C8.45426 12.7123 8.40475 12.7464 8.34993 12.7699C8.29511 12.7934 8.23607 12.806 8.17626 12.8068C8.11646 12.8077 8.05708 12.7968 8.00161 12.7747C7.94613 12.7527 7.89566 12.7201 7.85315 12.6787L7.84747 12.6731C7.76321 12.59 7.71589 12.4774 7.71589 12.36C7.71589 12.2426 7.76321 12.13 7.84747 12.0469L8.94069 10.9523L8.60357 10.6261L7.50978 11.7184C7.33776 11.8888 7.24121 12.1192 7.24121 12.3594C7.24121 12.5996 7.33776 12.8301 7.50978 13.0004L7.51319 13.0032L7.51831 13.0088C7.60549 13.0938 7.70901 13.1609 7.82282 13.206C7.93663 13.2512 8.05844 13.2735 8.18114 13.2718C8.30383 13.2701 8.42495 13.2443 8.5374 13.196C8.64986 13.1477 8.7514 13.0778 8.83609 12.9904L9.16752 12.6473Z" fill="#511B4B"/>
<path d="M8.91417 9.0406L8.57932 8.71157L6.52419 10.739C6.44011 10.8225 6.32575 10.8698 6.20625 10.8705C6.08675 10.8711 5.97189 10.825 5.8869 10.7423C5.84493 10.7011 5.81162 10.6522 5.7889 10.5983C5.76617 10.5445 5.75447 10.4867 5.75447 10.4284C5.75447 10.3701 5.76617 10.3123 5.7889 10.2584C5.81162 10.2046 5.84493 10.1556 5.8869 10.1145L6.57536 9.44295L5.87837 8.78823C5.83501 8.74765 5.8003 8.69897 5.77629 8.64502C5.75228 8.59107 5.73945 8.53295 5.73855 8.47406C5.73765 8.41517 5.7487 8.3567 5.77105 8.30206C5.7934 8.24743 5.8266 8.19774 5.86871 8.15589L5.8744 8.1503C5.95893 8.06716 6.07354 8.02046 6.19304 8.02046C6.31254 8.02046 6.42715 8.06716 6.51168 8.1503L7.62367 9.22079L7.95511 8.88896L6.84312 7.81287C6.75694 7.7286 6.65472 7.66191 6.54231 7.6166C6.4299 7.57129 6.30951 7.54827 6.18805 7.54884C6.06658 7.54941 5.94642 7.57357 5.83446 7.61993C5.72249 7.6663 5.62092 7.73395 5.53557 7.81902L5.53045 7.82462C5.44415 7.91039 5.37608 8.01222 5.33021 8.12417C5.28433 8.23613 5.26158 8.35595 5.26327 8.47666C5.26497 8.59736 5.29107 8.71652 5.34007 8.82719C5.38907 8.93785 5.45997 9.03779 5.54864 9.12118L5.89486 9.44574L5.55035 9.7815C5.4644 9.86596 5.39622 9.96627 5.3497 10.0767C5.30318 10.1871 5.27923 10.3055 5.27923 10.425C5.27923 10.5446 5.30318 10.6629 5.3497 10.7734C5.39622 10.8838 5.4644 10.9841 5.55035 11.0686L5.55376 11.0719C5.72762 11.2413 5.96267 11.3359 6.20729 11.3348C6.45192 11.3338 6.68612 11.2372 6.85847 11.0663L8.91417 9.0406Z" fill="#511B4B"/>
<path d="M9.8978 8.86683L7.83585 6.84392C7.79379 6.80299 7.76035 6.75429 7.73744 6.70062C7.71452 6.64695 7.7026 6.58935 7.70233 6.53113C7.70207 6.47292 7.71347 6.41522 7.7359 6.36135C7.75832 6.30747 7.79132 6.25849 7.83301 6.21719C7.8748 6.1758 7.92449 6.14296 7.97923 6.12055C8.03396 6.09814 8.09265 6.0866 8.15193 6.0866C8.21121 6.0866 8.26991 6.09814 8.32465 6.12055C8.37938 6.14296 8.42907 6.1758 8.47087 6.21719L9.15307 6.89485L9.81821 6.20879C9.85951 6.16621 9.90902 6.13215 9.96384 6.10861C10.0187 6.08507 10.0777 6.07251 10.1375 6.07168C10.1973 6.07085 10.2567 6.08175 10.3122 6.10375C10.3676 6.12576 10.4181 6.15842 10.4606 6.19984L10.4663 6.20487C10.5502 6.28801 10.5974 6.40047 10.5974 6.51768C10.5974 6.6349 10.5502 6.74735 10.4663 6.83049L9.37308 7.92561L9.7102 8.25185L10.8074 7.15841C10.9792 6.98807 11.0757 6.75775 11.0757 6.51768C11.0757 6.27762 10.9792 6.0473 10.8074 5.87695L10.804 5.8736L10.7989 5.86856C10.7117 5.78357 10.6082 5.71653 10.4944 5.67137C10.3806 5.62622 10.2587 5.60384 10.136 5.60556C10.0133 5.60728 9.89223 5.63306 9.77978 5.68139C9.66732 5.72971 9.56578 5.79962 9.48109 5.88703L9.15136 6.22726L8.81026 5.88871C8.63724 5.71803 8.40244 5.622 8.15749 5.62174C7.91254 5.62148 7.67752 5.717 7.50413 5.88731C7.33074 6.05761 7.23318 6.28874 7.23291 6.52984C7.23264 6.77095 7.32969 7.00229 7.50271 7.17296L7.50612 7.17632L9.56523 9.19867L9.8978 8.86683Z" fill="#511B4B"/>
<path d="M9.40283 9.83413L9.73768 10.1626L11.7928 8.1369C11.877 8.05352 11.9914 8.00641 12.1109 8.00589C12.2303 8.00536 12.3451 8.05147 12.4301 8.1341C12.4721 8.17527 12.5054 8.2242 12.5281 8.27807C12.5508 8.33194 12.5625 8.3897 12.5625 8.44803C12.5625 8.50636 12.5508 8.56412 12.5281 8.61799C12.5054 8.67186 12.4721 8.72078 12.4301 8.76196L11.7416 9.43346L12.4386 10.0882C12.482 10.1288 12.5167 10.1775 12.5407 10.2315C12.5648 10.2855 12.5776 10.3437 12.5785 10.4026C12.5794 10.4616 12.5683 10.5201 12.546 10.5748C12.5236 10.6294 12.4904 10.6792 12.4483 10.7211L12.4426 10.7261C12.3584 10.8096 12.244 10.8568 12.1245 10.8574C12.005 10.8579 11.8902 10.8117 11.8053 10.7289L10.6933 9.65394L10.3613 9.98354L11.4733 11.0596C11.5595 11.1438 11.6618 11.2105 11.7742 11.2557C11.8866 11.301 12.0069 11.324 12.1284 11.3234C12.2498 11.3229 12.37 11.2987 12.4819 11.2524C12.5939 11.2061 12.6955 11.1385 12.7809 11.0535L12.786 11.0479C12.8723 10.9621 12.9404 10.8603 12.9862 10.7483C13.0321 10.6364 13.0549 10.5165 13.0532 10.3958C13.0515 10.2751 13.0254 10.156 12.9764 10.0453C12.9274 9.93464 12.8565 9.8347 12.7678 9.75131L12.4216 9.42619L12.7661 9.09044C12.852 9.00598 12.9202 8.90567 12.9667 8.79524C13.0133 8.68482 13.0372 8.56645 13.0372 8.44691C13.0372 8.32737 13.0133 8.209 12.9667 8.09858C12.9202 7.98815 12.852 7.88784 12.7661 7.80338L12.7627 7.80003C12.5888 7.63063 12.3538 7.53607 12.1091 7.53712C11.8645 7.53817 11.6303 7.63474 11.458 7.80562L9.40283 9.83413Z" fill="#511B4B"/>
</svg>
