<svg width="38" height="54" viewBox="0 0 38 54" fill="none" xmlns="http://www.w3.org/2000/svg">
<path d="M11.0641 27.3936L11.5666 27L11.0641 26.6063C9.20524 25.1504 7.64676 23.5977 6.41146 21.9758C4.24442 19.1304 3.16602 16.1742 3.16602 13.1836C3.16602 8.98037 4.80352 5.03362 7.71781 2.08203H30.3095C33.2238 5.03362 34.8613 8.98037 34.8613 13.1836C34.8613 16.1742 33.7829 19.1304 31.6158 21.9758C30.3805 23.5977 28.822 25.1504 26.9632 26.6063L26.4607 26.9999L26.9632 27.3936C28.8219 28.8495 30.3805 30.4022 31.6158 32.0241C33.7829 34.8695 34.8613 37.8257 34.8613 40.8163C34.8613 42.3246 34.6497 43.7992 34.2448 45.2067H3.78249C3.37759 43.7992 3.16602 42.3246 3.16602 40.8163C3.16602 37.8257 4.24442 34.8695 6.41147 32.0241C7.64676 30.4022 9.20524 28.8495 11.0641 27.3936Z" fill="#E0C7DD" stroke="#511B4B"/>
<path d="M31.5292 50.5282L30.8987 51.3358H31.9233H35.8886C36.4861 51.3358 36.9706 51.8204 36.9706 52.418C36.9706 53.0155 36.4862 53.5 35.8886 53.5H2.13867C1.54111 53.5 1.05664 53.0155 1.05664 52.418C1.05664 51.8204 1.54111 51.3359 2.13867 51.3359H6.10418H7.12884L6.4983 50.5283C5.40187 49.1238 4.55615 47.5532 3.99147 45.8763C8.1398 42.5014 12.7846 40.6574 17.4671 40.3249L17.9317 40.292V39.8262V36.5976C17.9317 36 18.4162 35.5156 19.0137 35.5156C19.6113 35.5156 20.0958 36 20.0958 36.5976V39.8261V40.2918L20.5604 40.3248C25.2429 40.6573 29.8877 42.5013 34.036 45.8762C33.4713 47.5531 32.6255 49.1237 31.5292 50.5282ZM26.9868 8.48001L27.3355 8.1313L26.9868 8.48002C29.045 10.5381 29.045 13.8881 26.9868 15.9464L19.7787 23.1545C19.3561 23.5771 18.6711 23.5771 18.2485 23.1545L11.0403 15.9464C8.98216 13.8882 8.98216 10.5383 11.0403 8.48012C13.0985 6.42193 16.4486 6.42184 18.5067 8.48001L18.6601 8.63336L19.0136 8.98691L19.3672 8.63336L19.5205 8.48001C21.5787 6.42183 24.9286 6.42183 26.9868 8.48001ZM1.05664 1.58203C1.05664 0.984469 1.54111 0.5 2.13867 0.5H35.8886C36.4862 0.5 36.9706 0.984468 36.9706 1.58203C36.9706 2.17959 36.4862 2.66406 35.8886 2.66406H2.13867C1.54111 2.66406 1.05664 2.17959 1.05664 1.58203ZM17.9316 28.0546C17.9316 27.4571 18.4161 26.9726 19.0136 26.9726C19.6112 26.9726 20.0957 27.4571 20.0957 28.0546V30.164C20.0957 30.7616 19.6112 31.246 19.0136 31.246C18.4161 31.246 17.9316 30.7616 17.9316 30.164V28.0546Z" fill="#F9EEB6" stroke="#511B4B"/>
</svg>
