<svg width="102" height="104" viewBox="0 0 102 104" fill="none" xmlns="http://www.w3.org/2000/svg">
<path d="M83.2715 13.4485L80.2603 1.61873C80.0452 0.5433 78.7547 -0.317046 77.6792 0.113127C76.6038 0.328214 75.7435 1.61873 76.1736 2.69417L77.8943 9.36185C61.5477 -0.74722 40.4692 -0.962307 23.9076 9.57694C22.8321 10.2222 22.617 11.5127 23.2623 12.5882C23.9076 13.6636 25.1981 13.8787 26.2735 13.2334C41.3296 3.55451 60.6874 3.55451 75.7435 13.2334H75.9585L69.0758 14.9541C67.7852 15.5994 67.14 16.6748 67.3551 17.7502C67.5702 18.8257 68.8607 19.686 69.9361 19.2558L81.7659 16.2446C84.0049 15.8016 83.2715 13.4485 83.2715 13.4485ZM14.4437 22.6972L2.39889 21.4067C1.10837 21.1916 0.248026 22.052 0.0329392 23.3425C-0.182148 24.4179 0.678199 25.4934 1.96872 25.7084L7.77606 26.3537C3.04415 34.3119 0.463113 43.3456 0.463113 52.5943C0.463113 62.2732 3.25924 71.5219 8.20623 79.6952C8.85149 80.7706 10.142 80.9857 11.2174 80.3405C12.2929 79.6952 12.508 78.4047 11.8627 77.3293C7.1308 70.0163 4.76485 61.4128 4.76485 52.5943C4.76485 43.7757 7.1308 35.1723 11.8627 27.8593V27.6442L11.0024 36.2477C10.7873 37.3231 11.6476 38.3986 12.7231 38.6136H12.9381C14.0136 38.6136 14.8739 37.7533 15.089 36.6779L16.3795 25.0632C16.5581 22.7166 14.4437 22.6972 14.4437 22.6972ZM89.0788 66.5749C88.0034 66.5749 86.928 67.2202 86.7129 68.5107L85.4224 80.7706C85.2073 81.8461 86.0676 82.9215 87.3581 83.1366L99.403 84.4271C100.694 84.4271 101.554 83.5668 101.769 82.4913C101.984 81.4159 101.124 80.3405 99.8332 80.1254L93.5956 79.4801C98.5426 71.5219 101.339 62.2732 101.339 52.8094C101.339 43.1305 98.5426 33.8817 93.5956 25.7084C92.9504 24.633 91.6599 24.4179 90.5844 25.0632C89.509 25.7084 89.2939 26.999 89.9392 28.0744C94.6711 35.3873 97.037 43.9908 97.037 52.8094C97.037 61.4128 94.6711 69.8012 90.1543 77.1142L91.0146 69.156C91.2297 67.6504 90.3694 66.5749 89.0788 66.5749ZM20.2511 89.8043L21.1114 102.064C21.1114 103.14 22.1869 104 23.2623 104H23.4774C24.7679 104 25.6283 102.925 25.4132 101.634L24.983 95.8267C41.3296 105.721 61.9779 105.506 78.1094 95.1814C79.1848 94.5362 79.3999 93.2457 78.7547 92.1702C78.1094 91.0948 76.8189 90.8797 75.7435 91.525C60.6874 101.204 41.3296 101.204 26.2735 91.525H26.0584L34.6619 90.8797C35.9524 90.8797 36.8128 89.8043 36.5977 88.5138C36.3826 87.2232 35.5222 86.3629 34.2317 86.578L21.9718 87.4383C21.9718 87.4383 20.1306 87.705 20.2511 89.8043Z" fill="#511B4B"/>
</svg>
