<svg width="40" height="40" viewBox="0 0 40 40" fill="none" xmlns="http://www.w3.org/2000/svg">
<g clip-path="url(#clip0_403_72944)">
<ellipse cx="20.0001" cy="21.0725" rx="8.57143" ry="9.64286" fill="white"/>
<path d="M36.4636 16.7201C36.3573 11.183 35.5859 7.09909 35.5965 7.09533C35.2755 6.46929 34.7128 5.94572 34.0242 5.67828C29.5041 3.92524 25.0594 2.25205 20.7261 0.824456C20.2831 0.678306 19.8161 0.678306 19.3739 0.824456C15.0413 2.24828 10.5973 3.91846 6.07801 5.66924C5.47006 5.90504 4.96004 6.34122 4.62781 6.87158C4.65343 6.8746 3.69894 9.85409 3.53621 16.4346C3.43978 23.0158 4.25943 24.9873 4.23231 24.9896C4.67603 26.436 5.50622 27.9073 6.69575 29.4035C8.02541 31.0744 9.82215 32.8003 11.9925 34.4969C15.5853 37.3166 18.9475 39.0019 19.0883 39.0614C19.3934 39.2106 19.7166 39.2866 20.0496 39.2859C20.3833 39.2859 20.7065 39.2098 21.0109 39.0599C21.1525 39.0004 24.5185 37.3099 28.1097 34.4908C30.2808 32.7928 32.0776 31.0669 33.408 29.3967C34.6826 27.7943 35.5445 26.2221 35.9611 24.6777C35.9445 24.6755 36.5472 22.258 36.4636 16.7201ZM21.8381 21.039V24.5474C21.8381 25.5358 21.0372 26.3366 20.0489 26.3373C19.0605 26.3373 18.2589 25.5365 18.2589 24.5481V21.0888C16.9692 20.4477 16.0817 19.1173 16.0817 17.5797C16.0817 15.4161 17.8355 13.6615 19.9991 13.6615C22.1627 13.6615 23.9165 15.4153 23.9173 17.5789C23.9173 19.0781 23.0751 20.3806 21.8381 21.039Z" fill="#511B4B"/>
</g>
<defs>
<clipPath id="clip0_403_72944">
<rect width="38.5714" height="38.5714" fill="white" transform="translate(0.714355 0.714844)"/>
</clipPath>
</defs>
</svg>
