<svg width="38" height="50" viewBox="0 0 38 50" fill="none" xmlns="http://www.w3.org/2000/svg">
<path d="M33.9649 41.2453L33.9629 41.2438C32.6463 40.2205 30.2587 38.5244 27.6638 37.2728C24.9492 35.9741 23.3606 32.9359 23.7858 29.878C23.7881 29.8219 23.7994 29.7665 23.8066 29.7312C23.808 29.7246 23.8092 29.7187 23.8102 29.7136L23.8292 29.6145L23.9116 29.5564L23.9116 29.5564L23.9117 29.5564L23.9123 29.5559L23.9151 29.554L23.927 29.5455C23.9376 29.5378 23.9537 29.5262 23.9748 29.5108C24.017 29.4799 24.0793 29.4338 24.1585 29.3734C24.3171 29.2526 24.5435 29.075 24.8129 28.8489C25.3522 28.3964 26.0615 27.752 26.7441 26.9828C28.1254 25.4265 29.3296 23.4358 28.9428 21.5155L28.8788 21.1979L29.202 21.2166H29.202L29.2021 21.2166L29.2022 21.2166L29.2022 21.2166L29.2023 21.2166L29.2028 21.2166L29.2074 21.2168L29.2285 21.2176C29.2476 21.2182 29.2765 21.2188 29.3139 21.2188C29.3882 21.2188 29.4953 21.2164 29.6244 21.2065C30.7802 21.0932 31.411 20.1458 31.4519 19.1319C31.4927 18.121 30.9439 17.1381 29.8107 16.9418C29.7988 16.9407 29.7889 16.9392 29.7821 16.9381C29.7699 16.9361 29.7582 16.9336 29.7529 16.9325C29.7528 16.9325 29.7528 16.9325 29.7527 16.9325H29.5598L29.5223 16.7274L29.4409 16.282L29.4306 16.2259L29.4457 16.1709C29.842 14.7261 30.514 11.8433 30.3677 9.43859C30.2945 8.23374 30.0178 7.19137 29.4397 6.50423C28.8774 5.83596 27.9943 5.46284 26.5965 5.66541L26.4293 5.68965L33.9649 41.2453ZM33.9649 41.2453C34.168 41.3999 34.4315 41.5828 34.7148 41.7793L34.7185 41.7819C35.0052 41.9808 35.315 42.1958 35.6162 42.4179C36.1412 42.8053 36.61 43.1937 36.8821 43.5345M33.9649 41.2453L36.8821 43.5345M26.3445 5.54351L26.3445 5.54366L26.3445 5.54351ZM26.3445 5.54351L26.3442 5.54315L26.3425 5.5402L26.3344 5.52673C26.327 5.51446 26.3155 5.4957 26.2999 5.47098C26.2687 5.42156 26.2211 5.34837 26.157 5.25578C26.0288 5.07055 25.8349 4.808 25.5745 4.50288C25.0532 3.8921 24.2679 3.1139 23.2126 2.44293C21.1116 1.10719 17.9212 0.182641 13.5568 1.89588L13.5565 1.89601C9.1917 3.60227 7.59972 6.4756 7.08356 8.91174C6.82409 10.1364 6.83565 11.2569 6.91255 12.0719C6.95096 12.4789 7.00556 12.8086 7.05026 13.0354C7.07261 13.1487 7.09245 13.2363 7.10653 13.2948C7.11357 13.3241 7.11916 13.3461 7.1229 13.3604L7.12678 13.3751L8.22435 16.6779L8.30885 16.9321L8.04936 16.9989C7.00021 17.2686 6.50381 18.2492 6.57287 19.2332C6.64166 20.2132 7.26549 21.1086 8.38538 21.2171C8.51436 21.227 8.6241 21.2294 8.70119 21.2294C8.73989 21.2294 8.7702 21.2288 8.79038 21.2282L8.81279 21.2274L8.81785 21.2272L8.81861 21.2271L8.81865 21.2271L8.81869 21.2271L8.81875 21.2271L8.81878 21.2271L8.81883 21.2271L9.14196 21.2094L9.07725 21.5267C8.68566 23.4468 9.88724 25.4372 11.2672 26.9935C11.9492 27.7627 12.6581 28.4071 13.1973 28.8596C13.4666 29.0856 13.6929 29.2632 13.8514 29.384C13.9307 29.4444 13.993 29.4905 14.0352 29.5214C14.0563 29.5368 14.0723 29.5484 14.083 29.5561L14.0949 29.5646L14.0977 29.5665L14.0983 29.567L14.0983 29.567L14.0984 29.567L14.1808 29.6251L14.1998 29.7242C14.2065 29.759 14.21 29.7905 14.2123 29.8112L14.2129 29.8162C14.2155 29.8396 14.2167 29.8466 14.2177 29.8509L14.2206 29.8629L14.2223 29.8751C14.6438 32.9373 13.0547 35.9829 10.3458 37.2836C7.74148 38.5348 5.36438 40.2411 4.04602 41.2552L4.04502 41.256C3.8406 41.4116 3.57526 41.5942 3.29037 41.79L3.26483 41.8075C2.98496 41.9998 2.68433 42.2064 2.39152 42.42C1.86527 42.804 1.39431 43.1903 1.11874 43.534C5.64893 47.5771 12.5628 49.7486 19.005 49.7486C25.4585 49.7486 32.3724 47.5971 36.8821 43.5345M26.3445 5.54351L36.8821 43.5345M13.9746 29.9092C14.382 32.8685 12.8443 35.8066 10.2375 37.0582C7.61034 38.3205 5.21737 40.0388 3.8936 41.057C3.68888 41.2129 3.41907 41.3982 3.12209 41.6023C2.26685 42.1899 1.18623 42.9323 0.785645 43.57C5.36794 47.7597 12.437 49.9986 19.005 49.9986C25.5831 49.9986 32.6523 47.781 37.2142 43.57M13.9746 29.9092L34.1164 41.0464C34.315 41.1976 34.5749 41.3779 34.8613 41.5767C35.7201 42.1725 36.8171 42.9337 37.2142 43.57M13.9746 29.9092C13.9692 29.8867 13.9667 29.8642 13.964 29.84C13.9616 29.8187 13.959 29.7962 13.9543 29.7713L13.9746 29.9092ZM37.2142 43.57L37.0447 43.3863C36.9908 43.436 36.9367 43.4854 36.8821 43.5345M37.2142 43.57L37.0021 43.7024C36.9681 43.6479 36.9279 43.5919 36.8821 43.5345" fill="#511B4B" stroke="white" stroke-width="0.5"/>
</svg>
