<svg width="28" height="28" viewBox="0 0 28 28" fill="none" xmlns="http://www.w3.org/2000/svg">
<g clip-path="url(#clip0_430_21268)">
<path d="M14 0C6.26693 0 0 6.26693 0 14C0 18.1724 1.82441 21.9205 4.72362 24.489C7.19843 26.6717 10.4449 28 14 28C17.5606 28 20.8071 26.6717 23.2764 24.4835C26.1756 21.9205 28 18.1724 28 14C28 6.26693 21.7331 0 14 0Z" fill="#E0C7DD"/>
<path d="M20.9009 24.0197L20.9029 24.0212C21 24.0952 21.125 24.1819 21.2557 24.2725L21.2593 24.2751C21.3934 24.3681 21.5364 24.4673 21.6751 24.5696C21.8706 24.7139 22.039 24.8513 22.1568 24.9722C20.0807 26.7843 16.9424 27.75 14.0024 27.75C11.0682 27.75 7.92995 26.7757 5.84435 24.9717C5.96308 24.8505 6.13212 24.714 6.328 24.571C6.46307 24.4725 6.60197 24.377 6.73295 24.2871L6.74438 24.2792C6.8765 24.1884 7.00328 24.1012 7.1018 24.0262L7.1028 24.0254C7.71514 23.5544 8.81599 22.7646 10.0191 22.1865C11.3377 21.5534 12.1068 20.0748 11.9025 18.5909L11.9008 18.5786L11.8991 18.5713C11.899 18.5702 11.8988 18.5686 11.8985 18.5666L11.8983 18.5643C11.8972 18.5547 11.895 18.5351 11.8909 18.5135L11.8719 18.4144L11.7895 18.3563L11.7895 18.3563L11.7894 18.3563L11.7893 18.3562L11.7883 18.3555L11.7832 18.3518L11.7618 18.3363C11.7428 18.3224 11.7144 18.3014 11.6782 18.2738C11.6056 18.2185 11.5017 18.1369 11.3778 18.033C11.1295 17.8246 10.8038 17.5285 10.4912 17.1758C9.84979 16.4525 9.33113 15.5681 9.50006 14.7398L9.56477 14.4225L9.24189 14.4402L9.24186 14.4402L9.24172 14.4402L9.24158 14.4402L9.2415 14.4402L9.24146 14.4402L9.24142 14.4402L9.24032 14.4402L9.2316 14.4405C9.22339 14.4408 9.21057 14.441 9.19392 14.441C9.16098 14.441 9.11374 14.44 9.05814 14.4358C8.61699 14.3924 8.36244 14.0428 8.33371 13.6335C8.3047 13.2201 8.51191 12.8349 8.92293 12.7292L9.18242 12.6625L9.09793 12.4083L8.58702 10.8709L8.58641 10.8686C8.58487 10.8627 8.58247 10.8532 8.57938 10.8404C8.57322 10.8147 8.56435 10.7757 8.55431 10.7247C8.53419 10.6227 8.50942 10.4733 8.49197 10.2883C8.45698 9.91758 8.45187 9.40877 8.56947 8.85377C8.80186 7.75692 9.51676 6.45481 11.5083 5.67631L11.5086 5.67618C13.5024 4.89351 14.9468 5.31741 15.8944 5.91987C16.373 6.22419 16.7297 6.57759 16.9667 6.85522C17.085 6.99378 17.1727 7.11267 17.2303 7.19589C17.2591 7.23747 17.2803 7.27006 17.2939 7.29164C17.3007 7.30243 17.3056 7.31046 17.3087 7.31548L17.3118 7.32071L17.3121 7.32123L17.3122 7.32143L17.3123 7.32155L17.3123 7.32157L17.397 7.46737L17.5642 7.44313C18.1813 7.3537 18.5434 7.51928 18.7698 7.78847C19.0122 8.07652 19.1383 8.52827 19.1719 9.08008C19.2387 10.1788 18.9306 11.5058 18.7461 12.1784L18.731 12.2334L18.7413 12.2895L18.7793 12.4974L18.8168 12.7025H19.005C19.0066 12.7028 19.0083 12.7031 19.01 12.7033C19.0144 12.7041 19.0201 12.7049 19.0268 12.7056C19.4696 12.7847 19.6948 13.1677 19.6777 13.5901C19.6606 14.015 19.4017 14.3855 18.9464 14.4308C18.8908 14.4351 18.8447 14.4361 18.8132 14.4361C18.7972 14.4361 18.7851 14.4358 18.7774 14.4356L18.7695 14.4353L18.7688 14.4353L18.7688 14.4353L18.7687 14.4353L18.7686 14.4353L18.7685 14.4353L18.7683 14.4352L18.7682 14.4352L18.4453 14.4166L18.5093 14.7342C18.6762 15.5627 18.1562 16.4474 17.5142 17.1708C17.2012 17.5235 16.8754 17.8196 16.627 18.028C16.5031 18.132 16.3991 18.2136 16.3266 18.2688C16.2903 18.2964 16.2619 18.3175 16.2429 18.3314L16.2215 18.3469L16.2164 18.3505L16.2154 18.3513L16.2153 18.3513L16.2152 18.3514L16.2152 18.3514L16.1329 18.4095L16.1138 18.5085C16.1137 18.5092 16.1134 18.5105 16.1131 18.5121C16.1105 18.5242 16.1031 18.5594 16.1006 18.5971C15.897 20.0776 16.6659 21.5502 17.9856 22.1816C19.1846 22.7599 20.2904 23.5452 20.9009 24.0197ZM8.58833 10.8758C8.58835 10.8759 8.58835 10.8759 8.58833 10.8758L8.58833 10.8758Z" fill="#511B4B" stroke="white" stroke-width="0.5"/>
</g>
<defs>
<clipPath id="clip0_430_21268">
<rect width="28" height="28" fill="white"/>
</clipPath>
</defs>
</svg>
