<svg width="157" height="157" viewBox="0 0 157 157" fill="none" xmlns="http://www.w3.org/2000/svg">
<path d="M71.4885 88.7934V86.8189C71.4885 85.9765 71.3042 85.2393 70.9357 84.6075C70.5671 83.9757 69.9353 83.3175 69.0402 82.633C68.1977 81.9485 66.9867 81.1061 65.4071 80.1057C63.2483 78.684 61.4844 77.2624 60.1155 75.8408C58.7465 74.3665 57.7461 72.7869 57.1142 71.102C56.5351 69.4171 56.2455 67.5742 56.2455 65.5734C56.2455 61.3612 57.8514 57.9651 61.0632 55.3851C64.2751 52.8051 68.8032 51.5151 74.6477 51.5151C78.544 51.5151 82.1244 52.0153 85.3889 53.0157C88.7061 53.9634 91.8126 55.2798 94.7085 56.9647L89.3379 67.4689C86.7579 66.1 84.3359 65.0732 82.0718 64.3887C79.8077 63.7042 77.7016 63.362 75.7534 63.362C74.1738 63.362 72.8838 63.6779 71.8834 64.3098C70.9357 64.9416 70.4618 65.784 70.4618 66.8371C70.4618 67.5216 70.5671 68.2061 70.7777 68.8906C71.041 69.5751 71.5938 70.3385 72.4363 71.181C73.2787 71.9708 74.5687 72.9185 76.3063 74.0242C78.1491 75.1826 79.5708 76.341 80.5712 77.4993C81.6242 78.6577 82.3351 79.8951 82.7036 81.2114C83.1248 82.4751 83.3355 83.8967 83.3355 85.4763V88.7934H71.4885ZM76.8591 109.644C74.7004 109.644 72.8312 109.065 71.2516 107.906C69.672 106.748 68.8822 104.879 68.8822 102.299C68.8822 99.561 69.672 97.6391 71.2516 96.5334C72.8312 95.4277 74.7004 94.8749 76.8591 94.8749C79.1232 94.8749 81.0451 95.4277 82.6246 96.5334C84.2042 97.6391 84.994 99.561 84.994 102.299C84.994 104.879 84.2042 106.748 82.6246 107.906C81.0451 109.065 79.1232 109.644 76.8591 109.644Z" fill="#511B4B"/>
<path d="M156.976 78.3154C156.976 93.787 152.387 108.911 143.792 121.775C135.196 134.639 122.979 144.665 108.685 150.585C94.3908 156.506 78.6622 158.055 63.488 155.036C48.3138 152.018 34.3754 144.568 23.4354 133.628C12.4954 122.688 5.04513 108.749 2.02668 93.575C-0.991772 78.4007 0.557181 62.6722 6.47767 48.3783C12.3982 34.0845 22.4243 21.8671 35.2882 13.2714C48.1521 4.67558 63.276 0.087368 78.7475 0.0869268C89.0223 0.0810622 99.1975 2.1005 108.691 6.02977C118.185 9.95905 126.811 15.7211 134.077 22.9865C141.342 30.2518 147.104 38.878 151.033 48.3718C154.962 57.8655 156.982 68.0407 156.976 78.3154ZM144.752 78.3154C144.752 65.261 140.881 52.4997 133.628 41.6452C126.376 30.7908 116.067 22.3309 104.006 17.3351C91.9456 12.3394 78.6743 11.0323 65.8707 13.5791C53.067 16.1259 41.3061 22.4122 32.0752 31.6431C22.8443 40.8741 16.558 52.6349 14.0112 65.4386C11.4644 78.2422 12.7715 91.5136 17.7672 103.574C22.763 115.635 31.2229 125.944 42.0773 133.196C52.9317 140.449 65.6931 144.32 78.7475 144.32C87.4168 144.325 96.002 142.621 104.012 139.306C112.023 135.991 119.301 131.129 125.431 124.999C131.561 118.869 136.423 111.591 139.738 103.58C143.053 95.5699 144.757 86.9847 144.752 78.3154Z" fill="#511B4B"/>
</svg>
