<svg width="48" height="32" viewBox="0 0 48 32" fill="none" xmlns="http://www.w3.org/2000/svg">
<path d="M44.4045 31.4473H3.59548C3.12339 31.4474 2.65588 31.3546 2.21966 31.1741C1.78345 30.9936 1.38707 30.7289 1.05318 30.3951C0.719291 30.0614 0.454427 29.6651 0.273719 29.229C0.0930105 28.7928 -3.94215e-08 28.3253 0 27.8532L0 3.59548C0 2.6419 0.378809 1.72738 1.05309 1.05309C1.72738 0.378809 2.6419 0 3.59548 0H44.4045C45.3581 0 46.2726 0.378809 46.9469 1.05309C47.6212 1.72738 48 2.6419 48 3.59548V27.8532C48 28.3253 47.907 28.7928 47.7263 29.229C47.5456 29.6651 47.2807 30.0614 46.9468 30.3951C46.6129 30.7289 46.2166 30.9936 45.7803 31.1741C45.3441 31.3546 44.8766 31.4474 44.4045 31.4473Z" fill="#73AF00"/>
<path d="M9.92981 10.6878C10.0121 11.2107 10.3278 11.3752 10.6025 11.3531C10.7629 11.3373 10.9123 11.2646 11.0238 11.1483C11.1353 11.0319 11.2015 10.8795 11.2106 10.7186V8.9253C11.2106 8.88206 11.2277 8.84061 11.2583 8.81004C11.2889 8.77946 11.3304 8.76228 11.3736 8.76228C11.4168 8.76228 11.4583 8.77946 11.4889 8.81004C11.5194 8.84061 11.5366 8.88206 11.5366 8.9253V10.7275C11.5367 10.834 11.5628 10.9389 11.6128 11.0331C11.6628 11.1272 11.7351 11.2076 11.8233 11.2673C11.9116 11.327 12.0131 11.3642 12.1191 11.3755C12.225 11.3869 12.3322 11.3722 12.4311 11.3326L12.5941 11.2679C12.6088 12.7734 12.5177 14.0982 12.5163 14.1217C12.5133 14.1644 12.5187 14.2073 12.5323 14.248C12.5459 14.2886 12.5673 14.3261 12.5954 14.3585C12.6235 14.3908 12.6577 14.4172 12.6961 14.4364C12.7344 14.4555 12.7761 14.4668 12.8188 14.4698H12.8423C12.9246 14.4697 13.0038 14.4384 13.064 14.3823C13.1242 14.3261 13.161 14.2493 13.1669 14.1672C13.1743 14.0615 13.2756 12.6119 13.2448 11.0065L13.3432 10.9669C13.3861 10.9499 13.432 10.9422 13.4781 10.9442C13.5241 10.9462 13.5693 10.958 13.6105 10.9786C13.7854 11.066 13.9833 11.0962 14.1763 11.0648C14.3692 11.0334 14.5474 10.9421 14.6856 10.8038L14.7444 10.7451C14.8734 10.6169 14.964 10.4551 15.0057 10.278C15.0475 10.101 15.0389 9.91578 14.9808 9.7434L14.7032 8.91062C14.7818 8.93584 14.8669 8.93037 14.9416 8.89531C15.0162 8.86025 15.0748 8.79821 15.1055 8.72167C15.1363 8.64513 15.1369 8.55978 15.1072 8.48283C15.0775 8.40588 15.0197 8.34304 14.9456 8.30697L14.2935 7.98091C14.2357 7.95197 14.1707 7.94081 14.1067 7.94886C14.0426 7.95691 13.9824 7.9838 13.9336 8.02611C13.8848 8.06843 13.8497 8.12427 13.8327 8.18656C13.8157 8.24885 13.8176 8.31478 13.8381 8.376L14.3625 9.9505C14.3817 10.0079 14.3844 10.0696 14.3704 10.1285C14.3564 10.1874 14.3262 10.2412 14.2832 10.2839L14.2244 10.3427C14.1829 10.3842 14.1294 10.4116 14.0714 10.4211C14.0134 10.4306 13.9539 10.4216 13.9013 10.3955C13.6906 10.2921 13.4497 10.2681 13.2227 10.3279C13.2088 9.37778 13.0746 8.4332 12.8232 7.51677C12.7952 7.43546 12.7363 7.36852 12.6591 7.33049C12.582 7.29246 12.4929 7.28644 12.4114 7.31375C12.3299 7.34106 12.2624 7.39948 12.2237 7.4763C12.185 7.55311 12.1783 7.6421 12.2049 7.72387C12.4513 8.6532 12.5772 9.61034 12.5794 10.5718L12.1887 10.7275V8.9253C12.1887 8.70891 12.1028 8.5014 11.9498 8.34839C11.7968 8.19538 11.5892 8.10942 11.3729 8.10942C11.1565 8.10942 10.9489 8.19538 10.7959 8.34839C10.6429 8.5014 10.557 8.70891 10.557 8.9253V10.5042L10.2236 8.86069C10.2162 8.8177 10.2002 8.77664 10.1767 8.73993C10.1531 8.70322 10.1224 8.67159 10.0864 8.64695C10.0504 8.62231 10.0099 8.60516 9.96713 8.59648C9.92438 8.5878 9.88033 8.58776 9.83758 8.59641C9.79483 8.60506 9.75425 8.6222 9.71824 8.64681C9.68223 8.67143 9.65153 8.70302 9.62795 8.73971C9.60436 8.7764 9.58837 8.81746 9.58094 8.86044C9.5735 8.90342 9.57478 8.94745 9.58467 8.98993L9.92981 10.6878Z" fill="#F5F5F5"/>
<path d="M10.5585 7.94596C10.6013 7.94596 10.6437 7.93753 10.6833 7.92115C10.7228 7.90476 10.7588 7.88074 10.789 7.85046C10.8193 7.82019 10.8433 7.78424 10.8597 7.74468C10.8761 7.70512 10.8845 7.66271 10.8845 7.6199V7.29383C10.8845 7.20736 10.8502 7.12444 10.789 7.06329C10.7279 7.00214 10.645 6.96777 10.5585 6.96777C10.472 6.96777 10.3891 7.00214 10.3279 7.06329C10.2668 7.12444 10.2324 7.20736 10.2324 7.29383V7.6199C10.2324 7.66271 10.2408 7.70512 10.2572 7.74468C10.2736 7.78424 10.2976 7.82019 10.3279 7.85046C10.3582 7.88074 10.3941 7.90476 10.4337 7.92115C10.4733 7.93753 10.5157 7.94596 10.5585 7.94596Z" fill="#F5F5F5"/>
<path d="M13.8222 7.6199H14.1482C14.2347 7.6199 14.3176 7.58555 14.3788 7.5244C14.4399 7.46325 14.4743 7.38031 14.4743 7.29383C14.4743 7.20736 14.4399 7.12444 14.3788 7.06329C14.3176 7.00214 14.2347 6.96777 14.1482 6.96777H13.8222C13.7357 6.96777 13.6527 7.00214 13.5916 7.06329C13.5304 7.12444 13.4961 7.20736 13.4961 7.29383C13.4961 7.38031 13.5304 7.46325 13.5916 7.5244C13.6527 7.58555 13.7357 7.6199 13.8222 7.6199Z" fill="#F5F5F5"/>
<path d="M11.6983 11.907L10.0665 12.8852C10.0297 12.9073 9.9977 12.9364 9.9722 12.9708C9.94671 13.0053 9.92826 13.0445 9.91789 13.0861C9.90753 13.1276 9.90545 13.1709 9.91179 13.2133C9.91814 13.2557 9.93276 13.2964 9.95485 13.3332C9.97693 13.3699 10.006 13.4019 10.0405 13.4274C10.075 13.4529 10.1141 13.4714 10.1557 13.4817C10.1973 13.4921 10.2405 13.4942 10.2829 13.4878C10.3253 13.4815 10.3661 13.4668 10.4028 13.4448L12.0346 12.4666C12.0713 12.4445 12.1034 12.4154 12.1289 12.3809C12.1544 12.3465 12.1728 12.3073 12.1832 12.2657C12.1936 12.2241 12.1956 12.1809 12.1893 12.1385C12.1829 12.0961 12.1683 12.0554 12.1462 12.0186C12.1241 11.9819 12.095 11.9498 12.0606 11.9243C12.0261 11.8988 11.9869 11.8804 11.9453 11.87C11.9037 11.8597 11.8605 11.8576 11.8181 11.8639C11.7757 11.8703 11.735 11.8849 11.6983 11.907Z" fill="#F5F5F5"/>
<path d="M16.0933 12.4843H16.1006C16.1252 12.5966 16.1755 12.7017 16.2475 12.7913C16.3156 12.8695 16.4017 12.9301 16.4984 12.9677C16.5951 13.0053 16.6995 13.0189 16.8027 13.0072C16.9351 13.0013 17.0645 12.9663 17.1818 12.9046C17.2991 12.8429 17.4014 12.756 17.4812 12.6503C17.5033 12.6655 17.5263 12.6793 17.5503 12.6914C17.6404 12.7349 17.7397 12.7559 17.8397 12.7526C17.9398 12.7493 18.0375 12.7217 18.1245 12.6723C18.3186 12.5533 18.476 12.3832 18.5797 12.1806C18.6833 11.978 18.7291 11.7507 18.712 11.5237C18.7057 11.4387 18.6669 11.3593 18.6038 11.3019C18.5407 11.2446 18.458 11.2136 18.3727 11.2153C18.2864 11.2191 18.205 11.2569 18.1464 11.3205C18.0878 11.384 18.0567 11.4682 18.0599 11.5546C18.0599 11.5546 18.0673 11.9453 17.8308 12.0892C17.7803 12.0047 17.7459 11.9116 17.7294 11.8145C17.716 11.7337 17.6727 11.661 17.608 11.6106C17.5434 11.5603 17.4622 11.5362 17.3805 11.5431C17.2989 11.5499 17.2228 11.5872 17.1675 11.6476C17.1121 11.708 17.0815 11.787 17.0817 11.8689C17.0817 11.9159 17.0714 12.3345 16.7483 12.3697C16.7094 12.2299 16.7094 12.0821 16.7483 11.9423C16.7635 11.8788 16.7592 11.8121 16.7361 11.751C16.7129 11.6899 16.6719 11.6371 16.6184 11.5996C16.5649 11.5621 16.5013 11.5415 16.436 11.5405C16.3706 11.5396 16.3065 11.5583 16.2519 11.5942L16.0698 11.7176C15.9831 9.82588 15.7848 7.62129 15.776 7.59339C15.7734 7.54984 15.762 7.50726 15.7426 7.46818C15.7232 7.4291 15.6962 7.39431 15.6631 7.36587C15.63 7.33743 15.5915 7.31593 15.55 7.30262C15.5084 7.28932 15.4646 7.28451 15.4212 7.28844C15.3777 7.29237 15.3355 7.30498 15.297 7.32553C15.2585 7.34607 15.2245 7.37413 15.1971 7.40805C15.1696 7.44196 15.1493 7.48104 15.1372 7.52297C15.1251 7.5649 15.1216 7.60881 15.1268 7.65213C15.1268 7.68297 15.3604 10.2327 15.4309 12.1803L15.3809 12.2288C15.328 12.0768 15.2327 11.9431 15.1062 11.8437C14.9796 11.7443 14.8273 11.6832 14.6671 11.6677C14.4244 11.6573 14.1842 11.7213 13.9789 11.8513C13.7736 11.9812 13.613 12.1708 13.5185 12.3947C13.4372 12.5599 13.4177 12.7487 13.4635 12.9271C13.5093 13.1054 13.6174 13.2614 13.7682 13.367C13.9157 13.4494 14.0804 13.4963 14.2492 13.504C14.418 13.5116 14.5862 13.4798 14.7405 13.4111C14.6364 13.78 14.4558 14.1228 14.2103 14.4172C14.0866 14.5774 13.9289 14.7082 13.7486 14.8001C13.5683 14.892 13.3698 14.9428 13.1675 14.9488C13.0491 14.95 12.9317 14.9265 12.8227 14.88C12.7138 14.8335 12.6156 14.7649 12.5345 14.6786C12.2919 14.3391 12.1703 13.9278 12.1893 13.5109C12.1937 13.4247 12.1637 13.3402 12.1059 13.2761C12.0481 13.2119 11.9672 13.1733 11.8809 13.1687C11.8379 13.1656 11.7947 13.1711 11.7539 13.185C11.713 13.1989 11.6755 13.2209 11.6434 13.2497C11.6113 13.2785 11.5853 13.3135 11.5671 13.3526C11.5488 13.3917 11.5387 13.4341 11.5372 13.4772C11.5089 14.067 11.6905 14.6477 12.0498 15.1163C12.1889 15.2678 12.3577 15.3891 12.5457 15.4725C12.7337 15.5559 12.9369 15.5996 13.1426 15.601H13.2086C13.4984 15.5912 13.7825 15.5182 14.0411 15.3871C14.2996 15.2559 14.5263 15.0697 14.7053 14.8416C15.1036 14.3639 15.3623 13.7855 15.4529 13.1702C15.4384 13.7467 15.2893 14.3117 15.0174 14.8203C14.7456 15.3288 14.3585 15.7666 13.8872 16.0989C13.6497 16.2612 13.3735 16.3576 13.0866 16.3785C12.7998 16.3994 12.5125 16.344 12.254 16.2178C12.0113 16.0847 11.8136 15.8827 11.6857 15.6372C11.5579 15.3917 11.5057 15.1138 11.5357 14.8387C11.5465 14.7528 11.5226 14.6662 11.4695 14.5979C11.4163 14.5296 11.3382 14.4852 11.2523 14.4744C11.1664 14.4637 11.0798 14.4876 11.0114 14.5407C10.9431 14.5939 10.8987 14.672 10.888 14.7579C10.8417 15.1676 10.9196 15.5817 11.1116 15.9465C11.3035 16.3114 11.6007 16.6101 11.9646 16.8039C12.271 16.9574 12.6089 17.0379 12.9516 17.0389C13.4059 17.033 13.8493 16.8991 14.2309 16.6526C14.7973 16.262 15.2627 15.7422 15.5886 15.1361C15.9145 14.5301 16.0915 13.8552 16.105 13.1673C16.105 12.9558 16.105 12.7266 16.0933 12.4843ZM14.1266 12.8207C14.0679 12.7825 14.1134 12.6591 14.1266 12.6341C14.1676 12.5454 14.2313 12.4691 14.3112 12.4128C14.3912 12.3566 14.4846 12.3225 14.5819 12.3139H14.6084C14.6495 12.3139 14.7552 12.3286 14.8081 12.5739C14.8081 12.6003 14.8169 12.6268 14.8213 12.6547C14.4541 12.8691 14.2103 12.8765 14.1266 12.8207Z" fill="#F5F5F5"/>
<path d="M10.7221 15.8213C10.6479 15.7797 10.5605 15.7685 10.4783 15.7901C10.396 15.8118 10.3255 15.8646 10.2814 15.9373C10.2647 15.9646 10.2461 15.9906 10.2256 16.0152L10.2153 15.9888C10.124 15.6248 10.1276 15.2435 10.2256 14.8813C10.248 14.7978 10.2363 14.7087 10.1931 14.6338C10.1717 14.5967 10.1431 14.5642 10.1092 14.5381C10.0752 14.512 10.0364 14.4929 9.99503 14.4818C9.91148 14.4594 9.82244 14.4711 9.74752 14.5144C9.6726 14.5576 9.61793 14.6289 9.59553 14.7124C9.46215 15.2054 9.46571 15.7253 9.60582 16.2164C9.75269 16.6159 9.98476 16.7158 10.1522 16.729H10.1963C10.3344 16.7101 10.4658 16.6578 10.5792 16.5767C10.6926 16.4956 10.7845 16.388 10.8469 16.2634C10.8886 16.1882 10.8989 16.0994 10.8756 16.0166C10.8522 15.9338 10.797 15.8636 10.7221 15.8213Z" fill="#F5F5F5"/>
<path d="M16.7446 9.90414C16.8177 9.90408 16.8887 9.87922 16.9459 9.83363L18.5908 8.54261C18.6117 8.52406 18.63 8.50283 18.6452 8.47946C18.7943 8.39077 18.9113 8.25688 18.9793 8.09721C19.0472 7.93754 19.0625 7.7604 19.0229 7.59146C18.9834 7.42251 18.8911 7.27054 18.7593 7.1576C18.6276 7.04466 18.4633 6.97662 18.2903 6.96334C18.1173 6.95005 17.9446 6.99221 17.7972 7.08371C17.6497 7.17521 17.5353 7.3113 17.4704 7.47223C17.4055 7.63316 17.3936 7.81056 17.4363 7.97872C17.4791 8.14689 17.5743 8.29708 17.7081 8.40749L16.5434 9.32104C16.488 9.36231 16.4471 9.42009 16.4267 9.48608C16.4063 9.55207 16.4073 9.62286 16.4297 9.68821C16.4521 9.75356 16.4946 9.8101 16.5512 9.8497C16.6078 9.8893 16.6756 9.9099 16.7446 9.90853V9.90414ZM18.2266 7.62023C18.2588 7.62023 18.2903 7.62979 18.3172 7.64771C18.344 7.66562 18.3649 7.69109 18.3772 7.72088C18.3896 7.75067 18.3928 7.78345 18.3865 7.81508C18.3802 7.8467 18.3647 7.87576 18.3419 7.89856C18.3191 7.92136 18.29 7.93689 18.2584 7.94318C18.2268 7.94947 18.194 7.94624 18.1642 7.9339C18.1344 7.92156 18.1089 7.90065 18.091 7.87384C18.0731 7.84703 18.0636 7.81552 18.0636 7.78327C18.0636 7.74004 18.0807 7.69856 18.1113 7.66799C18.1419 7.63742 18.1834 7.62023 18.2266 7.62023Z" fill="#F5F5F5"/>
<path d="M17.8379 9.595C17.7559 9.56754 17.6664 9.57378 17.589 9.61235C17.5116 9.65091 17.4526 9.71863 17.4252 9.80062C17.3628 9.95859 17.3418 10.1299 17.3642 10.2982C17.3865 10.4666 17.4515 10.6265 17.553 10.7627C17.6172 10.8254 17.6936 10.8743 17.7775 10.9063C17.8613 10.9384 17.9509 10.953 18.0406 10.9492C18.1944 10.9457 18.3466 10.9174 18.4915 10.8655C18.5324 10.8521 18.5703 10.8308 18.603 10.8028C18.6356 10.7747 18.6624 10.7405 18.6818 10.7021C18.7011 10.6636 18.7127 10.6217 18.7158 10.5788C18.7189 10.5358 18.7134 10.4927 18.6997 10.4519C18.6861 10.411 18.6644 10.3734 18.6361 10.3409C18.6078 10.3085 18.5733 10.282 18.5347 10.263C18.4961 10.2439 18.4541 10.2327 18.4111 10.23C18.3682 10.2273 18.3251 10.2331 18.2844 10.2471C18.1984 10.2768 18.1092 10.2961 18.0186 10.3044C18.0038 10.2058 18.0128 10.1051 18.045 10.0107C18.059 9.96979 18.0648 9.92655 18.0619 9.88343C18.0591 9.84032 18.0477 9.79819 18.0284 9.75952C18.0091 9.72084 17.9824 9.68637 17.9497 9.65813C17.917 9.62989 17.879 9.60843 17.8379 9.595Z" fill="#F5F5F5"/>
<path d="M21.5716 8.24515C21.6128 8.25729 21.656 8.2612 21.6987 8.25662C21.7414 8.25204 21.7827 8.23906 21.8204 8.21845C21.8581 8.19785 21.8913 8.17002 21.9182 8.13654C21.945 8.10306 21.965 8.06459 21.977 8.02336L22.168 7.37124C22.1807 7.32997 22.1851 7.28659 22.1809 7.24361C22.1767 7.20063 22.164 7.15892 22.1435 7.12089C22.1231 7.08285 22.0953 7.04925 22.0617 7.02205C22.0282 6.99485 21.9896 6.97457 21.9481 6.96242C21.9067 6.95026 21.8633 6.94644 21.8203 6.95121C21.7774 6.95598 21.7359 6.96923 21.6981 6.99018C21.6604 7.01114 21.6271 7.03938 21.6004 7.07328C21.5736 7.10718 21.5539 7.14605 21.5423 7.18765L21.3513 7.83977C21.3392 7.88085 21.3352 7.92394 21.3397 7.96655C21.3442 8.00917 21.357 8.05048 21.3775 8.08813C21.3979 8.12578 21.4256 8.15901 21.4589 8.18596C21.4922 8.2129 21.5305 8.23301 21.5716 8.24515Z" fill="#F5F5F5"/>
<path d="M19.6717 8.20884C19.7086 8.23236 19.75 8.24817 19.7932 8.25534C19.8365 8.26251 19.8807 8.26089 19.9233 8.25057C19.9659 8.24025 20.006 8.22144 20.0412 8.19528C20.0764 8.16911 20.1059 8.13612 20.128 8.09828C20.1502 8.06044 20.1645 8.01855 20.17 7.97507C20.1756 7.93158 20.1723 7.88741 20.1604 7.84522C20.1485 7.80302 20.1282 7.76366 20.1008 7.72948C20.0733 7.69531 20.0393 7.66703 20.0007 7.64632C19.9346 7.60813 19.9434 7.49944 19.9463 7.47888C19.9489 7.43276 19.9639 7.38818 19.9897 7.3499C20.0156 7.31163 20.0513 7.28107 20.0932 7.26149C20.1341 7.24876 20.172 7.22812 20.205 7.20071C20.2379 7.1733 20.265 7.13968 20.285 7.10177C20.3049 7.06385 20.3171 7.02239 20.321 6.97974C20.3249 6.93709 20.3203 6.89407 20.3076 6.85318C20.2949 6.81229 20.2742 6.77432 20.2468 6.74142C20.2194 6.70851 20.1858 6.68132 20.1479 6.66141C20.11 6.6415 20.0685 6.62926 20.0258 6.62537C19.9832 6.62148 19.9402 6.62602 19.8993 6.63875C19.7354 6.69453 19.5911 6.79663 19.4839 6.9327C19.3768 7.06877 19.3114 7.23298 19.2957 7.40544C19.2727 7.56146 19.2961 7.72079 19.363 7.86362C19.4298 8.00645 19.5372 8.12648 19.6717 8.20884Z" fill="#F5F5F5"/>
<path d="M17.0839 13.4922C17.0028 13.4922 16.9246 13.5224 16.8646 13.577C16.8045 13.6315 16.767 13.7065 16.7593 13.7873C16.7516 13.868 16.7742 13.9488 16.8229 14.0137C16.8715 14.0786 16.9426 14.1231 17.0223 14.1384C17.0735 14.2411 17.0949 14.3561 17.0839 14.4704C17.0839 14.5568 17.1183 14.6398 17.1794 14.7009C17.2406 14.7621 17.3235 14.7964 17.41 14.7964C17.4965 14.7964 17.5794 14.7621 17.6406 14.7009C17.7017 14.6398 17.7361 14.5568 17.7361 14.4704C17.7361 13.5083 17.1104 13.4922 17.0839 13.4922Z" fill="#F5F5F5"/>
<path d="M22.6178 12.1421C22.6586 12.1489 22.6999 12.1523 22.7412 12.1523C22.8889 12.1424 23.0332 12.1031 23.1656 12.0368C23.298 11.9705 23.4159 11.8784 23.5123 11.7661C23.5426 11.7358 23.5666 11.6998 23.583 11.6603C23.5994 11.6207 23.6078 11.5783 23.6078 11.5355C23.6078 11.4926 23.5994 11.4502 23.583 11.4107C23.5666 11.3711 23.5426 11.3352 23.5123 11.3049C23.482 11.2746 23.4461 11.2506 23.4065 11.2342C23.3669 11.2178 23.3245 11.2094 23.2817 11.2094C23.2389 11.2094 23.1965 11.2178 23.1569 11.2342C23.1173 11.2506 23.0814 11.2746 23.0511 11.3049C22.8558 11.5002 22.7574 11.5046 22.7236 11.4987C22.6619 11.4899 22.6046 11.4092 22.5929 11.3857C22.5736 11.3471 22.5469 11.3127 22.5143 11.2844C22.4817 11.2562 22.4439 11.2346 22.403 11.221C22.3621 11.2073 22.3188 11.2019 22.2758 11.2049C22.2328 11.208 22.1908 11.2195 22.1522 11.2388C22.1137 11.2581 22.0793 11.2848 22.051 11.3173C22.0227 11.3499 22.0012 11.3878 21.9876 11.4287C21.9739 11.4696 21.9685 11.5128 21.9715 11.5558C21.9746 11.5988 21.9861 11.6408 22.0054 11.6794C22.066 11.7977 22.1525 11.9008 22.2586 11.9809C22.3646 12.061 22.4875 12.1161 22.6178 12.1421Z" fill="#F5F5F5"/>
<path d="M28.1648 9.84904V9.83434C28.1511 9.79373 28.1295 9.75623 28.1013 9.72396C28.0732 9.69169 28.0389 9.66529 28.0005 9.64626C27.9621 9.62723 27.9203 9.61595 27.8775 9.61307C27.8348 9.61018 27.7919 9.61576 27.7513 9.62945C27.7107 9.64315 27.6732 9.66471 27.6409 9.6929C27.6087 9.72109 27.5823 9.75536 27.5632 9.79375C27.5442 9.83214 27.5329 9.8739 27.53 9.91665C27.5271 9.9594 27.5327 10.0023 27.5464 10.0429C27.5824 10.1667 27.6504 10.2788 27.7434 10.368C27.8365 10.4572 27.9514 10.5204 28.0766 10.5511C28.1006 10.5527 28.1246 10.5527 28.1486 10.5511C28.2825 10.5368 28.4106 10.4889 28.521 10.4119C28.6314 10.3348 28.7206 10.2312 28.7802 10.1105C28.8039 10.0748 28.8204 10.0348 28.8286 9.99274C28.8369 9.95069 28.8368 9.90743 28.8283 9.86542C28.8199 9.82341 28.8032 9.78349 28.7793 9.74792C28.7554 9.71234 28.7248 9.68182 28.6891 9.65809C28.6534 9.63437 28.6134 9.6179 28.5714 9.60964C28.5293 9.60138 28.4861 9.60148 28.4441 9.60993C28.402 9.61839 28.3621 9.63504 28.3265 9.65892C28.291 9.68281 28.2605 9.71347 28.2368 9.74915C28.2149 9.78393 28.1908 9.8173 28.1648 9.84904Z" fill="#F5F5F5"/>
<path d="M27.5229 15.7762C27.5229 14.3853 27.4612 13.0795 27.376 11.9369C27.8181 12.6802 28.2012 13.4571 28.5216 14.2604C28.545 14.3226 28.5867 14.3761 28.6413 14.4139C28.6959 14.4517 28.7607 14.472 28.8271 14.4719C28.8662 14.4719 28.905 14.4649 28.9417 14.4513C28.9818 14.4363 29.0186 14.4135 29.0499 14.3843C29.0813 14.355 29.1065 14.3199 29.1242 14.2809C29.142 14.2419 29.1518 14.1998 29.1533 14.1569C29.1547 14.1141 29.1477 14.0714 29.1326 14.0313C28.6171 12.7833 27.9857 11.5865 27.2468 10.4564C27.069 8.69387 26.8693 7.5835 26.8649 7.56441C26.8573 7.52227 26.8414 7.48203 26.8183 7.44601C26.7951 7.40999 26.7651 7.3789 26.7299 7.35448C26.6947 7.33007 26.655 7.31281 26.6132 7.30372C26.5713 7.29463 26.5281 7.29389 26.486 7.3015C26.4438 7.30912 26.4036 7.32498 26.3676 7.34814C26.3315 7.37131 26.3004 7.40134 26.276 7.43653C26.2516 7.47172 26.2344 7.51135 26.2253 7.55321C26.2162 7.59506 26.2154 7.63829 26.2231 7.68043C26.2231 7.69512 26.3288 8.26794 26.4507 9.23584C26.1996 8.86425 25.9675 8.52791 25.7721 8.25179H25.7883C25.829 8.2658 25.8721 8.2716 25.9151 8.26889C25.958 8.26617 26 8.25498 26.0386 8.23594C26.0773 8.21691 26.1117 8.19042 26.14 8.15799C26.1683 8.12557 26.19 8.08786 26.2036 8.04704C26.2173 8.00622 26.2228 7.96308 26.2197 7.92014C26.2166 7.8772 26.205 7.83531 26.1857 7.79686C26.1663 7.75841 26.1395 7.72417 26.1069 7.69612C26.0742 7.66807 26.0363 7.64676 25.9954 7.63344L25.0172 7.30738C24.9756 7.29316 24.9315 7.2876 24.8877 7.29102C24.8438 7.29443 24.8011 7.30674 24.7622 7.32723C24.7233 7.34772 24.689 7.37594 24.6614 7.41015C24.6337 7.44437 24.6134 7.48387 24.6016 7.52622C24.5117 7.4425 24.4017 7.38348 24.2823 7.35491C24.1629 7.32634 24.0381 7.3292 23.9201 7.3632C23.8117 7.4144 23.7228 7.49928 23.6667 7.60518C23.6106 7.71107 23.5902 7.83228 23.6087 7.95069C23.6331 8.26877 23.709 8.58077 23.8334 8.87453C24.0258 9.41796 24.1462 9.81892 23.9421 10.0099C23.9014 10.0569 23.849 10.0926 23.7903 10.1132C23.7316 10.1338 23.6684 10.1387 23.6072 10.1274C23.406 10.076 23.2063 9.80866 23.0741 9.41063C23.0666 9.39472 23.0577 9.37948 23.0476 9.36509C23.1133 8.76198 23.0795 8.15218 22.9477 7.56C22.9308 7.47508 22.8808 7.40038 22.8088 7.35231C22.7368 7.30425 22.6486 7.28676 22.5637 7.3037C22.4788 7.32065 22.404 7.37064 22.356 7.44267C22.3079 7.5147 22.2904 7.60287 22.3074 7.68778C22.5546 8.45552 22.4935 9.28932 22.137 10.0128C22.079 10.0855 22.0045 10.1434 21.9197 10.1817C21.835 10.22 21.7423 10.2376 21.6494 10.2331C21.6196 10.2343 21.5899 10.2284 21.5629 10.2159C21.5358 10.2034 21.5121 10.1846 21.4937 10.1612C21.2532 9.57937 21.1928 8.93878 21.3204 8.32229C21.3269 8.27606 21.3234 8.22896 21.3102 8.18419C21.2969 8.13943 21.2742 8.09802 21.2436 8.06279C21.2129 8.02756 21.1751 7.99932 21.1326 7.97998C21.0901 7.96064 21.044 7.95065 20.9973 7.95069C20.4362 7.95069 20.2232 8.58958 20.0352 9.15211C19.953 9.40033 19.7988 9.86005 19.693 9.90851C19.4962 9.90851 19.3684 9.32837 19.367 8.92887C19.367 8.8424 19.3326 8.75946 19.2714 8.69831C19.2103 8.63716 19.1274 8.60281 19.0409 8.60281C18.9544 8.60281 18.8715 8.63716 18.8103 8.69831C18.7492 8.75946 18.7148 8.8424 18.7148 8.92887C18.7148 9.68087 18.9719 10.5606 19.693 10.5606C20.2306 10.5606 20.4494 9.97316 20.6315 9.42972C20.6345 9.84461 20.7636 10.2488 21.0017 10.5886C21.0816 10.6823 21.1812 10.7572 21.2935 10.8079C21.4057 10.8587 21.5277 10.8841 21.6509 10.8823C21.8405 10.8866 22.0286 10.8475 22.2007 10.7678C22.3728 10.6881 22.5244 10.57 22.6437 10.4226C22.6882 10.3654 22.7284 10.305 22.7642 10.2419C22.9225 10.4896 23.1651 10.6717 23.4471 10.7545C23.5225 10.7738 23.5999 10.7837 23.6777 10.7839C23.9452 10.7789 24.2002 10.6698 24.3886 10.4799C24.4287 10.4391 24.4651 10.3949 24.4973 10.3477C24.5755 10.371 24.6566 10.3834 24.7382 10.3844C24.9785 10.3782 25.2126 10.3066 25.4152 10.1773C25.4883 10.1308 25.5398 10.0571 25.5586 9.97254C25.5773 9.88798 25.5617 9.79944 25.5151 9.7264C25.4686 9.65336 25.3949 9.60181 25.3104 9.58308C25.2258 9.56435 25.1373 9.57999 25.0642 9.62654C24.9528 9.69274 24.8251 9.72631 24.6956 9.72346C24.6727 9.35495 24.5893 8.99272 24.4488 8.65129C24.3812 8.47336 24.3248 8.29137 24.2799 8.10638C24.3064 8.12841 24.3328 8.15191 24.3563 8.17541C24.3865 8.2057 24.4225 8.22972 24.4621 8.24612C24.5016 8.26251 24.5441 8.27095 24.5869 8.27095C24.6297 8.27095 24.6721 8.26251 24.7117 8.24612C24.7512 8.22972 24.7872 8.2057 24.8175 8.17541C24.8364 8.15368 24.8522 8.12947 24.8645 8.10345C25.2023 8.56904 25.8926 9.54869 26.6137 10.6767C26.7503 12.0632 26.8708 13.833 26.8708 15.7732C26.8708 15.8597 26.9051 15.9426 26.9663 16.0038C27.0274 16.0649 27.1104 16.0993 27.1968 16.0993C27.2833 16.0993 27.3662 16.0649 27.4274 16.0038C27.4885 15.9426 27.5229 15.8597 27.5229 15.7732V15.7762Z" fill="#F5F5F5"/>
<path d="M27.847 8.59959C27.847 8.68606 27.8813 8.76898 27.9425 8.83013C28.0036 8.89128 28.0866 8.92565 28.1731 8.92565C28.2595 8.92565 28.3425 8.89128 28.4036 8.83013C28.4648 8.76898 28.4991 8.68606 28.4991 8.59959C28.4468 8.20601 28.3244 7.82497 28.1378 7.47452C28.1185 7.43594 28.0918 7.40155 28.0592 7.37329C28.0267 7.34503 27.9888 7.32346 27.9479 7.30982C27.907 7.29618 27.8638 7.29074 27.8208 7.2938C27.7778 7.29685 27.7357 7.30837 27.6972 7.32766C27.6586 7.34695 27.6242 7.37363 27.596 7.40621C27.5677 7.43879 27.5461 7.47663 27.5325 7.51755C27.5189 7.55846 27.5134 7.60167 27.5164 7.64469C27.5195 7.68771 27.531 7.72969 27.5503 7.76826C27.691 8.0286 27.7911 8.30897 27.847 8.59959Z" fill="#F5F5F5"/>
<path d="M26.3646 15.8109C26.3261 15.7913 26.2841 15.7795 26.241 15.7763C26.1979 15.7731 26.1546 15.7785 26.1136 15.7922C26.0726 15.8058 26.0347 15.8275 26.0021 15.8559C25.9696 15.8844 25.943 15.919 25.924 15.9578C25.8874 16.0279 25.842 16.093 25.7889 16.1517C25.7837 15.947 25.813 15.743 25.8755 15.548C25.8967 15.4785 25.8941 15.4039 25.868 15.3361C25.8419 15.2683 25.794 15.2111 25.7317 15.1736C25.6694 15.1362 25.5964 15.1206 25.5243 15.1293C25.4522 15.1381 25.3851 15.1707 25.3336 15.222L24.6815 15.8741C24.6203 15.9352 24.5859 16.0182 24.5859 16.1047C24.5859 16.1912 24.6203 16.2741 24.6815 16.3353C24.7426 16.3964 24.8255 16.4308 24.912 16.4308C24.9985 16.4308 25.0815 16.3964 25.1426 16.3353L25.1588 16.3191C25.1826 16.4477 25.2434 16.5666 25.3336 16.6613C25.3883 16.7192 25.454 16.7655 25.5269 16.7975C25.5998 16.8296 25.6784 16.8467 25.758 16.8478C25.7878 16.8501 25.8178 16.8501 25.8476 16.8478C25.9935 16.8032 26.1281 16.7276 26.2421 16.6262C26.3562 16.5248 26.4471 16.4 26.5086 16.2604C26.5297 16.2216 26.5427 16.179 26.5469 16.1351C26.551 16.0912 26.5463 16.0468 26.5328 16.0048C26.5193 15.9628 26.4975 15.9239 26.4686 15.8906C26.4397 15.8573 26.4043 15.8302 26.3646 15.8109Z" fill="#F5F5F5"/>
<path d="M26.2366 13.186H23.938C23.9586 13.1048 23.9796 13.0274 24.0012 12.954C24.9177 12.763 25.4699 12.4678 25.6168 12.0727C25.6636 11.9504 25.6768 11.8179 25.6551 11.6887C25.6334 11.5596 25.5776 11.4387 25.4934 11.3384C25.4058 11.205 25.2806 11.1005 25.1338 11.038C24.9869 10.9756 24.8248 10.9579 24.668 10.9873C24.2038 11.0813 23.7867 11.5748 23.493 12.3797C22.8018 12.4711 22.1497 12.7534 21.61 13.1948C21.5519 12.4297 21.3204 11.6879 20.9329 11.0255C20.9092 10.9898 20.8787 10.9592 20.8431 10.9353C20.8076 10.9114 20.7676 10.8948 20.7256 10.8863C20.6836 10.8779 20.6404 10.8777 20.5983 10.886C20.5563 10.8943 20.5163 10.9107 20.4806 10.9344C20.4449 10.9582 20.4142 10.9887 20.3903 11.0243C20.3665 11.0598 20.3498 11.0998 20.3414 11.1418C20.3329 11.1838 20.3328 11.227 20.3411 11.2691C20.3493 11.3111 20.3658 11.3511 20.3895 11.3868C20.8041 12.1279 21.0107 12.9673 20.9873 13.8161C21.0112 14.41 20.8295 14.994 20.4728 15.4695C20.1162 15.945 19.6064 16.2829 19.0295 16.4261C18.6638 16.4261 18.5022 15.9855 18.4317 15.6227C19.124 15.2281 19.6724 14.623 19.9974 13.8954C20.1345 13.3007 20.0576 12.6766 19.78 12.133L19.7565 12.0757L19.777 12.0948C19.8382 12.1559 19.9212 12.1903 20.0077 12.1903C20.0941 12.1903 20.1771 12.1559 20.2382 12.0948C20.2994 12.0336 20.3338 11.9507 20.3338 11.8642C20.3338 11.7777 20.2994 11.6947 20.2382 11.6336C20.0473 11.4426 19.6772 11.143 19.3408 11.284C19.2325 11.3352 19.1436 11.4201 19.0875 11.526C19.0313 11.6319 19.011 11.7531 19.0295 11.8715C19.0433 12.0543 19.0932 12.2325 19.1763 12.3959C19.3969 12.811 19.462 13.2912 19.3599 13.75C19.1268 14.2378 18.7555 14.6464 18.2922 14.925C18.2625 14.8879 18.225 14.8579 18.1823 14.837C18.1397 14.8162 18.0929 14.8051 18.0454 14.8046C17.9589 14.8046 17.876 14.8389 17.8148 14.9001C17.7537 14.9612 17.7194 15.0442 17.7194 15.1307C17.7194 15.1894 17.7194 15.2526 17.7194 15.3172C17.0473 15.7484 16.346 16.1322 15.6205 16.4657C15.5528 16.4966 15.4976 16.5498 15.4643 16.6163C15.4309 16.6829 15.4213 16.7588 15.4371 16.8316C15.4529 16.9043 15.4931 16.9695 15.551 17.0162C15.609 17.063 15.6812 17.0885 15.7556 17.0885C15.8023 17.0886 15.8484 17.0785 15.8908 17.0591C16.5603 16.75 17.2111 16.4018 17.8398 16.0163C17.8841 16.3022 18.0247 16.5644 18.2384 16.7594C18.4521 16.9544 18.726 17.0705 19.0148 17.0885C19.4845 17.0311 19.9316 16.8543 20.3137 16.5751C20.6958 16.2959 21 15.9235 21.1973 15.4934C21.2592 15.6042 21.332 15.7086 21.4147 15.8048C22.097 16.4265 22.9885 16.7684 23.9116 16.7624C23.998 16.7655 24.0822 16.7342 24.1456 16.6752C24.2089 16.6163 24.2463 16.5346 24.2494 16.4481C24.2525 16.3617 24.2211 16.2775 24.1622 16.2141C24.1032 16.1508 24.0215 16.1134 23.9351 16.1103C23.7812 16.0913 23.638 16.0215 23.5282 15.912C23.4822 15.8516 23.4489 15.7824 23.4305 15.7086C23.412 15.6349 23.4088 15.5582 23.421 15.4831C23.4548 15.0807 24.7517 14.7811 25.8944 14.7635C25.961 14.7625 26.0257 14.7411 26.0798 14.7023C26.1338 14.6634 26.1747 14.6089 26.1969 14.5461L26.523 13.6281C26.5415 13.5787 26.5478 13.5254 26.5412 13.473C26.5347 13.4206 26.5155 13.3705 26.4853 13.3272C26.4551 13.2838 26.4148 13.2485 26.3679 13.2241C26.321 13.1998 26.2689 13.1872 26.216 13.1875L26.2366 13.186ZM24.8046 11.6277H24.8295C24.8604 11.6277 24.9103 11.6424 24.9764 11.732C24.9882 11.7481 25.0293 11.8054 25.019 11.8304C24.9823 11.9229 24.7561 12.0757 24.2846 12.2137C24.4917 11.8084 24.6944 11.6512 24.8046 11.6292V11.6277ZM22.835 15.9164C22.49 15.8178 22.178 15.628 21.9317 15.3671C21.8009 15.2093 21.7067 15.0244 21.6559 14.8258C21.6051 14.6272 21.599 14.4198 21.638 14.2186C21.6568 14.1708 21.6793 14.1246 21.7055 14.0805C22.1652 14.0379 23.3916 14.22 23.4768 14.5711C23.2971 14.6399 23.1386 14.7549 23.0174 14.9044C22.8963 15.054 22.8166 15.2328 22.7865 15.4229C22.7726 15.589 22.789 15.7562 22.835 15.9164Z" fill="#F5F5F5"/>
<path d="M29.79 8.4952L29.4639 7.51701C29.4392 7.44019 29.3868 7.37528 29.3169 7.33485C29.247 7.29443 29.1646 7.28135 29.0857 7.29817C29.0067 7.31498 28.9368 7.36048 28.8895 7.42587C28.8422 7.49125 28.8207 7.57188 28.8294 7.65213C29.0541 9.90371 29.4801 14.2938 29.4801 14.7961C29.4801 15.2485 28.6767 16.1385 27.3769 16.7877C27.3383 16.807 27.3039 16.8337 27.2756 16.8663C27.2474 16.8989 27.2258 16.9367 27.2121 16.9776C27.1985 17.0185 27.1931 17.0617 27.1961 17.1047C27.1992 17.1478 27.2107 17.1898 27.23 17.2283C27.2493 17.2669 27.276 17.3013 27.3086 17.3296C27.3411 17.3578 27.3789 17.3794 27.4198 17.393C27.4608 17.4067 27.504 17.4121 27.547 17.4091C27.59 17.406 27.632 17.3945 27.6706 17.3752C28.8573 16.7877 30.1352 15.7229 30.1352 14.8005C30.1352 14.3188 29.8018 10.851 29.6108 8.90203C29.6866 8.86946 29.7472 8.80939 29.7805 8.7339C29.8137 8.6584 29.8171 8.5731 29.79 8.4952Z" fill="#F5F5F5"/>
<path d="M32.5112 11.4385C32.5617 11.489 32.6275 11.5215 32.6983 11.531C32.7691 11.5405 32.841 11.5265 32.9031 11.4911C32.9652 11.4557 33.0139 11.4009 33.0418 11.3352C33.0697 11.2694 33.0752 11.1963 33.0576 11.1271C33.001 10.9211 32.985 10.7061 33.0105 10.4941C33.0915 10.4972 33.1707 10.4705 33.2333 10.4191C33.2958 10.3676 33.3373 10.295 33.3499 10.215C33.362 10.1295 33.3398 10.0427 33.288 9.97358C33.2362 9.90447 33.1592 9.85872 33.0737 9.84635C32.9761 9.82865 32.8757 9.83592 32.7817 9.86751C32.6877 9.8991 32.6032 9.95398 32.5361 10.027C32.4516 10.1271 32.3948 10.2476 32.3716 10.3766L31.9942 9.99909C31.9639 9.9688 31.9279 9.94479 31.8884 9.9284C31.8488 9.91201 31.8064 9.90357 31.7636 9.90357C31.7208 9.90357 31.6784 9.91201 31.6388 9.9284C31.5992 9.94479 31.5633 9.9688 31.533 9.99909C31.5027 10.0294 31.4787 10.0653 31.4623 10.1049C31.4459 10.1445 31.4375 10.1869 31.4375 10.2297C31.4375 10.2725 31.4459 10.3149 31.4623 10.3545C31.4787 10.394 31.5027 10.43 31.533 10.4603L32.5112 11.4385Z" fill="#F5F5F5"/>
<path d="M33.2423 11.7721L32.0189 12.6534C31.9486 12.7038 31.9012 12.7801 31.8871 12.8655C31.8731 12.9509 31.8936 13.0384 31.944 13.1087C31.9945 13.179 32.0707 13.2264 32.1561 13.2404C32.2415 13.2545 32.329 13.234 32.3993 13.1836L33.6228 12.3023C33.6576 12.2774 33.6871 12.2458 33.7098 12.2094C33.7324 12.173 33.7476 12.1325 33.7545 12.0902C33.7615 12.0479 33.76 12.0047 33.7503 11.963C33.7405 11.9212 33.7227 11.8818 33.6977 11.847C33.6727 11.8122 33.6411 11.7826 33.6047 11.76C33.5683 11.7374 33.5278 11.7222 33.4856 11.7153C33.4433 11.7083 33.4 11.7097 33.3583 11.7195C33.3166 11.7293 33.2772 11.7471 33.2423 11.7721Z" fill="#F5F5F5"/>
<path d="M33.1371 13.007C33.0879 13.0702 33.0637 13.1493 33.0691 13.2293C33.0745 13.3092 33.1092 13.3843 33.1664 13.4403C33.2299 13.5883 33.2527 13.7506 33.2325 13.9103C33.231 13.9531 33.2378 13.9959 33.2528 14.036C33.2677 14.0762 33.2905 14.113 33.3197 14.1443C33.3489 14.1757 33.384 14.201 33.4229 14.2188C33.4619 14.2366 33.504 14.2466 33.5468 14.2481H33.5586C33.643 14.2482 33.7243 14.2154 33.7851 14.1568C33.8459 14.0982 33.8816 14.0182 33.8847 13.9338C33.9082 13.2685 33.6908 13.0247 33.5909 12.9512C33.523 12.8991 33.4375 12.8758 33.3526 12.8862C33.2677 12.8967 33.1903 12.9401 33.1371 13.007Z" fill="#F5F5F5"/>
<path d="M35.984 15.4053C36.0705 15.4053 36.1534 15.3709 36.2145 15.3098C36.2757 15.2486 36.3101 15.1657 36.3101 15.0792C36.3101 14.5975 36.2851 14.0599 36.2454 13.5018C36.5323 13.9573 36.788 14.4318 37.0106 14.922C37.0353 14.9799 37.0761 15.0294 37.1282 15.0646C37.1804 15.0998 37.2415 15.1191 37.3044 15.1203C37.3484 15.1203 37.3919 15.1113 37.4322 15.0939C37.4717 15.0771 37.5074 15.0526 37.5375 15.022C37.5675 14.9913 37.5912 14.955 37.6072 14.9151C37.6231 14.8753 37.6311 14.8327 37.6305 14.7898C37.63 14.7468 37.621 14.7044 37.604 14.665C37.1787 13.7675 36.6795 12.9068 36.1118 12.0918C35.984 10.8947 35.818 9.72122 35.6873 8.87963C35.7592 8.88647 35.8313 8.86831 35.8915 8.82822C35.9401 8.79697 35.9794 8.7532 36.0052 8.70151C36.0311 8.64981 36.0425 8.59212 36.0383 8.53447C36.0455 8.56757 36.0579 8.59929 36.0751 8.62847C36.2068 8.87273 36.2489 9.15542 36.194 9.42747C36.1766 9.51199 36.1935 9.59994 36.2409 9.67207C36.2882 9.7442 36.3622 9.79463 36.4466 9.8123C36.4686 9.81442 36.4908 9.81442 36.5127 9.8123C36.5876 9.81216 36.6602 9.78624 36.7183 9.7389C36.7763 9.69156 36.8163 9.62567 36.8315 9.55233C36.9194 9.11441 36.8458 8.65946 36.6244 8.27157C36.5776 8.19873 36.504 8.14734 36.4195 8.12863C36.335 8.10992 36.2466 8.12541 36.1735 8.1717C36.125 8.20307 36.0858 8.24687 36.06 8.29853C36.0341 8.35019 36.0226 8.40783 36.0266 8.46545C36.0195 8.43236 36.0071 8.40063 35.9899 8.37145L35.4391 7.51517C35.3987 7.45107 35.3371 7.40307 35.2651 7.37942C35.193 7.35578 35.1151 7.35797 35.0445 7.38561C34.9739 7.41325 34.9151 7.46463 34.8783 7.5309C34.8415 7.59716 34.829 7.67416 34.8428 7.74869C34.8428 7.77366 35.0969 9.2057 35.3172 10.9315C35.0675 10.579 34.8163 10.2324 34.574 9.90335C34.5343 9.40986 34.4947 8.95306 34.4609 8.58147C34.4791 8.57612 34.4968 8.56925 34.5138 8.56092C34.5526 8.54187 34.5872 8.51529 34.6156 8.48275C34.6441 8.4502 34.6658 8.41234 34.6794 8.37134C34.6931 8.33034 34.6985 8.28703 34.6952 8.24393C34.692 8.20084 34.6803 8.15881 34.6607 8.12029L34.3346 7.46817C34.3008 7.3995 34.2439 7.3449 34.174 7.31394C34.104 7.28297 34.0253 7.27762 33.9518 7.29881C33.8782 7.32 33.8145 7.36637 33.7717 7.42982C33.7289 7.49328 33.7098 7.56977 33.7178 7.64589C33.7574 8.03511 33.7971 8.46692 33.8367 8.9193C33.6311 8.64758 33.4387 8.39789 33.2756 8.18493C33.3164 8.14994 33.348 8.10541 33.3674 8.0553C33.3869 8.00519 33.3936 7.95103 33.3871 7.89768C33.3805 7.84433 33.3609 7.79343 33.3299 7.7495C33.2989 7.70557 33.2576 7.66998 33.2096 7.64589L32.5574 7.31983C32.4908 7.28582 32.4145 7.27575 32.3413 7.29132C32.2681 7.3069 32.2025 7.34717 32.1555 7.40537C32.1085 7.46357 32.083 7.53616 32.0831 7.61097C32.0833 7.68579 32.1092 7.75827 32.1564 7.81626C32.1741 7.83829 32.9775 8.84439 33.9381 10.1442C34.1291 11.7595 34.1694 13.3889 34.0585 15.0116C34.0291 15.0983 33.9792 15.1996 33.9322 15.2026C33.7354 15.2305 33.2639 14.7899 33.0274 14.3213C32.994 14.2324 32.9334 14.1562 32.8544 14.1035C32.7753 14.0508 32.6817 14.0243 32.5868 14.0276C32.2358 14.0496 32.0992 14.4344 31.8524 15.135C31.715 15.6281 31.4961 16.0948 31.2047 16.5156C30.9923 16.1161 30.8549 15.681 30.7994 15.2319C30.8252 15.3039 30.8756 15.3645 30.9417 15.4029C31.0078 15.4413 31.0854 15.4552 31.1607 15.442C31.2361 15.4288 31.3043 15.3895 31.3535 15.3309C31.4027 15.2723 31.4295 15.1983 31.4294 15.1218C31.4294 14.6356 31.0887 10.93 30.8992 8.9002C30.9763 8.86928 31.0386 8.81012 31.0736 8.73479C31.1085 8.65946 31.1134 8.57363 31.0872 8.49483L30.7612 7.51665C30.7363 7.44011 30.684 7.37548 30.6143 7.33518C30.5447 7.29488 30.4626 7.28177 30.3839 7.29836C30.3051 7.31495 30.2353 7.36006 30.1878 7.42503C30.1403 7.49 30.1185 7.57025 30.1267 7.65031C30.3484 9.97826 30.7641 14.4726 30.7773 15.0924V15.0763C30.765 14.9906 30.7192 14.9132 30.65 14.8613C30.5807 14.8094 30.4936 14.7871 30.4079 14.7994C30.3222 14.8117 30.2449 14.8575 30.193 14.9268C30.1411 14.996 30.1188 15.0831 30.1311 15.1688C30.2265 15.8356 30.4703 16.9827 31.0299 17.1692C31.0858 17.1878 31.1444 17.1973 31.2033 17.1971C31.2903 17.1948 31.376 17.1747 31.4551 17.138C31.5341 17.1014 31.6048 17.0491 31.663 16.9842C32.0358 16.4985 32.3103 15.9447 32.4708 15.3539C32.5193 15.2187 32.575 15.0601 32.6294 14.922C32.9231 15.3627 33.4504 15.9032 33.9792 15.8606C34.1481 15.8425 34.3069 15.7711 34.4326 15.6568C34.5583 15.5425 34.6443 15.3911 34.6783 15.2246C34.8253 13.8708 34.8214 12.5048 34.6666 11.1518C34.9412 11.5366 35.2158 11.9317 35.4787 12.3268C35.5801 13.3035 35.6535 14.2831 35.6535 15.0865C35.6555 15.1725 35.6913 15.2542 35.7532 15.3139C35.8151 15.3736 35.898 15.4065 35.984 15.4053Z" fill="#F5F5F5"/>
<path d="M38.4585 13.6935C38.2279 11.9721 37.9048 9.97757 37.7021 8.75411C37.7492 8.76549 37.7981 8.76611 37.8454 8.75594C37.8927 8.74577 37.9372 8.72507 37.9753 8.69537C38.0441 8.64295 38.0891 8.5654 38.1007 8.47975C38.1123 8.3941 38.0894 8.30735 38.037 8.23858L37.4495 7.46308C37.4068 7.40067 37.3436 7.35507 37.271 7.33408C37.1983 7.3131 37.1205 7.31804 37.0511 7.34807C36.9817 7.3781 36.9248 7.43136 36.8903 7.49869C36.8558 7.56603 36.8458 7.64328 36.862 7.71718C36.862 7.75096 37.4495 11.0953 37.8094 13.7801C37.8978 14.2031 37.8957 14.6399 37.803 15.062C37.7103 15.484 37.5293 15.8816 37.2718 16.2285C37.1194 16.3888 36.9321 16.5118 36.7246 16.5882C36.517 16.6646 36.2947 16.6923 36.0748 16.6692C36.0315 16.6654 35.9879 16.6704 35.9465 16.6837C35.9052 16.6971 35.867 16.7186 35.834 16.7469C35.8011 16.7753 35.7742 16.8099 35.7548 16.8488C35.7355 16.8877 35.7241 16.9301 35.7214 16.9735C35.7186 17.0168 35.7246 17.0603 35.7389 17.1013C35.7532 17.1423 35.7755 17.1801 35.8046 17.2124C35.8337 17.2446 35.8689 17.2707 35.9083 17.2892C35.9476 17.3077 35.9902 17.3181 36.0336 17.3198C36.0894 17.3198 36.1438 17.3198 36.1967 17.3198C36.487 17.3259 36.7753 17.2704 37.0427 17.157C37.31 17.0435 37.5503 16.8748 37.7477 16.6618C38.0738 16.2479 38.3063 15.7682 38.429 15.2557C38.5518 14.7432 38.5618 14.2102 38.4585 13.6935Z" fill="#F5F5F5"/>
<path d="M34.8709 15.8386C34.8138 15.9023 34.7835 15.9856 34.7865 16.071C34.7896 16.1565 34.8256 16.2374 34.887 16.2969C34.9066 16.315 34.9204 16.3385 34.9267 16.3645C34.918 16.3935 34.9006 16.4191 34.8768 16.4379C34.8156 16.499 34.7812 16.582 34.7813 16.6685C34.7812 16.755 34.8156 16.8379 34.8768 16.8991C34.9379 16.9602 35.0208 16.9946 35.1073 16.9946C35.1938 16.9946 35.2768 16.9602 35.3379 16.8991C35.4154 16.8288 35.477 16.7428 35.5185 16.6468C35.5601 16.5508 35.5806 16.447 35.5788 16.3424C35.5668 16.1385 35.475 15.9475 35.3232 15.8107C35.2593 15.7551 35.176 15.7268 35.0914 15.7321C35.0068 15.7373 34.9276 15.7756 34.8709 15.8386Z" fill="#F5F5F5"/>
<path d="M33.7222 22.9978H31.4383V22.6718C31.4383 22.5853 31.4039 22.5024 31.3428 22.4412C31.2816 22.3801 31.1987 22.3457 31.1122 22.3457C31.0257 22.3457 30.9428 22.3801 30.8816 22.4412C30.8205 22.5024 30.7861 22.5853 30.7861 22.6718V22.9978H13.4961C14.3309 23.657 15.3702 24.0031 16.4336 23.976H30.7876V24.6282C30.7876 24.7146 30.822 24.7975 30.8831 24.8587C30.9443 24.9198 31.0272 24.9542 31.1137 24.9542H33.7236C33.9833 24.9542 34.2322 24.851 34.4158 24.6675C34.5994 24.4839 34.7025 24.2349 34.7025 23.9753C34.7025 23.7156 34.5994 23.4667 34.4158 23.2831C34.2322 23.0995 33.9833 22.9963 33.7236 22.9963L33.7222 22.9978ZM33.7222 24.3021H31.4383V23.976H34.0482L33.9895 23.7997C34.0262 23.8513 34.0467 23.9127 34.0482 23.976C34.0484 24.019 34.0401 24.0615 34.0238 24.1013C34.0075 24.141 33.9835 24.1771 33.9532 24.2075C33.9229 24.238 33.8869 24.2621 33.8473 24.2786C33.8076 24.2951 33.7651 24.3035 33.7222 24.3035V24.3021Z" fill="#F5F5F5"/>
</svg>
