<svg width="40" height="40" viewBox="0 0 40 40" fill="none" xmlns="http://www.w3.org/2000/svg">
<g clip-path="url(#clip0_403_72790)">
<path d="M38.2266 13.5312L34.9822 12.3665H34.9821C34.7985 11.8077 34.5729 11.2635 34.3073 10.7386L35.7784 7.62061C35.8263 7.51907 35.8417 7.40522 35.8224 7.29461C35.8032 7.184 35.7503 7.08203 35.6709 7.00263L32.8645 4.19596C32.7851 4.11656 32.6831 4.06362 32.5725 4.04436C32.4619 4.02511 32.348 4.04048 32.2465 4.08838L29.1284 5.55944C28.6035 5.29384 28.0593 5.06828 27.5004 4.88467L26.3359 1.64023C26.2979 1.53456 26.2283 1.44318 26.1365 1.37858C26.0446 1.31398 25.9351 1.2793 25.8228 1.2793H21.8537C21.7415 1.2793 21.6319 1.31398 21.5401 1.37858C21.4483 1.44318 21.3787 1.53456 21.3407 1.64023L20.1762 4.88467C19.6173 5.06829 19.0731 5.29386 18.5481 5.55944L15.4301 4.08846C15.3286 4.04054 15.2147 4.02517 15.1041 4.04444C14.9935 4.06371 14.8915 4.11668 14.8121 4.19611L12.0055 7.00263C11.9261 7.082 11.8731 7.18394 11.8539 7.29453C11.8347 7.40511 11.85 7.51894 11.898 7.62045L13.3689 10.7385C13.1035 11.2634 12.878 11.8076 12.6943 12.3664L9.44972 13.5312C9.34405 13.5691 9.25268 13.6387 9.18809 13.7305C9.1235 13.8224 9.08885 13.9319 9.08887 14.0442V18.0131C9.08887 18.1254 9.12355 18.2349 9.18815 18.3267C9.25275 18.4186 9.34413 18.4882 9.4498 18.5261L12.6943 19.6907C12.8778 20.2495 13.1033 20.7936 13.3689 21.3184L11.898 24.4368C11.8501 24.5383 11.8347 24.6521 11.8539 24.7627C11.8732 24.8733 11.9261 24.9753 12.0055 25.0547L14.8121 27.8612C14.8915 27.9406 14.9935 27.9935 15.1041 28.0127C15.2147 28.032 15.3285 28.0167 15.4301 27.9688L18.5481 26.4979C19.073 26.7635 19.6172 26.989 20.1761 27.1726L21.3406 30.417C21.3785 30.5227 21.4482 30.614 21.54 30.6786C21.6318 30.7432 21.7413 30.7779 21.8536 30.7779H25.8227C25.935 30.7779 26.0445 30.7432 26.1363 30.6786C26.2281 30.614 26.2978 30.5227 26.3357 30.417L27.5002 27.1726C28.059 26.9891 28.6033 26.7635 29.1282 26.4979L32.2463 27.9691C32.3479 28.0169 32.4617 28.0322 32.5723 28.013C32.6829 27.9937 32.7849 27.9408 32.8643 27.8614L35.6708 25.0547C35.7502 24.9753 35.8031 24.8733 35.8223 24.7627C35.8416 24.652 35.8262 24.5382 35.7783 24.4366L34.3072 21.3188C34.5728 20.7939 34.7983 20.2496 34.9819 19.6907L38.2264 18.5262C38.3321 18.4883 38.4235 18.4187 38.4881 18.3268C38.5527 18.235 38.5874 18.1255 38.5873 18.0132V14.0442C38.5874 13.9319 38.5527 13.8224 38.4882 13.7306C38.4236 13.6388 38.3322 13.5691 38.2266 13.5312ZM23.9007 20.7513C21.2925 20.7513 19.1781 18.637 19.1781 16.0287C19.1781 13.4205 21.2926 11.3061 23.9007 11.3061C26.5088 11.3061 28.6234 13.4204 28.6234 16.0287C28.6235 18.637 26.5089 20.7513 23.9007 20.7513Z" fill="#511B4B"/>
<path d="M23.8383 9.97852C20.4977 9.97852 17.7896 12.6866 17.7896 16.0273C17.7896 19.3678 20.4977 22.0759 23.8383 22.0759C27.1788 22.0759 29.887 19.3678 29.887 16.0273C29.887 12.6866 27.1787 9.97852 23.8383 9.97852ZM23.8383 19.7659C21.7734 19.7659 20.0995 18.0921 20.0995 16.0272C20.0995 13.9624 21.7734 12.2884 23.8383 12.2884C25.9031 12.2884 27.5771 13.9623 27.5771 16.0272C27.5771 18.0921 25.903 19.7659 23.8383 19.7659Z" fill="#511B4B"/>
<path d="M15.6563 16.0286C15.6563 9.26999 20.2024 3.57339 26.4036 1.82917C26.3469 1.67119 26.2526 1.2793 25.8227 1.2793H21.8536C21.7413 1.2793 21.6318 1.31398 21.54 1.37858C21.4481 1.44318 21.3785 1.53456 21.3406 1.64023L20.1762 4.88475C19.6173 5.06837 19.0731 5.29393 18.5481 5.55952L15.4301 4.08861C15.3286 4.0407 15.2147 4.02532 15.1041 4.04459C14.9935 4.06386 14.8915 4.11683 14.8121 4.19626L12.0055 7.00278C11.9261 7.08215 11.8731 7.18409 11.8539 7.29468C11.8347 7.40526 11.85 7.51909 11.898 7.6206L13.3689 10.7386C13.1035 11.2636 12.878 11.8078 12.6943 12.3665L9.44972 13.5313C9.34405 13.5692 9.25268 13.6389 9.18809 13.7307C9.1235 13.8225 9.08885 13.9321 9.08887 14.0443V18.0133C9.08887 18.1255 9.12355 18.2351 9.18815 18.3269C9.25275 18.4187 9.34413 18.4884 9.4498 18.5263L12.6943 19.6908C12.8778 20.2496 13.1033 20.7938 13.3689 21.3186L11.898 24.4369C11.8501 24.5384 11.8347 24.6523 11.8539 24.7629C11.8732 24.8735 11.9261 24.9754 12.0055 25.0548L14.8121 27.8613C14.8915 27.9407 14.9935 27.9936 15.1041 28.0129C15.2147 28.0322 15.3285 28.0168 15.4301 27.969L18.5481 26.4981C19.073 26.7636 19.6172 26.9892 20.1761 27.1728L21.3406 30.4171C21.3785 30.5228 21.4482 30.6142 21.54 30.6788C21.6318 30.7434 21.7413 30.7781 21.8536 30.7781H25.8227C26.2542 30.7781 26.3484 30.3819 26.4036 30.2282C20.2025 28.484 15.6563 22.7875 15.6563 16.0286Z" fill="#511B4B"/>
<path d="M21.4054 26.8343L19.169 26.0315C19.0423 25.6463 18.8868 25.2712 18.7038 24.9094L19.7178 22.76C19.7508 22.69 19.7614 22.6115 19.7482 22.5352C19.7349 22.459 19.6984 22.3887 19.6437 22.334L17.7091 20.3993C17.6544 20.3446 17.5841 20.3081 17.5079 20.2948C17.4316 20.2815 17.3531 20.2921 17.2831 20.3252L15.1337 21.3392H15.1336C14.7718 21.1561 14.3967 21.0006 14.0114 20.874L13.2087 18.6375C13.1826 18.5647 13.1346 18.5017 13.0713 18.4571C13.008 18.4126 12.9325 18.3887 12.8551 18.3887H10.1191C10.0417 18.3887 9.96619 18.4126 9.90289 18.4571C9.8396 18.5017 9.7916 18.5647 9.76546 18.6375L8.96277 20.874C8.57753 21.0007 8.20238 21.1562 7.8405 21.3392L5.6912 20.3252C5.6212 20.2922 5.54271 20.2816 5.46646 20.2949C5.3902 20.3081 5.31991 20.3446 5.26518 20.3994L3.33051 22.334C3.27579 22.3887 3.2393 22.459 3.22604 22.5352C3.21277 22.6114 3.22337 22.6899 3.25638 22.7599L4.27031 24.9093C4.08778 25.2701 3.93131 25.6476 3.80535 26.0315L1.56866 26.8343C1.49581 26.8605 1.43282 26.9084 1.38828 26.9717C1.34374 27.035 1.31984 27.1105 1.31982 27.1879V29.9238C1.31984 30.0012 1.34374 30.0767 1.38828 30.14C1.43282 30.2033 1.49581 30.2513 1.56866 30.2774L3.80519 31.0802C3.93175 31.4654 4.08718 31.8405 4.27016 32.2023L3.25623 34.3518C3.22321 34.4218 3.21262 34.5003 3.22589 34.5765C3.23915 34.6528 3.27564 34.723 3.33036 34.7778L5.26503 36.7124C5.31978 36.7671 5.39007 36.8035 5.46632 36.8168C5.54256 36.8301 5.62105 36.8195 5.69105 36.7865L7.84035 35.7726C8.20217 35.9557 8.57733 36.1111 8.96262 36.2376L9.76531 38.4741C9.79146 38.5469 9.83946 38.6099 9.90275 38.6544C9.96605 38.699 10.0415 38.7229 10.1189 38.7229H12.8549C12.9323 38.7229 13.0078 38.699 13.0711 38.6544C13.1344 38.6099 13.1824 38.5469 13.2086 38.4741L14.0113 36.2376C14.3965 36.111 14.7717 35.9556 15.1335 35.7726L17.283 36.7866C17.353 36.8196 17.4315 36.8302 17.5077 36.8169C17.5839 36.8037 17.6542 36.7672 17.709 36.7125L19.6436 34.7778C19.6983 34.723 19.7348 34.6527 19.7481 34.5765C19.7613 34.5002 19.7507 34.4217 19.7177 34.3517L18.7037 32.2024C18.8868 31.8406 19.0423 31.4655 19.1688 31.0802L21.4054 30.2775C21.4782 30.2513 21.5412 30.2033 21.5857 30.1401C21.6303 30.0768 21.6542 30.0013 21.6542 29.9239V27.1879C21.6542 27.1105 21.6303 27.0351 21.5858 26.9718C21.5412 26.9085 21.4783 26.8605 21.4054 26.8343ZM11.4872 31.5804C9.81676 31.5804 8.46262 30.2263 8.46262 28.5559C8.46262 26.8855 9.81676 25.5313 11.4872 25.5313C13.1576 25.5313 14.5117 26.8855 14.5117 28.5559C14.5117 30.2262 13.1575 31.5804 11.4872 31.5804Z" fill="white"/>
<path d="M11.4869 24.3867C9.18418 24.3867 7.31738 26.2534 7.31738 28.5563C7.31738 30.859 9.18418 32.7257 11.4869 32.7257C13.7898 32.7257 15.6565 30.859 15.6565 28.5563C15.6564 26.2534 13.7896 24.3867 11.4869 24.3867ZM11.4869 30.6409C10.3356 30.6409 9.40212 29.7075 9.40212 28.5562C9.40212 27.4048 10.3355 26.4714 11.4869 26.4714C12.6383 26.4714 13.5718 27.4048 13.5718 28.5562C13.5717 29.7075 12.6383 30.6409 11.4869 30.6409Z" fill="#511B4B"/>
<path d="M19.3302 16.0284C19.3302 12.9488 21.6321 10.4087 24.6087 10.0302C20.9619 9.5665 17.7898 12.4067 17.7898 16.0284C17.7898 19.6471 20.9586 22.4901 24.6087 22.0264C21.6321 21.6479 19.3302 19.1079 19.3302 16.0284ZM8.85783 28.5562C8.85783 26.5167 10.3226 24.8204 12.2572 24.4589C9.6829 23.9778 7.31738 25.9504 7.31738 28.5562C7.31738 31.1582 9.6789 33.1352 12.2572 32.6534C10.3226 32.2919 8.85783 30.5956 8.85783 28.5562Z" fill="#511B4B"/>
<path d="M6.04437 28.531C6.04437 23.9427 9.09152 20.0667 13.2722 18.8145C13.2156 18.6565 13.1553 18.3887 12.8551 18.3887H10.1191C10.0417 18.3887 9.96619 18.4126 9.9029 18.4571C9.8396 18.5017 9.7916 18.5647 9.76546 18.6375L8.96277 20.874C8.57753 21.0007 8.20238 21.1562 7.84051 21.3392L5.6912 20.3252C5.62121 20.2922 5.54271 20.2816 5.46646 20.2949C5.3902 20.3081 5.31991 20.3446 5.26518 20.3994L3.33051 22.334C3.27579 22.3887 3.2393 22.459 3.22604 22.5352C3.21277 22.6114 3.22337 22.6899 3.25638 22.7599L4.27031 24.9093C4.08778 25.2701 3.93131 25.6476 3.80535 26.0315L1.56866 26.8343C1.49581 26.8605 1.43282 26.9084 1.38828 26.9717C1.34374 27.035 1.31984 27.1105 1.31982 27.1879V29.9238C1.31984 30.0012 1.34374 30.0767 1.38828 30.14C1.43282 30.2033 1.49581 30.2513 1.56866 30.2774L3.8052 31.0802C3.93175 31.4654 4.08718 31.8405 4.27016 32.2023L3.25623 34.3518C3.22321 34.4218 3.21262 34.5003 3.22589 34.5765C3.23915 34.6528 3.27564 34.723 3.33036 34.7778L5.26503 36.7124C5.31978 36.7671 5.39007 36.8035 5.46632 36.8168C5.54256 36.8301 5.62105 36.8195 5.69105 36.7865L7.84035 35.7726C8.20217 35.9557 8.57733 36.1111 8.96262 36.2376L9.76531 38.4741C9.79146 38.5469 9.83946 38.6099 9.90275 38.6544C9.96605 38.699 10.0415 38.7229 10.1189 38.7229H12.8549C12.9323 38.7229 13.0078 38.699 13.0711 38.6544C13.1344 38.6099 13.1824 38.5469 13.2086 38.4741L13.2883 38.2521C9.09935 37.0053 6.04437 33.1252 6.04437 28.531Z" fill="white"/>
<path d="M38.7362 13.1293L35.3862 11.9269C35.2423 11.5204 35.0771 11.1218 34.8914 10.7326C36.5443 7.22859 36.4639 7.44744 36.4639 7.27274C36.4639 7.12329 36.4045 6.97995 36.2989 6.87422C32.6645 3.23962 32.8658 3.36038 32.5515 3.36038C32.374 3.36038 32.5882 3.28354 29.0918 4.93292C28.7026 4.74714 28.3039 4.58198 27.8974 4.43812L26.6951 1.08805C26.6558 0.978783 26.5838 0.884292 26.4889 0.817492C26.3939 0.750693 26.2807 0.714844 26.1646 0.714844H21.4285C21.3124 0.714832 21.1992 0.750669 21.1042 0.817456C21.0093 0.884243 20.9373 0.978722 20.8981 1.08798L19.6956 4.43804C19.2891 4.58198 18.8905 4.74714 18.5014 4.93284L15.2821 3.41409C15.1771 3.36456 15.0593 3.34866 14.9449 3.36856C14.8306 3.38846 14.7251 3.4432 14.643 3.52528L11.2941 6.87429C11.212 6.9564 11.1573 7.06183 11.1374 7.1762C11.1175 7.29056 11.1334 7.40828 11.1829 7.51328L12.7016 10.7326C12.5159 11.1217 12.3507 11.5203 12.2068 11.9268L8.85669 13.1293C8.74744 13.1685 8.65296 13.2405 8.58617 13.3354C8.51939 13.4304 8.48355 13.5436 8.48356 13.6597V18.3956C8.48356 18.8338 8.88705 18.9369 9.00217 18.9782L8.4813 20.4295C8.24855 20.5144 8.01954 20.6093 7.79492 20.7139L5.65052 19.7022C5.54552 19.6527 5.42779 19.6368 5.31341 19.6567C5.19903 19.6766 5.09358 19.7313 5.01145 19.8134L2.70297 22.1218C2.62088 22.2039 2.56616 22.3094 2.54627 22.4238C2.52638 22.5382 2.5423 22.6559 2.59185 22.7609L3.60352 24.9053C3.49895 25.1299 3.40409 25.3589 3.31921 25.5916L1.08749 26.3929C0.978234 26.4322 0.883755 26.5042 0.816968 26.5991C0.75018 26.694 0.714343 26.8073 0.714355 26.9234V30.1879C0.714355 30.304 0.750205 30.4173 0.817004 30.5122C0.883804 30.6072 0.978295 30.6792 1.08756 30.7184L3.31913 31.5193C3.40404 31.752 3.49889 31.981 3.60345 32.2056L2.59193 34.3502C2.54239 34.4552 2.52648 34.5729 2.54636 34.6872C2.56625 34.8016 2.62097 34.907 2.70304 34.9891L5.01138 37.2976C5.09349 37.3797 5.19894 37.4344 5.31332 37.4543C5.4277 37.4742 5.54544 37.4583 5.65044 37.4088L7.79492 36.3971C8.01953 36.5018 8.24856 36.5966 8.48138 36.6815L9.28226 38.9129C9.32146 39.0222 9.39346 39.1167 9.4884 39.1835C9.58335 39.2503 9.6966 39.2861 9.81269 39.2861H13.0773C13.1934 39.2861 13.3067 39.2503 13.4016 39.1835C13.4966 39.1167 13.5686 39.0222 13.6078 38.9129L14.4086 36.6815C14.6414 36.5966 14.8708 36.5014 15.0951 36.3971L17.2395 37.4089C17.3446 37.4583 17.4623 37.4742 17.5767 37.4543C17.6912 37.4344 17.7966 37.3797 17.8788 37.2976L20.1871 34.9891C20.2691 34.907 20.3239 34.8016 20.3438 34.6872C20.3636 34.5728 20.3477 34.4551 20.2982 34.3501L19.2864 32.2058C19.3911 31.9812 19.486 31.7521 19.5709 31.5193L20.9271 31.0324C20.9741 31.125 21.0458 31.2028 21.1342 31.2572C21.2227 31.3116 21.3245 31.3405 21.4283 31.3406H26.1644C26.2805 31.3406 26.3938 31.3048 26.4887 31.238C26.5837 31.1712 26.6557 31.0767 26.6949 30.9674L27.8972 27.6175C28.3038 27.4737 28.7024 27.3085 29.0916 27.1227L32.3108 28.6415C32.3881 28.6778 32.4726 28.6962 32.5579 28.6952C32.6433 28.6942 32.7273 28.6738 32.8037 28.6357C32.9205 28.5773 32.6843 28.796 36.2988 25.1811C36.3808 25.099 36.4356 24.9936 36.4555 24.8792C36.4754 24.7648 36.4594 24.6471 36.4099 24.5421L34.8912 21.323C35.0771 20.9338 35.2423 20.5351 35.3861 20.1285L38.7361 18.9261C38.8453 18.8869 38.9398 18.8149 39.0067 18.72C39.0735 18.625 39.1093 18.5117 39.1093 18.3956V13.6597C39.1093 13.5436 39.0735 13.4304 39.0067 13.3355C38.9399 13.2405 38.8455 13.1685 38.7362 13.1293ZM21.0486 29.7914C17.9457 30.905 19.0188 30.25 18.159 31.9476C18.1202 32.0242 18.0994 32.1085 18.0982 32.1943C18.097 32.2801 18.1154 32.3651 18.152 32.4427L19.1096 34.4725L17.3619 36.2203L15.332 35.2626C15.2544 35.2261 15.1695 35.2077 15.0837 35.2089C14.9979 35.2101 14.9135 35.2309 14.8369 35.2696C13.8401 35.7744 13.5829 35.6456 13.4389 36.0472L12.6808 38.1591H10.2091L9.45109 36.0472C9.42212 35.9665 9.37512 35.8934 9.31366 35.8336C9.25219 35.7738 9.17789 35.7288 9.09641 35.7021C7.30969 35.1154 8.51972 34.8089 5.5281 36.2203L3.78033 34.4725L4.73791 32.4426C4.77453 32.365 4.79294 32.2801 4.79174 32.1943C4.79054 32.1085 4.76976 32.0241 4.73098 31.9476C3.88241 30.2714 4.95578 30.9093 1.84136 29.7914V27.3199L3.95353 26.5615C4.35476 26.4175 4.22579 26.1618 4.73106 25.1633C4.76975 25.0868 4.79048 25.0024 4.79166 24.9167C4.79285 24.8309 4.77447 24.746 4.73791 24.6685L3.78033 22.6387L5.5281 20.8909L7.55792 21.8485C7.71537 21.9228 7.89791 21.9201 8.05302 21.8415C9.73005 20.9922 9.09136 22.0662 10.2091 18.9519H12.6808L13.4389 21.0639C13.4678 21.1446 13.5148 21.2176 13.5762 21.2774C13.6377 21.3372 13.7119 21.3822 13.7934 21.4089C14.857 21.7584 14.9469 22.0303 15.3321 21.8484L17.3621 20.8908L19.1097 22.6386L18.152 24.6684C18.1154 24.746 18.097 24.8309 18.0982 24.9167C18.0995 25.0025 18.1203 25.0869 18.159 25.1635C19.0077 26.8395 17.9343 26.2016 21.0487 27.3197L21.0486 29.7914ZM37.9823 17.9993L34.75 19.1594C34.312 19.3166 34.4878 19.632 33.7629 21.0633C33.7241 21.1399 33.7034 21.2242 33.7022 21.31C33.7009 21.3958 33.7193 21.4808 33.7559 21.5584L35.2213 24.6645L32.4333 27.4528L29.327 25.9873C28.9034 25.7876 28.8207 26.1314 27.2827 26.6362C27.2012 26.663 27.1269 26.708 27.0654 26.7678C27.004 26.8276 26.9569 26.9006 26.9279 26.9813L25.768 30.2135H22.1751C22.176 30.1925 22.1757 26.9444 22.1757 26.9234C22.1757 26.8073 22.1399 26.6941 22.0731 26.5991C22.0063 26.5042 21.9118 26.4322 21.8026 26.3929L19.571 25.5918C19.4861 25.3591 19.3912 25.1301 19.2866 24.9055C20.3814 22.5848 20.3559 22.6888 20.3521 22.5086C20.3491 22.3633 20.29 22.2247 20.1872 22.122C17.6709 19.6057 17.8036 19.6779 17.5359 19.6514C17.329 19.6308 17.4431 19.6065 15.0952 20.7141C14.8706 20.6095 14.6416 20.5146 14.4089 20.4297L13.608 18.1982C13.5688 18.0889 13.4967 17.9944 13.4018 17.9276C13.3068 17.8608 13.1936 17.825 13.0775 17.825C9.54254 17.825 9.74497 17.8103 9.6108 17.8624V14.0565L12.8431 12.8963C12.9238 12.8674 12.9968 12.8204 13.0566 12.7589C13.1164 12.6975 13.1614 12.6232 13.1881 12.5417C13.6936 11.0023 14.0372 10.9217 13.837 10.4974L12.3716 7.39124L15.1599 4.60287L18.266 6.06829C18.6899 6.26815 18.7701 5.9256 20.3104 5.41928C20.3919 5.39251 20.4661 5.34753 20.5275 5.28776C20.589 5.22798 20.6359 5.15498 20.6649 5.07432L21.825 1.84215H25.7682L26.9281 5.07432C27.0867 5.51616 27.3901 5.33136 28.8321 6.06143C28.9086 6.10021 28.993 6.12099 29.0788 6.12219C29.1646 6.12339 29.2495 6.10498 29.3271 6.06836L32.4336 4.60287L35.2215 7.39102L33.7561 10.4974C33.7194 10.575 33.701 10.66 33.7022 10.7458C33.7035 10.8316 33.7243 10.9159 33.7631 10.9925C34.4937 12.4352 34.308 12.7375 34.7502 12.8963L37.9824 14.0564V17.9994H37.9823V17.9993Z" fill="black"/>
<path d="M12.9376 24.0645C12.8674 24.0412 12.7932 24.0319 12.7194 24.0372C12.6456 24.0425 12.5735 24.0623 12.5074 24.0955C12.4412 24.1287 12.3822 24.1745 12.3338 24.2305C12.2854 24.2865 12.2485 24.3514 12.2251 24.4217C12.2018 24.4919 12.1925 24.566 12.1978 24.6399C12.2032 24.7137 12.223 24.7857 12.2561 24.8519C12.2893 24.9181 12.3352 24.9771 12.3911 25.0255C12.4471 25.0739 12.5121 25.1109 12.5823 25.1342C13.3015 25.3723 13.9272 25.8312 14.3704 26.4456C14.8136 27.06 15.0518 27.7985 15.051 28.556C15.051 30.5443 13.4333 32.1619 11.445 32.1619C9.45667 32.1619 7.839 30.5443 7.839 28.556C7.83818 27.7985 8.07633 27.06 8.51955 26.4456C8.96278 25.8312 9.5885 25.3723 10.3076 25.1342C10.3779 25.1109 10.4428 25.0739 10.4988 25.0255C10.5548 24.9771 10.6007 24.9181 10.6338 24.8519C10.667 24.7857 10.6868 24.7137 10.6921 24.6399C10.6974 24.566 10.6882 24.4919 10.6648 24.4217C10.6415 24.3514 10.6046 24.2865 10.5562 24.2305C10.5077 24.1745 10.4488 24.1286 10.3826 24.0955C10.3164 24.0623 10.2444 24.0425 10.1706 24.0372C10.0967 24.0319 10.0226 24.0411 9.95237 24.0645C9.00837 24.377 8.18702 24.9794 7.60522 25.7858C7.02342 26.5922 6.71082 27.5616 6.71192 28.556C6.71192 31.1658 8.83523 33.289 11.4451 33.289C14.055 33.289 16.1782 31.1658 16.1782 28.556C16.1792 27.5616 15.8666 26.5923 15.2848 25.7858C14.7029 24.9794 13.8816 24.3771 12.9376 24.0645ZM29.8222 16.793C29.5186 16.7258 29.2173 16.9173 29.1499 17.2212C28.5983 19.7082 26.3468 21.5133 23.7964 21.5133C20.772 21.5133 18.3113 19.0528 18.3113 16.0283C18.3113 13.0038 20.7719 10.5431 23.7964 10.5431C26.3467 10.5431 28.5982 12.3481 29.1499 14.8352C29.1823 14.981 29.2713 15.1081 29.3973 15.1884C29.5234 15.2687 29.6762 15.2956 29.8221 15.2634C29.968 15.231 30.0951 15.142 30.1754 15.0159C30.2557 14.8899 30.2826 14.7371 30.2503 14.5911C29.5917 11.6226 26.9411 9.41602 23.7963 9.41602C20.1504 9.41602 17.1841 12.3823 17.1841 16.0284C17.1841 21.5647 23.649 24.6675 27.9617 21.1629C29.1169 20.2243 29.9297 18.9111 30.2504 17.4652C30.2827 17.3193 30.2558 17.1665 30.1755 17.0404C30.0952 16.9143 29.9681 16.8253 29.8222 16.793Z" fill="black"/>
<path d="M8.81494 28.5646C8.81494 30.0248 10.003 31.2128 11.4633 31.2128C12.9236 31.2128 14.1116 30.0248 14.1116 28.5646C14.1116 27.1042 12.9236 25.9162 11.4633 25.9162C10.003 25.9162 8.81494 27.1043 8.81494 28.5646ZM11.4633 27.0433C12.302 27.0433 12.9844 27.7257 12.9844 28.5646C12.9844 29.4033 12.302 30.0856 11.4633 30.0856C10.6245 30.0856 9.9421 29.4033 9.9421 28.5646C9.9421 27.7257 10.6246 27.0433 11.4633 27.0433ZM23.8147 11.7344C21.4424 11.7344 19.5123 13.6645 19.5123 16.0367C19.5123 18.409 21.4424 20.339 23.8147 20.339C26.187 20.339 28.1171 18.409 28.1171 16.0367C28.1171 13.6645 26.1872 11.7344 23.8147 11.7344ZM23.8147 19.2119C22.0639 19.2119 20.6395 17.7875 20.6395 16.0367C20.6395 14.286 22.0639 12.8615 23.8147 12.8615C25.5656 12.8615 26.9899 14.286 26.9899 16.0367C26.9899 17.7875 25.5656 19.2119 23.8147 19.2119Z" fill="black"/>
</g>
<defs>
<clipPath id="clip0_403_72790">
<rect width="38.5714" height="38.5714" fill="white" transform="translate(0.714355 0.714844)"/>
</clipPath>
</defs>
</svg>
