<svg width="28" height="28" viewBox="0 0 28 28" fill="none" xmlns="http://www.w3.org/2000/svg">
<circle cx="14" cy="14" r="14" fill="#E0C7DD"/>
<g clip-path="url(#clip0_430_21274)">
<path d="M22.5058 10.9803L20.9918 10.4367H20.9917C20.906 10.1759 20.8008 9.92199 20.6768 9.67705L21.3633 8.22197C21.3857 8.17459 21.3929 8.12146 21.3839 8.06984C21.3749 8.01822 21.3502 7.97064 21.3132 7.93359L20.0035 6.6238C19.9664 6.58675 19.9188 6.56205 19.8672 6.55306C19.8156 6.54407 19.7625 6.55125 19.7151 6.5736L18.26 7.2601C18.015 7.13615 17.761 7.03089 17.5002 6.9452L16.9568 5.43113C16.9391 5.38182 16.9066 5.33917 16.8638 5.30903C16.8209 5.27888 16.7698 5.2627 16.7174 5.2627H14.8651C14.8128 5.2627 14.7616 5.27888 14.7188 5.30903C14.6759 5.33917 14.6434 5.38182 14.6257 5.43113L14.0823 6.9452C13.8215 7.03089 13.5675 7.13616 13.3225 7.2601L11.8674 6.57364C11.8201 6.55128 11.7669 6.5441 11.7153 6.5531C11.6637 6.56209 11.6161 6.58681 11.5791 6.62388L10.2693 7.93359C10.2322 7.97062 10.2075 8.0182 10.1986 8.0698C10.1896 8.12141 10.1968 8.17453 10.2191 8.2219L10.9056 9.67698C10.7817 9.92196 10.6765 10.1759 10.5907 10.4367L9.0766 10.9802C9.02729 10.9979 8.98465 11.0304 8.95451 11.0733C8.92436 11.1161 8.90819 11.1672 8.9082 11.2196V13.0718C8.90821 13.1242 8.92439 13.1753 8.95453 13.2182C8.98468 13.261 9.02732 13.2935 9.07664 13.3112L10.5907 13.8547C10.6764 14.1155 10.7816 14.3694 10.9056 14.6143L10.2191 16.0695C10.1968 16.1169 10.1896 16.17 10.1986 16.2216C10.2075 16.2732 10.2322 16.3208 10.2693 16.3579L11.5791 17.6676C11.6161 17.7046 11.6637 17.7293 11.7153 17.7383C11.7669 17.7473 11.82 17.7401 11.8674 17.7178L13.3225 17.0314C13.5675 17.1553 13.8214 17.2606 14.0823 17.3463L14.6257 18.8603C14.6434 18.9096 14.6759 18.9522 14.7187 18.9824C14.7616 19.0125 14.8127 19.0287 14.8651 19.0287H16.7173C16.7697 19.0287 16.8208 19.0125 16.8637 18.9824C16.9065 18.9522 16.939 18.9096 16.9567 18.8603L17.5001 17.3463C17.761 17.2606 18.0149 17.1553 18.2599 17.0314L19.715 17.7179C19.7624 17.7402 19.8155 17.7474 19.8672 17.7384C19.9188 17.7294 19.9664 17.7047 20.0034 17.6677L21.3131 16.3579C21.3501 16.3208 21.3748 16.2732 21.3838 16.2216C21.3928 16.17 21.3856 16.1168 21.3633 16.0694L20.6768 14.6145C20.8007 14.3695 20.906 14.1155 20.9916 13.8547L22.5057 13.3113C22.555 13.2936 22.5977 13.2611 22.6278 13.2182C22.658 13.1754 22.6742 13.1242 22.6742 13.0718V11.2196C22.6742 11.1673 22.658 11.1161 22.6279 11.0733C22.5977 11.0305 22.5551 10.998 22.5058 10.9803ZM15.8204 14.3496C14.6032 14.3496 13.6165 13.3629 13.6165 12.1458C13.6165 10.9286 14.6033 9.94185 15.8204 9.94185C17.0375 9.94185 18.0243 10.9285 18.0243 12.1458C18.0244 13.3629 17.0376 14.3496 15.8204 14.3496Z" fill="#511B4B"/>
<path d="M15.791 9.32324C14.2321 9.32324 12.9683 10.587 12.9683 12.146C12.9683 13.7049 14.2321 14.9687 15.791 14.9687C17.3499 14.9687 18.6138 13.7049 18.6138 12.146C18.6137 10.587 17.3499 9.32324 15.791 9.32324ZM15.791 13.8907C14.8274 13.8907 14.0462 13.1096 14.0462 12.146C14.0462 11.1824 14.8274 10.4012 15.791 10.4012C16.7546 10.4012 17.5358 11.1823 17.5358 12.146C17.5358 13.1096 16.7545 13.8907 15.791 13.8907Z" fill="#511B4B"/>
<path d="M11.973 12.1457C11.973 8.99168 14.0945 6.33327 16.9884 5.5193C16.962 5.44558 16.918 5.2627 16.7173 5.2627H14.8651C14.8127 5.2627 14.7616 5.27888 14.7187 5.30903C14.6759 5.33917 14.6434 5.38182 14.6257 5.43113L14.0823 6.94524C13.8215 7.03093 13.5675 7.13619 13.3225 7.26013L11.8674 6.57371C11.8201 6.55135 11.7669 6.54417 11.7153 6.55317C11.6637 6.56216 11.6161 6.58688 11.5791 6.62395L10.2693 7.93366C10.2322 7.97069 10.2075 8.01827 10.1986 8.06987C10.1896 8.12148 10.1968 8.1746 10.2191 8.22197L10.9056 9.67705C10.7817 9.92203 10.6765 10.176 10.5907 10.4367L9.0766 10.9803C9.02729 10.998 8.98465 11.0305 8.95451 11.0733C8.92436 11.1162 8.90819 11.1673 8.9082 11.2197V13.0719C8.90821 13.1243 8.92439 13.1754 8.95453 13.2182C8.98468 13.2611 9.02732 13.2936 9.07664 13.3113L10.5907 13.8547C10.6764 14.1155 10.7816 14.3695 10.9056 14.6144L10.2191 16.0696C10.1968 16.117 10.1896 16.1701 10.1986 16.2217C10.2075 16.2733 10.2322 16.3209 10.2693 16.3579L11.5791 17.6676C11.6161 17.7047 11.6637 17.7294 11.7153 17.7384C11.7669 17.7474 11.82 17.7402 11.8674 17.7179L13.3225 17.0315C13.5675 17.1554 13.8214 17.2606 14.0823 17.3463L14.6257 18.8604C14.6434 18.9097 14.6759 18.9523 14.7187 18.9825C14.7616 19.0126 14.8127 19.0288 14.8651 19.0288H16.7173C16.9187 19.0288 16.9626 18.8439 16.9884 18.7722C14.0946 17.9582 11.973 15.2998 11.973 12.1457Z" fill="#511B4B"/>
<path d="M14.6555 17.1893L13.6118 16.8147C13.5527 16.6349 13.4801 16.4599 13.3947 16.291L13.8679 15.288C13.8834 15.2553 13.8883 15.2187 13.8821 15.1831C13.8759 15.1475 13.8589 15.1147 13.8334 15.0892L12.9306 14.1863C12.905 14.1608 12.8722 14.1438 12.8366 14.1376C12.8011 14.1314 12.7644 14.1363 12.7318 14.1517L11.7287 14.6249H11.7287C11.5598 14.5395 11.3847 14.4669 11.205 14.4079L10.8304 13.3642C10.8182 13.3302 10.7958 13.3008 10.7662 13.28C10.7367 13.2592 10.7015 13.2481 10.6654 13.248H9.38855C9.35243 13.2481 9.3172 13.2592 9.28766 13.28C9.25812 13.3008 9.23572 13.3302 9.22352 13.3642L8.84893 14.4079C8.66916 14.467 8.49409 14.5395 8.32521 14.6249L7.3222 14.1518C7.28954 14.1364 7.25291 14.1314 7.21732 14.1376C7.18174 14.1438 7.14893 14.1608 7.12339 14.1864L6.22055 15.0892C6.19501 15.1147 6.17798 15.1475 6.17179 15.1831C6.1656 15.2187 6.17055 15.2553 6.18595 15.288L6.65912 16.291C6.57394 16.4594 6.50092 16.6356 6.44214 16.8147L5.39835 17.1893C5.36435 17.2015 5.33496 17.2239 5.31417 17.2535C5.29339 17.283 5.28223 17.3183 5.28223 17.3544V18.6311C5.28223 18.6672 5.29339 18.7025 5.31417 18.732C5.33496 18.7615 5.36435 18.7839 5.39835 18.7961L6.44207 19.1707C6.50112 19.3505 6.57366 19.5256 6.65905 19.6944L6.18588 20.6975C6.17048 20.7302 6.16553 20.7668 6.17172 20.8024C6.17791 20.838 6.19494 20.8708 6.22048 20.8963L7.12332 21.7991C7.14887 21.8246 7.18167 21.8417 7.21726 21.8478C7.25284 21.854 7.28946 21.8491 7.32213 21.8337L8.32514 21.3605C8.49399 21.446 8.66906 21.5185 8.84886 21.5775L9.22345 22.6212C9.23566 22.6552 9.25806 22.6846 9.28759 22.7054C9.31713 22.7262 9.35236 22.7373 9.38848 22.7374H10.6653C10.7014 22.7373 10.7366 22.7262 10.7662 22.7054C10.7957 22.6846 10.8181 22.6552 10.8303 22.6212L11.2049 21.5775C11.3847 21.5185 11.5597 21.4459 11.7286 21.3605L12.7317 21.8338C12.7644 21.8492 12.801 21.8541 12.8366 21.8479C12.8721 21.8417 12.905 21.8247 12.9305 21.7992L13.8333 20.8963C13.8588 20.8707 13.8759 20.8379 13.8821 20.8024C13.8883 20.7668 13.8833 20.7301 13.8679 20.6975L13.3947 19.6945C13.4802 19.5256 13.5527 19.3505 13.6118 19.1707L14.6555 18.7962C14.6895 18.784 14.7189 18.7616 14.7397 18.732C14.7604 18.7025 14.7716 18.6673 14.7716 18.6311V17.3544C14.7716 17.3183 14.7604 17.283 14.7397 17.2535C14.7189 17.224 14.6895 17.2016 14.6555 17.1893ZM10.027 19.4042C9.24746 19.4042 8.61553 18.7723 8.61553 17.9927C8.61553 17.2132 9.24746 16.5813 10.027 16.5813C10.8065 16.5813 11.4384 17.2132 11.4384 17.9927C11.4384 18.7722 10.8065 19.4042 10.027 19.4042Z" fill="white"/>
<path d="M10.0273 16.0469C8.95271 16.0469 8.08154 16.918 8.08154 17.9927C8.08154 19.0673 8.95271 19.9384 10.0273 19.9384C11.102 19.9384 11.9731 19.0673 11.9731 17.9927C11.9731 16.918 11.1019 16.0469 10.0273 16.0469ZM10.0273 18.9655C9.49004 18.9655 9.05442 18.5299 9.05442 17.9926C9.05442 17.4553 9.49001 17.0197 10.0273 17.0197C10.5646 17.0197 11.0002 17.4553 11.0002 17.9926C11.0002 18.5299 10.5646 18.9655 10.0273 18.9655Z" fill="#511B4B"/>
<path d="M13.6875 12.1456C13.6875 10.7085 14.7618 9.5231 16.1508 9.34644C14.449 9.13006 12.9686 10.4555 12.9686 12.1456C12.9686 13.8343 14.4475 15.1611 16.1508 14.9447C14.7618 14.7681 13.6875 13.5827 13.6875 12.1456ZM8.80042 17.9919C8.80042 17.0401 9.48396 16.2485 10.3868 16.0798C9.18545 15.8553 8.08154 16.7759 8.08154 17.9919C8.08154 19.2062 9.18359 20.1288 10.3868 19.9039C9.484 19.7353 8.80042 18.9436 8.80042 17.9919Z" fill="#511B4B"/>
<path d="M7.48702 17.9811C7.48702 15.8399 8.90902 14.0311 10.86 13.4468C10.8336 13.373 10.8054 13.248 10.6654 13.248H9.38855C9.35243 13.2481 9.3172 13.2592 9.28766 13.28C9.25812 13.3008 9.23572 13.3302 9.22352 13.3642L8.84893 14.4079C8.66916 14.467 8.49409 14.5395 8.32521 14.6249L7.3222 14.1518C7.28954 14.1364 7.25291 14.1314 7.21732 14.1376C7.18174 14.1438 7.14893 14.1608 7.12339 14.1864L6.22055 15.0892C6.19501 15.1147 6.17798 15.1475 6.17179 15.1831C6.1656 15.2187 6.17055 15.2553 6.18595 15.288L6.65912 16.291C6.57394 16.4594 6.50092 16.6356 6.44214 16.8147L5.39835 17.1893C5.36435 17.2015 5.33496 17.2239 5.31417 17.2535C5.29339 17.283 5.28223 17.3183 5.28223 17.3544V18.6311C5.28223 18.6672 5.29339 18.7025 5.31417 18.732C5.33496 18.7615 5.36435 18.7839 5.39835 18.7961L6.44207 19.1707C6.50112 19.3505 6.57366 19.5256 6.65905 19.6944L6.18588 20.6975C6.17048 20.7302 6.16553 20.7668 6.17172 20.8024C6.17791 20.838 6.19494 20.8708 6.22048 20.8963L7.12332 21.7991C7.14887 21.8246 7.18167 21.8417 7.21726 21.8478C7.25284 21.854 7.28946 21.8491 7.32213 21.8337L8.32514 21.3605C8.49399 21.446 8.66906 21.5185 8.84886 21.5775L9.22345 22.6212C9.23566 22.6552 9.25806 22.6846 9.28759 22.7054C9.31713 22.7262 9.35236 22.7373 9.38848 22.7374H10.6653C10.7014 22.7373 10.7366 22.7262 10.7662 22.7054C10.7957 22.6846 10.8181 22.6552 10.8303 22.6212L10.8675 22.5176C8.91267 21.9358 7.48702 20.1251 7.48702 17.9811Z" fill="white"/>
<path d="M22.7435 10.7934L21.1802 10.2323C21.1131 10.0426 21.036 9.85657 20.9493 9.67497C21.7207 8.03975 21.6831 8.14188 21.6831 8.06035C21.6831 7.99061 21.6554 7.92372 21.6061 7.87437C19.9101 6.17823 20.004 6.23458 19.8573 6.23458C19.7745 6.23458 19.8745 6.19872 18.2428 6.96843C18.0612 6.88174 17.8751 6.80466 17.6854 6.73753L17.1243 5.17416C17.106 5.12317 17.0724 5.07908 17.0281 5.0479C16.9838 5.01673 16.9309 5 16.8768 5H14.6666C14.6124 4.99999 14.5596 5.01672 14.5153 5.04789C14.471 5.07905 14.4374 5.12314 14.4191 5.17413L13.8579 6.73749C13.6682 6.80466 13.4822 6.88174 13.3006 6.9684L11.7983 6.25965C11.7493 6.23653 11.6943 6.22911 11.6409 6.2384C11.5876 6.24769 11.5384 6.27323 11.5 6.31154L9.9372 7.87441C9.89891 7.91273 9.87337 7.96193 9.86409 8.0153C9.8548 8.06867 9.86221 8.12361 9.88531 8.17261L10.5941 9.67494C10.5074 9.85652 10.4303 10.0425 10.3632 10.2322L8.79976 10.7934C8.74877 10.8117 8.70468 10.8453 8.67352 10.8896C8.64235 10.9339 8.62562 10.9868 8.62563 11.0409V13.251C8.62563 13.4555 8.81393 13.5036 8.86765 13.5229L8.62457 14.2002C8.51596 14.2398 8.40909 14.2841 8.30427 14.3329L7.30354 13.8608C7.25454 13.8377 7.1996 13.8303 7.14623 13.8395C7.09285 13.8488 7.04364 13.8743 7.00531 13.9126L5.92802 14.9899C5.88971 15.0282 5.86417 15.0775 5.85489 15.1308C5.84561 15.1842 5.85304 15.2392 5.87616 15.2882L6.34828 16.2889C6.29948 16.3937 6.25521 16.5005 6.2156 16.6092L5.17413 16.9831C5.12314 17.0014 5.07905 17.035 5.04789 17.0793C5.01672 17.1236 4.99999 17.1765 5 17.2306V18.7541C5 18.8083 5.01673 18.8611 5.0479 18.9055C5.07908 18.9498 5.12317 18.9834 5.17416 19.0017L6.21556 19.3754C6.25518 19.484 6.29945 19.5909 6.34824 19.6957L5.8762 20.6965C5.85308 20.7455 5.84566 20.8004 5.85494 20.8538C5.86422 20.9071 5.88975 20.9563 5.92805 20.9947L7.00528 22.0719C7.0436 22.1102 7.09281 22.1358 7.14618 22.1451C7.19956 22.1544 7.2545 22.1469 7.30351 22.1238L8.30427 21.6517C8.40908 21.7006 8.51596 21.7448 8.62461 21.7844L8.99836 22.8258C9.01665 22.8768 9.05025 22.9209 9.09456 22.952C9.13886 22.9832 9.19172 22.9999 9.24589 22.9999H10.7694C10.8236 22.9999 10.8764 22.9832 10.9207 22.952C10.965 22.9209 10.9986 22.8768 11.0169 22.8258L11.3907 21.7844C11.4993 21.7448 11.6064 21.7004 11.711 21.6517L12.7117 22.1239C12.7608 22.147 12.8157 22.1544 12.8691 22.1451C12.9225 22.1358 12.9717 22.1102 13.0101 22.0719L14.0873 20.9947C14.1256 20.9563 14.1511 20.9071 14.1604 20.8538C14.1697 20.8004 14.1622 20.7454 14.1391 20.6965L13.667 19.6958C13.7158 19.5909 13.7601 19.484 13.7997 19.3754L14.4326 19.1482C14.4545 19.1914 14.488 19.2277 14.5293 19.2531C14.5706 19.2785 14.6181 19.292 14.6665 19.292H16.8767C16.9309 19.292 16.9837 19.2753 17.028 19.2441C17.0724 19.213 17.106 19.1689 17.1243 19.1179L17.6853 17.5546C17.8751 17.4874 18.0611 17.4104 18.2427 17.3237L19.745 18.0324C19.7811 18.0494 19.8205 18.058 19.8603 18.0575C19.9002 18.057 19.9394 18.0475 19.975 18.0297C20.0295 18.0025 19.9193 18.1046 21.6061 16.4176C21.6444 16.3793 21.6699 16.3301 21.6792 16.2767C21.6885 16.2233 21.681 16.1684 21.6579 16.1194L20.9492 14.6171C21.036 14.4355 21.113 14.2494 21.1801 14.0597L22.7435 13.4986C22.7945 13.4803 22.8386 13.4467 22.8697 13.4024C22.9009 13.3581 22.9176 13.3052 22.9176 13.251V11.0409C22.9176 10.9868 22.9009 10.9339 22.8698 10.8896C22.8386 10.8453 22.7945 10.8117 22.7435 10.7934ZM14.4893 18.5691C13.0413 19.0888 13.5421 18.7831 13.1408 19.5753C13.1227 19.611 13.113 19.6504 13.1125 19.6904C13.1119 19.7305 13.1205 19.7701 13.1375 19.8063L13.5845 20.7535L12.7689 21.5692L11.8216 21.1223C11.7854 21.1052 11.7457 21.0966 11.7057 21.0972C11.6656 21.0978 11.6263 21.1075 11.5905 21.1256C11.1253 21.3611 11.0053 21.301 10.9381 21.4884L10.5844 22.474H9.43088L9.07714 21.4884C9.06363 21.4508 9.04169 21.4167 9.01301 21.3888C8.98433 21.3608 8.94965 21.3398 8.91163 21.3274C8.07782 21.0536 8.6425 20.9106 7.24641 21.5692L6.43079 20.7536L6.87766 19.8063C6.89475 19.7701 6.90334 19.7305 6.90278 19.6904C6.90222 19.6504 6.89252 19.611 6.87443 19.5753C6.47843 18.7931 6.97933 19.0908 5.52594 18.5691V17.4157L6.51161 17.0618C6.69886 16.9946 6.63867 16.8753 6.87446 16.4093C6.89252 16.3736 6.90219 16.3342 6.90274 16.2942C6.9033 16.2542 6.89472 16.2146 6.87766 16.1784L6.43079 15.2311L7.24641 14.4155L8.19366 14.8624C8.26714 14.897 8.35232 14.8958 8.42471 14.8591C9.20732 14.4628 8.90927 14.964 9.43088 13.5106H10.5844L10.9381 14.4962C10.9516 14.5339 10.9735 14.568 11.0022 14.5959C11.0309 14.6238 11.0655 14.6448 11.1035 14.6572C11.5999 14.8203 11.6419 14.9472 11.8216 14.8623L12.7689 14.4154L13.5845 15.2311L13.1376 16.1783C13.1205 16.2145 13.1119 16.2542 13.1125 16.2942C13.113 16.3343 13.1228 16.3736 13.1409 16.4094C13.5369 17.1915 13.036 16.8938 14.4893 17.4156L14.4893 18.5691ZM22.3917 13.0661L20.8833 13.6074C20.6789 13.6808 20.7609 13.828 20.4227 14.4959C20.4046 14.5317 20.3949 14.5711 20.3943 14.6111C20.3937 14.6511 20.4023 14.6908 20.4194 14.727L21.1033 16.1765L19.8022 17.4777L18.3526 16.7938C18.1549 16.7006 18.1163 16.861 17.3986 17.0966C17.3605 17.1091 17.3259 17.1301 17.2972 17.158C17.2685 17.1859 17.2465 17.22 17.233 17.2577L16.6917 18.766H15.015C15.0155 18.7562 15.0153 17.2405 15.0153 17.2306C15.0153 17.1765 14.9986 17.1236 14.9674 17.0793C14.9362 17.035 14.8922 17.0014 14.8412 16.9831L13.7998 16.6093C13.7601 16.5006 13.7159 16.3938 13.667 16.289C14.178 15.206 14.1661 15.2545 14.1643 15.1704C14.1629 15.1026 14.1353 15.038 14.0873 14.99C12.9131 13.8157 12.975 13.8494 12.85 13.8371C12.7535 13.8275 12.8067 13.8161 11.7111 14.333C11.6063 14.2842 11.4994 14.2399 11.3908 14.2002L11.017 13.1589C10.9987 13.1079 10.9651 13.0638 10.9208 13.0326C10.8765 13.0015 10.8236 12.9847 10.7695 12.9847C9.11982 12.9847 9.21429 12.9779 9.15167 13.0022V11.2261L10.6601 10.6847C10.6977 10.6712 10.7318 10.6492 10.7597 10.6206C10.7876 10.5919 10.8086 10.5572 10.8211 10.5192C11.057 9.80083 11.2173 9.76321 11.1239 9.56521L10.44 8.11565L11.7412 6.81441L13.1908 7.49827C13.3886 7.59154 13.426 7.43169 14.1448 7.1954C14.1828 7.18291 14.2175 7.16192 14.2462 7.13403C14.2748 7.10613 14.2967 7.07207 14.3103 7.03442L14.8516 5.52608H16.6918L17.2331 7.03442C17.3071 7.24061 17.4487 7.15437 18.1216 7.49507C18.1573 7.51317 18.1967 7.52287 18.2367 7.52343C18.2768 7.52399 18.3164 7.5154 18.3526 7.49831L19.8023 6.81441L21.1034 8.11555L20.4195 9.56521C20.4024 9.60142 20.3938 9.64106 20.3943 9.6811C20.3949 9.72114 20.4046 9.76051 20.4227 9.79623C20.7637 10.4695 20.677 10.6106 20.8834 10.6847L22.3918 11.2261V13.0661H22.3917V13.0661Z" fill="black"/>
<path d="M10.7041 15.8965C10.6714 15.8856 10.6368 15.8813 10.6023 15.8838C10.5679 15.8862 10.5343 15.8955 10.5034 15.911C10.4725 15.9264 10.445 15.9479 10.4224 15.974C10.3998 16.0001 10.3826 16.0304 10.3717 16.0632C10.3608 16.096 10.3564 16.1306 10.3589 16.165C10.3614 16.1995 10.3707 16.2331 10.3861 16.264C10.4016 16.2948 10.423 16.3224 10.4491 16.345C10.4753 16.3676 10.5056 16.3848 10.5383 16.3957C10.8739 16.5068 11.1659 16.721 11.3728 17.0077C11.5796 17.2944 11.6908 17.639 11.6904 17.9926C11.6904 18.9204 10.9355 19.6753 10.0076 19.6753C9.07971 19.6753 8.3248 18.9204 8.3248 17.9926C8.32442 17.639 8.43555 17.2944 8.64239 17.0077C8.84923 16.721 9.14123 16.5068 9.47684 16.3957C9.50962 16.3848 9.53993 16.3676 9.56605 16.345C9.59217 16.3224 9.61358 16.2948 9.62905 16.264C9.64453 16.2331 9.65377 16.1995 9.65626 16.165C9.65874 16.1306 9.65441 16.096 9.64351 16.0632C9.63264 16.0304 9.61541 16.0001 9.59281 15.974C9.57021 15.9478 9.54269 15.9264 9.51181 15.911C9.48094 15.8955 9.44731 15.8862 9.41286 15.8838C9.37841 15.8813 9.34381 15.8856 9.31104 15.8965C8.87051 16.0424 8.48721 16.3235 8.2157 16.6998C7.9442 17.0761 7.79832 17.5285 7.79883 17.9926C7.79883 19.2104 8.78971 20.2013 10.0076 20.2013C11.2256 20.2013 12.2164 19.2104 12.2164 17.9926C12.2169 17.5285 12.071 17.0761 11.7995 16.6998C11.528 16.3235 11.1447 16.0424 10.7041 15.8965ZM18.5836 12.5031C18.4419 12.4718 18.3013 12.5611 18.2699 12.7029C18.0125 13.8636 16.9618 14.7059 15.7716 14.7059C14.3602 14.7059 13.2119 13.5577 13.2119 12.1463C13.2119 10.7348 14.3601 9.58652 15.7716 9.58652C16.9617 9.58652 18.0124 10.4289 18.2699 11.5895C18.285 11.6576 18.3265 11.7169 18.3854 11.7543C18.4442 11.7918 18.5155 11.8044 18.5836 11.7893C18.6517 11.7742 18.711 11.7327 18.7484 11.6738C18.7859 11.615 18.7985 11.5437 18.7834 11.4756C18.4761 10.0903 17.2391 9.06055 15.7716 9.06055C14.0701 9.06055 12.6858 10.4448 12.6858 12.1463C12.6858 14.7299 15.7028 16.1779 17.7154 14.5424C18.2545 14.1044 18.6338 13.4916 18.7834 12.8169C18.7985 12.7487 18.786 12.6774 18.7485 12.6186C18.711 12.5598 18.6517 12.5182 18.5836 12.5031Z" fill="black"/>
<path d="M8.78027 17.9967C8.78027 18.6781 9.33469 19.2325 10.0162 19.2325C10.6976 19.2325 11.252 18.6781 11.252 17.9967C11.252 17.3152 10.6976 16.7607 10.0162 16.7607C9.33469 16.7607 8.78027 17.3152 8.78027 17.9967ZM10.0162 17.2868C10.4076 17.2868 10.726 17.6052 10.726 17.9967C10.726 18.3881 10.4076 18.7065 10.0162 18.7065C9.62473 18.7065 9.30628 18.3881 9.30628 17.9967C9.30628 17.6052 9.62476 17.2868 10.0162 17.2868ZM15.7802 10.1426C14.6731 10.1426 13.7724 11.0433 13.7724 12.1504C13.7724 13.2574 14.6731 14.1581 15.7802 14.1581C16.8872 14.1581 17.7879 13.2574 17.7879 12.1504C17.7879 11.0433 16.8873 10.1426 15.7802 10.1426ZM15.7802 13.6321C14.9631 13.6321 14.2984 12.9674 14.2984 12.1504C14.2984 11.3333 14.9631 10.6686 15.7802 10.6686C16.5972 10.6686 17.2619 11.3333 17.2619 12.1504C17.2619 12.9674 16.5973 13.6321 15.7802 13.6321Z" fill="black"/>
</g>
<defs>
<clipPath id="clip0_430_21274">
<rect width="18" height="18" fill="white" transform="translate(5 5)"/>
</clipPath>
</defs>
</svg>
