<svg width="80" height="80" viewBox="0 0 80 80" fill="none" xmlns="http://www.w3.org/2000/svg">
<path d="M68.8674 24.8666H11.2049L8.95487 66.4341C8.9015 67.5363 9.07203 68.6379 9.45616 69.6723C9.84029 70.7068 10.4301 71.6527 11.1899 72.4529C11.9497 73.2532 12.8638 73.8911 13.8769 74.3283C14.8901 74.7655 15.9814 74.9929 17.0849 74.9966H62.8786C63.9808 74.9924 65.0708 74.7652 66.0829 74.3287C67.095 73.8921 68.0082 73.2552 68.7677 72.4564C69.5272 71.6576 70.1171 70.7133 70.502 69.6805C70.8869 68.6477 71.0588 67.5476 71.0074 66.4466L68.8674 24.8666ZM52.0249 38.3629V44.5816C51.9925 47.7547 50.7094 50.7869 48.4541 53.0193C46.1989 55.2517 43.1538 56.5039 39.9805 56.5039C36.8072 56.5039 33.7621 55.2517 31.5069 53.0193C29.2516 50.7869 27.9685 47.7547 27.9361 44.5816V38.3629C26.9036 38.0392 26.0212 37.3564 25.4487 36.4382C24.8762 35.5201 24.6514 34.4272 24.8151 33.3576C24.9789 32.288 25.5202 31.3125 26.3412 30.6076C27.1622 29.9027 28.2085 29.5152 29.2905 29.5152C30.3725 29.5152 31.4188 29.9027 32.2398 30.6076C33.0608 31.3125 33.6021 32.288 33.7659 33.3576C33.9296 34.4272 33.7048 35.5201 33.1323 36.4382C32.5598 37.3564 31.6774 38.0392 30.6449 38.3629V44.5816C30.6449 47.0574 31.6284 49.4318 33.379 51.1825C35.1297 52.9331 37.5041 53.9166 39.9799 53.9166C42.4557 53.9166 44.8301 52.9331 46.5807 51.1825C48.3314 49.4318 49.3149 47.0574 49.3149 44.5816V38.3629C48.2825 38.0391 47.4002 37.3562 46.8278 36.438C46.2554 35.5198 46.0308 34.427 46.1946 33.3575C46.3584 32.288 46.8998 31.3125 47.7207 30.6077C48.5417 29.9029 49.5879 29.5154 50.6699 29.5154C51.7519 29.5154 52.7981 29.9029 53.619 30.6077C54.44 31.3125 54.9814 32.288 55.1452 33.3575C55.309 34.427 55.0844 35.5198 54.512 36.438C53.9396 37.3562 53.0573 38.0391 52.0249 38.3629ZM16.1361 22.1566H12.3024L14.8086 17.9441H15.5811L16.1361 22.1566ZM37.7874 13.1879L27.9911 15.6541C24.9561 16.4129 24.3849 19.5666 25.4574 22.1566H18.8724L18.1011 16.3179L17.2474 9.74662C17.1996 9.39106 17.2228 9.02955 17.3158 8.68302C17.4087 8.3365 17.5694 8.01185 17.7886 7.72787C18.2405 7.16142 18.8977 6.79621 19.6174 6.71162L34.3049 5.01787C34.6651 4.97749 35.0298 5.00967 35.3774 5.1125C35.725 5.21532 36.0485 5.38673 36.3289 5.61659C36.6092 5.84645 36.8406 6.13012 37.0095 6.45087C37.1784 6.77161 37.2814 7.12294 37.3124 7.48412L37.7874 13.1879ZM61.3336 13.4866C60.9461 15.3054 59.8986 20.2729 59.4911 22.1566H51.3349L49.4524 14.4754C49.2086 13.4993 48.6135 12.6472 47.781 12.0823C46.9486 11.5173 45.937 11.279 44.9399 11.4129L45.4411 9.48912C45.5324 9.14426 45.7553 8.84896 46.062 8.66665C46.3686 8.48435 46.7345 8.42958 47.0811 8.51412L60.3449 11.8879C60.6845 11.9747 60.9772 12.1898 61.1616 12.4879C61.3459 12.786 61.4076 13.144 61.3336 13.4866Z" fill="#511B4B"/>
<path d="M48.5572 22.1562H28.2622C28.0985 21.0837 27.2947 19.9362 27.8147 18.9062C27.9017 18.7504 28.02 18.6145 28.1622 18.5069C28.3045 18.3993 28.4675 18.3224 28.641 18.2812C28.641 18.2812 45.571 13.7849 46.1997 14.2849C46.3536 14.374 46.4881 14.493 46.5952 14.6349C46.7024 14.7768 46.78 14.9388 46.8235 15.1112L48.5572 22.1562ZM67.6747 22.1562H62.2685L63.176 17.8887C63.8985 17.8912 64.9672 17.7512 65.371 18.5262L67.6747 22.1562ZM31.1072 34.0387C31.1072 34.5184 30.9167 34.9784 30.5775 35.3176C30.2383 35.6568 29.7782 35.8474 29.2985 35.8474C28.8188 35.8474 28.3587 35.6568 28.0195 35.3176C27.6803 34.9784 27.4897 34.5184 27.4897 34.0387C27.4897 33.5589 27.6803 33.0989 28.0195 32.7597C28.3587 32.4205 28.8188 32.2299 29.2985 32.2299C29.7782 32.2299 30.2383 32.4205 30.5775 32.7597C30.9167 33.0989 31.1072 33.5589 31.1072 34.0387ZM52.4735 34.0387C52.4735 34.5184 52.2829 34.9784 51.9437 35.3176C51.6045 35.6568 51.1445 35.8474 50.6647 35.8474C50.185 35.8474 49.725 35.6568 49.3858 35.3176C49.0466 34.9784 48.856 34.5184 48.856 34.0387C48.856 33.5589 49.0466 33.0989 49.3858 32.7597C49.725 32.4205 50.185 32.2299 50.6647 32.2299C51.1445 32.2299 51.6045 32.4205 51.9437 32.7597C52.2829 33.0989 52.4735 33.5589 52.4735 34.0387Z" fill="#511B4B"/>
</svg>
