<svg width="125" height="124" viewBox="0 0 125 124" fill="none" xmlns="http://www.w3.org/2000/svg">
<path d="M124.026 75.1379V70.9268C124.026 68.7548 122.265 66.9941 120.093 66.9941H5.80178C3.62984 66.9941 1.86914 68.7548 1.86914 70.9268V75.1379L10.4818 99.5693L1.86914 115.857V120.068C1.86914 122.24 3.62984 124 5.80178 124H120.093C122.265 124 124.026 122.24 124.026 120.068V115.857L121.199 99.5691L124.026 75.1379Z" fill="#F8F6F6"/>
<path d="M124.023 75.1379V70.9268C124.023 68.7548 122.263 66.9941 120.091 66.9941H114.438C116.609 66.9941 118.37 68.7548 118.37 70.9268V120.068C118.37 122.24 116.609 124 114.438 124H120.091C122.263 124 124.023 122.24 124.023 120.068V115.857L121.197 99.5691L124.023 75.1379Z" fill="#E2E2E2"/>
<path d="M1.86914 75.1377H124.026V115.856H1.86914V75.1377Z" fill="#511B4B"/>
<path d="M0.947266 75.1377H6.60041V115.856H0.947266V75.1377Z" fill="#E0C7DD"/>
<path d="M91.032 105.485C90.7899 105.486 90.5502 105.438 90.3265 105.345C90.1029 105.253 89.8996 105.117 89.7284 104.946C89.5573 104.775 89.4215 104.571 89.3288 104.348C89.2362 104.124 89.1885 103.884 89.1885 103.642V87.3849C89.1882 86.9917 89.3137 86.6087 89.5466 86.2919C89.7795 85.9751 90.1077 85.7411 90.483 85.6241C90.8584 85.5071 91.2614 85.5132 91.6331 85.6415C92.0047 85.7699 92.3256 86.0137 92.5488 86.3374L100.552 97.9266L100.45 87.3723C100.445 86.8834 100.635 86.4126 100.977 86.0636C101.32 85.7146 101.787 85.5158 102.276 85.5111C103.3 85.4968 104.127 86.3188 104.137 87.3367L104.289 103.075C104.289 104.105 103.718 104.936 102.834 105.212C101.971 105.482 101.057 105.144 100.507 104.35L92.8753 93.2979V103.642C92.8754 103.884 92.8277 104.124 92.7351 104.347C92.6425 104.571 92.5067 104.774 92.3356 104.946C92.1644 105.117 91.9612 105.253 91.7375 105.345C91.5138 105.438 91.2741 105.486 91.032 105.485ZM29.1248 105.485C26.4292 105.485 23.7969 104.357 22.0829 102.465C21.9204 102.286 21.7947 102.076 21.7132 101.848C21.6316 101.621 21.5958 101.379 21.6077 101.137C21.6196 100.895 21.679 100.658 21.7825 100.439C21.886 100.22 22.0317 100.024 22.211 99.8617C22.3904 99.6991 22.6001 99.5735 22.828 99.4919C23.0559 99.4104 23.2977 99.3745 23.5395 99.3864C23.7812 99.3983 24.0183 99.4577 24.2371 99.5613C24.456 99.6648 24.6523 99.8104 24.8148 99.9898C25.8414 101.122 27.4525 101.799 29.1248 101.799C30.7997 101.799 31.9831 100.776 32.1594 99.788C32.4011 98.4342 30.6607 97.6364 29.901 97.356C27.381 96.4265 25.1437 95.4304 25.0495 95.3887C24.9607 95.349 24.8752 95.3025 24.7937 95.2494C23.1398 94.171 22.2876 92.2797 22.57 90.3132C22.8717 88.2127 24.4108 86.5007 26.5866 85.8451C30.9375 84.5346 34.5229 87.491 34.6735 87.6174C35.0411 87.9331 35.2696 88.3809 35.3095 88.8638C35.3495 89.3467 35.1977 89.8259 34.887 90.1978C34.5763 90.5697 34.1318 90.8042 33.6494 90.8508C33.1671 90.8974 32.6859 90.7522 32.3098 90.4466C32.2538 90.4013 30.0504 88.6515 27.6498 89.3752C26.4985 89.722 26.2657 90.513 26.2192 90.837C26.148 91.3347 26.3302 91.7951 26.7099 92.0911C27.2575 92.3311 29.1461 93.1477 31.1768 93.8968C35.1746 95.3713 36.1804 98.2417 35.7888 100.436C35.2666 103.362 32.4638 105.485 29.1248 105.485ZM50.3135 105.485C44.8067 105.485 40.3262 101.005 40.3262 95.4982C40.3262 89.9913 44.8064 85.5111 50.3135 85.5111C55.8204 85.5111 60.3006 89.9911 60.3006 95.4982C60.3004 101.005 55.8204 105.485 50.3135 105.485ZM50.3135 89.1981C46.8393 89.1981 44.013 92.0245 44.013 95.4984C44.013 98.9726 46.8393 101.799 50.3135 101.799C53.7874 101.799 56.6138 98.9726 56.6138 95.4984C56.6135 92.0245 53.7872 89.1981 50.3135 89.1981ZM74.7444 105.485C69.2376 105.485 64.7573 101.005 64.7573 95.4982C64.7573 89.9913 69.2373 85.5111 74.7444 85.5111C80.2513 85.5111 84.7317 89.9911 84.7317 95.4982C84.7317 101.005 80.2515 105.485 74.7444 105.485ZM74.7444 89.1981C71.2705 89.1981 68.4441 92.0245 68.4441 95.4984C68.4441 98.9726 71.2705 101.799 74.7444 101.799C78.2186 101.799 81.0449 98.9726 81.0449 95.4984C81.0449 92.0245 78.2186 89.1981 74.7444 89.1981Z" fill="#F8F6F6"/>
<path d="M12.0478 32.1903H3.90396C3.41505 32.1903 2.94618 31.9961 2.60047 31.6503C2.25476 31.3046 2.06055 30.8358 2.06055 30.3469C2.06055 29.858 2.25476 29.3891 2.60047 29.0434C2.94618 28.6977 3.41505 28.5035 3.90396 28.5035H12.0478C13.0659 28.5035 13.891 29.3286 13.891 30.347C13.891 31.3654 13.0659 32.1903 12.0478 32.1903ZM11.5428 60.6936C11.1369 60.6938 10.7423 60.56 10.4201 60.313C10.098 60.0661 9.86634 59.7197 9.76114 59.3277C9.65593 58.9356 9.68303 58.5198 9.83825 58.1448C9.99346 57.7697 10.2681 57.4563 10.6196 57.2533L17.6723 53.1811C18.0952 52.9453 18.5939 52.8853 19.0606 53.0141C19.5273 53.1429 19.9247 53.4502 20.1668 53.8695C20.4088 54.2888 20.4762 54.7865 20.3544 55.2551C20.2326 55.7237 19.9313 56.1256 19.5156 56.3739L12.4629 60.446C12.1834 60.6082 11.8659 60.6936 11.5428 60.6936ZM114.349 60.6936C114.026 60.6936 113.709 60.6083 113.429 60.4463L106.376 56.3741C106.167 56.2531 105.983 56.092 105.836 55.8999C105.688 55.7079 105.58 55.4887 105.518 55.2549C105.455 55.0211 105.439 54.7772 105.47 54.5372C105.502 54.2972 105.581 54.0658 105.702 53.8561C105.946 53.4327 106.349 53.1238 106.821 52.9973C107.055 52.9346 107.299 52.9186 107.539 52.9502C107.779 52.9818 108.01 53.0604 108.22 53.1814L115.272 57.2535C115.624 57.4565 115.899 57.7698 116.054 58.1449C116.209 58.52 116.236 58.9358 116.131 59.3279C116.026 59.7199 115.794 60.0663 115.472 60.3132C115.15 60.5602 114.755 60.6939 114.349 60.6936ZM121.988 32.1903H113.845C112.826 32.1903 112.001 31.3651 112.001 30.347C112.001 29.3288 112.826 28.5035 113.845 28.5035H121.988C122.477 28.5035 122.946 28.6977 123.292 29.0434C123.637 29.3891 123.832 29.858 123.832 30.3469C123.832 30.8358 123.637 31.3046 123.292 31.6503C122.946 31.9961 122.477 32.1903 121.988 32.1903ZM107.3 7.75912C106.894 7.75937 106.499 7.62565 106.177 7.37871C105.855 7.13177 105.623 6.7854 105.518 6.39335C105.413 6.0013 105.44 5.58547 105.595 5.21038C105.75 4.8353 106.025 4.52191 106.376 4.31885L113.429 0.246953C113.853 0.00251738 114.356 -0.0637171 114.828 0.0628202C115.3 0.189357 115.703 0.498301 115.947 0.921687C116.192 1.34507 116.258 1.84822 116.131 2.32044C116.005 2.79266 115.696 3.19528 115.272 3.43971L108.22 7.51161C107.94 7.67382 107.623 7.75922 107.3 7.75912ZM18.5924 7.75912C18.2795 7.75912 17.9627 7.67944 17.6723 7.51185L10.6196 3.43995C10.1962 3.19552 9.88725 2.7929 9.76071 2.32068C9.69805 2.08686 9.68207 1.84299 9.71366 1.60299C9.74525 1.36299 9.82381 1.13157 9.94484 0.921929C10.0659 0.71229 10.227 0.528542 10.4191 0.381178C10.6111 0.233813 10.8303 0.125717 11.0641 0.0630624C11.5363 -0.0634749 12.0395 0.00275958 12.4629 0.247195L19.5156 4.31909C19.8671 4.52208 20.1419 4.83541 20.2971 5.21048C20.4524 5.58555 20.4795 6.00138 20.3743 6.39344C20.2691 6.7855 20.0374 7.13187 19.7152 7.37881C19.393 7.62574 18.9983 7.75943 18.5924 7.75912Z" fill="#511B4B"/>
<path d="M64.3125 40.1164H89.5818C90.1217 40.1163 90.6394 39.9017 91.0211 39.52C91.4028 39.1382 91.6172 38.6204 91.6172 38.0806V17.7211C91.6172 17.4538 91.5646 17.1891 91.4623 16.9421C91.3601 16.6951 91.2101 16.4707 91.0211 16.2817C90.8322 16.0926 90.6078 15.9426 90.3608 15.8403C90.1139 15.738 89.8492 15.6853 89.5818 15.6853H64.3125C63.7726 15.6851 63.2549 15.4706 62.8732 15.0888C62.4916 14.707 62.2771 14.1893 62.2771 13.6494V3.88445C62.2771 2.13513 60.2176 1.20028 58.9015 2.35237L31.1512 26.6414C30.3597 27.3343 30.3597 28.4679 31.1512 29.1606L58.9015 53.4493C60.2176 54.6012 62.2771 53.6663 62.2771 51.9173V42.1525C62.2771 41.8852 62.3297 41.6204 62.4319 41.3734C62.5342 41.1264 62.6841 40.902 62.8731 40.7129C63.0621 40.5238 63.2865 40.3738 63.5335 40.2715C63.7804 40.1691 64.0451 40.1165 64.3125 40.1164Z" fill="#511B4B"/>
<path d="M31.1495 29.1603L58.8998 53.4493C60.2158 54.6012 62.2754 53.6663 62.2754 51.9173V51.4559L36.8026 29.1603C36.0109 28.4674 36.0109 27.3338 36.8026 26.6411L62.2754 4.34557V3.88445C62.2754 2.13513 60.2158 1.20028 58.8998 2.35237L31.1495 26.6414C30.3577 27.334 30.3577 28.4677 31.1495 29.1603Z" fill="#E0C7DD"/>
</svg>
