<svg width="154" height="153" viewBox="0 0 154 153" fill="none" xmlns="http://www.w3.org/2000/svg">
<g clip-path="url(#clip0_345_14613)">
<path d="M153.125 76.4425C153.124 91.5075 148.657 106.234 140.287 118.76C131.917 131.286 120.021 141.048 106.102 146.813C92.184 152.578 76.8688 154.087 62.0933 151.147C47.3178 148.208 33.7457 140.954 23.0931 130.301C12.4406 119.649 5.18608 106.077 2.24694 91.301C-0.692192 76.5256 0.81606 61.2103 6.58098 47.292C12.3459 33.3737 22.1086 21.4775 34.6344 13.1075C47.1603 4.73762 61.8869 0.269973 76.9519 0.269544C86.9566 0.263833 96.8644 2.23021 106.109 6.05623C115.353 9.88226 123.753 15.4929 130.827 22.5674C137.901 29.6418 143.512 38.0413 147.338 47.2856C151.164 56.5299 153.131 66.4377 153.125 76.4425ZM141.222 76.4425C141.222 63.731 137.453 51.305 130.391 40.7359C123.329 30.1667 113.291 21.929 101.547 17.0645C89.8032 12.2001 76.8806 10.9273 64.4133 13.4072C51.9461 15.8871 40.4943 22.0082 31.5059 30.9966C22.5176 39.9849 16.3964 51.4368 13.9165 63.904C11.4367 76.3712 12.7094 89.2938 17.5739 101.038C22.4383 112.782 30.676 122.819 41.2452 129.881C51.8144 136.943 64.2404 140.713 76.9519 140.713C85.3933 140.718 93.7529 139.059 101.553 135.83C109.353 132.602 116.44 127.868 122.409 121.899C128.378 115.93 133.112 108.843 136.34 101.043C139.568 93.2436 141.227 84.8839 141.222 76.4425Z" fill="#511B4B"/>
<path d="M109.144 53.3343C110.208 54.4007 110.805 55.8458 110.805 57.3525C110.805 58.8592 110.208 60.3043 109.144 61.3708L70.9767 99.5485C69.9099 100.612 68.4649 101.21 66.9584 101.21C65.4519 101.21 64.0069 100.612 62.9402 99.5485L44.7625 81.3773C44.1947 80.8589 43.7379 80.2309 43.4197 79.531C43.1014 78.8312 42.9284 78.0741 42.9109 77.3055C42.8934 76.537 43.0319 75.7728 43.318 75.0592C43.6042 74.3457 44.0319 73.6975 44.5756 73.1539C45.1192 72.6103 45.7673 72.1825 46.4809 71.8964C47.1945 71.6102 47.9586 71.4717 48.7272 71.4892C49.4958 71.5067 50.2529 71.6798 50.9527 71.998C51.6526 72.3162 52.2806 72.773 52.799 73.3408L66.9454 87.4872L101.09 53.3408C102.156 52.277 103.601 51.6797 105.108 51.6797C106.614 51.6797 108.059 52.277 109.126 53.3408L109.144 53.3343Z" fill="#511B4B"/>
</g>
<defs>
<clipPath id="clip0_345_14613">
<rect width="152.344" height="152.344" fill="white" transform="translate(0.78125 0.269531)"/>
</clipPath>
</defs>
</svg>
