<svg width="40" height="40" viewBox="0 0 40 40" fill="none" xmlns="http://www.w3.org/2000/svg">
<g clip-path="url(#clip0_403_72929)">
<g clip-path="url(#clip1_403_72929)">
<circle cx="29.0965" cy="27.5746" r="7.57653" fill="white"/>
<path d="M23.7587 0.712891H5.27658C2.83372 0.712891 0.856934 2.68968 0.856934 5.13253V30.0432C0.856934 32.4861 2.83372 34.4629 5.27658 34.4629H18.3748C17.0248 32.3254 16.1248 29.8022 16.1248 26.9093V22.9879C15.8837 23.1325 15.6105 23.2129 15.3212 23.2129H7.28551C6.40158 23.2129 5.67836 22.4897 5.67836 21.6057C5.67836 20.7218 6.40158 19.9986 7.28551 19.9986H15.3212C15.6266 19.9986 15.8998 20.079 16.1409 20.2236C16.2051 18.8575 16.848 17.604 17.8605 16.7843H7.28551C6.40158 16.7843 5.67836 16.0611 5.67836 15.1772C5.67836 14.2932 6.40158 13.57 7.28551 13.57H21.7498C22.4248 13.57 23.0034 13.9879 23.2444 14.5825L27.8248 13.0236C27.9373 12.9754 28.0498 12.9432 28.1784 12.9272V5.13253C28.1784 2.68968 26.2016 0.712891 23.7587 0.712891ZM13.7141 10.3557H7.28551C6.40158 10.3557 5.67836 9.63253 5.67836 8.7486C5.67836 7.86468 6.40158 7.14146 7.28551 7.14146H13.7141C14.598 7.14146 15.3212 7.86468 15.3212 8.7486C15.3212 9.63253 14.598 10.3557 13.7141 10.3557Z" fill="black"/>
<path d="M38.3387 18.9364L29.9012 16.0661C29.565 15.9519 29.2007 15.9519 28.8645 16.0661L20.427 18.9364C20.1093 19.0447 19.8335 19.2497 19.6381 19.5226C19.4427 19.7955 19.3376 20.1227 19.3374 20.4584V26.9159C19.3374 35.0593 28.3679 38.9936 28.752 39.1575C28.9519 39.2411 29.1664 39.284 29.383 39.2837C29.5996 39.2835 29.814 39.24 30.0137 39.1559C30.3978 38.992 39.4283 35.0593 39.4283 26.9159V20.4584C39.4286 20.1226 39.3237 19.7952 39.1282 19.5222C38.9328 19.2492 38.6566 19.0443 38.3387 18.9364ZM35.089 24.9809L30.2676 31.4095C30.1182 31.6094 29.9242 31.7717 29.7009 31.8833C29.4777 31.9949 29.2315 32.0528 28.9819 32.0523C28.7708 32.0527 28.5617 32.0113 28.3667 31.9305C28.1716 31.8497 27.9946 31.731 27.8456 31.5814L24.6313 28.3671C24.4821 28.2179 24.3638 28.0408 24.283 27.8458C24.2022 27.6509 24.1607 27.4419 24.1607 27.2309C24.1607 27.0199 24.2022 26.8109 24.283 26.616C24.3638 26.421 24.4821 26.2439 24.6313 26.0946C24.7805 25.9454 24.9577 25.8271 25.1526 25.7463C25.3476 25.6656 25.5566 25.624 25.7676 25.624C25.9786 25.624 26.1876 25.6656 26.3825 25.7463C26.5775 25.8271 26.7546 25.9454 26.9038 26.0946L28.8083 27.9991L32.5176 23.0523C32.7733 22.7113 33.1541 22.4859 33.576 22.4256C33.7849 22.3958 33.9977 22.4074 34.2022 22.4597C34.4066 22.5121 34.5987 22.6043 34.7676 22.7309C34.9364 22.8575 35.0787 23.0162 35.1862 23.1978C35.2937 23.3794 35.3644 23.5804 35.3943 23.7893C35.4241 23.9983 35.4125 24.211 35.3602 24.4155C35.3078 24.6199 35.2156 24.812 35.089 24.9809Z" fill="#511B4B"/>
</g>
</g>
<defs>
<clipPath id="clip0_403_72929">
<rect width="38.5714" height="38.5714" fill="white" transform="translate(0.856934 0.712891)"/>
</clipPath>
<clipPath id="clip1_403_72929">
<rect width="38.5714" height="38.5714" fill="white" transform="translate(0.856934 0.712891)"/>
</clipPath>
</defs>
</svg>
