<svg width="33" height="31" viewBox="0 0 33 31" fill="none" xmlns="http://www.w3.org/2000/svg">
<g clip-path="url(#clip0_350_24553)">
<path fill-rule="evenodd" clip-rule="evenodd" d="M9.91634 10.9785C9.44669 10.9785 8.99627 11.1651 8.66417 11.4972C8.33208 11.8293 8.14551 12.2797 8.14551 12.7493C8.14551 13.219 8.33208 13.6694 8.66417 14.0015C8.99627 14.3336 9.44669 14.5202 9.91634 14.5202C10.386 14.5202 10.8364 14.3336 11.1685 14.0015C11.5006 13.6694 11.6872 13.219 11.6872 12.7493C11.6872 12.2797 11.5006 11.8293 11.1685 11.4972C10.8364 11.1651 10.386 10.9785 9.91634 10.9785ZM6.02051 12.7493C6.02051 11.7161 6.43096 10.7252 7.16157 9.99458C7.89218 9.26397 8.8831 8.85352 9.91634 8.85352C10.9496 8.85352 11.9405 9.26397 12.6711 9.99458C13.4017 10.7252 13.8122 11.7161 13.8122 12.7493C13.8122 13.7826 13.4017 14.7735 12.6711 15.5041C11.9405 16.2347 10.9496 16.6452 9.91634 16.6452C8.8831 16.6452 7.89218 16.2347 7.16157 15.5041C6.43096 14.7735 6.02051 13.7826 6.02051 12.7493ZM14.3732 22.1064C12.6023 24.0898 10.755 26.7998 8.80284 30.2707C8.66381 30.5147 8.4338 30.6938 8.16309 30.7688C7.89239 30.8437 7.60303 30.8084 7.35829 30.6706C7.11354 30.5328 6.93333 30.3036 6.85705 30.0333C6.78078 29.763 6.81465 29.4734 6.95126 29.228C8.94451 25.6863 10.8768 22.8303 12.7879 20.6912C14.6933 18.5563 16.6299 17.0758 18.6416 16.3803C20.6929 15.6691 22.74 15.8023 24.7602 16.7429C26.7435 17.668 28.6659 19.3553 30.5742 21.697C30.7523 21.9155 30.8363 22.1958 30.8077 22.4762C30.7792 22.7566 30.6404 23.0142 30.4219 23.1923C30.2034 23.3704 29.9231 23.4544 29.6427 23.4258C29.3623 23.3973 29.1047 23.2585 28.9266 23.04C27.1246 20.8272 25.4416 19.4063 23.862 18.6696C22.3178 17.9499 20.8403 17.8678 19.3372 18.3863C17.7958 18.9218 16.1483 20.1188 14.3732 22.1064Z" fill="black"/>
<path fill-rule="evenodd" clip-rule="evenodd" d="M2.32459 5.15808C2.94952 4.53324 3.6914 4.03762 4.50788 3.6995C5.32437 3.36139 6.19945 3.18741 7.08317 3.1875H17.3965C17.6783 3.1875 17.9485 3.29944 18.1478 3.4987C18.3471 3.69796 18.459 3.96821 18.459 4.25C18.459 4.53179 18.3471 4.80204 18.1478 5.0013C17.9485 5.20056 17.6783 5.3125 17.3965 5.3125H7.08317C5.86207 5.3125 4.69098 5.79758 3.82753 6.66103C2.96408 7.52448 2.479 8.69557 2.479 9.91667V24.0833C2.479 25.3044 2.96408 26.4755 3.82753 27.339C4.69098 28.2024 5.86207 28.6875 7.08317 28.6875H24.0832C25.3043 28.6875 26.4754 28.2024 27.3388 27.339C28.2023 26.4755 28.6873 25.3044 28.6873 24.0833V17C28.6873 16.7182 28.7993 16.448 28.9985 16.2487C29.1978 16.0494 29.468 15.9375 29.7498 15.9375C30.0316 15.9375 30.3019 16.0494 30.5011 16.2487C30.7004 16.448 30.8123 16.7182 30.8123 17V24.0833C30.8123 25.868 30.1034 27.5796 28.8414 28.8416C27.5794 30.1035 25.8679 30.8125 24.0832 30.8125H7.08317C5.29848 30.8125 3.58689 30.1035 2.32493 28.8416C1.06297 27.5796 0.354004 25.868 0.354004 24.0833V9.91667C0.354004 8.13167 1.06234 6.42033 2.32459 5.15808Z" fill="black"/>
<path fill-rule="evenodd" clip-rule="evenodd" d="M26.5625 0.113281C26.8443 0.113281 27.1145 0.225223 27.3138 0.42448C27.5131 0.623738 27.625 0.893989 27.625 1.17578V12.5091C27.625 12.7909 27.5131 13.0612 27.3138 13.2604C27.1145 13.4597 26.8443 13.5716 26.5625 13.5716C26.2807 13.5716 26.0105 13.4597 25.8112 13.2604C25.6119 13.0612 25.5 12.7909 25.5 12.5091V1.17578C25.5 0.893989 25.6119 0.623738 25.8112 0.42448C26.0105 0.225223 26.2807 0.113281 26.5625 0.113281Z" fill="black"/>
<path fill-rule="evenodd" clip-rule="evenodd" d="M25.8115 0.424721C25.9102 0.325987 26.0273 0.247663 26.1563 0.194224C26.2852 0.140786 26.4234 0.113281 26.563 0.113281C26.7026 0.113281 26.8408 0.140786 26.9698 0.194224C27.0987 0.247663 27.2159 0.325987 27.3146 0.424721L31.8479 4.95806C32.0356 5.15947 32.1378 5.42587 32.1329 5.70113C32.128 5.97639 32.0165 6.23902 31.8219 6.43369C31.6272 6.62835 31.3646 6.73986 31.0893 6.74472C30.8141 6.74958 30.5477 6.6474 30.3462 6.45972L26.5637 2.67722L22.7812 6.45972C22.684 6.56411 22.5667 6.64784 22.4363 6.70591C22.306 6.76398 22.1653 6.79521 22.0226 6.79773C21.88 6.80024 21.7383 6.774 21.606 6.72056C21.4737 6.66712 21.3535 6.58759 21.2526 6.48669C21.1517 6.3858 21.0722 6.26562 21.0187 6.13332C20.9653 6.00102 20.9391 5.85931 20.9416 5.71665C20.9441 5.57399 20.9753 5.43329 21.0334 5.30296C21.0915 5.17263 21.1752 5.05533 21.2796 4.95806L25.8115 0.424721Z" fill="black"/>
</g>
<defs>
<clipPath id="clip0_350_24553">
<rect width="33" height="31" fill="white"/>
</clipPath>
</defs>
</svg>
