<svg width="20" height="50" viewBox="0 0 20 50" fill="none" xmlns="http://www.w3.org/2000/svg">
<path d="M10.749 48.8477V47.1062H11.8888V44.8181H10.749V43.7059H11.8888V40.4413H10.749V20.6079H11.2063C11.2723 20.6081 11.3376 20.5954 11.3985 20.5706C11.4595 20.5458 11.5149 20.5094 11.5616 20.4634C11.6083 20.4174 11.6454 20.3627 11.6706 20.3026C11.6959 20.2424 11.7089 20.178 11.7089 20.1128V19.4075C11.7089 19.2759 11.656 19.1496 11.5617 19.0565C11.4675 18.9634 11.3396 18.9111 11.2063 18.9111H8.87175C8.73845 18.9111 8.61061 18.9634 8.51635 19.0565C8.42209 19.1496 8.36914 19.2759 8.36914 19.4075V20.1128C8.36914 20.178 8.38214 20.2424 8.40742 20.3026C8.4327 20.3627 8.46974 20.4174 8.51643 20.4634C8.56312 20.5094 8.61855 20.5458 8.67952 20.5706C8.74049 20.5954 8.80581 20.6081 8.87175 20.6079H9.33592V48.8477C9.33592 48.8939 9.34512 48.9395 9.36299 48.9822C9.38087 49.0248 9.40707 49.0635 9.4401 49.0961C9.47312 49.1287 9.51234 49.1546 9.55549 49.1723C9.59864 49.1899 9.64489 49.199 9.6916 49.199H10.3961C10.4899 49.1983 10.5797 49.161 10.6458 49.0952C10.7119 49.0294 10.749 48.9404 10.749 48.8477Z" fill="#511B4B"/>
<path d="M9.90736 17.871L10.7313 18.693C10.9354 18.9087 11.1812 19.0817 11.4543 19.2017C11.7274 19.3217 12.0221 19.3863 12.3209 19.3916C12.6197 19.3969 12.9166 19.3428 13.1939 19.2326C13.4711 19.1223 13.7231 18.9582 13.9349 18.7499C14.1466 18.5415 14.3138 18.2933 14.4265 18.0199C14.5393 17.7465 14.5952 17.4535 14.591 17.1583C14.5868 16.8632 14.5225 16.5718 14.4021 16.3017C14.2816 16.0315 14.1074 15.788 13.8898 15.5856L13.8816 15.5775L8.90762 10.6758L8.10014 11.4733L13.0755 16.3777C13.1765 16.4776 13.2566 16.5961 13.3112 16.7265C13.3658 16.8569 13.3939 16.9966 13.3938 17.1378C13.3938 17.2789 13.3656 17.4186 13.3108 17.549C13.2561 17.6793 13.1759 17.7977 13.0748 17.8975C12.9737 17.9972 12.8537 18.0763 12.7217 18.1303C12.5897 18.1842 12.4482 18.212 12.3053 18.2119C12.1624 18.2118 12.0209 18.184 11.8889 18.1299C11.757 18.0759 11.6371 17.9966 11.5361 17.8968L9.88814 16.253L8.28416 17.9253C8.18439 18.0285 8.06479 18.1111 7.93237 18.1681C7.79994 18.2252 7.65733 18.2556 7.51287 18.2576C7.3684 18.2596 7.22497 18.2332 7.09096 18.1799C6.95695 18.1265 6.83504 18.0474 6.73236 17.947L6.71863 17.9334C6.5151 17.732 6.40079 17.4591 6.40079 17.1746C6.40079 16.89 6.5151 16.6171 6.71863 16.4157L9.35942 13.7628L8.54507 12.972L5.9029 15.6196C5.48738 16.0325 5.25415 16.591 5.25415 17.1732C5.25415 17.7554 5.48738 18.3139 5.9029 18.7269L5.91114 18.7337L5.9235 18.7472C6.1341 18.9532 6.38417 19.1157 6.65908 19.2252C6.934 19.3346 7.22825 19.3888 7.52463 19.3847C7.82102 19.3805 8.11358 19.318 8.38523 19.2009C8.65688 19.0838 8.90217 18.9143 9.10674 18.7025L9.90736 17.871Z" fill="#511B4B"/>
<path d="M9.2949 9.1294L8.48605 8.33189L3.52168 13.2458C3.31857 13.4484 3.04233 13.5631 2.75366 13.5646C2.465 13.5661 2.18753 13.4544 1.98224 13.254C1.88085 13.1542 1.80039 13.0356 1.7455 12.905C1.6906 12.7744 1.66234 12.6344 1.66234 12.4931C1.66234 12.3517 1.6906 12.2117 1.7455 12.0811C1.80039 11.9506 1.88085 11.832 1.98224 11.7322L3.64527 10.1046L1.96164 8.5177C1.85688 8.41935 1.77305 8.30135 1.71505 8.17059C1.65705 8.03984 1.62605 7.89896 1.62388 7.75623C1.62171 7.61349 1.64839 7.47176 1.70238 7.33934C1.75637 7.20692 1.83658 7.08648 1.9383 6.98506L1.95203 6.9715C2.15623 6.76999 2.43308 6.6568 2.72175 6.6568C3.01041 6.6568 3.28726 6.76999 3.49146 6.9715L6.17758 9.56613L6.9782 8.76184L4.29208 6.15364C4.08391 5.94941 3.83698 5.78775 3.56545 5.67794C3.29391 5.56812 3.0031 5.51231 2.70968 5.5137C2.41627 5.51508 2.12601 5.57364 1.85555 5.68601C1.58509 5.79839 1.33974 5.96237 1.13356 6.16856L1.1212 6.18212C0.912737 6.39001 0.7483 6.63683 0.637487 6.90818C0.526675 7.17953 0.471708 7.46996 0.475799 7.76252C0.47989 8.05508 0.542955 8.3439 0.661312 8.61212C0.77967 8.88034 0.950949 9.12259 1.16515 9.32471L2.00147 10.1114L1.16926 10.9252C0.961653 11.1299 0.796946 11.373 0.684568 11.6406C0.57219 11.9083 0.514346 12.1952 0.514346 12.4849C0.514346 12.7747 0.57219 13.0616 0.684568 13.3292C0.796946 13.5968 0.961653 13.84 1.16926 14.0447L1.1775 14.0528C1.59747 14.4634 2.16525 14.6926 2.75617 14.6901C3.34709 14.6875 3.91283 14.4534 4.32916 14.0393L9.2949 9.1294Z" fill="#511B4B"/>
<path d="M11.6707 8.70755L6.68985 3.80447C6.58826 3.70526 6.50748 3.58723 6.45213 3.45714C6.39679 3.32704 6.36797 3.18745 6.36733 3.04634C6.36669 2.90523 6.39424 2.76539 6.44841 2.63481C6.50258 2.50424 6.58229 2.3855 6.68299 2.2854C6.78394 2.18509 6.90398 2.10549 7.0362 2.05117C7.16841 1.99685 7.31019 1.96888 7.45339 1.96888C7.59659 1.96888 7.73838 1.99685 7.87059 2.05117C8.00281 2.10549 8.12285 2.18509 8.2238 2.2854L9.87173 3.92789L11.4784 2.26505C11.5782 2.16184 11.6978 2.07929 11.8302 2.02223C11.9627 1.96517 12.1053 1.93475 12.2497 1.93273C12.3942 1.93071 12.5376 1.95713 12.6716 2.01047C12.8057 2.0638 12.9276 2.14297 13.0302 2.24335L13.044 2.25556C13.2468 2.45707 13.3606 2.72963 13.3606 3.01374C13.3606 3.29784 13.2468 3.57041 13.044 3.77192L10.4032 6.42623L11.2175 7.21696L13.8679 4.56672C14.283 4.15384 14.516 3.59559 14.516 3.01374C14.516 2.43188 14.283 1.87363 13.8679 1.46076L13.8597 1.45262L13.8473 1.44041C13.6367 1.2344 13.3867 1.07192 13.1118 0.962472C12.8368 0.853021 12.5426 0.79879 12.2462 0.802958C11.9498 0.807125 11.6573 0.869603 11.3856 0.98674C11.114 1.10388 10.8687 1.27332 10.6641 1.48517L9.8676 2.30981L9.04364 1.48924C8.62571 1.07556 8.05851 0.842808 7.46681 0.842172C6.87512 0.841536 6.3074 1.07307 5.88855 1.48585C5.46971 1.89862 5.23404 2.45882 5.2334 3.04321C5.23276 3.6276 5.46719 4.18831 5.88512 4.60198L5.89336 4.61012L10.8673 9.51185L11.6707 8.70755Z" fill="#511B4B"/>
<path d="M10.4758 11.0499L11.2847 11.846L16.2491 6.93617C16.4525 6.73409 16.7288 6.61991 17.0174 6.61863C17.3059 6.61736 17.5832 6.72911 17.7885 6.92939C17.8899 7.02919 17.9703 7.14777 18.0252 7.27834C18.0801 7.40892 18.1084 7.54891 18.1084 7.69029C18.1084 7.83167 18.0801 7.97165 18.0252 8.10223C17.9703 8.2328 17.8899 8.35138 17.7885 8.45118L16.1255 10.0788L17.8091 11.6656C17.9139 11.7641 17.9978 11.8822 18.0558 12.0131C18.1138 12.144 18.1448 12.285 18.147 12.4278C18.1491 12.5706 18.1224 12.7125 18.0684 12.845C18.0144 12.9776 17.9342 13.0981 17.8324 13.1996L17.8187 13.2118C17.6154 13.4143 17.3391 13.5287 17.0504 13.5299C16.7617 13.5312 16.4844 13.4192 16.2793 13.2186L13.5932 10.6131L12.7912 11.412L15.4773 14.0202C15.6855 14.2243 15.9325 14.3858 16.204 14.4955C16.4755 14.6052 16.7663 14.661 17.0597 14.6596C17.353 14.6582 17.6433 14.5997 17.9137 14.4874C18.1841 14.3752 18.4295 14.2113 18.6358 14.0053L18.6482 13.9917C18.8566 13.7838 19.0211 13.537 19.1319 13.2657C19.2427 12.9943 19.2977 12.7039 19.2936 12.4113C19.2895 12.1188 19.2264 11.83 19.1081 11.5617C18.9897 11.2935 18.8184 11.0513 18.6042 10.8491L17.7679 10.0611L18.6001 9.24734C18.8077 9.04263 18.9724 8.7995 19.0848 8.53186C19.1972 8.26422 19.255 7.97732 19.255 7.68757C19.255 7.39783 19.1972 7.11093 19.0848 6.84329C18.9724 6.57565 18.8077 6.33252 18.6001 6.12781L18.5919 6.11967C18.1719 5.70909 17.6041 5.4799 17.0132 5.48244C16.4223 5.48499 15.8565 5.71905 15.4402 6.13323L10.4758 11.0499Z" fill="#511B4B"/>
</svg>
