<svg width="46" height="46" viewBox="0 0 46 46" fill="none" xmlns="http://www.w3.org/2000/svg">
<path d="M42.1666 22.9993V32.5827C42.1666 38.3327 38.3332 42.166 32.5832 42.166H13.4166C7.66658 42.166 3.83325 38.3327 3.83325 32.5827V22.9993C3.83325 17.786 6.97659 14.1443 11.8641 13.531C12.3624 13.4543 12.8799 13.416 13.4166 13.416H32.5832C33.0816 13.416 33.5607 13.4352 34.0207 13.5118C38.9657 14.0868 42.1666 17.7477 42.1666 22.9993Z" fill="white" stroke="#511B4B" stroke-width="1.5" stroke-linecap="round" stroke-linejoin="round"/>
<path d="M34.0236 13.5122C33.5636 13.4355 33.0844 13.4164 32.5861 13.4164H13.4194C12.8828 13.4164 12.3653 13.4547 11.8669 13.5314C12.1353 12.9947 12.5186 12.4964 12.9786 12.0364L19.2078 5.78801C21.8336 3.18134 26.0886 3.18134 28.7144 5.78801L32.0686 9.18054C33.2953 10.388 33.9469 11.9213 34.0236 13.5122Z" stroke="#511B4B" stroke-width="1.5" stroke-linecap="round" stroke-linejoin="round"/>
<path d="M42.1667 23.958H36.4167C34.3084 23.958 32.5834 25.683 32.5834 27.7913C32.5834 29.8997 34.3084 31.6247 36.4167 31.6247H42.1667" stroke="#511B4B" stroke-width="1.5" stroke-linecap="round" stroke-linejoin="round"/>
</svg>
