<svg width="28" height="28" viewBox="0 0 28 28" fill="none" xmlns="http://www.w3.org/2000/svg">
<circle cx="14" cy="14" r="14" fill="#E0C7DD"/>
<g clip-path="url(#clip0_430_21298)">
<g clip-path="url(#clip1_430_21298)">
<path d="M13.3476 6.73322C13.3476 5.76396 14.1361 4.97541 15.1054 4.97541H15.7137L15.5302 4.46529C15.427 4.17842 15.1567 4 14.8685 4C14.7887 4 14.7075 4.01371 14.6281 4.04261L8.48091 6.27999C8.11546 6.41302 7.92738 6.81742 8.06118 7.18259L8.38599 8.06916H13.3476V6.73322Z" fill="black"/>
<path d="M15.1055 6.03027C14.7171 6.03027 14.4023 6.34506 14.4023 6.7334V8.06934H20.5547V6.7334C20.5547 6.34506 20.2399 6.03027 19.8516 6.03027H15.1055ZM22.418 18.2119H19.957C18.5031 18.2119 17.3203 17.0291 17.3203 15.5752C17.3203 14.1213 18.5031 12.9385 19.957 12.9385H22.418V10.5303C22.418 9.75364 21.7884 9.12402 21.0117 9.12402H7.40625C6.62961 9.12402 6 9.75364 6 10.5303V20.5939C6 21.3706 6.62961 22.0002 7.40625 22.0002H21.0117C21.7884 22.0002 22.418 21.3706 22.418 20.5939V18.2119Z" fill="#511B4B"/>
<path d="M23.4727 13.9932H19.957C19.0847 13.9932 18.375 14.7029 18.375 15.5752C18.375 16.4475 19.0847 17.1572 19.957 17.1572H23.4727C23.7634 17.1572 24 16.9207 24 16.6299V14.5205C24 14.2297 23.7634 13.9932 23.4727 13.9932ZM19.957 16.1025C19.6658 16.1025 19.4297 15.8664 19.4297 15.5752C19.4297 15.284 19.6658 15.0479 19.957 15.0479C20.2483 15.0479 20.4844 15.284 20.4844 15.5752C20.4844 15.8664 20.2483 16.1025 19.957 16.1025Z" fill="black"/>
</g>
</g>
<defs>
<clipPath id="clip0_430_21298">
<rect width="18" height="18" fill="white" transform="translate(5 5)"/>
</clipPath>
<clipPath id="clip1_430_21298">
<rect width="18" height="18" fill="white" transform="translate(6 4)"/>
</clipPath>
</defs>
</svg>
